<svg xmlns="http://www.w3.org/2000/svg" width="101" height="101" viewBox="0 0 101 101">
  <g id="Grupo_1103841" data-name="Grupo 1103841" transform="translate(-783 -4099)">
    <g id="Grupo_1102314" data-name="Grupo 1102314" transform="translate(34 2350)">
      <rect id="Rectángulo_26083" data-name="Rectángulo 26083" width="101" height="101" transform="translate(749 1749)" fill="none"/>
      <g id="plan-de-negocios" transform="translate(757.31 1756.908)">
        <path id="Trazado_128395" data-name="Trazado 128395" d="M78.152,55.909a7.514,7.514,0,0,1-7.514,7.514H8.33V3.19H78.152Z" transform="translate(-0.404 -0.106)" fill="#daf2e4"/>
        <path id="Trazado_128396" data-name="Trazado 128396" d="M41.807,24.349A14.239,14.239,0,1,1,27.578,10.11,14.239,14.239,0,0,1,41.807,24.349Z" transform="translate(-0.707 -0.527)" fill="#fff"/>
        <path id="Trazado_879543" data-name="Trazado 879543" d="M11.985,0A11.985,11.985,0,1,1,0,11.985,11.985,11.985,0,0,1,11.985,0Z" transform="translate(43.223 32.162)" fill="#f9ce24"/>
        <path id="Trazado_128397" data-name="Trazado 128397" d="M74.2,45.905A15.535,15.535,0,0,0,58.67,30.38V45.905Z" transform="translate(-3.463 -1.759)" fill="#be79ca"/>
        <g id="Grupo_88646" data-name="Grupo 88646" transform="translate(1.69 1.44)">
          <path id="Trazado_128398" data-name="Trazado 128398" d="M83.985,3.084A1.644,1.644,0,0,0,82.341,1.44H3.334a1.644,1.644,0,0,0,0,3.287H6.217V63.288a1.644,1.644,0,0,0,1.644,1.606H29.219L19.826,81.284a1.644,1.644,0,0,0,.61,2.245,1.691,1.691,0,0,0,.817.216,1.653,1.653,0,0,0,1.428-.836l3.964-6.931,14.464-2.818v4.433a1.644,1.644,0,1,0,3.287,0V73.159l14.746,3.306,3.682,6.443a1.653,1.653,0,0,0,1.428.836,1.691,1.691,0,0,0,.817-.216,1.644,1.644,0,0,0,.61-2.245L56.353,64.894H70.2a9.139,9.139,0,0,0,9.129-9.129V4.727h3.015a1.644,1.644,0,0,0,1.644-1.644ZM28.824,72.2l4.151-7.307h8.152V69.75ZM57,72.6,44.462,69.778V64.894h8.152ZM76.039,55.8A5.851,5.851,0,0,1,70.2,61.644H9.495V4.727H76.039Z" transform="translate(-1.69 -1.44)" fill="#12263f"/>
          <path id="Trazado_128399" data-name="Trazado 128399" d="M57.786,59.427A13.638,13.638,0,0,0,71.3,47.443H73.32A1.644,1.644,0,0,0,75,45.8,17.2,17.2,0,0,0,57.786,28.63a1.644,1.644,0,0,0-1.644,1.644v2.01a13.619,13.619,0,0,0,1.644,27.144ZM71.573,44.155H59.429V32.011A13.9,13.9,0,0,1,71.573,44.155ZM56.142,35.608V45.8a1.644,1.644,0,0,0,1.644,1.644H67.976A10.331,10.331,0,1,1,56.142,35.608Z" transform="translate(-4.269 -3.092)" fill="#12263f"/>
          <path id="Trazado_128400" data-name="Trazado 128400" d="M48.474,20.06a1.644,1.644,0,1,0,0,3.287H63.445a1.644,1.644,0,1,0,0-3.287Z" transform="translate(-4.433 -2.572)" fill="#12263f"/>
          <path id="Trazado_128401" data-name="Trazado 128401" d="M48.474,15.557H70.348a1.644,1.644,0,1,0,0-3.287H48.474a1.644,1.644,0,1,0,0,3.287Z" transform="translate(-4.433 -2.098)" fill="#12263f"/>
          <path id="Trazado_128402" data-name="Trazado 128402" d="M33.94,47.89H21.514a1.644,1.644,0,1,0,0,3.287H33.94a1.644,1.644,0,1,0,0-3.287Z" transform="translate(-2.795 -4.263)" fill="#12263f"/>
          <path id="Trazado_128403" data-name="Trazado 128403" d="M25.864,31.4c-1.878,0-3.456-1.2-3.456-2.63a1.644,1.644,0,1,0-3.287,0c0,3.259,3.024,5.917,6.744,5.917h.723v1.024a1.644,1.644,0,1,0,3.287,0V34.689h.1c3.757,0,6.744-2.658,6.744-5.917v-.216a5.241,5.241,0,0,0-4.283-5.006l-2.564-.526V17.257h.1c1.878,0,3.466,1.2,3.466,2.62a1.644,1.644,0,1,0,3.287,0c0-3.259-3.034-5.908-6.753-5.908h-.1v-.827a1.644,1.644,0,1,0-3.287,0v.827h-.723c-3.757,0-6.744,2.649-6.744,5.908V20.1a5.307,5.307,0,0,0,4.2,4.931l3.269.676V31.4Zm-1.878-9.589a2.057,2.057,0,0,1-1.6-1.709v-.225c0-1.418,1.587-2.62,3.456-2.62h.723v5.091Zm5.87,4.574,1.878.376a1.972,1.972,0,0,1,1.719,1.785v.225c0,1.428-1.587,2.63-3.456,2.63h-.1Z" transform="translate(-2.749 -2.051)" fill="#12263f"/>
        </g>
      </g>
    </g>
  </g>
</svg>
