<svg xmlns="http://www.w3.org/2000/svg" width="101" height="101" viewBox="0 0 101 101">
  <g id="Grupo_1103844" data-name="Grupo 1103844" transform="translate(-783 -4741)">
    <g id="Grupo_1103843" data-name="Grupo 1103843">
      <g id="Grupo_1102316" data-name="Grupo 1102316" transform="translate(34 2992)">
        <rect id="Rectángulo_26083" data-name="Rectángulo 26083" width="101" height="101" transform="translate(749 1749)" fill="none"/>
        <g id="presentacion" transform="translate(750.882 1760.348)">
          <g id="Grupo_88651" data-name="Grupo 88651" transform="translate(9.308 1.191)">
            <path id="Trazado_128404" data-name="Trazado 128404" d="M140.783,57.652H191.2a3.284,3.284,0,0,0,3.284-3.284V10.784A3.284,3.284,0,0,0,191.2,7.5H140.783a3.284,3.284,0,0,0-3.284,3.284V54.368A3.284,3.284,0,0,0,140.783,57.652Z" transform="translate(-118.147 -7.5)" fill="#faf7f7"/>
            <path id="Trazado_128405" data-name="Trazado 128405" d="M381.2,63.8,364.093,66.58l2.775-17.11A14.336,14.336,0,0,1,381.2,63.8Z" transform="translate(-308.763 -42.806)" fill="#be79ca"/>
            <path id="Trazado_128406" data-name="Trazado 128406" d="M319.962,63.8a14.335,14.335,0,1,1-14.336-14.334V63.8Z" transform="translate(-247.521 -42.805)" fill="#f9ce24"/>
            <g id="Grupo_88649" data-name="Grupo 88649" transform="translate(43.745 26.779)">
              <path id="Trazado_128407" data-name="Trazado 128407" d="M300.506,176.173a1.819,1.819,0,0,0-2.053,1.523l-7.329,47.312,4.809.682,6.121-47.484a1.819,1.819,0,0,0-1.549-2.034Z" transform="translate(-291.124 -176.155)" fill="#77af8f"/>
            </g>
            <g id="Grupo_88650" data-name="Grupo 88650" transform="translate(0 9.602)">
              <path id="Trazado_128408" data-name="Trazado 128408" d="M40.268,300.34h-7.2A17.456,17.456,0,0,0,15.615,317.8v14.959H57.724V317.8A17.456,17.456,0,0,0,40.268,300.34Z" transform="translate(-15.615 -263.445)" fill="#75baf1"/>
              <path id="Trazado_128409" data-name="Trazado 128409" d="M38.007,300.342A17.457,17.457,0,0,0,20.55,317.8v14.959H15.615V317.8a17.456,17.456,0,0,1,17.456-17.456Z" transform="translate(-15.615 -263.447)" fill="#3d8fd0"/>
              <path id="Trazado_128410" data-name="Trazado 128410" d="M141.556,365.166l-4.468-26.3h0l-4.468,26.3" transform="translate(-114.041 -295.856)" fill="#6e3dc6"/>
              <path id="Trazado_128411" data-name="Trazado 128411" d="M0,0H6.272V6.272H0Z" transform="translate(23.049 37.478) rotate(45)" fill="#6e3dc6"/>
              <path id="Trazado_128412" data-name="Trazado 128412" d="M117.314,283.542l1.124.828a4.765,4.765,0,0,1,1.869,4.651l-.822,4.743-5.452-5.067-5.452,5.067-2.684-4.457a4.765,4.765,0,0,1,1.256-6.3" transform="translate(-90.986 -248.868)" fill="#5f99d7"/>
              <path id="Trazado_128413" data-name="Trazado 128413" d="M115.082,131.267v13.846a9.2,9.2,0,0,1-7.063,8.947,8.458,8.458,0,0,1-.929.172v3.156a3.676,3.676,0,0,1-4.714,3.526l-.12-.036a7.769,7.769,0,0,1-5.573-7.451V145.67H95.94a2.882,2.882,0,0,1-2.389-4.492c.272-.4-.183-2.812.253-3.035.393-.2.457.046.929.046h.743l1.207-6.923h18.4Z" transform="translate(-80.763 -121.217)" fill="#ffdfcf"/>
              <path id="Trazado_128414" data-name="Trazado 128414" d="M108.02,154.06a8.454,8.454,0,0,1-.929.172,9.215,9.215,0,0,1-3.282-.156v6.97a3.659,3.659,0,0,1-1.432-.131l-.12-.036a7.769,7.769,0,0,1-5.573-7.451V145.67H95.94a2.882,2.882,0,0,1-2.389-4.492c.272-.4-.183-2.812.253-3.035.393-.2.457.046.929.046h.743l1.207-6.923h5.243l.89,2.138v13.829A7.08,7.08,0,0,0,108.02,154.06Z" transform="translate(-80.763 -121.217)" fill="#ffcebf"/>
              <path id="Trazado_128415" data-name="Trazado 128415" d="M104.629,75.031a2.924,2.924,0,0,1-1.313,2.444,25.069,25.069,0,0,1-18.354,3.74l-1.685-.31-.768,3.4a3.022,3.022,0,0,1-2.947,2.356H78.538a2.877,2.877,0,0,0-2.481,1.419h0l-.975-.975a9.238,9.238,0,0,1,7.715-15.7,22.819,22.819,0,0,0,12.648-1.991L98.027,68.2a2.417,2.417,0,0,1,2.256,4.268,2.929,2.929,0,0,1,4.347,2.562Z" transform="translate(-63.36 -67.974)" fill="#7a6d79"/>
              <path id="Trazado_128416" data-name="Trazado 128416" d="M79.059,96.134a9.241,9.241,0,0,0,1.78,8.042,3.026,3.026,0,0,1-1.277.282H78.538a2.877,2.877,0,0,0-2.481,1.419h0l-.975-.975a9.238,9.238,0,0,1,7.715-15.7,22.687,22.687,0,0,0,3.042.186,9.246,9.246,0,0,0-6.777,6.746Z" transform="translate(-63.36 -85.768)" fill="#685e68"/>
            </g>
            <path id="Trazado_128417" data-name="Trazado 128417" d="M272.266,436.047h-3.275a3.8,3.8,0,0,0-3.8,3.8v3.275a3.8,3.8,0,0,0,3.8,3.8h3.275a3.8,3.8,0,0,0,3.8-3.8v-3.275A3.8,3.8,0,0,0,272.266,436.047Z" transform="translate(-225.566 -368.003)" fill="#ffdfcf"/>
            <path id="Trazado_128418" data-name="Trazado 128418" d="M272.053,446.918H268.99a3.8,3.8,0,0,1-3.8-3.8v-3.276a3.8,3.8,0,0,1,3.8-3.8h3.063a3.8,3.8,0,0,0-3.8,3.8v3.276A3.8,3.8,0,0,0,272.053,446.918Z" transform="translate(-225.566 -368.006)" fill="#ffcebf"/>
          </g>
          <g id="Grupo_88652" data-name="Grupo 88652" transform="translate(8.118)">
            <path id="Trazado_128419" data-name="Trazado 128419" d="M82.358,0H31.945a4.48,4.48,0,0,0-4.474,4.476v8.486A10.432,10.432,0,0,0,20.185,30.77l.408.408a4.071,4.071,0,0,0,3.445,5.235V43a8.819,8.819,0,0,0,.126,1.483,5.925,5.925,0,0,0-1.547,2.476,18.473,18.473,0,0,0-9.388,5.358,1.191,1.191,0,1,0,1.729,1.638,16.114,16.114,0,0,1,7.42-4.478,5.982,5.982,0,0,0,.819,2.366L25.882,56.3a1.191,1.191,0,0,0,1.831.258l1.228-1.141,1.651,1.651L26.881,78.912h-6.91V65.11a1.191,1.191,0,0,0-2.382,0v13.8H10.5V65.143a16.116,16.116,0,0,1,1.539-6.916,1.191,1.191,0,0,0-2.155-1.014,18.479,18.479,0,0,0-1.766,7.93V80.1a1.191,1.191,0,0,0,1.191,1.191H51.417a1.185,1.185,0,0,0,.429-.081,5,5,0,0,0,.887.081h3.275A4.993,4.993,0,0,0,61,76.306V73.031a4.96,4.96,0,0,0-.975-2.959l.844-6.546a1.191,1.191,0,0,0-2.362-.3l-.666,5.17a4.96,4.96,0,0,0-1.828-.348h-.391l5.941-38.351a.628.628,0,0,1,1.243.177l-3.59,27.846a1.191,1.191,0,1,0,2.362.3l.707-5.486H82.358a4.481,4.481,0,0,0,4.476-4.476V4.476A4.481,4.481,0,0,0,82.358,0ZM19.75,21.448a8.05,8.05,0,0,1,8.841-6.038A23.968,23.968,0,0,0,41.9,13.315l2.58-1.216a1.233,1.233,0,0,1,1.584.506,1.226,1.226,0,0,1-.41,1.642l-.122.071-1.12.672a1.191,1.191,0,1,0,1.225,2.042l1.1-.659.107-.061a1.738,1.738,0,0,1,2.328.694,1.746,1.746,0,0,1-.561,2.294,23.759,23.759,0,0,1-17.481,3.562l-1.685-.31a1.19,1.19,0,0,0-1.377.909l-.769,3.406a1.819,1.819,0,0,1-1.784,1.426H24.486a4.083,4.083,0,0,0-2.526.884l-.091-.091a8.092,8.092,0,0,1-2.119-7.638ZM23.291,33.56a1.69,1.69,0,0,1-.262-2.051,1.7,1.7,0,0,1,1.457-.834H25.51a4.188,4.188,0,0,0,4.108-3.283l.517-2.29.56.1a26.451,26.451,0,0,0,4.789.439c.292,0,.584-.006.876-.016v2.685a5.848,5.848,0,0,0,2.257,4.633.1.1,0,0,1,.032.041.1.1,0,0,1-.017.108.1.1,0,0,1-.074.032,1.191,1.191,0,1,0,0,2.382,2.482,2.482,0,0,0,1.529-4.437,3.483,3.483,0,0,1-1.345-2.759V25.435a26,26,0,0,0,3.7-.74v9.994a8.021,8.021,0,0,1-6.955,7.938h0a7.9,7.9,0,0,1-1.049.069,8.037,8.037,0,0,1-2.307-.337,7.935,7.935,0,0,1-2.041-.944,1.191,1.191,0,0,0-1.3,2,10.306,10.306,0,0,0,2.653,1.227,10.414,10.414,0,0,0,2.991.437h.016v1.886a2.485,2.485,0,0,1-3.179,2.387l-.128-.039A6.615,6.615,0,0,1,26.419,43V35.246a1.191,1.191,0,0,0-1.191-1.191h-.743a1.683,1.683,0,0,1-1.195-.5Zm14.9,23.257a1.191,1.191,0,0,0,.793-.925l.822-4.743a6.037,6.037,0,0,0,.086-1.156,16.253,16.253,0,0,1,10.338,15.15v3.579a4.989,4.989,0,0,0-2.481,4.31v3.275a4.957,4.957,0,0,0,.737,2.606H46.391V65.11a1.191,1.191,0,1,0-2.382,0v13.8H37.828L34.117,57.07l1.651-1.651L37,56.56a1.191,1.191,0,0,0,1.191.256Zm-.731-6.075-.447,2.579L34.58,51.064c.1-.064.2-.131.3-.2a4.818,4.818,0,0,0,1.859-2.951A3.552,3.552,0,0,1,37.456,50.742ZM27.166,53.818l-1.928-3.2a3.558,3.558,0,0,1-.147-3.425A9,9,0,0,0,29.8,51.37Zm5.189-1.571,1.668,1.55-1.668,1.668L30.686,53.8Zm0,8.666,3.058,18H29.3ZM58.614,73.031v3.275a2.609,2.609,0,0,1-2.606,2.606H52.733a2.609,2.609,0,0,1-2.606-2.606V73.031a2.609,2.609,0,0,1,2.606-2.606h3.275A2.609,2.609,0,0,1,58.614,73.031Zm-5.881-4.988c-.042,0-.083,0-.125,0v-2.9a18.632,18.632,0,0,0-4.9-12.609h7.9l-2.4,15.509ZM62.6,26.809a3.022,3.022,0,0,0-3.4,2.519l-.429,2.77a13.144,13.144,0,0,1,7.448-23V22.189a1.191,1.191,0,0,0,1.191,1.191H80.5A13.152,13.152,0,0,1,64.539,35.018l.624-4.843A3.019,3.019,0,0,0,62.6,26.809Zm21.851,21.25a2.1,2.1,0,0,1-2.094,2.094H62.588l1.646-12.766A15.527,15.527,0,0,0,80.37,13.633a1.191,1.191,0,0,0-1.986,1.315A13.056,13.056,0,0,1,80.5,21h-11.9V9.1a13.056,13.056,0,0,1,6.2,2.219,1.191,1.191,0,0,0,1.341-1.968A15.526,15.526,0,0,0,58.356,34.8L55.978,50.153H45.059A18.572,18.572,0,0,0,39.14,47.23a5.966,5.966,0,0,0-1.674-1.895l-.639-.471V44.8a10.415,10.415,0,0,0,7.992-10.11V23.913a26.391,26.391,0,0,0,5.1-2.627,4.139,4.139,0,0,0,1.33-5.438,4.086,4.086,0,0,0-2.536-1.979q-.082-.022-.164-.04a3.576,3.576,0,0,0-.418-2.4,3.628,3.628,0,0,0-4.666-1.486L40.883,11.16a21.586,21.586,0,0,1-11.031,1.986V4.476a2.1,2.1,0,0,1,2.093-2.094H82.358a2.1,2.1,0,0,1,2.094,2.094V48.059Z" transform="translate(-8.118)"/>
            <path id="Trazado_128420" data-name="Trazado 128420" d="M208.468,172.812v-1.425a1.191,1.191,0,0,0-2.382,0v1.425a1.191,1.191,0,1,0,2.382,0Z" transform="translate(-174.653 -143.173)"/>
            <path id="Trazado_128421" data-name="Trazado 128421" d="M164.981,174a1.191,1.191,0,0,0,1.191-1.191v-1.425a1.191,1.191,0,0,0-2.382,0v1.425A1.191,1.191,0,0,0,164.981,174Z" transform="translate(-139.073 -143.173)"/>
            <path id="Trazado_128422" data-name="Trazado 128422" d="M162.865,226.672a9,9,0,0,0,3.821.9c.213,0,.431-.009.651-.029a1.191,1.191,0,1,0-.216-2.372,6.475,6.475,0,0,1-3.151-.613,1.191,1.191,0,0,0-1.105,2.11Z" transform="translate(-137.759 -188.793)"/>
            <path id="Trazado_128423" data-name="Trazado 128423" d="M403.052,249.024h-9.821a1.191,1.191,0,0,0,0,2.382h9.821a1.191,1.191,0,1,0,0-2.382Z" transform="translate(-331.082 -209.485)"/>
            <path id="Trazado_128424" data-name="Trazado 128424" d="M173.6,33.538h-9.821a1.191,1.191,0,0,0,0,2.382H173.6a1.191,1.191,0,1,0,0-2.382Z" transform="translate(-138.062 -28.213)"/>
            <path id="Trazado_128425" data-name="Trazado 128425" d="M428.229,275.51H423.16a1.191,1.191,0,0,0,0,2.382h5.069a1.191,1.191,0,0,0,0-2.382Z" transform="translate(-356.259 -231.765)"/>
          </g>
        </g>
      </g>
    </g>
  </g>
</svg>
