<svg id="pista-5" xmlns="http://www.w3.org/2000/svg" width="83.958" height="83.958" viewBox="0 0 83.958 83.958">
  <g id="Layer_2">
    <g id="Grupo_1102230" data-name="Grupo 1102230">
      <g id="Grupo_1102228" data-name="Grupo 1102228">
        <g id="Grupo_1102226" data-name="Grupo 1102226" transform="translate(1.055 1.055)">
          <circle id="Elipse_11906" data-name="Elipse 11906" cx="40.621" cy="40.621" r="40.621" transform="translate(0 0)" fill="#fff"/>
        </g>
        <g id="Grupo_1102227" data-name="Grupo 1102227">
          <path id="Trazado_879493" data-name="Trazado 879493" d="M41.979,2.624A39.356,39.356,0,1,1,2.624,41.979,39.4,39.4,0,0,1,41.979,2.624m0-2.624A41.979,41.979,0,1,0,83.959,41.979,41.979,41.979,0,0,0,41.979,0Z"/>
        </g>
      </g>
      <g id="Grupo_1102229" data-name="Grupo 1102229" transform="translate(5.822 5.822)">
        <circle id="Elipse_11907" data-name="Elipse 11907" cx="36.157" cy="36.157" r="36.157" fill="#fc0"/>
      </g>
    </g>
  </g>
  <g id="Number-Icons_copy_6" transform="translate(32.938 22.41)">
    <g id="Grupo_1102233" data-name="Grupo 1102233">
      <g id="Grupo_1102232" data-name="Grupo 1102232">
        <g id="Grupo_1102231" data-name="Grupo 1102231">
          <path id="Trazado_879494" data-name="Trazado 879494" d="M25.676,43.411h4.589v3.179c0,3.68,1.022,5.2,3.454,5.2,2.475,0,3.407-1.863,3.407-5.2V39.095c0-3.862-1.409-4.635-3.2-4.635a4.306,4.306,0,0,0-3.68,2.431H25.9V17.083H42.577v5.2H30.809V31.87a7.353,7.353,0,0,1,5.407-2.317c4.816,0,6.974,3.293,6.974,9.586v6.587c0,7.975-4.451,10.495-9.2,10.495-5.771,0-8.883-3.226-8.883-8.313a19.509,19.509,0,0,1,.568-4.5Z" transform="translate(-25.108 -17.083)" fill="#231f20"/>
        </g>
      </g>
    </g>
  </g>
</svg>
