<svg xmlns="http://www.w3.org/2000/svg" xmlns:xlink="http://www.w3.org/1999/xlink" width="400" height="301.22" viewBox="0 0 400 301.22">
  <defs>
    <clipPath id="clip-path">
      <rect id="Rectángulo_402524" data-name="Rectángulo 402524" width="200.793" height="301.22" fill="none"/>
    </clipPath>
    <clipPath id="clip-path-2">
      <rect id="Rectángulo_402523" data-name="Rectángulo 402523" width="16.992" height="25.134" fill="none"/>
    </clipPath>
  </defs>
  <g id="Grupo_1103834" data-name="Grupo 1103834" transform="translate(-224 -1165.77)">
    <g id="Grupo_1098980" data-name="Grupo 1098980" transform="translate(224 1165.77)">
      <path id="Trazado_145968" data-name="Trazado 145968" d="M66.711,0a66.711,66.711,0,1,0,66.711,66.711A66.711,66.711,0,0,0,66.711,0Z" transform="translate(10.252 161.836)" fill="#be79ca" opacity="0.444"/>
      <path id="Trazado_145969" data-name="Trazado 145969" d="M45.584,0A45.584,45.584,0,1,0,91.168,45.584,45.584,45.584,0,0,0,45.584,0Z" transform="translate(271.561 17.405)" fill="#be79ca"/>
      <rect id="Rectángulo_34812" data-name="Rectángulo 34812" width="400" height="300" transform="translate(0 0.485)" fill="none"/>
      <path id="Trazado_145967" data-name="Trazado 145967" d="M150.485,0A150.485,150.485,0,1,0,300.971,150.485,150.485,150.485,0,0,0,150.485,0Z" transform="translate(49.515)" fill="#fff"/>
      <path id="Trazado_145971" data-name="Trazado 145971" d="M12.533,0A12.533,12.533,0,1,0,25.066,12.533,12.533,12.533,0,0,0,12.533,0Z" transform="translate(315 265.583)" fill="#75baf1"/>
    </g>
    <g id="Grupo_1102252" data-name="Grupo 1102252" transform="translate(323.604 1165.77)">
      <g id="Grupo_1102255" data-name="Grupo 1102255" clip-path="url(#clip-path)">
        <path id="Trazado_879499" data-name="Trazado 879499" d="M182.453,11.477c6.939-4.007,12.556-.773,12.578,7.168l.475,167.692c.024,7.974-5.556,17.67-12.5,21.678L29.877,296.426c-6.939,4.006-12.583.79-12.606-7.185L16.8,121.55c-.022-7.942,5.585-17.656,12.526-21.662Z" transform="translate(5.286 3.071)" fill="#b3ccff"/>
        <path id="Trazado_879500" data-name="Trazado 879500" d="M195.457,186.347c.047,7.977-5.542,17.673-12.468,21.685L29.851,296.448c-6.926,3.964-12.61.764-12.61-7.213l-.335-114.4A51.906,51.906,0,0,0,30.281,176.6c31.43,0,56.938-28.134,56.938-62.813A66.616,66.616,0,0,0,74.274,73.906L182.417,11.475c6.926-4.011,12.561-.764,12.561,7.165Z" transform="translate(5.321 3.07)" fill="#75baf1"/>
        <path id="Trazado_879501" data-name="Trazado 879501" d="M163.625,48.977l.317,111.675L36.484,234.239l-.317-111.675Z" transform="translate(11.383 15.415)" fill="#ff8080"/>
        <path id="Trazado_879502" data-name="Trazado 879502" d="M163.9,160.67,36.462,234.23l-.191-58.991a39.175,39.175,0,0,0,6.734.573c22.785,0,41.271-19.155,41.271-42.8a43.471,43.471,0,0,0-12.707-30.9l92.045-53.116Z" transform="translate(11.416 15.42)" fill="#f15759"/>
        <path id="Trazado_879503" data-name="Trazado 879503" d="M0,87.2.492,254.89c0,3.936,1.387,6.754,3.668,8.051l22.052,12.837c-2.238-1.341-3.623-4.115-3.669-8.1L22.1,100.032a23.175,23.175,0,0,1,2.012-9.02L2.027,78.184A23.533,23.533,0,0,0,0,87.2" transform="translate(0 24.608)" fill="#e1ebfa"/>
        <path id="Trazado_879504" data-name="Trazado 879504" d="M174.1.827c-2.28-1.3-5.413-1.119-8.9.894L12.039,90.154c-4.414,2.535-8.266,7.392-10.5,12.639l22.08,12.828c2.232-5.248,6.1-10.112,10.513-12.673L187.248,14.56c3.489-2.013,6.664-2.192,8.947-.9Z" transform="translate(0.486 0)" fill="#f0f5fc"/>
        <path id="Trazado_879505" data-name="Trazado 879505" d="M93,90.15c19.253-11.107,34.921-2.244,34.985,19.891s-15.5,49.015-34.759,60.122S58.3,172.407,58.236,150.272,73.74,101.257,93,90.15" transform="translate(18.33 26.867)" fill="#fff"/>
        <path id="Trazado_879506" data-name="Trazado 879506" d="M93,90.15c19.253-11.107,34.921-2.244,34.985,19.891s-15.5,49.015-34.759,60.122S58.3,172.407,58.236,150.272,73.74,101.257,93,90.15" transform="translate(18.33 26.867)" fill="#fff"/>
        <path id="Trazado_879507" data-name="Trazado 879507" d="M79.22,108.6a1.988,1.988,0,0,1,1.349-.3l21.9,4.178c1.45.272,1.457,2.7.013,4.638l-21.809,29.4a4.611,4.611,0,0,1-1.338,1.232c-1.274.736-2.463.268-2.468-1.395l-.095-33.539A5.366,5.366,0,0,1,79.22,108.6" transform="translate(24.165 34.079)" fill="#6e3dc6"/>
        <line id="Línea_1703" data-name="Línea 1703" x1="127.458" y2="73.588" transform="translate(47.867 197.328)" fill="none" stroke="#666" stroke-linecap="round" stroke-linejoin="round" stroke-width="3.633"/>
        <path id="Trazado_879508" data-name="Trazado 879508" d="M62.219,185.494c4.415-2.547,8.007-.514,8.021,4.561s-3.555,11.237-7.969,13.784-8.008.515-8.021-4.56,3.554-11.238,7.969-13.785" transform="translate(17.075 58.038)" fill="#f0f5fc"/>
        <g id="Grupo_1102254" data-name="Grupo 1102254" transform="translate(38.964 105.436)" style="isolation: isolate">
          <g id="Grupo_1102253" data-name="Grupo 1102253">
            <g id="Grupo_1102252-2" data-name="Grupo 1102252" clip-path="url(#clip-path-2)">
              <path id="Trazado_879509" data-name="Trazado 879509" d="M38.1,88.433c4.677-2.7,8.509-.515,8.524,4.858L29.636,103.1c-.016-5.372,3.771-11.955,8.468-14.667" transform="translate(-29.637 -77.966)" fill="#666"/>
              <path id="Trazado_879510" data-name="Trazado 879510" d="M36.878,80.671c1.91-1.1,3.453-.225,3.458,1.946A7.548,7.548,0,0,1,36.9,88.567c-1.91,1.1-3.453.224-3.458-1.971a7.542,7.542,0,0,1,3.435-5.926" transform="translate(-28.438 -80.195)" fill="#666"/>
            </g>
          </g>
        </g>
        <line id="Línea_1704" data-name="Línea 1704" y1="62.439" x2="108.146" transform="translate(66.862 42.998)" fill="none" stroke="#666" stroke-linecap="round" stroke-linejoin="round" stroke-width="3.633"/>
      </g>
    </g>
  </g>
</svg>
