<svg xmlns="http://www.w3.org/2000/svg" width="101" height="101" viewBox="0 0 101 101">
  <g id="Grupo_1103834" data-name="Grupo 1103834" transform="translate(-782.5 -1852.102)">
    <g id="Grupo_1102268" data-name="Grupo 1102268" transform="translate(33.5 103.102)">
      <g id="layer1" transform="translate(753.47 1753.47)">
        <path id="path959" d="M13.887,15.279A6.017,6.017,0,1,1,7.87,9.261,6.017,6.017,0,0,1,13.887,15.279Z" transform="translate(6.195 40.914)" fill="#ffd1b5"/>
        <path id="path961" d="M1.947,17.312A6.013,6.013,0,1,0,9.892,9.356a6.006,6.006,0,0,1-7.945,7.957Z" transform="translate(6.641 41.354)" fill="#ffb98d"/>
        <path id="path963" d="M7.87,21.3a6.017,6.017,0,0,0,1.507-.2A6.01,6.01,0,0,1,9.371,9.458,6.015,6.015,0,1,0,7.87,21.3Z" transform="translate(6.195 40.914)" fill="#f5f9fb"/>
        <path id="circle8392" d="M25,16.865a6.017,6.017,0,1,1-6.017-6.017A6.017,6.017,0,0,1,25,16.865Z" transform="translate(58.263 48.347)" fill="#ffd1b5"/>
        <path id="path8394" d="M13.059,18.9A6.013,6.013,0,1,0,21,10.942,6.006,6.006,0,0,1,13.059,18.9Z" transform="translate(58.708 48.788)" fill="#ffb98d"/>
        <path id="path8396" d="M18.981,22.883a6.017,6.017,0,0,0,1.507-.2,6.01,6.01,0,0,1-.006-11.641,6.015,6.015,0,1,0-1.5,11.838Z" transform="translate(58.263 48.347)" fill="#f5f9fb"/>
        <path id="path8360" d="M.794,17.478v4.513A9.006,9.006,0,0,0,9.82,31.017h6.017l7.522-13.539h-1.5l-6.017-4.513Z" transform="translate(1.236 58.265)" fill="#be79ca"/>
        <path id="path8328" d="M24.863,3.969a3,3,0,0,1,3.009,3.009V19.012a3,3,0,0,1-3.009,3.009H15.877L8.314,28.038,8.3,22.021H3.8A3,3,0,0,1,.794,19.012V6.977A3,3,0,0,1,3.8,3.969Z" transform="translate(1.236 16.113)" fill="#e4eff8"/>
        <path id="path8339" d="M23.756,3.969C19.818,15.394,6.678,18.106.794,18.763v.25A3,3,0,0,0,3.8,22.021H8.3l.012,6.017,7.56-6.017h8.988a3,3,0,0,0,3.009-3.009V6.977a3,3,0,0,0-3.009-3.009Z" transform="translate(1.236 16.113)" fill="#c4dcf0"/>
        <path id="path8330" d="M32.272.794A3,3,0,0,1,35.28,3.8V15.837a3,3,0,0,1-3.009,3.009H23.285l-7.562,6.017-.011-6.017h-4.5A3,3,0,0,1,8.2,15.837V3.8A3,3,0,0,1,11.21.794Z" transform="translate(35.949 1.236)" fill="#e4eff8"/>
        <path id="path8346" d="M31.164.794C27.226,12.219,14.086,14.931,8.2,15.588v.25a3,3,0,0,0,3.009,3.009h4.5l.012,6.017,7.56-6.017h8.988a3,3,0,0,0,3.009-3.009V3.8A3,3,0,0,0,32.272.794Z" transform="translate(35.949 1.236)" fill="#c4dcf0"/>
        <path id="path8332" d="M14.386,5.556a3,3,0,0,0-3.009,3.009V20.6a3,3,0,0,0,3.009,3.009h8.987l7.562,6.017.011-6.017h4.5A3,3,0,0,0,38.455,20.6V8.565a3,3,0,0,0-3.008-3.009Z" transform="translate(50.827 23.552)" fill="#e4eff8"/>
        <path id="path8334" d="M34.339,5.556C30.4,16.981,17.261,19.693,11.377,20.35v.25a3,3,0,0,0,3.009,3.009h8.988l7.56,6.017.012-6.017h4.5A3,3,0,0,0,38.456,20.6V8.565a3,3,0,0,0-3.009-3.009Z" transform="translate(50.827 23.552)" fill="#c4dcf0"/>
        <path id="circle8314" d="M19.443,12.1a6.017,6.017,0,1,1-6.017-6.017A6.017,6.017,0,0,1,19.443,12.1Z" transform="translate(32.23 26.031)" fill="#ffd1b5"/>
        <path id="path8307" d="M27.676,19.012v3.569H6.615V19.012A12.105,12.105,0,0,1,13.326,8.127l7.422-.1a12.1,12.1,0,0,1,6.927,10.989Z" transform="translate(28.511 35.11)" fill="#be79ca"/>
        <path id="path8282" d="M45.3,10.583H21.227C15.261,21.085,9.214,31.54,3.175,42H63.349C57.257,31.571,51.291,21.069,45.3,10.583Z" transform="translate(12.394 47.107)" fill="#fae9b5"/>
        <path id="path8284" d="M44.216,10.583C44.4,37.662,24.236,39.166,6.184,39.166l-.961-.72Q4.2,40.222,3.175,42H63.349C57.257,31.569,51.291,21.069,45.3,10.583Z" transform="translate(12.394 47.107)" fill="#f9ce24"/>
        <path id="path8350" d="M21.227,10.583C15.261,21.085,9.214,31.539,3.175,42H6.184c6.039-10.46,12.086-20.914,18.052-31.415Z" transform="translate(12.394 47.107)" fill="#f5f9fb"/>
        <path id="path8300" d="M6.5,19.511V13.494H21.166l-.4,1.5-6.084,4.513Z" transform="translate(27.968 60.745)" fill="#e4eff8"/>
        <path id="path8368" d="M16.765,13.334c-3.5,10.007-11,12.411-15.572,12.907a8.988,8.988,0,0,0,6.758,3.047h6.017L21.49,15.749h-1.5Z" transform="translate(3.105 59.994)" fill="#6e3dc6"/>
        <path id="path8358" d="M.794,27.925V18.9a7.505,7.505,0,0,1,7.522-7.522h3.009c4.513,0,5.327,1.769,7.522,4.513l6.017,7.522h6.017a3.009,3.009,0,1,1,0,6.017H18.846l-4.513-4.513Z" transform="translate(1.236 50.827)" fill="#be79ca"/>
        <path id="path8302" d="M16.95,13.494A31.986,31.986,0,0,1,6.5,17.137v2.374h8.18L20.764,15l.4-1.5Z" transform="translate(27.968 60.745)" fill="#c4dcf0"/>
        <path id="path8411" d="M8.316,11.377A7.505,7.505,0,0,0,.794,18.9v10.53A9.006,9.006,0,0,0,9.82,38.455h3.009A9.006,9.006,0,0,1,3.8,29.429V18.9a7.505,7.505,0,0,1,7.522-7.522Z" transform="translate(1.236 50.827)" fill="#f5f9fb"/>
        <path id="path8375" d="M32.884,12.965c-4.513,0-5.327,1.769-7.522,4.513L19.345,25H13.327a3.009,3.009,0,1,0,0,6.017H41.91a1.5,1.5,0,0,0,1.5-1.5V20.486a7.505,7.505,0,0,0-7.522-7.522Z" transform="translate(45.868 58.265)" fill="#be79ca"/>
        <path id="path8387" d="M39.469,13.129a7.459,7.459,0,0,1,.937,3.576c0,4.513-4.513,10.53-19.557,10.53H10.319a3,3,0,0,0,3.009,3.009H41.91a1.5,1.5,0,0,0,1.5-1.5V19.714a7.475,7.475,0,0,0-3.946-6.584Z" transform="translate(45.868 59.038)" fill="#6e3dc6"/>
        <path id="path8421" d="M26.375,12.965c-4.513,0-5.327,1.769-7.522,4.513L11.708,26.5c1.615.014,3.211.224,4.263-.827l6.491-8.2c2.181-2.755,2.409-4.513,6.922-4.513Z" transform="translate(52.376 58.265)" fill="#f5f9fb"/>
        <path id="path8416" d="M13.327,15.081a3.009,3.009,0,1,0,0,6.017h3.009a3.009,3.009,0,0,1,0-6.017Z" transform="translate(45.868 68.184)" fill="#f5f9fb"/>
        <path id="path8309" d="M23.821,8.394c-3.916,5.912-10.161,8.694-17.206,10v2.453H27.676v-3.57a12.108,12.108,0,0,0-3.855-8.879Z" transform="translate(28.511 36.848)" fill="#6e3dc6"/>
        <path id="path8355" d="M20.747,8.023l-7.422.106A12.1,12.1,0,0,0,6.615,19.012v3.57H9.623v-3.57A12.1,12.1,0,0,1,16.334,8.129l4.487-.065c-.026-.012-.048-.029-.073-.041Z" transform="translate(28.511 35.109)" fill="#f5f9fb"/>
        <path id="path8289" d="M6.021,22.009l5.92-10.358h16.5L23.68,22.009Z" transform="translate(25.729 52.114)" fill="#e4eff8"/>
        <path id="path8293" d="M24.446,11.652c-4.235,4.939-10.419,7.21-17.224,8.256l-1.2,2.1H23.682l4.76-10.357Z" transform="translate(25.729 52.115)" fill="#c4dcf0"/>
        <path id="circle8318" d="M15.989,8.653A6.008,6.008,0,0,1,7.5,14.136a6.013,6.013,0,1,0,7.945-7.957,6.017,6.017,0,0,1,.541,2.474Z" transform="translate(32.676 26.472)" fill="#ffb98d"/>
        <path id="circle8323" d="M7.408,12.1a6,6,0,0,0,7.525,5.821,6.01,6.01,0,0,1-.006-11.641A6,6,0,0,0,7.408,12.1Z" transform="translate(32.23 26.031)" fill="#f5f9fb"/>
        <path id="Ic_12" d="M47.233.53a4.536,4.536,0,0,0-4.514,4.517V17.1a4.534,4.534,0,0,0,4.514,4.514h3l.009,4.529a1.505,1.505,0,0,0,2.445,1.177l7.163-5.706H68.33A4.536,4.536,0,0,0,72.847,17.1V5.047A4.539,4.539,0,0,0,68.33.53Zm0,3.016h21.1a1.462,1.462,0,0,1,1.5,1.5V17.1a1.472,1.472,0,0,1-1.5,1.513h-9a1.51,1.51,0,0,0-.948.321l-5.138,4.082v-2.9a1.506,1.506,0,0,0-1.5-1.5H47.233a1.472,1.472,0,0,1-1.5-1.513V5.047A1.462,1.462,0,0,1,47.233,3.546ZM50.249,6.56a1.507,1.507,0,0,0,0,3.013h9.037a1.507,1.507,0,1,0,0-3.013Zm0,6.027a1.508,1.508,0,0,0,0,3.016H65.316a1.508,1.508,0,0,0,0-3.016Zm-45.2,6.03A4.536,4.536,0,0,0,.53,23.131V35.188A4.539,4.539,0,0,0,5.047,39.7h3l.012,4.526A1.506,1.506,0,0,0,10.506,45.4L17.672,39.7h8.475a4.536,4.536,0,0,0,4.514-4.517V23.131a4.534,4.534,0,0,0-4.514-4.514Zm0,3h21.1a1.472,1.472,0,0,1,1.5,1.513V35.188a1.462,1.462,0,0,1-1.5,1.5h-9a1.507,1.507,0,0,0-.945.335l-5.141,4.082V38.192a1.508,1.508,0,0,0-1.5-1.5H5.047a1.462,1.462,0,0,1-1.5-1.5V23.131A1.472,1.472,0,0,1,5.047,21.618Zm3.013,3.013a1.508,1.508,0,0,0,0,3.016H17.1a1.508,1.508,0,1,0,0-3.016Zm57.255,3.016A4.544,4.544,0,0,0,60.8,32.174V44.219a4.546,4.546,0,0,0,4.514,4.529h8.475l7.163,5.694A1.508,1.508,0,0,0,83.4,53.274V48.748h3.013a4.546,4.546,0,0,0,4.514-4.529V32.174a4.544,4.544,0,0,0-4.514-4.526ZM8.061,30.662a1.507,1.507,0,0,0,0,3.013h15.07a1.507,1.507,0,0,0,0-3.013Zm37.671,0A7.558,7.558,0,0,0,38.2,38.2a7.478,7.478,0,0,0,1.577,4.6,13.644,13.644,0,0,0-6.106,11.406v2.069a1.506,1.506,0,0,0-1.3.756l-7.569,13.24L21.3,65.887a20.31,20.31,0,0,0-2.96-3.393,7.535,7.535,0,1,0-10.173-1.58,9.017,9.017,0,0,0-4.617,2.2V57.768a1.508,1.508,0,1,0-3.016,0v22.6s0,.008,0,.012,0,.005,0,.009A10.552,10.552,0,0,0,11.074,90.933q39.16-.029,78.344-.006a1.391,1.391,0,0,0,1.516-1.5V66.8a1.507,1.507,0,1,0-3.013,0v5.341a9.017,9.017,0,0,0-4.62-2.2,7.535,7.535,0,1,0-10.173,1.58,20.287,20.287,0,0,0-2.958,3.393l-.5.624L59.089,57.032a1.506,1.506,0,0,0-1.3-.756V54.207a13.655,13.655,0,0,0-6.1-11.406,7.482,7.482,0,0,0,1.574-4.6,7.561,7.561,0,0,0-7.531-7.542Zm19.584,0h21.1a1.472,1.472,0,0,1,1.5,1.513V44.219a1.472,1.472,0,0,1-1.5,1.513H81.9a1.506,1.506,0,0,0-1.5,1.5v2.9L75.26,46.055a1.506,1.506,0,0,0-.945-.324h-9a1.472,1.472,0,0,1-1.5-1.513V32.174A1.472,1.472,0,0,1,65.316,30.662ZM45.732,33.675A4.522,4.522,0,1,1,41.217,38.2,4.5,4.5,0,0,1,45.732,33.675Zm28.628,0a1.507,1.507,0,1,0,0,3.013H83.4a1.507,1.507,0,0,0,0-3.013ZM68.333,39.7a1.507,1.507,0,1,0,0,3.013H83.4a1.507,1.507,0,1,0,0-3.013ZM42.2,44.846a7.481,7.481,0,0,0,7.057,0,10.6,10.6,0,0,1,5.512,9.358v2.069H36.688V54.207A10.613,10.613,0,0,1,42.2,44.846ZM18.617,56.276a4.522,4.522,0,1,1-4.586-4.514A4.513,4.513,0,0,1,18.617,56.276Zm37.144,7.6a1.506,1.506,0,0,0-1.5-1.513H37.733a1.507,1.507,0,0,0-1.312.756L30.859,72.85h-3.99l-.041-.05,7.728-13.51H56.909L67.644,78.07l-3.052,3.811H59.286a4.544,4.544,0,0,0-4.514,4.526,4.443,4.443,0,0,0,.262,1.5l-36.841,0,3.443-6.015,10.576,0H42.718a1.506,1.506,0,0,0,.9-.3l6.027-4.514a1.5,1.5,0,0,0,.465-.58l5.54-12.057a1.52,1.52,0,0,0,.11-.565Zm26.126,1.433a4.52,4.52,0,1,1-4.573-4.514A4.5,4.5,0,0,1,81.887,65.307Zm-69.3-1.489c2.063,0,2.958.342,3.726.921a19.052,19.052,0,0,1,2.625,3.025l6.03,7.531a1.509,1.509,0,0,0,1.18.568h6.027a1.507,1.507,0,0,1,0,3.013H20.741L16.66,74.795a1.507,1.507,0,1,0-2.125,2.136l4.114,4.114L14.717,87.92H11.074a7.477,7.477,0,0,1-7.528-7.531s0-.005,0-.009,0-.008,0-.012V69.833a5.971,5.971,0,0,1,6.027-6.015ZM38.6,65.375h13.3L48.471,72.85H34.334ZM74.977,87.914l1.951-1.951a1.511,1.511,0,0,0-2.136-2.136l-4.07,4.082H59.286a1.507,1.507,0,0,1,0-3.013h6.03a1.509,1.509,0,0,0,1.18-.568L72.523,76.8a19.059,19.059,0,0,1,2.625-3.025c.768-.579,1.663-.921,3.726-.921h3.013a5.974,5.974,0,0,1,6.03,6.015v9.046ZM36.427,75.863h9.805l-4.014,3.013H36.429a4.489,4.489,0,0,0,0-3.013Z" transform="translate(0 0)" fill="#333"/>
      </g>
      <rect id="Rectángulo_26083" data-name="Rectángulo 26083" width="101" height="101" transform="translate(749 1749)" fill="none"/>
    </g>
  </g>
</svg>
