<svg xmlns="http://www.w3.org/2000/svg" width="101" height="101" viewBox="0 0 101 101">
  <g id="Grupo_1103837" data-name="Grupo 1103837" transform="translate(-783 -2816)">
    <g id="Grupo_1102310" data-name="Grupo 1102310" transform="translate(34 1067)">
      <rect id="Rectángulo_26083" data-name="Rectángulo 26083" width="101" height="101" transform="translate(749 1749)" fill="none"/>
      <g id="imagen-de-marca" transform="translate(756.777 1755.857)">
        <g id="Grupo_88605" data-name="Grupo 88605" transform="translate(1.887 1.3)">
          <g id="Grupo_88604" data-name="Grupo 88604">
            <g id="Grupo_88591" data-name="Grupo 88591" transform="translate(53.019 56.363)">
              <path id="Trazado_128305" data-name="Trazado 128305" d="M347.532,346.174,329.622,360.2,342.3,372.172l15.913-15.913Z" transform="translate(-329.622 -346.174)" fill="#be79ca"/>
            </g>
            <g id="Grupo_88592" data-name="Grupo 88592" transform="translate(53.019 68.099)">
              <path id="Trazado_128306" data-name="Trazado 128306" d="M344.906,428.287l-12.356-11.66-2.928,2.294L342.3,430.889Z" transform="translate(-329.622 -416.627)" fill="#6e3dc6"/>
            </g>
            <g id="Grupo_88593" data-name="Grupo 88593" transform="translate(0 56.363)">
              <path id="Trazado_128307" data-name="Trazado 128307" d="M22.015,346.174,39.924,360.2,27.242,372.172,11.329,356.258Z" transform="translate(-11.329 -346.174)" fill="#be79ca"/>
            </g>
            <g id="Grupo_88594" data-name="Grupo 88594" transform="translate(0 56.363)">
              <path id="Trazado_128308" data-name="Trazado 128308" d="M16.737,356.4l8.042-8.084-2.763-2.143L11.329,356.258l15.913,15.913,2.749-2.594Z" transform="translate(-11.329 -346.174)" fill="#6e3dc6"/>
            </g>
            <g id="Grupo_88595" data-name="Grupo 88595" transform="translate(4.576)">
              <circle id="Elipse_4372" data-name="Elipse 4372" cx="36.179" cy="36.179" r="36.179" fill="#f9ce24"/>
            </g>
            <g id="Grupo_88596" data-name="Grupo 88596" transform="translate(4.576 9.323)">
              <path id="Trazado_128309" data-name="Trazado 128309" d="M77.6,124.191A36.178,36.178,0,0,1,50.741,63.772a36.178,36.178,0,1,0,51.1,51.1A36.045,36.045,0,0,1,77.6,124.191Z" transform="translate(-38.803 -63.772)" fill="#c09a23"/>
            </g>
            <g id="Grupo_88597" data-name="Grupo 88597" transform="translate(9.478 5.068)">
              <circle id="Elipse_4373" data-name="Elipse 4373" cx="31.278" cy="31.278" r="31.278" fill="#e5ecf5"/>
            </g>
            <g id="Grupo_88598" data-name="Grupo 88598" transform="translate(9.478 12.948)">
              <path id="Trazado_128310" data-name="Trazado 128310" d="M102.149,137.565a31.276,31.276,0,0,1-23.4-52.032A31.276,31.276,0,1,0,122.9,129.685,31.157,31.157,0,0,1,102.149,137.565Z" transform="translate(-68.227 -85.533)" fill="#cad8eb"/>
            </g>
            <g id="Grupo_88602" data-name="Grupo 88602" transform="translate(20.415 12.871)">
              <g id="Grupo_88601" data-name="Grupo 88601">
                <g id="Grupo_88599" data-name="Grupo 88599" transform="translate(0 3.134)">
                  <path id="Trazado_128311" data-name="Trazado 128311" d="M135.734,107.42l-1.845-1.684c.444-.486,1.358-1.4,1.847-1.847l1.685,1.845C136.983,106.134,136.132,106.984,135.734,107.42Z" transform="translate(-133.889 -103.889)" fill="#fff"/>
                </g>
                <g id="Grupo_88600" data-name="Grupo 88600" transform="translate(3.868)">
                  <path id="Trazado_128312" data-name="Trazado 128312" d="M158.6,88.539l-1.494-2c.528-.394,1.6-1.119,2.161-1.465l1.307,2.129C160.071,87.511,159.075,88.186,158.6,88.539Z" transform="translate(-157.108 -85.072)" fill="#fff"/>
                </g>
              </g>
            </g>
            <g id="Grupo_88603" data-name="Grupo 88603" transform="translate(8.168 62.058)">
              <path id="Trazado_128313" data-name="Trazado 128313" d="M0,0H2.5V2.5H0Z" transform="translate(0 1.766) rotate(-45)" fill="#fff"/>
            </g>
          </g>
        </g>
        <g id="Grupo_88606" data-name="Grupo 88606" transform="translate(0 0)">
          <path id="Trazado_128319" data-name="Trazado 128319" d="M60.22,62.022a32.56,32.56,0,1,0,52.955-25.386l-1.568,1.949a29.97,29.97,0,1,1-2.022-1.493l1.4-2.073a32.563,32.563,0,0,0-50.765,27Z" transform="translate(-50.189 -24.55)"/>
          <path id="Trazado_128320" data-name="Trazado 128320" d="M247.867,434.777l-.087,2.5c.435.015.879.023,1.317.023s.866-.007,1.291-.022l-.085-2.5C249.5,434.805,248.673,434.8,247.867,434.777Z" transform="translate(-206.507 -362.355)"/>
          <path id="Trazado_128321" data-name="Trazado 128321" d="M85.285,67.584,74.387,57.3a37.466,37.466,0,1,0-63.553.061L0,67.584l10.8,10.8,1.769-1.769L3.589,67.636l8.663-8.176A37.541,37.541,0,0,0,28.093,72.034L17.749,81.8l-3.362-3.363L12.618,80.2,17.7,85.285l13-12.271a37.288,37.288,0,0,0,7.983,1.729l.258-2.488a34.965,34.965,0,1,1,7.247.005l.254,2.488a37.3,37.3,0,0,0,8.118-1.76l13.027,12.3ZM57.161,72A37.576,37.576,0,0,0,72.972,59.4L81.7,67.636,67.536,81.8Z" transform="translate(0 0)"/>
          <path id="Trazado_128322" data-name="Trazado 128322" d="M0,0H7.281V2.5H0Z" transform="translate(35.22 54.161) rotate(-82.008)"/>
          <path id="Trazado_128323" data-name="Trazado 128323" d="M0,0H2.5V7.281H0Z" transform="translate(46.64 47.476) rotate(-7.992)"/>
          <path id="Trazado_128324" data-name="Trazado 128324" d="M248.187,285.371h2.5v7.281h-2.5Z" transform="translate(-206.846 -237.836)"/>
          <text id="BRAND" transform="translate(15.223 42.143)" font-size="17" font-family="Roboto-BlackItalic, Roboto" font-weight="800" font-style="italic"><tspan x="0" y="0">BRAND</tspan></text>
        </g>
      </g>
    </g>
  </g>
</svg>
