<svg xmlns="http://www.w3.org/2000/svg" width="101" height="101" viewBox="0 0 101 101">
  <g id="Grupo_1103838" data-name="Grupo 1103838" transform="translate(-783 -3137)">
    <g id="Grupo_1102311" data-name="Grupo 1102311" transform="translate(34 1388)">
      <rect id="Rectángulo_26083" data-name="Rectángulo 26083" width="101" height="101" transform="translate(749 1749)" fill="none"/>
      <g id="producto" transform="translate(757.639 1756.05)">
        <g id="Grupo_88622" data-name="Grupo 88622" transform="translate(1.383 14.341)">
          <g id="Grupo_88608" data-name="Grupo 88608" transform="translate(0 49.774)">
            <path id="Trazado_128325" data-name="Trazado 128325" d="M75.662,46.372H9.3a8.3,8.3,0,0,0-8.3,8.3v2.765a8.3,8.3,0,0,0,8.3,8.3H75.662a8.3,8.3,0,0,0,8.3-8.3V54.668A8.3,8.3,0,0,0,75.662,46.372Z" transform="translate(-1 -46.372)" fill="#be79ca"/>
          </g>
          <g id="Grupo_88609" data-name="Grupo 88609" transform="translate(58.07 51.157)">
            <path id="Trazado_128326" data-name="Trazado 128326" d="M51.3,47.372a8.3,8.3,0,1,1-8.3,8.3A8.3,8.3,0,0,1,51.3,47.372Z" transform="translate(-43 -47.372)" fill="#969faa"/>
          </g>
          <g id="Grupo_88610" data-name="Grupo 88610" transform="translate(33.183 51.157)">
            <path id="Trazado_128327" data-name="Trazado 128327" d="M33.3,47.372a8.3,8.3,0,1,1-8.3,8.3A8.3,8.3,0,0,1,33.3,47.372Z" transform="translate(-25 -47.372)" fill="#969faa"/>
          </g>
          <g id="Grupo_88611" data-name="Grupo 88611" transform="translate(8.296 51.157)">
            <path id="Trazado_128328" data-name="Trazado 128328" d="M15.3,47.372a8.3,8.3,0,1,1-8.3,8.3A8.3,8.3,0,0,1,15.3,47.372Z" transform="translate(-7 -47.372)" fill="#969faa"/>
          </g>
          <g id="Grupo_88612" data-name="Grupo 88612" transform="translate(63.601 56.688)">
            <circle id="Elipse_4374" data-name="Elipse 4374" cx="2.765" cy="2.765" r="2.765" fill="#aab2bd"/>
          </g>
          <g id="Grupo_88613" data-name="Grupo 88613" transform="translate(38.713 56.688)">
            <circle id="Elipse_4375" data-name="Elipse 4375" cx="2.765" cy="2.765" r="2.765" fill="#aab2bd"/>
          </g>
          <g id="Grupo_88614" data-name="Grupo 88614" transform="translate(13.826 56.688)">
            <circle id="Elipse_4376" data-name="Elipse 4376" cx="2.765" cy="2.765" r="2.765" fill="#aab2bd"/>
          </g>
          <g id="Grupo_88615" data-name="Grupo 88615" transform="translate(8.296 33.183)">
            <path id="Trazado_128329" data-name="Trazado 128329" d="M7,34.372H23.591V50.963H7Z" transform="translate(-7 -34.372)" fill="#d3a06c"/>
          </g>
          <g id="Grupo_88616" data-name="Grupo 88616" transform="translate(33.183 33.183)">
            <path id="Trazado_128330" data-name="Trazado 128330" d="M25,34.372H41.591V50.963H25Z" transform="translate(-25 -34.372)" fill="#d3a06c"/>
          </g>
          <g id="Grupo_88617" data-name="Grupo 88617" transform="translate(58.07 33.183)">
            <path id="Trazado_128331" data-name="Trazado 128331" d="M43,34.372H59.591V50.963H43Z" transform="translate(-43 -34.372)" fill="#d3a06c"/>
          </g>
          <g id="Grupo_88618" data-name="Grupo 88618" transform="translate(63.601 33.183)">
            <path id="Trazado_128332" data-name="Trazado 128332" d="M47,34.372h5.53V39.9H47Z" transform="translate(-47 -34.372)" fill="#b27946"/>
          </g>
          <g id="Grupo_88619" data-name="Grupo 88619" transform="translate(38.713 33.183)">
            <path id="Trazado_128333" data-name="Trazado 128333" d="M29,34.372h5.531V39.9H29Z" transform="translate(-29 -34.372)" fill="#b27946"/>
          </g>
          <g id="Grupo_88620" data-name="Grupo 88620" transform="translate(13.826 33.183)">
            <path id="Trazado_128334" data-name="Trazado 128334" d="M11,34.372h5.53V39.9H11Z" transform="translate(-11 -34.372)" fill="#b27946"/>
          </g>
          <g id="Grupo_88621" data-name="Grupo 88621" transform="translate(27.652)">
            <path id="Trazado_128335" data-name="Trazado 128335" d="M48.652,21.433v5.53l-1.867.622a12.316,12.316,0,0,1-1.106,2.682l.885,1.756-3.913,3.913L40.9,35.052a12.316,12.316,0,0,1-2.682,1.106l-.622,1.867h-5.53l-.622-1.867a12.316,12.316,0,0,1-2.682-1.106L27,35.937l-3.913-3.913.885-1.756a12.316,12.316,0,0,1-1.106-2.682L21,26.963v-5.53l1.867-.622a12.316,12.316,0,0,1,1.106-2.682l-.885-1.756L27,12.46l1.756.885a12.316,12.316,0,0,1,2.682-1.106l.622-1.867h5.53l.622,1.867A12.316,12.316,0,0,1,40.9,13.345l1.756-.885,3.913,3.913-.885,1.756a12.316,12.316,0,0,1,1.106,2.682ZM41.739,24.2a6.913,6.913,0,1,0-6.913,6.913A6.916,6.916,0,0,0,41.739,24.2Z" transform="translate(-21 -10.372)" fill="#f9ce24"/>
          </g>
        </g>
        <g id="Grupo_88623" data-name="Grupo 88623" transform="translate(0 0)">
          <path id="Trazado_128336" data-name="Trazado 128336" d="M14.148,58.668A4.148,4.148,0,1,0,10,54.52,4.153,4.153,0,0,0,14.148,58.668Zm0-5.53a1.383,1.383,0,1,1-1.383,1.383A1.383,1.383,0,0,1,14.148,53.137Z" transform="translate(3.826 19.274)"/>
          <path id="Trazado_128337" data-name="Trazado 128337" d="M32.148,58.668A4.148,4.148,0,1,0,28,54.52,4.153,4.153,0,0,0,32.148,58.668Zm0-5.53a1.383,1.383,0,1,1-1.383,1.383A1.383,1.383,0,0,1,32.148,53.137Z" transform="translate(10.713 19.274)"/>
          <path id="Trazado_128338" data-name="Trazado 128338" d="M50.148,50.372A4.148,4.148,0,1,0,54.3,54.52,4.153,4.153,0,0,0,50.148,50.372Zm0,5.53A1.383,1.383,0,1,1,51.53,54.52,1.383,1.383,0,0,1,50.148,55.9Z" transform="translate(17.601 19.274)"/>
          <path id="Trazado_128339" data-name="Trazado 128339" d="M77.427,50.073v-16.7H58.07V49.962H52.54V33.371H33.183V49.962h-5.53V33.371H8.3v16.7A9.686,9.686,0,0,0,0,59.641v2.765a9.691,9.691,0,0,0,9.678,9.678H76.044a9.691,9.691,0,0,0,9.678-9.678V59.641a9.687,9.687,0,0,0-8.3-9.568ZM66.366,36.138h2.765V38.9H66.366Zm-5.53,0H63.6v5.53h8.3v-5.53h2.765V49.964H60.835Zm6.913,31.8a6.913,6.913,0,1,1,6.913-6.913A6.921,6.921,0,0,1,67.749,67.938ZM58.07,61.025a9.674,9.674,0,0,0,4.719,8.3H47.821a9.651,9.651,0,0,0,0-16.591H62.79a9.671,9.671,0,0,0-4.72,8.3Zm-40.1-6.913a6.913,6.913,0,1,1-6.913,6.913A6.921,6.921,0,0,1,17.974,54.112Zm9.678,6.913a9.674,9.674,0,0,0-4.719-8.3H37.9a9.651,9.651,0,0,0,0,16.591H22.934A9.676,9.676,0,0,0,27.652,61.025Zm22.122,0a6.913,6.913,0,1,1-6.913-6.913A6.921,6.921,0,0,1,49.774,61.025Zm-8.3-24.887h2.765V38.9H41.479Zm-5.53,0h2.765v5.53h8.3v-5.53h2.765V49.964H35.948Zm-19.357,0h2.765V38.9H16.591Zm-2.765,0v5.53h8.3v-5.53h2.765V49.964H11.061V36.138ZM2.765,62.407V59.642a6.921,6.921,0,0,1,6.913-6.913h3.336a9.651,9.651,0,0,0,0,16.591H9.678A6.922,6.922,0,0,1,2.765,62.407Zm80.192,0a6.921,6.921,0,0,1-6.913,6.913H72.708a9.651,9.651,0,0,0,0-16.591h3.336a6.921,6.921,0,0,1,6.913,6.913Z" transform="translate(0 12.769)"/>
          <path id="Trazado_128340" data-name="Trazado 128340" d="M22.8,30.664l-1.005,2.009,5.32,5.32,2.009-1.005a13.513,13.513,0,0,0,1.612.664l.712,2.135H38.97l.712-2.135a13.747,13.747,0,0,0,1.612-.664L43.3,37.994l5.32-5.32-1.005-2.009a13.513,13.513,0,0,0,.664-1.612l2.136-.711V20.819l-2.135-.712a14.2,14.2,0,0,0-.664-1.612l1.005-2.009-5.32-5.32L41.3,12.17a13.513,13.513,0,0,0-1.612-.664l-.712-2.135H31.448l-.712,2.135a13.746,13.746,0,0,0-1.612.664l-2.009-1.005-5.32,5.32L22.8,18.495a13.513,13.513,0,0,0-.664,1.612L20,20.819v7.523l2.135.712a14.069,14.069,0,0,0,.664,1.611Zm-.033-7.853,1.609-.536.2-.7a11.091,11.091,0,0,1,.986-2.386l.357-.639-.756-1.514,2.5-2.5,1.517.756.639-.358a10.918,10.918,0,0,1,2.384-.983l.705-.2.538-1.611h3.538l.538,1.611.705.2a10.974,10.974,0,0,1,2.384.983l.639.358,1.517-.756,2.5,2.5-.756,1.514.357.639a11.091,11.091,0,0,1,.986,2.386l.2.7,1.6.536v3.538l-1.609.536-.2.7a11.09,11.09,0,0,1-.986,2.386l-.357.639.756,1.514-2.5,2.5-1.517-.756-.639.358a10.9,10.9,0,0,1-2.385.983l-.705.2-.536,1.611H33.438L32.9,35.414l-.705-.2a10.957,10.957,0,0,1-2.385-.983l-.639-.358-1.513.756-2.5-2.5.756-1.514-.357-.639a11.09,11.09,0,0,1-.986-2.386l-.2-.7-1.608-.536Z" transform="translate(7.652 3.586)"/>
          <path id="Trazado_128341" data-name="Trazado 128341" d="M33.3,30.963a8.3,8.3,0,1,0-8.3-8.3A8.3,8.3,0,0,0,33.3,30.963Zm0-13.826a5.53,5.53,0,1,1-5.53,5.53A5.536,5.536,0,0,1,33.3,17.137Z" transform="translate(9.566 5.499)"/>
          <path id="Trazado_128342" data-name="Trazado 128342" d="M49.321,12.775a28.7,28.7,0,0,0-1.47-2.9l-2.392,1.385a26.405,26.405,0,0,1,1.329,2.627Z" transform="translate(17.394 3.777)"/>
          <path id="Trazado_128343" data-name="Trazado 128343" d="M46.984,38.285l7.9-3.158-1.026-2.568-3.486,1.394a27.029,27.029,0,0,0,2.616-11.17,28.975,28.975,0,0,0-1.33-8.711l-2.638.83a26.242,26.242,0,0,1,1.2,7.881,25.118,25.118,0,0,1-2.956,11.268l-2.851-3.8L42.2,31.908Z" transform="translate(16.147 5.384)"/>
          <path id="Trazado_128344" data-name="Trazado 128344" d="M33.411,4.662A25.108,25.108,0,0,1,44.678,7.618l-3.8,2.851,1.658,2.212L48.913,7.9,45.756,0,43.188,1.027l1.394,3.484A27.059,27.059,0,0,0,33.411,1.9,29.082,29.082,0,0,0,24.7,3.226l.83,2.638a26.268,26.268,0,0,1,7.881-1.2Z" transform="translate(9.451 0)"/>
          <path id="Trazado_128345" data-name="Trazado 128345" d="M24.51,5.653,23.4,3.12a29.005,29.005,0,0,0-2.9,1.468l1.385,2.393A26.091,26.091,0,0,1,24.51,5.653Z" transform="translate(7.843 1.194)"/>
          <path id="Trazado_128346" data-name="Trazado 128346" d="M15.218,31.983,17.61,30.6a26.407,26.407,0,0,1-1.329-2.627L13.748,29.08A29.141,29.141,0,0,0,15.218,31.983Z" transform="translate(5.26 10.702)"/>
          <path id="Trazado_128347" data-name="Trazado 128347" d="M15.141,13.491a27.03,27.03,0,0,0-2.616,11.172,28.975,28.975,0,0,0,1.33,8.711l2.638-.83a26.242,26.242,0,0,1-1.2-7.881,25.118,25.118,0,0,1,2.956-11.268L21.1,17.2l2.212-1.659L18.525,9.159l-7.9,3.158,1.026,2.568Z" transform="translate(4.067 3.504)"/>
        </g>
      </g>
    </g>
  </g>
</svg>
