<svg xmlns="http://www.w3.org/2000/svg" width="101" height="101" viewBox="0 0 101 101">
  <g id="Grupo_1103839" data-name="Grupo 1103839" transform="translate(-783 -3458)">
    <g id="Grupo_1102312" data-name="Grupo 1102312" transform="translate(34 1709)">
      <rect id="Rectángulo_26083" data-name="Rectángulo 26083" width="101" height="101" transform="translate(749 1749)" fill="none"/>
      <g id="retorno-de-la-inversion" transform="translate(757.217 1754.977)">
        <g id="Grupo_88642" data-name="Grupo 88642" transform="translate(2.432 2.355)">
          <g id="Grupo_88625" data-name="Grupo 88625" transform="translate(2.71 16.263)">
            <path id="Trazado_128348" data-name="Trazado 128348" d="M4,14H74.471V65.5H4Z" transform="translate(-4 -14)" fill="#e6e9ed"/>
          </g>
          <g id="Grupo_88626" data-name="Grupo 88626" transform="translate(70.471 67.761)">
            <path id="Trazado_128349" data-name="Trazado 128349" d="M63.568,55.591a1.951,1.951,0,0,1,0,3.659L54,62.842V52l2.71,1.016Z" transform="translate(-54 -52)" fill="#6e3dc6"/>
          </g>
          <g id="Grupo_88627" data-name="Grupo 88627" transform="translate(34.246 73.182)">
            <path id="Trazado_128350" data-name="Trazado 128350" d="M63.495,56v5.421H28.259v-.095A14.868,14.868,0,0,0,27.27,56Z" transform="translate(-27.27 -56)" fill="#f9ce24"/>
          </g>
          <g id="Grupo_88628" data-name="Grupo 88628" transform="translate(30.587 67.761)">
            <path id="Trazado_128351" data-name="Trazado 128351" d="M64.454,52v5.421H28.229A15.172,15.172,0,0,0,25.871,53.4a15.856,15.856,0,0,0-1.3-1.4H64.454Z" transform="translate(-24.57 -52)" fill="#75baf1"/>
          </g>
          <g id="Grupo_88629" data-name="Grupo 88629" transform="translate(62.34 51.498)">
            <path id="Trazado_128352" data-name="Trazado 128352" d="M48,40h5.421V56.263H48Z" transform="translate(-48 -40)" fill="#77af8f"/>
          </g>
          <g id="Grupo_88630" data-name="Grupo 88630" transform="translate(51.498 56.919)">
            <path id="Trazado_128353" data-name="Trazado 128353" d="M40,44h5.421V54.842H40Z" transform="translate(-40 -44)" fill="#77af8f"/>
          </g>
          <g id="Grupo_88631" data-name="Grupo 88631" transform="translate(40.657 59.63)">
            <path id="Trazado_128354" data-name="Trazado 128354" d="M32,46h5.421v8.131H32Z" transform="translate(-32 -46)" fill="#77af8f"/>
          </g>
          <g id="Grupo_88632" data-name="Grupo 88632" transform="translate(2.71 5.421)">
            <path id="Trazado_128355" data-name="Trazado 128355" d="M6.71,6A2.718,2.718,0,0,0,4,8.71v8.131H44.846A19.008,19.008,0,0,1,50.348,6Z" transform="translate(-4 -6)" fill="#77af8f"/>
          </g>
          <g id="Grupo_88633" data-name="Grupo 88633" transform="translate(29.815 10.842)">
            <path id="Trazado_128356" data-name="Trazado 128356" d="M24,10h5.421v5.421H24Z" transform="translate(-24 -10)" fill="#ffeaa7"/>
          </g>
          <g id="Grupo_88634" data-name="Grupo 88634" transform="translate(18.973 10.842)">
            <path id="Trazado_128357" data-name="Trazado 128357" d="M16,10h5.421v5.421H16Z" transform="translate(-16 -10)" fill="#ffeaa7"/>
          </g>
          <g id="Grupo_88635" data-name="Grupo 88635" transform="translate(8.131 10.842)">
            <path id="Trazado_128358" data-name="Trazado 128358" d="M8,10h5.421v5.421H8Z" transform="translate(-8 -10)" fill="#ffeaa7"/>
          </g>
          <g id="Grupo_88636" data-name="Grupo 88636" transform="translate(0 64.237)">
            <path id="Trazado_128359" data-name="Trazado 128359" d="M29.1,66.476H2V63.67A14.746,14.746,0,0,1,8.885,51.189,14.423,14.423,0,0,1,13.045,49.4l1.491,3.673A4.047,4.047,0,0,0,18.3,55.634h2.629A4.047,4.047,0,0,0,24.7,53.073L26.191,49.4a14.423,14.423,0,0,1,4.161,1.789,13.9,13.9,0,0,1,2.236,1.735,15.856,15.856,0,0,1,1.3,1.4,15.172,15.172,0,0,1,2.358,4.025,14.868,14.868,0,0,1,.989,5.326v2.805Z" transform="translate(-2 -49.4)" fill="#be79ca"/>
          </g>
          <g id="Grupo_88637" data-name="Grupo 88637" transform="translate(8.131 38.732)">
            <path id="Trazado_128360" data-name="Trazado 128360" d="M26.973,36.082v5.909A9.487,9.487,0,1,1,8,41.991V35.54a2.71,2.71,0,0,1,1.5-2.426l5.028-2.534a7.484,7.484,0,0,0,3.09,1.409l7.169,1.437A2.712,2.712,0,0,1,26.973,36.082Z" transform="translate(-8 -30.58)" fill="#f0d0b4"/>
          </g>
          <g id="Grupo_88638" data-name="Grupo 88638" transform="translate(11.045 59.169)">
            <path id="Trazado_128361" data-name="Trazado 128361" d="M23.3,50.715v.014L21.8,54.4a4.047,4.047,0,0,1-3.768,2.561H15.408A4.047,4.047,0,0,1,11.641,54.4L10.15,50.729v-.014c.271-.068.542-.136.827-.19a2.717,2.717,0,0,0,2.1-2.006l.718-2.86a9.529,9.529,0,0,0,5.855,0l.718,2.86a2.717,2.717,0,0,0,2.1,2.006C22.754,50.579,23.025,50.647,23.3,50.715Z" transform="translate(-10.15 -45.66)" fill="#f0d0b4"/>
          </g>
          <g id="Grupo_88639" data-name="Grupo 88639" transform="translate(0 27.104)">
            <path id="Trazado_128362" data-name="Trazado 128362" d="M16.663,33.628l-5.028,2.534a2.71,2.71,0,0,0-1.5,2.426v6.451a9.491,9.491,0,0,0,6.559,9.026l-.718,2.86a2.717,2.717,0,0,1-2.1,2.006c-.285.054-.556.122-.827.19v.014a14.423,14.423,0,0,0-4.161,1.789l-.014-.014a12.071,12.071,0,0,1-6.654-5.963L2,54.525a9.263,9.263,0,0,0,2.71-6.546V36.907a14.907,14.907,0,0,1,29.815,0V47.979a9.263,9.263,0,0,0,2.71,6.546l-.217.42a12.071,12.071,0,0,1-6.654,5.963l-.014.014a14.423,14.423,0,0,0-4.161-1.789v-.014c-.271-.068-.542-.136-.827-.19a2.717,2.717,0,0,1-2.1-2.006l-.718-2.86A9.491,9.491,0,0,0,29.1,45.039V39.13a2.712,2.712,0,0,0-2.182-2.656l-7.169-1.437a7.484,7.484,0,0,1-3.09-1.409Z" transform="translate(-2 -22)" fill="#f9ce24"/>
          </g>
          <g id="Grupo_88640" data-name="Grupo 88640" transform="translate(43.367)">
            <path id="Trazado_128363" data-name="Trazado 128363" d="M63.815,36.544A18.974,18.974,0,0,1,34,20.973a19.786,19.786,0,0,1,.19-2.71A18.975,18.975,0,1,1,63.815,36.544Z" transform="translate(-34 -2)" fill="#c09a23"/>
          </g>
          <g id="Grupo_88641" data-name="Grupo 88641" transform="translate(48.788 5.421)">
            <circle id="Elipse_4377" data-name="Elipse 4377" cx="13.552" cy="13.552" r="13.552" fill="#f9ce24"/>
          </g>
        </g>
        <g id="Grupo_88643" data-name="Grupo 88643" transform="translate(0.783 1)">
          <circle id="Elipse_4378" data-name="Elipse 4378" cx="1.355" cy="1.355" r="1.355" transform="translate(13.846 46.077)"/>
          <circle id="Elipse_4379" data-name="Elipse 4379" cx="1.355" cy="1.355" r="1.355" transform="translate(21.978 46.077)"/>
          <path id="Trazado_128364" data-name="Trazado 128364" d="M19.094,39.839a3.03,3.03,0,0,1-5.421,0l-.142-.286-2.424,1.213.142.286a5.741,5.741,0,0,0,10.27,0l.142-.286-2.424-1.213Z" transform="translate(2.884 12.694)"/>
          <path id="Trazado_128365" data-name="Trazado 128365" d="M82.952,72.436l-5.983-2.243V37.552A20.3,20.3,0,1,0,51,6.421H7.853a4.071,4.071,0,0,0-4.066,4.066V55.442a7.843,7.843,0,0,1-2.313,5.585l-.691.691.649,1.3a13.45,13.45,0,0,0,5.283,5.623A16.139,16.139,0,0,0,1.077,80.867v4.156H39.023v-2.71H73.149l9.8-3.677a3.311,3.311,0,0,0,0-6.2Zm-35.8-3.675h-2.71V63.34h2.71Zm2.71,2.71H71.548v2.71H37.56a16.26,16.26,0,0,0-1.586-2.71H49.865ZM58,68.761h-2.71V60.63H58Zm10.842,0h-2.71V55.209h2.71ZM38.515,76.892H71.548V79.6H38.968A15.9,15.9,0,0,0,38.515,76.892ZM64.772,3.71A17.618,17.618,0,1,1,47.154,21.328,17.638,17.638,0,0,1,64.772,3.71ZM7.853,9.131h40.7a20.2,20.2,0,0,0-3.694,8.131H39.023V11.842H30.892v5.421h-2.71V11.842H20.05v5.421H17.34V11.842H9.208v5.421H6.5V10.487A1.357,1.357,0,0,1,7.853,9.131Zm28.46,8.131H33.6v-2.71h2.71Zm-10.842,0h-2.71v-2.71h2.71Zm-10.842,0h-2.71v-2.71h2.71ZM6.5,19.973H44.513c-.03.45-.069.9-.069,1.355A20.307,20.307,0,0,0,74.259,39.293V69.177l-1.11-.416h-1.6V52.5H63.417V68.761h-2.71V57.919H52.575V68.761h-2.71V60.63H41.734v8.131H33.528l-.142-.123a13.449,13.449,0,0,0,5.283-5.623l.649-1.3-.691-.691a7.845,7.845,0,0,1-2.313-5.585V44.367A16.254,16.254,0,0,0,6.5,35.4ZM4.067,62.2A10.525,10.525,0,0,0,6.5,55.442V44.367a13.552,13.552,0,1,1,27.1,0V55.442a10.525,10.525,0,0,0,2.431,6.76,10.736,10.736,0,0,1-5.163,4.67,15.981,15.981,0,0,0-4.807-1.815,1.36,1.36,0,0,1-1.049-1l-.431-1.725A10.846,10.846,0,0,0,30.892,52.5V46.589A4.076,4.076,0,0,0,27.623,42.6l-7.172-1.434a6.042,6.042,0,0,1-4.537-4.006l-2.571.856a8.713,8.713,0,0,0,1.476,2.705l-3.364,1.682a4.043,4.043,0,0,0-2.247,3.636V52.5a10.846,10.846,0,0,0,6.309,9.835l-.431,1.724a1.36,1.36,0,0,1-1.049,1A16,16,0,0,0,9.23,66.87,10.713,10.713,0,0,1,4.067,62.2ZM20.05,60.63A8.139,8.139,0,0,1,11.919,52.5V46.042a1.35,1.35,0,0,1,.749-1.213L17,42.662a8.692,8.692,0,0,0,2.92,1.161l7.17,1.435a1.361,1.361,0,0,1,1.09,1.331V52.5A8.139,8.139,0,0,1,20.05,60.63Zm-2.335,4.086.39-1.56a10.352,10.352,0,0,0,3.889,0l.39,1.561a4.078,4.078,0,0,0,2.41,2.766l-.913,2.285a2.7,2.7,0,0,1-2.518,1.7H18.737a2.7,2.7,0,0,1-2.517-1.7l-.913-2.285A4.084,4.084,0,0,0,17.715,64.716Zm18.6,17.6H30.892V76.892h-2.71v5.421H11.919V76.892H9.208v5.421H3.788V80.867a13.447,13.447,0,0,1,8.905-12.62L13.7,70.775a5.4,5.4,0,0,0,5.033,3.407h2.626A5.4,5.4,0,0,0,26.4,70.773l1.011-2.526a13.447,13.447,0,0,1,8.905,12.62ZM82,76.1,74.259,79V72.072l7.74,2.9A.6.6,0,0,1,82,76.1Z" transform="translate(-0.783 -1)"/>
          <path id="Trazado_128366" data-name="Trazado 128366" d="M51.907,34.815A14.907,14.907,0,1,0,37,19.907,14.925,14.925,0,0,0,51.907,34.815Zm0-27.1a12.2,12.2,0,1,1-12.2,12.2A12.212,12.212,0,0,1,51.907,7.71Z" transform="translate(12.082 0.421)"/>
          <path id="Trazado_128367" data-name="Trazado 128367" d="M50.776,22.552h-2.71A1.357,1.357,0,0,1,46.71,21.2H44a4.071,4.071,0,0,0,4.066,4.066v2.71h2.71v-2.71a4.066,4.066,0,1,0,0-8.131h-2.71a1.355,1.355,0,1,1,0-2.71h2.71a1.357,1.357,0,0,1,1.355,1.355h2.71a4.071,4.071,0,0,0-4.066-4.066V9h-2.71v2.71a4.066,4.066,0,1,0,0,8.131h2.71a1.355,1.355,0,0,1,0,2.71Z" transform="translate(14.568 1.842)"/>
          <path id="Trazado_128368" data-name="Trazado 128368" d="M7,17H9.71v2.71H7Z" transform="translate(1.425 4.683)"/>
          <path id="Trazado_128369" data-name="Trazado 128369" d="M11,17H38.1v2.71H11Z" transform="translate(2.846 4.683)"/>
          <path id="Trazado_128370" data-name="Trazado 128370" d="M29,31H42.552v2.71H29Z" transform="translate(9.24 9.656)"/>
          <path id="Trazado_128371" data-name="Trazado 128371" d="M29,35H42.552v2.71H29Z" transform="translate(9.24 11.077)"/>
          <path id="Trazado_128372" data-name="Trazado 128372" d="M29,39H42.552v2.71H29Z" transform="translate(9.24 12.498)"/>
        </g>
      </g>
    </g>
  </g>
</svg>
