<svg xmlns="http://www.w3.org/2000/svg" width="163" height="163" viewBox="0 0 163 163">
  <g id="Grupo_1103836" data-name="Grupo 1103836" transform="translate(-560.667 -1053)">
    <circle id="Elipse_11583" data-name="Elipse 11583" cx="81.5" cy="81.5" r="81.5" transform="translate(560.667 1053)" fill="#f9ce24"/>
    <g id="Grupo_1100829" data-name="Grupo 1100829" transform="translate(598.12 1097)">
      <g id="Grupo_1100828" data-name="Grupo 1100828" transform="translate(0 0)">
        <path id="Trazado_876521" data-name="Trazado 876521" d="M624.825,92.911a5.856,5.856,0,0,1-5.4-3.58,1.547,1.547,0,0,1,2.851-1.2,2.769,2.769,0,1,0,2.551-3.846,5.862,5.862,0,1,1,5.222-8.519,1.547,1.547,0,0,1-2.758,1.4,2.767,2.767,0,1,0-2.468,4.021,5.864,5.864,0,0,1,0,11.725Z" transform="translate(-566.34 -58.601)" fill="#371f63"/>
        <path id="Trazado_876522" data-name="Trazado 876522" d="M635.945,67.373a1.547,1.547,0,0,1-1.547-1.547V62.611a1.547,1.547,0,1,1,3.094,0v3.214a1.547,1.547,0,0,1-1.547,1.547" transform="translate(-577.46 -50.323)" fill="#371f63"/>
        <path id="Trazado_876523" data-name="Trazado 876523" d="M635.945,140.575a1.547,1.547,0,0,1-1.547-1.547v-3.214a1.547,1.547,0,1,1,3.094,0v3.214a1.547,1.547,0,0,1-1.547,1.547" transform="translate(-577.46 -103.051)" fill="#371f63"/>
        <path id="Trazado_876524" data-name="Trazado 876524" d="M590.454,78.676a19.233,19.233,0,0,1-19.212-19.21c0-.5.019-1.009.058-1.5a1.547,1.547,0,0,1,3.085.24c-.033.414-.048.839-.048,1.263a16.118,16.118,0,1,0,32.1-2.077v-.021a16.048,16.048,0,0,0-1.031-3.92c0-.017-.016-.033-.021-.048a16.106,16.106,0,0,0-27.722-3.727,1.547,1.547,0,1,1-2.49-1.836l.036-.048a19.2,19.2,0,0,1,33.021,4.392.464.464,0,0,1,.021.05,19.117,19.117,0,0,1,1.257,4.76v.029a19.61,19.61,0,0,1,.155,2.447A19.233,19.233,0,0,1,590.454,78.676Z" transform="translate(-531.969 -35.332)" fill="#371f63"/>
        <path id="Trazado_876525" data-name="Trazado 876525" d="M475.442,34.453a1.548,1.548,0,1,1-.079-3.094A37.3,37.3,0,0,0,482,30.585c5.928-2.342,20.666-7.227,29.307-1.874.108.062.76.412,4.628,2.408a1.548,1.548,0,1,1-1.421,2.75c-4.539-2.346-4.732-2.46-4.817-2.516-7.651-4.761-22.262.414-26.555,2.118-1.615.64-6.631.93-7.62.98Z" transform="translate(-461.821 -25.28)" fill="#371f63"/>
        <path id="Trazado_876526" data-name="Trazado 876526" d="M478.7,81.412h-3.158a1.547,1.547,0,1,1,0-3.094H478.7a18.531,18.531,0,0,0,8.132-1.918c2.708-1.331,10.575-2.021,11.64-2.038l9.366-.164a2.9,2.9,0,0,0,2.857-2.945s0-.008,0-.012v-.387A2.9,2.9,0,0,0,507.754,68h-.012l-12.072.211h-.027a1.547,1.547,0,0,1-.027-3.094l12.072-.211h.106a6.009,6.009,0,0,1,6,5.9v.387a6.007,6.007,0,0,1-5.895,6.106l-9.366.162c-1.482.027-8.463.8-10.329,1.723A21.66,21.66,0,0,1,478.7,81.412Z" transform="translate(-461.924 -53.088)" fill="#371f63"/>
        <path id="Trazado_876527" data-name="Trazado 876527" d="M444.453,57.065H432.379a1.547,1.547,0,0,1-1.547-1.547V24.209a1.547,1.547,0,0,1,1.547-1.547h12.074A1.547,1.547,0,0,1,446,24.209V55.518a1.547,1.547,0,0,1-1.547,1.547m-10.527-3.094h8.979V25.756h-8.979Z" transform="translate(-430.832 -22.662)" fill="#371f63"/>
        <path id="Trazado_876528" data-name="Trazado 876528" d="M453.966,101.7a1.547,1.547,0,0,1-1.547-1.547V93.09a1.547,1.547,0,0,1,3.094,0v7.063a1.547,1.547,0,0,1-1.547,1.547" transform="translate(-446.381 -72.277)" fill="#371f63"/>
        <path id="Trazado_876529" data-name="Trazado 876529" d="M518.685,222.842a18.82,18.82,0,0,1-9.979-2.419c-.783-.451-14.1-7.289-22.888-11.787a6.189,6.189,0,0,1,5.624-11.023l17.572,8.952a1.547,1.547,0,0,1-1.4,2.758l-17.572-8.968a3.1,3.1,0,1,0-2.814,5.525c3.74,1.915,22.418,11.482,23.1,11.909,7.651,4.759,22.256-.42,26.551-2.127,1.613-.64,6.63-.928,7.618-.98a1.549,1.549,0,0,1,.161,3.094,37.328,37.328,0,0,0-6.639.774C534.034,220.123,526.1,222.842,518.685,222.842Z" transform="translate(-468.077 -148.227)" fill="#371f63"/>
        <path id="Trazado_876530" data-name="Trazado 876530" d="M573.633,208.284a6.009,6.009,0,0,1-6-5.9V202a6.006,6.006,0,0,1,5.894-6.105l9.366-.163c1.481-.027,8.463-.8,10.329-1.723a21.662,21.662,0,0,1,9.5-2.23h3.158a1.547,1.547,0,1,1,0,3.094h-3.168a18.534,18.534,0,0,0-8.132,1.924c-2.708,1.331-10.575,2.021-11.64,2.038l-9.366.164a2.9,2.9,0,0,0-2.857,2.945v.4a2.915,2.915,0,0,0,2.957,2.857l12.072-.211a1.547,1.547,0,1,1,.054,3.094l-12.072.211Z" transform="translate(-529.372 -144.478)" fill="#371f63"/>
        <path id="Trazado_876531" data-name="Trazado 876531" d="M712.432,204.472H700.358a1.547,1.547,0,0,1-1.547-1.547V171.616a1.547,1.547,0,0,1,1.547-1.547h12.074a1.547,1.547,0,0,1,1.547,1.547v31.309A1.547,1.547,0,0,1,712.432,204.472Zm-10.527-3.094h8.979V173.163h-8.979Z" transform="translate(-623.857 -128.839)" fill="#371f63"/>
      </g>
      <path id="Trazado_876532" data-name="Trazado 876532" d="M721.938,198.03a1.547,1.547,0,0,1-1.547-1.547V189.42a1.547,1.547,0,0,1,3.094,0v7.063a1.547,1.547,0,0,1-1.547,1.547" transform="translate(-639.401 -141.663)" fill="#371f63"/>
    </g>
  </g>
</svg>
