<svg xmlns="http://www.w3.org/2000/svg" width="163" height="163" viewBox="0 0 163 163">
  <g id="Grupo_1103837" data-name="Grupo 1103837" transform="translate(-876.667 -1053)">
    <circle id="Elipse_11584" data-name="Elipse 11584" cx="81.5" cy="81.5" r="81.5" transform="translate(876.667 1053)" fill="#f9ce24"/>
    <g id="Grupo_1100827" data-name="Grupo 1100827" transform="translate(915 1089)">
      <path id="Trazado_876533" data-name="Trazado 876533" d="M878.353,53.6V74.947h3.05V53.6a16.794,16.794,0,0,1,16.775-16.775h11.84l-6.422,3.21,1.363,2.73,12.2-6.1a1.525,1.525,0,0,0,0-2.73l-12.2-6.1L903.6,30.57l6.422,3.2h-11.84A19.847,19.847,0,0,0,878.353,53.6" transform="translate(-863.104 -20.048)" fill="#371f63"/>
      <path id="Trazado_876534" data-name="Trazado 876534" d="M954.815,105.351a18.414,18.414,0,0,0-3.469-3.469,1.534,1.534,0,0,0-1.389-.241l-1.883.61a16.058,16.058,0,0,0-3.294-1.372l-.906-1.757a1.525,1.525,0,0,0-1.153-.813,16.3,16.3,0,0,0-4.9,0,1.525,1.525,0,0,0-1.153.813l-.906,1.751a16.055,16.055,0,0,0-3.294,1.373l-1.883-.61a1.536,1.536,0,0,0-1.389.241,18.406,18.406,0,0,0-3.469,3.469,1.526,1.526,0,0,0-.241,1.389l.61,1.883a16.06,16.06,0,0,0-1.372,3.294l-1.757.906a1.526,1.526,0,0,0-.813,1.153,16.643,16.643,0,0,0,0,4.9,1.526,1.526,0,0,0,.813,1.153l1.757.906a16.06,16.06,0,0,0,1.372,3.294l-.61,1.883a1.526,1.526,0,0,0,.241,1.389,18.406,18.406,0,0,0,3.469,3.469,1.525,1.525,0,0,0,1.389.241l1.883-.6a16.048,16.048,0,0,0,3.294,1.365l.906,1.757a1.525,1.525,0,0,0,1.153.813,16.638,16.638,0,0,0,4.9,0,1.525,1.525,0,0,0,1.153-.813l.906-1.757a16.058,16.058,0,0,0,3.294-1.365l1.883.6a1.525,1.525,0,0,0,1.389-.241,18.412,18.412,0,0,0,3.469-3.469,1.525,1.525,0,0,0,.241-1.389l-.6-1.877a16.067,16.067,0,0,0,1.365-3.294l1.757-.906a1.525,1.525,0,0,0,.813-1.153,16.639,16.639,0,0,0,0-4.9,1.525,1.525,0,0,0-.813-1.153l-1.75-.906a16.013,16.013,0,0,0-1.365-3.294l.6-1.883a1.524,1.524,0,0,0-.247-1.389m.641,9.81c.042.458.064.869.064,1.266s-.021.808-.064,1.266l-1.635.842a1.524,1.524,0,0,0-.782,1,13.078,13.078,0,0,1-1.545,3.727,1.515,1.515,0,0,0-.153,1.258l.558,1.746a15.113,15.113,0,0,1-1.8,1.8l-1.75-.558a1.524,1.524,0,0,0-1.258.152,13.079,13.079,0,0,1-3.727,1.545,1.525,1.525,0,0,0-1,.782l-.842,1.635a12.308,12.308,0,0,1-2.531,0l-.842-1.635a1.525,1.525,0,0,0-1-.782,13.087,13.087,0,0,1-3.727-1.545,1.523,1.523,0,0,0-1.258-.152l-1.746.558a15.139,15.139,0,0,1-1.8-1.8l.558-1.746a1.515,1.515,0,0,0-.152-1.258,13.071,13.071,0,0,1-1.545-3.727,1.525,1.525,0,0,0-.782-1l-1.635-.842c-.043-.457-.064-.869-.064-1.266s.022-.808.064-1.266l1.635-.842a1.525,1.525,0,0,0,.782-1,13.081,13.081,0,0,1,1.545-3.726,1.515,1.515,0,0,0,.152-1.258l-.558-1.746a15.14,15.14,0,0,1,1.8-1.8l1.746.558a1.524,1.524,0,0,0,1.258-.153,13.078,13.078,0,0,1,3.727-1.545,1.526,1.526,0,0,0,1-.782L939,101.24a12.309,12.309,0,0,1,2.531,0l.842,1.635a1.525,1.525,0,0,0,1,.782,13.071,13.071,0,0,1,3.727,1.545,1.525,1.525,0,0,0,1.258.153l1.746-.558a15.16,15.16,0,0,1,1.8,1.8l-.552,1.752a1.514,1.514,0,0,0,.152,1.258,13.071,13.071,0,0,1,1.545,3.727,1.523,1.523,0,0,0,.782,1Z" transform="translate(-894.521 -70.679)" fill="#371f63"/>
      <path id="Trazado_876535" data-name="Trazado 876535" d="M963.833,130.85a9.15,9.15,0,1,0,9.15,9.15,9.15,9.15,0,0,0-9.15-9.15m0,15.25a6.1,6.1,0,1,1,6.1-6.1,6.1,6.1,0,0,1-6.1,6.1" transform="translate(-918.083 -94.251)" fill="#371f63"/>
      <path id="Trazado_876538" data-name="Trazado 876538" d="M824.756,234.068l15.25,6.536a1.525,1.525,0,0,0,1.2,0l15.25-6.536a1.525,1.525,0,0,0,.924-1.4V215.24a1.525,1.525,0,0,0-.924-1.4l-15.25-6.536a1.525,1.525,0,0,0-1.2,0l-15.25,6.536a1.525,1.525,0,0,0-.924,1.4v17.427a1.525,1.525,0,0,0,.924,1.4m2.126-16.52,12.2,5.229v14.11l-12.2-5.226Zm15.25,19.343v-14.11l12.2-5.232v14.11Zm-1.525-26.534,11.379,4.88-11.379,4.878-11.379-4.88Z" transform="translate(-823.832 -149.231)" fill="#371f63"/>
      <path id="Trazado_876539" data-name="Trazado 876539" d="M994.326,152.2V130.85h-3.05V152.2A16.794,16.794,0,0,1,974.5,168.974h-11.84l6.422-3.2-1.363-2.73-12.2,6.1a1.525,1.525,0,0,0,0,2.73l12.2,6.1,1.363-2.73-6.422-3.218H974.5A19.847,19.847,0,0,0,994.326,152.2" transform="translate(-918.078 -94.251)" fill="#371f63"/>
      <path id="Trazado_876536" data-name="Trazado 876536" d="M1047.786,0a16.775,16.775,0,1,0,16.775,16.775A16.775,16.775,0,0,0,1047.786,0m0,30.5a13.725,13.725,0,1,1,13.725-13.724A13.725,13.725,0,0,1,1047.786,30.5" transform="translate(-973.063 0.001)" fill="#371f63"/>
      <path id="Trazado_876537" data-name="Trazado 876537" d="M1075.923,24.743h3.05a5.763,5.763,0,0,0-6.1-5.337v-3.05h-3.05v3.05a5.763,5.763,0,0,0-6.1,5.337,5.763,5.763,0,0,0,6.1,5.337v4.575c-1.653,0-3.05-1.047-3.05-2.287h-3.05a5.763,5.763,0,0,0,6.1,5.338v3.05h3.05v-3.05a5.763,5.763,0,0,0,6.1-5.338,5.763,5.763,0,0,0-6.1-5.337V22.456c1.653,0,3.05,1.047,3.05,2.287m0,7.625c0,1.24-1.4,2.287-3.05,2.287V30.081c1.653,0,3.05,1.048,3.05,2.287m-6.1-5.337c-1.653,0-3.05-1.048-3.05-2.287s1.4-2.287,3.05-2.287Z" transform="translate(-996.625 -11.781)" fill="#371f63"/>
    </g>
  </g>
</svg>
