<svg xmlns="http://www.w3.org/2000/svg" width="163" height="163" viewBox="0 0 163 163">
  <g id="Grupo_1103838" data-name="Grupo 1103838" transform="translate(-1190.667 -1053)">
    <circle id="Elipse_11585" data-name="Elipse 11585" cx="81.5" cy="81.5" r="81.5" transform="translate(1190.667 1053)" fill="#f9ce24"/>
    <g id="Grupo_1100826" data-name="Grupo 1100826" transform="translate(1230 1092)">
      <path id="Trazado_876540" data-name="Trazado 876540" d="M1405.8,194.256l-16.695,7.053a4.452,4.452,0,0,0,.06-.64,5.88,5.88,0,0,0-5.877-5.877h-12.023a3.318,3.318,0,0,1-1.413-.312l-10.193-4.613a12.589,12.589,0,0,0-5.1-1.1h-8.3v2.976h8.3a9.49,9.49,0,0,1,3.883.833l10.192,4.613a6.464,6.464,0,0,0,2.649.565H1383.3a2.9,2.9,0,0,1,0,5.8h-15.579v2.976h15.564a5.785,5.785,0,0,0,2.812-.744v.015l20.846-8.823a6.732,6.732,0,0,1,8.422,2.768l-36.8,19.522a11.987,11.987,0,0,1-9.2.818l-18-5.788-5.133-.074V217.2h4.449l17.781,5.714a14.653,14.653,0,0,0,4.523.7,14.8,14.8,0,0,0,6.964-1.726l39.207-20.772-.432-1.22a9.7,9.7,0,0,0-12.93-5.639" transform="translate(-1325.064 -139.172)" fill="#371f63"/>
      <path id="Trazado_876541" data-name="Trazado 876541" d="M1288.5,209.765V178.176a2.985,2.985,0,0,0-2.976-2.976h-14.984v2.976h14.984v31.6h-14.984v2.976h14.984A3.007,3.007,0,0,0,1288.5,209.765Z" transform="translate(-1270.538 -129.402)" fill="#371f63"/>
      <path id="Trazado_876542" data-name="Trazado 876542" d="M1299.35,276.83a2.091,2.091,0,1,1-2.083-2.1,2.089,2.089,0,0,1,2.083,2.1" transform="translate(-1288.28 -201.094)" fill="#371f63"/>
      <path id="Trazado_876545" data-name="Trazado 876545" d="M1490.961,57.879l.268,2.961,2.872-.268.67-.03.625-.625,3.169-6.815,2.723,6.413.03,1.205h1.4l7.1.878-5.52,4.791-.491.521v.64l1.414,7.38L1499.16,71.3l-.312-.312-1.31.015-.268.283-6.145,3.407,1.682-7.231-.015-.878-3.809-3.556-2.039,2.172,2.723,2.544-2.142,9.27-.3,1,1.622,1.339,9.329-5.163,8.2,4.925.923.566,1.622-1.22L1506.9,68.072l7.157-6.2a1.568,1.568,0,0,0,.536-1.637l-.342-1.056-10.446-1.28-3.809-8.957-.446-.818-1.771-.06-.461.729-4.166,8.9Z" transform="translate(-1426.414 -37.822)" fill="#371f63"/>
      <path id="Trazado_876543" data-name="Trazado 876543" d="M1380,46.872l1.607,1.19,11.07-6.13,10.014,6.026.863.506,1.607-1.161-2.41-12.409,8.853-7.678.714-.684-.625-1.845-12.528-1.548-4.553-10.773-.417-.893-.952-.015h-1.012l-5.342,11.472-11.665.982-1,.119-.6,1.86,9.24,8.615Zm-1.265-20.266,9.255-.8.878-.1,4.27-9.166,3.616,8.526.372.818,10.058,1.235-6.963,6.041-.7.6,1.934,9.969-7.975-4.806-.759-.4-8.823,4.9,2.068-8.928.253-.922Z" transform="translate(-1344.798 -11.459)" fill="#371f63"/>
      <path id="Trazado_876544" data-name="Trazado 876544" d="M1306.408,67.591l-2.158,9.27-.3,1.071,1.681,1.235,9.27-5.133,8.184,4.91.922.58,1.652-1.205-2.024-10.4,2.158-1.86-1.949-2.247-2.872,2.485-.432.506V67.4l1.4,7.4-6.041-3.645-.312-.3-1.265-.03-.3.3-6.175,3.422,1.666-7.231V66.43l-5.788-5.387,7.082-.625.684-.015.625-.625,3.169-6.815,2.857,6.74.461.878h.833l3.586.446.372-2.961-2.872-.342-3.779-8.928-.506-.952-2.053.164-.283.878-4.017,8.645-9.463.818-1.176.059-.625,2.172.818.536Z" transform="translate(-1290.77 -37.668)" fill="#371f63"/>
    </g>
  </g>
</svg>
