<svg xmlns="http://www.w3.org/2000/svg" width="101" height="101" viewBox="0 0 101 101">
  <g id="Grupo_1103839" data-name="Grupo 1103839" transform="translate(-749.5 -6955.358)">
    <circle id="Elipse_1149" data-name="Elipse 1149" cx="50.5" cy="50.5" r="50.5" transform="translate(749.5 6955.358)" fill="#be79ca"/>
    <g id="Layer_15" data-name="Layer 15" transform="translate(766.492 6973.271)">
      <path id="Trazado_881705" data-name="Trazado 881705" d="M11,34v4.33a2.165,2.165,0,0,0,2.165,2.165h9.742a2.165,2.165,0,0,0,2.165-2.165V34" transform="translate(0.824 2.696)" fill="#90741a"/>
      <path id="Trazado_881706" data-name="Trazado 881706" d="M20.742,36.165V34H11v3.247h8.66A1.082,1.082,0,0,0,20.742,36.165Z" transform="translate(0.824 2.696)" fill="#f9ce24"/>
      <path id="Trazado_881707" data-name="Trazado 881707" d="M11.742,17h9.742V36.484H11.742a9.742,9.742,0,1,1,0-19.484Z" transform="translate(0.082 1.295)" fill="#c09a23"/>
      <path id="Trazado_881708" data-name="Trazado 881708" d="M18.237,32.154V17H11.742a9.72,9.72,0,0,0-9.1,13.183,9.684,9.684,0,0,0,5.857,1.971Z" transform="translate(0.082 1.295)" fill="#f9ce24"/>
      <path id="Trazado_881709" data-name="Trazado 881709" d="M20,19.072a33.973,33.973,0,0,0,24.022-9.95L48.144,5V50.463l-4.122-4.122A33.973,33.973,0,0,0,20,36.391" transform="translate(1.566 0.305)" fill="#e2e7f6"/>
      <path id="Trazado_881710" data-name="Trazado 881710" d="M46,19a7.577,7.577,0,1,1,0,15.154" transform="translate(3.71 1.46)" fill="#c09a23"/>
      <path id="Trazado_881711" data-name="Trazado 881711" d="M9,21h8.66v2.165H9Z" transform="translate(0.659 1.624)" fill="#3b5892"/>
      <path id="Trazado_881712" data-name="Trazado 881712" d="M9,25h8.66v2.165H9Z" transform="translate(0.659 1.954)" fill="#3b5892"/>
      <path id="Trazado_881713" data-name="Trazado 881713" d="M9,29h8.66v2.165H9Z" transform="translate(0.659 2.284)" fill="#3b5892"/>
      <path id="Trazado_881714" data-name="Trazado 881714" d="M13,40V58.943a4.871,4.871,0,1,0,9.742,0V40" transform="translate(0.989 3.191)" fill="#c09a23"/>
      <g id="Grupo_1102420" data-name="Grupo 1102420" transform="translate(23.731 1.299)">
        <path id="Trazado_881715" data-name="Trazado 881715" d="M22,40l.951.951a7.839,7.839,0,0,0,5.543,2.3L25.247,48.66H22" transform="translate(-22 1.892)" fill="#c8cded"/>
        <path id="Trazado_881716" data-name="Trazado 881716" d="M0,0H13.777V2.165H0Z" transform="translate(32.784 9.741) rotate(-45)" fill="#c8cded"/>
        <path id="Trazado_881717" data-name="Trazado 881717" d="M0,0H2.165V13.777H0Z" transform="translate(32.78 43.742) rotate(-45)" fill="#c8cded"/>
        <path id="Trazado_881718" data-name="Trazado 881718" d="M56,25h7.577v2.165H56Z" transform="translate(-19.197 0.656)" fill="#c8cded"/>
      </g>
      <path id="Trazado_881719" data-name="Trazado 881719" d="M42.82,26.248V9.864A33.971,33.971,0,0,1,20,18.671V31.66H37.408A5.412,5.412,0,0,0,42.82,26.248Z" transform="translate(1.566 0.706)" fill="#f2f2f2"/>
      <path id="Trazado_881720" data-name="Trazado 881720" d="M49.789,26.577V20.022A7.532,7.532,0,0,0,46,19v9.742h1.624A2.165,2.165,0,0,0,49.789,26.577Z" transform="translate(3.71 1.46)" fill="#f9ce24"/>
      <path id="Trazado_881721" data-name="Trazado 881721" d="M18.7,40H13V58.943l.275.275h2.179A3.247,3.247,0,0,0,18.7,55.971Z" transform="translate(0.989 3.191)" fill="#f9ce24"/>
      <path id="Trazado_881722" data-name="Trazado 881722" d="M24.165,44.871V41.942a7.839,7.839,0,0,1-1.213-.99L22,40v5.953h1.082a1.082,1.082,0,0,0,1.082-1.082Z" transform="translate(1.731 3.191)" fill="#e2e7f6"/>
      <path id="Trazado_881723" data-name="Trazado 881723" d="M58.369,27.814a8.668,8.668,0,0,0-7.577-8.585V5.082a1.082,1.082,0,0,0-1.848-.765L44.822,8.438a32.653,32.653,0,0,1-22.174,9.608,1.082,1.082,0,0,0-1.082-1.056H11.824a10.825,10.825,0,0,0-1.082,21.594V40.8a3.247,3.247,0,0,0,2.165,3.048v18.06a5.953,5.953,0,0,0,11.907,0v-9.2h2.165a1.082,1.082,0,0,0,.928-.525l3.247-5.412a1.082,1.082,0,0,0-.928-1.64,6.7,6.7,0,0,1-4.534-1.758A3.233,3.233,0,0,0,26.978,40.8v-2.8A32.636,32.636,0,0,1,44.822,47.19l4.122,4.122a1.082,1.082,0,0,0,.765.316,1.068,1.068,0,0,0,.415-.082,1.082,1.082,0,0,0,.668-1V36.4a8.668,8.668,0,0,0,7.577-8.585Zm-55.205,0a8.669,8.669,0,0,1,8.66-8.66h8.66V36.474h-8.66a8.669,8.669,0,0,1-8.66-8.66ZM18.86,65.7a3.789,3.789,0,0,1-3.789-3.789V44.051h7.577v17.86A3.789,3.789,0,0,1,18.86,65.7Zm7.506-15.154H24.813V45.458a8.826,8.826,0,0,0,3.609,1.657ZM24.813,40.8a1.082,1.082,0,0,1-1.082,1.082H13.989A1.082,1.082,0,0,1,12.906,40.8V38.638h8.66a1.082,1.082,0,0,0,1.082-1.056c.727.024,1.452.062,2.165.132Zm23.814,7.129-2.273-2.273A34.8,34.8,0,0,0,22.648,35.417V20.211A34.8,34.8,0,0,0,46.354,9.97L48.627,7.7Zm2.165-13.721V21.417a6.487,6.487,0,0,1,0,12.795Z" transform="translate(0 0.223)"/>
      <path id="Trazado_881724" data-name="Trazado 881724" d="M9,21h8.66v2.165H9Z" transform="translate(0.659 1.624)"/>
      <path id="Trazado_881725" data-name="Trazado 881725" d="M9,25h8.66v2.165H9Z" transform="translate(0.659 1.954)"/>
      <path id="Trazado_881726" data-name="Trazado 881726" d="M9,29h8.66v2.165H9Z" transform="translate(0.659 2.284)"/>
      <path id="Trazado_881727" data-name="Trazado 881727" d="M0,0H13.777V2.165H0Z" transform="translate(56.515 11.039) rotate(-45)"/>
      <path id="Trazado_881728" data-name="Trazado 881728" d="M0,0H2.165V13.777H0Z" transform="translate(56.51 45.041) rotate(-45)"/>
      <path id="Trazado_881729" data-name="Trazado 881729" d="M56,25h7.577v2.165H56Z" transform="translate(4.534 1.954)"/>
    </g>
  </g>
</svg>
