<svg xmlns="http://www.w3.org/2000/svg" xmlns:xlink="http://www.w3.org/1999/xlink" width="295" height="251.893" viewBox="0 0 295 251.893">
  <defs>
    <linearGradient id="linear-gradient" x1="0.814" y1="0.117" x2="0.236" y2="0.921" gradientUnits="objectBoundingBox">
      <stop offset="0" stop-color="#be79ca"/>
      <stop offset="1" stop-color="#371f63"/>
    </linearGradient>
    <clipPath id="clip-path">
      <rect id="Rectángulo_401733" data-name="Rectángulo 401733" width="295" height="156.8" fill="none"/>
    </clipPath>
  </defs>
  <g id="Grupo_1103844" data-name="Grupo 1103844" transform="translate(-285 -9367.195)">
    <g id="Grupo_1099979" data-name="Grupo 1099979" transform="translate(0 1704.844)">
      <g id="Grupo_1099735" data-name="Grupo 1099735" transform="translate(285 7662.352)">
        <path id="Trazado_145968" data-name="Trazado 145968" d="M55.833,0a55.833,55.833,0,1,0,55.833,55.833A55.833,55.833,0,0,0,55.833,0Z" transform="translate(0 135.446)" fill="#75baf1" opacity="0.444"/>
        <path id="Trazado_145969" data-name="Trazado 145969" d="M38.151,0A38.151,38.151,0,1,0,76.3,38.151,38.151,38.151,0,0,0,38.151,0Z" transform="translate(218.698 14.567)" fill="#75baf1" opacity="0.444"/>
        <path id="Trazado_145967" data-name="Trazado 145967" d="M125.946,0A125.946,125.946,0,1,0,251.893,125.946,125.946,125.946,0,0,0,125.946,0Z" transform="translate(32.861)" fill="url(#linear-gradient)"/>
        <path id="Trazado_145971" data-name="Trazado 145971" d="M10.489,0A10.489,10.489,0,1,0,20.979,10.489,10.489,10.489,0,0,0,10.489,0Z" transform="translate(263.774 209.72)" fill="#75baf1"/>
        <path id="Elipse_4044" data-name="Elipse 4044" d="M14.225,3.845A10.381,10.381,0,1,1,3.845,14.225,10.392,10.392,0,0,1,14.225,3.845m0-3.845A14.225,14.225,0,1,0,28.451,14.225,14.225,14.225,0,0,0,14.225,0Z" transform="translate(235.323 89.841)" fill="#fff"/>
      </g>
      <g id="Grupo_1099978" data-name="Grupo 1099978" transform="translate(285 7709.897)">
        <g id="Grupo_1099978-2" data-name="Grupo 1099978" clip-path="url(#clip-path)">
          <path id="Trazado_874650" data-name="Trazado 874650" d="M155.077,18.274H138.934a1.351,1.351,0,0,1-1.347-1.347V1.347A1.351,1.351,0,0,1,138.934,0h16.143a1.351,1.351,0,0,1,1.347,1.347v15.58a1.351,1.351,0,0,1-1.347,1.347" fill="#d9d4e1"/>
          <path id="Trazado_874651" data-name="Trazado 874651" d="M154.378,17.483H139.634a1.234,1.234,0,0,1-1.23-1.231V2.023a1.234,1.234,0,0,1,1.23-1.231h14.744a1.235,1.235,0,0,1,1.231,1.231v14.23a1.235,1.235,0,0,1-1.231,1.231" fill="#ebe9ef"/>
          <circle id="Elipse_11534" data-name="Elipse 11534" cx="0.39" cy="0.39" r="0.39" transform="translate(146.616 2.068)" fill="#d3cedd"/>
          <path id="Trazado_874652" data-name="Trazado 874652" d="M149.765,3.01a.39.39,0,1,1,.152.531.39.39,0,0,1-.152-.531h0" fill="#d3cedd"/>
          <path id="Trazado_874653" data-name="Trazado 874653" d="M152.462,5.152a.39.39,0,1,1-.116.539.39.39,0,0,1,.116-.539" fill="#d3cedd"/>
          <path id="Trazado_874654" data-name="Trazado 874654" d="M153.8,8.469a.39.39,0,1,1-.39.39.391.391,0,0,1,.39-.39" fill="#d3cedd"/>
          <path id="Trazado_874655" data-name="Trazado 874655" d="M153.116,12.32a.39.39,0,1,1-.552,0,.391.391,0,0,1,.552,0" fill="#d3cedd"/>
          <path id="Trazado_874656" data-name="Trazado 874656" d="M150.665,14.777a.39.39,0,1,1-.552,0,.391.391,0,0,1,.552,0" fill="#d3cedd"/>
          <circle id="Elipse_11535" data-name="Elipse 11535" cx="0.39" cy="0.39" r="0.39" transform="translate(146.616 15.653)" fill="#d3cedd"/>
          <path id="Trazado_874657" data-name="Trazado 874657" d="M144.235,3.01a.39.39,0,1,0-.151.531.39.39,0,0,0,.151-.531Z" fill="#d3cedd"/>
          <path id="Trazado_874658" data-name="Trazado 874658" d="M141.537,5.152a.39.39,0,1,0,.116.539.39.39,0,0,0-.116-.539" fill="#d3cedd"/>
          <path id="Trazado_874659" data-name="Trazado 874659" d="M140.2,8.469a.39.39,0,1,0,.39.39.39.39,0,0,0-.39-.39" fill="#d3cedd"/>
          <path id="Trazado_874660" data-name="Trazado 874660" d="M140.883,12.32a.39.39,0,1,0,.552,0,.391.391,0,0,0-.552,0" fill="#d3cedd"/>
          <path id="Trazado_874661" data-name="Trazado 874661" d="M143.333,14.777a.39.39,0,1,0,.552,0,.391.391,0,0,0-.552,0" fill="#d3cedd"/>
          <circle id="Elipse_11536" data-name="Elipse 11536" cx="0.39" cy="0.39" r="0.39" transform="translate(146.901 8.47)" fill="#d3cedd"/>
          <rect id="Rectángulo_401720" data-name="Rectángulo 401720" width="0.106" height="4.875" transform="translate(147.238 3.986)" fill="#d3cedd"/>
          <rect id="Rectángulo_401721" data-name="Rectángulo 401721" width="3.287" height="0.32" transform="translate(147.143 8.728) rotate(-38.142)" fill="#d3cedd"/>
          <path id="Trazado_874662" data-name="Trazado 874662" d="M59.609,83.371s-3.3-3.846-.2-6.288a8.765,8.765,0,0,1,4.1-1.257S60.9,80.2,61.743,80.639,64.3,75.552,64.3,75.552s5.141-.5,6.8.3c0,0-4.4,3.6-3.47,3.811S73.3,76.347,73.3,76.347s4.785.814,4.53,3.733-1.9,3.821-2.629,3.743-4.964-1.7-5.056-1.1,2.459,2.534,4.246,2.625c0,0-3.374,3.721-5.616,2.647s-2.434-2.776-3.831-3.414-2.591-.637-2.014.014,3.107,1.284,3.906,2.7,1.516,2.367-.8,2.018-6.091-2.046-6.256-3.99Z" fill="#ddd9e4"/>
          <path id="Trazado_874663" data-name="Trazado 874663" d="M75.477,80.156s-13-.5-15.867,3.216A9.4,9.4,0,0,1,57.022,87l-.3.83s2.252-2.375,3.058-2.518c0,0-1.26-4.6,15.7-5.16" fill="#ddd9e4"/>
          <path id="Trazado_874664" data-name="Trazado 874664" d="M57.021,87a8.164,8.164,0,0,0-2.984,5.75l.506.045s.891-3.812,2.5-5.3-.024-.493-.024-.493" fill="#ddd9e4"/>
          <path id="Trazado_874665" data-name="Trazado 874665" d="M48.084,78.536s5.244-2.936,2.8-6.922c0,0-1.958-2.447-4.055-3.076,0,0,1.119,5.943,0,6.083s-.769-6.712-.769-6.712-5.523-2.657-7.691-2.447c0,0,3.426,5.8,2.307,5.663s-4.964-6.013-4.964-6.013-5.663-1.049-6.572,2.307.559,5.034,1.4,5.244,6.222.14,6.083.839-3.776,1.818-5.8,1.189c0,0,2.237,5.523,5.174,5.244s3.845-2.1,5.663-2.238,3.146.35,2.237.839-3.985.16-5.453,1.409-2.657,2.017.07,2.577,7.621.21,8.6-1.888Z" fill="#ddd9e4"/>
          <path id="Trazado_874666" data-name="Trazado 874666" d="M31.723,68.468S46.4,73.222,48.083,78.536a11.149,11.149,0,0,0,1.4,5.1v1.049s-1.538-3.566-2.377-4.055c0,0,3.286-4.615-15.382-12.165" fill="#ddd9e4"/>
          <path id="Trazado_874667" data-name="Trazado 874667" d="M49.483,83.64a9.685,9.685,0,0,1,.973,7.624l-.583-.156s.565-4.61-.619-6.929.228-.538.228-.538" fill="#ddd9e4"/>
          <path id="Trazado_874668" data-name="Trazado 874668" d="M56.426,74.486s-6.912-3.871-3.686-9.124c0,0,2.581-3.226,5.345-4.055,0,0-1.474,7.834,0,8.018S59.1,60.477,59.1,60.477s7.281-3.5,10.138-3.226c0,0-4.516,7.649-3.041,7.465S72.74,56.79,72.74,56.79s7.465-1.382,8.663,3.041-.737,6.636-1.843,6.912-8.2.184-8.018,1.106,4.977,2.4,7.649,1.567c0,0-2.949,7.281-6.82,6.912s-5.069-2.765-7.465-2.949-4.147.461-2.949,1.106,5.253.211,7.189,1.857,3.5,2.659-.092,3.4-10.046.276-11.336-2.489Z" fill="#e5e2eb"/>
          <path id="Trazado_874669" data-name="Trazado 874669" d="M77.992,61.215S58.638,67.482,56.426,74.486a14.707,14.707,0,0,1-1.843,6.728V82.6s2.028-4.7,3.134-5.345c0,0-4.332-6.083,20.276-16.036" fill="#e5e2eb"/>
          <path id="Trazado_874670" data-name="Trazado 874670" d="M54.583,81.214A12.764,12.764,0,0,0,53.3,91.264l.768-.206s-.745-6.077.816-9.133-.3-.71-.3-.71" fill="#e5e2eb"/>
          <path id="Trazado_874671" data-name="Trazado 874671" d="M56.194,103.232a13.54,13.54,0,0,0,13.54-13.54H42.654a13.54,13.54,0,0,0,13.54,13.54" fill="#e5e2eb"/>
          <path id="Trazado_874672" data-name="Trazado 874672" d="M69.92,103.912H42.466a1.672,1.672,0,0,1,1.67-1.67H68.249a1.672,1.672,0,0,1,1.67,1.67" fill="#e5e2eb"/>
          <rect id="Rectángulo_401722" data-name="Rectángulo 401722" width="27.833" height="0.415" transform="translate(42.208 89.688)" fill="#c3bcd0"/>
          <path id="Trazado_874673" data-name="Trazado 874673" d="M72.752,104.743v1.3c0,.455-.147.827-.327.827H25.008c-.18,0-.327-.371-.327-.827v-1.3c0-.454.147-.827.327-.827H72.424c.18,0,.327.372.327.827" fill="#bfb7cd"/>
          <path id="Trazado_874674" data-name="Trazado 874674" d="M72.752,104.743v1.3c0,.455-.135.827-.3.827H34.809c-.165,0-.3-.371-.3-.827v-1.3c0-.454.135-.827.3-.827H72.453c.165,0,.3.372.3.827" fill="#d5d0de"/>
          <rect id="Rectángulo_401723" data-name="Rectángulo 401723" width="33.663" height="49.066" transform="translate(27.088 106.87)" fill="#ddd9e4"/>
          <rect id="Rectángulo_401724" data-name="Rectángulo 401724" width="33.663" height="49.066" transform="translate(36.522 106.87)" fill="#ebe9ef"/>
          <path id="Trazado_874675" data-name="Trazado 874675" d="M68.375,153.226H38.331V108.255H68.375ZM38.654,152.9h29.4V108.58h-29.4Z" fill="#d3cedd"/>
          <rect id="Rectángulo_401725" data-name="Rectángulo 401725" width="29.721" height="0.324" transform="translate(38.493 123.132)" fill="#d3cedd"/>
          <rect id="Rectángulo_401726" data-name="Rectángulo 401726" width="29.721" height="0.324" transform="translate(38.493 138.299)" fill="#d3cedd"/>
          <path id="Trazado_874676" data-name="Trazado 874676" d="M56.4,111.155H50.884a.487.487,0,0,1,0-.973H56.4a.487.487,0,0,1,.044.973H56.4" fill="#d3cedd"/>
          <path id="Trazado_874677" data-name="Trazado 874677" d="M56.4,125.987H50.884a.487.487,0,0,1,0-.973H56.4a.487.487,0,0,1,0,.973" fill="#d3cedd"/>
          <path id="Trazado_874678" data-name="Trazado 874678" d="M56.4,141.448H50.884a.487.487,0,0,1-.044-.973.321.321,0,0,1,.044,0H56.4a.487.487,0,0,1,.044.973.321.321,0,0,1-.044,0" fill="#d3cedd"/>
          <path id="Trazado_874679" data-name="Trazado 874679" d="M34.544,97.188v6.818H27.67V97.167a1.9,1.9,0,0,1,.01-.2,2.1,2.1,0,0,1,1.269-1.735,1.388,1.388,0,0,0,.869-1.2l.051-.985h2.523l.016.982a1.34,1.34,0,0,0,.842,1.2,2.118,2.118,0,0,1,1.282,1.733c.007.072.012.144.012.218" fill="#ddd9e4"/>
          <path id="Trazado_874680" data-name="Trazado 874680" d="M32.572,93.486H29.628l.078-.769h2.788Z" fill="#d3cedd"/>
          <path id="Trazado_874681" data-name="Trazado 874681" d="M34.544,97.189v4.4H27.67V97.171a1.913,1.913,0,0,1,.01-.2h6.852c.007.072.012.144.012.218" fill="#fff"/>
          <path id="Trazado_874682" data-name="Trazado 874682" d="M40.191,100.192V104H36.346V100.18a1.013,1.013,0,0,1,.006-.11,1.172,1.172,0,0,1,.71-.97.775.775,0,0,0,.486-.67l.028-.551h1.411l.009.549a.75.75,0,0,0,.471.673,1.184,1.184,0,0,1,.717.97c0,.04.006.081.006.122" fill="#ddd9e4"/>
          <path id="Trazado_874683" data-name="Trazado 874683" d="M39.088,98.121H37.441l.044-.43h1.559Z" fill="#d3cedd"/>
          <path id="Trazado_874684" data-name="Trazado 874684" d="M40.191,100.192v2.459H36.346V100.18a1.013,1.013,0,0,1,.006-.11h3.833c0,.041.006.081.006.122" fill="#fff"/>
          <rect id="Rectángulo_401727" data-name="Rectángulo 401727" width="78.748" height="143.95" transform="translate(178.816 12.418)" fill="#e3e0e9"/>
          <rect id="Rectángulo_401728" data-name="Rectángulo 401728" width="71.93" height="141.421" transform="translate(182.273 14.946)" fill="#efedf3"/>
          <path id="Trazado_874685" data-name="Trazado 874685" d="M242,84.691a3.18,3.18,0,1,1,3.18,3.18,3.18,3.18,0,0,1-3.18-3.18" fill="#e3e0e9"/>
          <rect id="Rectángulo_401729" data-name="Rectángulo 401729" width="29.692" height="9.373" transform="translate(203.497 36.378)" fill="#be79ca"/>
          <rect id="Rectángulo_401730" data-name="Rectángulo 401730" width="18.671" height="0.964" transform="translate(209.007 39.284)" fill="#e3e0e9"/>
          <rect id="Rectángulo_401731" data-name="Rectángulo 401731" width="13.445" height="0.964" transform="translate(211.621 41.881)" fill="#e3e0e9"/>
          <path id="Trazado_874686" data-name="Trazado 874686" d="M233.545,46.108h-30.4V36.022h30.4ZM203.853,45.4h28.98V36.734h-28.98Z" fill="#d5d0de"/>
          <path id="Trazado_874687" data-name="Trazado 874687" d="M184.21,26.435a5.618,5.618,0,0,0-4.44-.475c-7.542-.886-9.742,7.91-9.64,10.936s.448,6.277-2.921,10.208c-9.729,11.357,10.646,11.858,10.646,11.858.172-9.074,11.049-5.763,10.573-4.843,13.943,3.346,1.386-24.776-4.219-27.684" fill="#452f6e"/>
          <path id="Trazado_874688" data-name="Trazado 874688" d="M155.117,64.263s-1.326-2.019-2.4-2.059-3.048-.594-2.89-.2,1.386.436,1.5.673-1.821.594-2.375.634-1.861,0-1.821.277a6.292,6.292,0,0,0,3.988,1.267,11.071,11.071,0,0,1,3.653.475Z" fill="#c9c3d5"/>
          <path id="Trazado_874689" data-name="Trazado 874689" d="M174.3,64.917a19.872,19.872,0,0,1-2.029,3.068c-1.576,1.974-4.006,4.254-7.057,4.7a7.573,7.573,0,0,1-4.193-.68,19.116,19.116,0,0,1-6.492-5.428,3.047,3.047,0,0,1,.416-2.989s7.482,1.683,8.2,1.327S168.012,52.583,169,51.078s4.364-2.286,4.364-2.286Z" fill="#e5e2eb"/>
          <path id="Trazado_874690" data-name="Trazado 874690" d="M172.274,67.984c-1.576,1.974-4.006,4.254-7.057,4.7a7.569,7.569,0,0,1-4.192-.68c.145.019,3.846.476,5.321-2.163,1.5-2.692,3.132-6.968,5.367-5.543.964.615.921,2.144.562,3.682" fill="#d9d4e1"/>
          <path id="Trazado_874691" data-name="Trazado 874691" d="M202.217,145.685s2.283,2.084,1.838,3.564-2.506,2.467-2.784,4.277-1.392,2.8-2.395,2.8H194.1s-.738-1.273,1.044-1.657,2.454-2.51,2.343-4.484a34.73,34.73,0,0,1,.167-4.606l3.787-.877Z" fill="#4b3573"/>
          <path id="Trazado_874692" data-name="Trazado 874692" d="M182.889,146.569s.821,8.827-.181,9.32l-12.828-.026s0-1.48,2.06-1.809,5.68-1.535,6.293-4.222,4.656-3.263,4.656-3.263" fill="#4b3573"/>
          <path id="Trazado_874693" data-name="Trazado 874693" d="M192.03,83.244c-2.64-5.92-4.255-7.619-3.947-9.457.229-1.368-.7-25.5-.7-25.5-.313-.1-.941-.184-1.284-.26a3.218,3.218,0,0,1-2.352-2.045,16.411,16.411,0,0,1-.8-5.445l-.338.067-5.686,1.126s.129,1.789.133,3.475v.042a3.271,3.271,0,0,1-2.36,3.162c-.718.207-1.343.385-1.343.385a52.111,52.111,0,0,0-2.487,12.084c-.4,6.123,3.8,8.784-.032,21.02-3.908,12.5,22.65,4.617,21.192,1.345" fill="#c9c3d5"/>
          <path id="Trazado_874694" data-name="Trazado 874694" d="M176.927,41.73s.129,1.789.133,3.475c3.182-.09,4.864-2.992,5.552-4.6Z" fill="#afa5c1"/>
          <path id="Trazado_874695" data-name="Trazado 874695" d="M175.864,43.326s7.528.124,7.533-4.565.98-7.831-3.826-8.109-5.742,1.511-6.124,3.075.459,9.445,2.417,9.6" fill="#c9c3d5"/>
          <path id="Trazado_874696" data-name="Trazado 874696" d="M176.143,30.538s2.061,5.5,5.224,6.315,4.535-.034,4.535-.034a8.955,8.955,0,0,1-2.93-5.292s-5.275-3.607-6.83-.989" fill="#452f6e"/>
          <path id="Trazado_874697" data-name="Trazado 874697" d="M176.653,30.985a4.669,4.669,0,0,0-2.157,1.686,7.579,7.579,0,0,0-1.018,4.3s-1.553-3.739.192-5.854c1.85-2.243,2.983-.137,2.983-.137" fill="#452f6e"/>
          <path id="Trazado_874698" data-name="Trazado 874698" d="M177.5,40.417a1.892,1.892,0,0,1-1.559.634,1.385,1.385,0,0,1-1.16-.766,5.058,5.058,0,0,1,2.719.132" fill="#fff"/>
          <path id="Trazado_874699" data-name="Trazado 874699" d="M191.006,58.962s-.028,3.57-.22,6.8a20.992,20.992,0,0,1-.632,4.85c-.772,1.782-1.643,2.071-1.643,2.071l-6.735,1.651-2.368.579-7.468-2.23s-3.4-9.494-2.036-14.839a41.124,41.124,0,0,1,3.453-9.056s6.094,5.967,14.029-.506Z" fill="#e5e2eb"/>
          <path id="Trazado_874700" data-name="Trazado 874700" d="M190.786,65.767a20.992,20.992,0,0,1-.632,4.85c-.772,1.782-1.643,2.071-1.643,2.071l-6.735,1.651-2.925-.86s9.765-1.48,8.683-9.881Z" fill="#d9d4e1"/>
          <path id="Trazado_874701" data-name="Trazado 874701" d="M172.414,74.126s-3.7,11.512-3.936,15.431,7.07,55.678,7.364,57.484c.277,1.7,2.391,2.787,2.391,2.787a3.2,3.2,0,0,0,2.36.182,5.829,5.829,0,0,0,2.534-1.194s2.879-36.914,1.1-50.1a208.726,208.726,0,0,1-1.8-24.589Z" fill="#a196b6"/>
          <path id="Trazado_874702" data-name="Trazado 874702" d="M188.083,73.786s5.642,7.57,6.167,12.686.825,23.091,1.946,28.079,5.237,14.588,5.237,30.146a3.1,3.1,0,0,1-1.749,1.367,14.346,14.346,0,0,1-1.538.425,2.418,2.418,0,0,1-2.705-1.284c-2.783-5.6-11.649-23.678-12.1-27.429-.322-2.655-3.121-20.227-9.227-30.538-1.466-2.476.9-12.32.9-12.32Z" fill="#b5acc5"/>
          <path id="Trazado_874703" data-name="Trazado 874703" d="M171.824,72.355a7.75,7.75,0,0,0,4.434,1.234c3.523.071,12.253-.9,12.253-.9a7.214,7.214,0,0,1,.372,2.228s-10.662,2.689-16.84.393a3.9,3.9,0,0,1-.22-2.957" fill="#4b3573"/>
          <path id="Trazado_874704" data-name="Trazado 874704" d="M175.413,76.62a1.833,1.833,0,1,1,1.594-2.044,1.887,1.887,0,0,1,.014.225,1.725,1.725,0,0,1-1.608,1.819m0-3.106a1.307,1.307,0,1,0,1.075,1.287,1.2,1.2,0,0,0-1.075-1.287" fill="#fff"/>
          <rect id="Rectángulo_401732" data-name="Rectángulo 401732" width="17.172" height="9.625" transform="translate(183.333 86.192) rotate(-12.176)" fill="#452f6e"/>
          <path id="Trazado_874705" data-name="Trazado 874705" d="M183.333,86.2s4.691,3.93,9.9,2.563a10.413,10.413,0,0,0,6.875-6.18Z" fill="#513c77"/>
          <path id="Trazado_874706" data-name="Trazado 874706" d="M185.679,86.509a.932.932,0,1,1,.932-.932.932.932,0,0,1-.932.932m0-1.554a.622.622,0,1,0,.622.622.621.621,0,0,0-.622-.622" fill="#513c77"/>
          <path id="Trazado_874707" data-name="Trazado 874707" d="M199.339,86.759a7.613,7.613,0,0,0,.266,2.02c.258.657,1.034,1.534,1.292,1.534s-.237-1.37-.108-1.342.753,2.28,1.205,2.334.863-2.526.626-3.539a6.886,6.886,0,0,0-1.26-2.229Z" fill="#c9c3d5"/>
          <path id="Trazado_874708" data-name="Trazado 874708" d="M187.385,48.292a9.167,9.167,0,0,1,6.406,4.981c1.732,3.412,2.92,14.147,4.143,17.526a106.314,106.314,0,0,1,3.684,14.5.83.83,0,0,1-.511.917l-1.531.607a.723.723,0,0,1-.889-.3c-1.361-2.285-6.726-11.434-8.589-16.728a27.66,27.66,0,0,0-6.253-10.032Z" fill="#e5e2eb"/>
          <path id="Trazado_874709" data-name="Trazado 874709" d="M185.373,84.854c-.01-.154-.978-15.46-.793-24.067a35.867,35.867,0,0,1,1.364-9.577,6.9,6.9,0,0,1,1.572-2.923l.316.094c-.023.038-2.593,3.9-2.776,12.417-.185,8.586.783,23.873.792,24.026Z" fill="#371f63"/>
          <path id="Trazado_874710" data-name="Trazado 874710" d="M105.458,155.845h7.911a19.154,19.154,0,0,0-.631-2.84,8.027,8.027,0,0,0-.448-1.14c-.769-1.536-5.657-.559-5.657-.559a3.763,3.763,0,0,0-.808,1.875,15.738,15.738,0,0,0-.367,2.664" fill="#4b3573"/>
          <path id="Trazado_874711" data-name="Trazado 874711" d="M119.981,35s6.3,1.107,7.729,4.828,9.477,63.827,9.477,63.827-3.987,3.159-12.546,2.025S119.98,35,119.98,35" fill="#c3bcd0"/>
          <path id="Trazado_874712" data-name="Trazado 874712" d="M129.365,153.347a4.294,4.294,0,0,0,.547,2.5h15.649a2.7,2.7,0,0,0-2.369-1.678,11.866,11.866,0,0,1-6.332-2.931,4.71,4.71,0,0,1-1.226-2.22c-.736-3.278-6.087,1-6.087,1a26.623,26.623,0,0,0-.182,3.328" fill="#4b3573"/>
          <path id="Trazado_874713" data-name="Trazado 874713" d="M136.1,151.754c-1.749.558-5.091,2.261-7.214,1.46-1.372-.517-9.042-22.7-9.539-32.408a24.669,24.669,0,0,0-.393-2.891c-.454-2.5-1.249-5.946-2.164-9.744-2.455-10.176-5.775-22.9-5.7-26.974.111-6.315,18.82-1.323,18.82-1.323a67.549,67.549,0,0,1,1.543,12.68c.508,14.887,1.9,40.034,5.7,57.5a1.5,1.5,0,0,1-1.054,1.7" fill="#716090"/>
          <path id="Trazado_874714" data-name="Trazado 874714" d="M123.119,81.218l-9.89,71.68a19.345,19.345,0,0,1-7.721.21s-2.9-38.123-2.654-47.339-2.078-24.662.529-26.365,19.736,1.815,19.736,1.815" fill="#83749e"/>
          <path id="Trazado_874715" data-name="Trazado 874715" d="M102.133,38.284S112.526,31.563,119.981,35a13.978,13.978,0,0,1,3.513,3.145c2.695,2.969,7.96,50.137,7.96,50.137s-14.947,5.062-29.322-1.718Z" fill="#fff"/>
          <path id="Trazado_874716" data-name="Trazado 874716" d="M120.575,34.824s10.522,4.312,11.947,7.625,6.057,23.66,6.057,26.046-8.065.533-9.363-3.315c-1.078-3.2-4.714-13.012-6.632-19.221Z" fill="#d3cedd"/>
          <path id="Trazado_874717" data-name="Trazado 874717" d="M118.388,38.116a11.842,11.842,0,0,1-8.142-1.658,23.423,23.423,0,0,0,1.735-6.128c.01-.073.017-.142.024-.21a6.243,6.243,0,0,0,.029-1.4h5.938s1.624.742,1.624,1.255q0,.412.007.787c.012.683.039,1.279.075,1.791a16.3,16.3,0,0,0,.3,2.451s.725,2.66-1.594,3.115" fill="#c9c3d5"/>
          <path id="Trazado_874718" data-name="Trazado 874718" d="M119.677,32.548a8.206,8.206,0,0,1-7.7-2.22c-.083-.09-.126-.144-.126-.144.047-.024.1-.045.15-.067,1.675-.678,5.475-.139,7.6.639.012.683.039,1.279.075,1.791" fill="#ada3bf"/>
          <path id="Trazado_874719" data-name="Trazado 874719" d="M110.512,27.738c.8,4.327,6.387,4.185,8.8,3.913.679-.076,1.106-.162,1.106-.162.766-.2,1.193-1.41,1.391-2.99.394-3.126-.1-7.715-.632-8.888-.795-1.766-2.292-3.676-7.914-2.3s-3.783,4.882-2.751,10.426" fill="#c9c3d5"/>
          <path id="Trazado_874720" data-name="Trazado 874720" d="M121.386,17.2a12.849,12.849,0,0,0-3.878-3.164c-3.179-1.72-7.248.054-7.265.062-4.592,2.019-5.792,5.533-3.357,11.006,2.575,5.788,5.026,5.136,5.026,5.136s-.52-.324-.473-2.128c0-.1.007-.188.012-.262a1.214,1.214,0,0,0-.383-.987c-.57-.509-.849-2.049-.371-2.478.576-.517,1.386.111,1.645.594a.7.7,0,0,0,.965.249.387.387,0,0,0,.043-.027c1.429-.9.5-2.711,1.867-3.816s4.137-.177,6.186-1.058c2.682-1,.563-2.325-.016-3.127" fill="#4b3573"/>
          <path id="Trazado_874721" data-name="Trazado 874721" d="M122.027,108.071q-1.357.35-2.692.571-1.181.2-2.356.3a38.3,38.3,0,0,1-14.138-1.736q-1.764-.505-3.652-1.144c-.134-.045.343-13.854.894-28.1.056-1.47.114-2.947.171-4.412q.038-.932.074-1.855c.5-12.6,1-23.974,1.1-24.587.239-1.386.462-2.568.705-3.592.712-2.985,1.6-4.621,3.522-6.029.188-.143,1.728-.919,3.087-1.6,1.126-.559,2.126-1.047,2.126-1.047.448.22.986,1.246,1.549,2.687a97.287,97.287,0,0,1,2.928,9.759V47.3c.5,1.961.859,3.488.961,3.927.173.74.4,2.172.672,4.114.366,2.643.8,6.229,1.265,10.3q.071.627.143,1.27.083.732.165,1.481c.018.16.036.321.052.481.178,1.612.358,3.276.536,4.967.148,1.4,2.268,2.409,2.415,3.83.084.835.26,8.538.487,11,.163,1.755.047,18.571-.017,19.4" fill="#d3cedd"/>
          <path id="Trazado_874722" data-name="Trazado 874722" d="M106.687,52.188c-.007.029-.36,12.739,9.2,14.283s3.208,1.952,3.208,1.952-17.989-.764-18.286-1.24,5.877-15,5.877-15" fill="#c3bcd0"/>
          <path id="Trazado_874723" data-name="Trazado 874723" d="M114.765,71.928s-.179.127-.524.349l-.018.011a44.9,44.9,0,0,1-12.091,5.171q-.992.269-2.05.506c.056-1.47.114-2.947.171-4.412a18.537,18.537,0,0,1-2.369-.328c.025-.194.051-.387.076-.581.8-.329,1.6-.646,2.367-.947.626-.245,1.232-.477,1.805-.694,2.589-.983,4.509-1.65,4.509-1.65l7.664,2.428Z" fill="#c3bcd0"/>
          <path id="Trazado_874724" data-name="Trazado 874724" d="M116.793,71.715s-.984.246-2.552.562h-.017a62.781,62.781,0,0,1-12.092,1.355c-.64-.007-1.27-.032-1.879-.08a18.537,18.537,0,0,1-2.369-.328A7.365,7.365,0,0,1,94.1,71.437c-6.457-6.577,3.524-30.184,5.623-32.481,2.45-2.682,6.922-3.622,9.391-3.946l.3-.038c.868-.1,1.425-.125,1.456-.126,0,0-.194.622-.518,1.678-.126.409-.272.882-.432,1.411-1.517,4.967-4.443,14.728-5.733,20.233a13.98,13.98,0,0,0-.611,3.89c.5,1.88,5.721,2.847,9.026,3.275,1.379.178,2.425.262,2.659.28h.049l.191.784.457,1.88.45,1.847Z" fill="#d3cedd"/>
          <path id="Trazado_874725" data-name="Trazado 874725" d="M134.8,83.031,112.627,82.1l4.5-27.638,22.177.934Z" fill="#4b3573"/>
          <path id="Trazado_874726" data-name="Trazado 874726" d="M115.309,65.617s4.317-.3,4.534.705c.5,2.346-3.711,4.272-5.077,4.14s-.45-5,.544-4.845" fill="#c9c3d5"/>
          <path id="Trazado_874727" data-name="Trazado 874727" d="M138.09,61.005s-4.13-1.292-4.574-.363c-1.034,2.166,2.623,5.015,3.982,5.2s1.6-4.762.592-4.84" fill="#c9c3d5"/>
          <path id="Trazado_874728" data-name="Trazado 874728" d="M111.316,33.459a8.058,8.058,0,0,0-2.727,2.172s6.789,11.787,6.759,11.677-2.295-12.339-4.032-13.849" fill="#c3bcd0"/>
          <path id="Trazado_874729" data-name="Trazado 874729" d="M119.772,33.625a5.182,5.182,0,0,1,2,2.05l.807,10.29s-1.723-7.552-2.6-10.965a5.764,5.764,0,0,1-.21-1.375" fill="#c3bcd0"/>
          <path id="Trazado_874730" data-name="Trazado 874730" d="M124.477,54.767a1.007,1.007,0,0,1,1.185-.678c1.009.089,6.681.368,6.681.368s1.094-.018.992.683Z" fill="#83749e"/>
          <path id="Trazado_874731" data-name="Trazado 874731" d="M117.974,28.715a2.367,2.367,0,0,0,1.924.463c.7-.123,1.1-1.039,1.1-1.039a5.323,5.323,0,0,0-3.022.576" fill="#fff"/>
          <path id="Trazado_874732" data-name="Trazado 874732" d="M294.631,156.8H.369A.371.371,0,0,1,0,156.431v-.217a.37.37,0,0,1,.369-.37H294.631a.37.37,0,0,1,.369.37v.217a.371.371,0,0,1-.369.369" fill="#4b3573"/>
        </g>
      </g>
    </g>
  </g>
</svg>
