<svg xmlns="http://www.w3.org/2000/svg" width="609.464" height="704.528" viewBox="0 0 609.464 704.528">
  <g id="Grupo_1103845" data-name="Grupo 1103845" transform="translate(-810 -10266.835)">
    <g id="Grupo_1100270" data-name="Grupo 1100270" transform="translate(0 1517.295)">
      <path id="Trazado_875453" data-name="Trazado 875453" d="M614.115,1303.436c0,13.516-113.632,24.472-253.8,24.472s-253.8-10.957-253.8-24.472,113.632-24.472,253.8-24.472,253.8,10.957,253.8,24.472" transform="translate(756.457 8126.16)" fill="#b7a5dc"/>
      <path id="Trazado_875454" data-name="Trazado 875454" d="M926.521,1093.611c32.7,28.824,163.278-3.01,156.3-61.014-.454-3.777-3-24.9-22.8-43.154-21.336-19.667-49.38-23.705-52.6-24.168-68.463-9.859-113.847,99.3-80.907,128.336" transform="translate(320.063 8284.174)" fill="#907ab9"/>
      <path id="Trazado_875455" data-name="Trazado 875455" d="M912.212,1089.64c32.7,28.824,163.278-3.01,156.3-61.014-.455-3.776-3-24.9-22.8-43.152-21.336-19.667-49.38-23.706-52.6-24.169-68.463-9.859-113.847,99.3-80.907,128.336" transform="translate(327.257 8286.17)" fill="#b09bd5"/>
      <path id="Trazado_875456" data-name="Trazado 875456" d="M880.712,1160.459l.066.042c.969.6,2.053.55,2.422-.1a252.856,252.856,0,0,1,68.893-78.175c22.882-17.217,49.271-31.372,78.435-42.072.787-.289.879-1.2.2-2.038a2.629,2.629,0,0,0-2.647-.992c-29.376,10.778-55.956,25.036-79,42.377a254.69,254.69,0,0,0-69.392,78.74c-.359.64.1,1.622,1.022,2.222" transform="translate(338.153 8247.785)" fill="#fff"/>
      <path id="Trazado_875457" data-name="Trazado 875457" d="M1087.477,1035.821a2.813,2.813,0,0,0,1.178.444c1.007.119,1.623-.5,1.375-1.372a49.207,49.207,0,0,1-1.361-22.834,35.761,35.761,0,0,1,8.923-17.778c.514-.553.2-1.562-.7-2.252s-2.047-.8-2.56-.247a37.581,37.581,0,0,0-9.378,18.683,51.71,51.71,0,0,0,1.431,24,2.557,2.557,0,0,0,1.093,1.36" transform="translate(235.309 8265.577)" fill="#fff"/>
      <path id="Trazado_875458" data-name="Trazado 875458" d="M980.139,1096.186a2.551,2.551,0,0,0,1.638.447c.908-.112,1.239-.915.739-1.793a68.412,68.412,0,0,1-8.645-24.067,43.067,43.067,0,0,1,1.887-21.118c.263-.714-.335-1.716-1.341-2.239s-2.029-.367-2.291.347a45.253,45.253,0,0,0-1.983,22.193,71.883,71.883,0,0,0,9.085,25.292,2.8,2.8,0,0,0,.911.939" transform="translate(300.846 8238.688)" fill="#fff"/>
      <path id="Trazado_875459" data-name="Trazado 875459" d="M1056.984,1112.169a125.376,125.376,0,0,0,22.678,11.672,104.063,104.063,0,0,0,28.684,6.929c1,.088,1.575-.556,1.292-1.436a2.848,2.848,0,0,0-2.319-1.753,99.027,99.027,0,0,1-27.294-6.594,120.311,120.311,0,0,1-27.077-14.893c-.92-.668-2.053-.743-2.534-.165s-.126,1.591.793,2.26q2.843,2.073,5.777,3.979" transform="translate(252.371 8213.344)" fill="#fff"/>
      <path id="Trazado_875460" data-name="Trazado 875460" d="M947.454,1190.061a3.139,3.139,0,0,0,.292.168,114.526,114.526,0,0,0,29.661,10.355,81.8,81.8,0,0,0,27.2,1.008c.9-.129,1.208-.943.692-1.818a2.822,2.822,0,0,0-2.563-1.353,77.831,77.831,0,0,1-25.883-.959,108.972,108.972,0,0,1-28.224-9.854c-1.007-.509-2.022-.336-2.266.387a2.013,2.013,0,0,0,1.091,2.065" transform="translate(311.482 8172.233)" fill="#fff"/>
      <path id="Trazado_875461" data-name="Trazado 875461" d="M153.306,1003.1c32.675-37.887-5.493-187.368-71.981-178.636-4.329.568-28.546,3.749-49.246,26.7C9.773,875.9,5.487,908.138,5,911.838c-10.461,78.7,115.391,129.431,148.311,91.26" transform="translate(807.798 8354.833)" fill="#907ab9"/>
      <path id="Trazado_875462" data-name="Trazado 875462" d="M148.926,1019.573C181.6,981.686,143.433,832.2,76.945,840.937c-4.329.568-28.545,3.75-49.246,26.7C5.393,892.373,1.107,924.612.615,928.312c-10.462,78.7,115.39,129.431,148.311,91.261" transform="translate(810 8346.552)" fill="#b09bd5"/>
      <path id="Trazado_875463" data-name="Trazado 875463" d="M229.776,1074.209c.016-.025.032-.05.047-.076.673-1.119.606-2.364-.15-2.778a290.244,290.244,0,0,1-90.588-78.1c-20.046-26.048-36.622-56.161-49.269-89.5-.341-.9-1.389-.993-2.341-.208a3.016,3.016,0,0,0-1.105,3.05C99.107,940.18,115.8,970.511,136,996.747a292.343,292.343,0,0,0,91.243,78.663c.738.4,1.859-.131,2.538-1.2" transform="translate(766.634 8315.158)" fill="#fff"/>
      <path id="Trazado_875464" data-name="Trazado 875464" d="M85.881,998.477a3.228,3.228,0,0,0,.495-1.358c.124-1.158-.588-1.856-1.592-1.561-9.249,2.717-18.062,3.338-26.191,1.847a41.047,41.047,0,0,1-20.517-10.02c-.642-.583-1.8-.21-2.577.832s-.893,2.359-.251,2.942a43.139,43.139,0,0,0,21.561,10.531c8.544,1.566,17.8.913,27.525-1.942a2.936,2.936,0,0,0,1.548-1.271" transform="translate(792.489 8266.919)" fill="#fff"/>
      <path id="Trazado_875465" data-name="Trazado 875465" d="M156.6,1120.977a2.933,2.933,0,0,0,.493-1.887c-.141-1.041-1.066-1.41-2.068-.825a78.525,78.525,0,0,1-27.516,10.222,49.436,49.436,0,0,1-24.263-1.9c-.822-.292-1.966.407-2.553,1.568s-.4,2.333.427,2.625a51.942,51.942,0,0,0,25.5,2,82.519,82.519,0,0,0,28.917-10.743,3.222,3.222,0,0,0,1.066-1.058" transform="translate(759.551 8207.087)" fill="#fff"/>
      <path id="Trazado_875466" data-name="Trazado 875466" d="M174.016,979.09a143.894,143.894,0,0,0,13.115-26.176,119.455,119.455,0,0,0,7.595-33.008c.088-1.146-.657-1.8-1.664-1.466a3.27,3.27,0,0,0-1.983,2.684,113.674,113.674,0,0,1-7.227,31.41A138.065,138.065,0,0,1,167.095,983.8c-.755,1.065-.827,2.366-.157,2.91s1.827.125,2.584-.938q2.344-3.289,4.494-6.68" transform="translate(726.307 8301.659)" fill="#fff"/>
      <path id="Trazado_875467" data-name="Trazado 875467" d="M264.785,1104.286a3.571,3.571,0,0,0,.189-.338,131.419,131.419,0,0,0,11.515-34.173,93.874,93.874,0,0,0,.818-31.232c-.159-1.03-1.1-1.375-2.1-.771a3.238,3.238,0,0,0-1.521,2.958,89.326,89.326,0,0,1-.778,29.72,125.051,125.051,0,0,1-10.958,32.517c-.572,1.163-.36,2.326.473,2.6a2.31,2.31,0,0,0,2.356-1.278" transform="translate(672.581 8247.563)" fill="#fff"/>
      <path id="Trazado_875468" data-name="Trazado 875468" d="M592.251,232.9H303.765a18.33,18.33,0,0,0-18.33,18.33V751.5a18.329,18.329,0,0,0,18.33,18.33H592.251a18.329,18.329,0,0,0,18.33-18.33V251.225a18.33,18.33,0,0,0-18.33-18.33" transform="translate(654.364 8652.045)" fill="#664e92"/>
      <path id="Trazado_875469" data-name="Trazado 875469" d="M546.472,1230.824a14.576,14.576,0,0,1,14.559-14.559h36.414a14.559,14.559,0,0,1,0,29.118H561.031a14.576,14.576,0,0,1-14.559-14.559m14.559-9.718a9.717,9.717,0,1,0,0,19.435h36.414a9.717,9.717,0,1,0,0-19.435Z" transform="translate(521.981 8157.68)" fill="#fff"/>
      <path id="Trazado_875470" data-name="Trazado 875470" d="M610.738,280.191V703.185a18.33,18.33,0,0,1-18.332,18.328H332.532A18.329,18.329,0,0,1,314.2,703.185V280.191a18.33,18.33,0,0,1,18.328-18.332h73.579a22.76,22.76,0,0,0,21.742,16.028h69.235a22.756,22.756,0,0,0,21.739-16.028h73.579a18.331,18.331,0,0,1,18.332,18.332" transform="translate(639.695 8637.483)" fill="#fff"/>
      <path id="Trazado_875471" data-name="Trazado 875471" d="M403.622,323.328H384.963a2.157,2.157,0,1,0,0,4.254h18.659a2.157,2.157,0,1,0,0-4.254" transform="translate(609.032 8589.515)" fill="#392067"/>
      <path id="Trazado_875472" data-name="Trazado 875472" d="M403.622,337.214H384.963a2.158,2.158,0,1,0,0,4.255h18.659a2.158,2.158,0,1,0,0-4.255" transform="translate(609.032 8582.76)" fill="#392067"/>
      <path id="Trazado_875473" data-name="Trazado 875473" d="M403.622,351.1H384.963a2.157,2.157,0,1,0,0,4.254h18.659a2.157,2.157,0,1,0,0-4.254" transform="translate(609.032 8576.007)" fill="#392067"/>
      <path id="Trazado_875474" data-name="Trazado 875474" d="M768.6,317.183a5.828,5.828,0,0,0-4.265-.111,5.725,5.725,0,0,0-2.358,1.69,5.3,5.3,0,0,0-2.358-1.69,5.182,5.182,0,0,0-3.948.2c-2.422,1.215-3.23,4.67-2.77,7.136.756,4.058,5.107,6.286,7.078,7.295a16.813,16.813,0,0,0,2,.866,18.045,18.045,0,0,0,2-.866c2.222-1.126,5.916-2.994,6.976-6.539.806-2.694.182-6.658-2.351-7.976" transform="translate(414.564 8592.824)" fill="#392067"/>
      <path id="Trazado_875475" data-name="Trazado 875475" d="M827.221,327.639c-1.52,1.373-3.989,1.251-8.928,1a56.625,56.625,0,0,1-8.588-1.089v-8.734a5.066,5.066,0,0,0,.52-.32c3.621-2.537,2.72-9.066,4.578-9.28.912-.1,1.853,1.385,2.227,2.227,1.223,2.753-.7,5.129.186,5.971,1.293,1.236,5.683-3.719,8.723-2.506,3.275,1.306,4.642,9.69,1.281,12.726" transform="translate(384.635 8596.495)" fill="#392067"/>
      <path id="Trazado_875476" data-name="Trazado 875476" d="M803.018,337.225h0a1.815,1.815,0,0,1-1.816-1.816v-6.7a1.816,1.816,0,0,1,3.631,0v6.7a1.816,1.816,0,0,1-1.816,1.816" transform="translate(389.53 8587.827)" fill="#392067"/>
      <path id="Trazado_875477" data-name="Trazado 875477" d="M596.95,791.841H390.015a14.125,14.125,0,0,0-14.125,14.125V960.271A14.125,14.125,0,0,0,390.015,974.4H596.95a14.125,14.125,0,0,0,14.125-14.125V805.966a14.125,14.125,0,0,0-14.125-14.125" transform="translate(608.335 8366.217)" fill="#a590cb"/>
      <rect id="Rectángulo_402031" data-name="Rectángulo 402031" width="99.303" height="71.661" transform="translate(1052.423 9181.632)" fill="#755ea0"/>
      <rect id="Rectángulo_402032" data-name="Rectángulo 402032" width="41.064" height="71.661" transform="translate(1109.147 9181.632)" fill="#8f79b7"/>
      <path id="Trazado_875478" data-name="Trazado 875478" d="M549.754,868.685h-61.8l13.019-24.961h57.837l-9.058,24.961" transform="translate(552.716 8336.826)" fill="#8f79b7"/>
      <path id="Trazado_875479" data-name="Trazado 875479" d="M683.725,867.879l-41.869.269-10.6-24.424h41.064l11.406,24.155" transform="translate(477.62 8336.814)" fill="#755ea0"/>
      <path id="Trazado_875480" data-name="Trazado 875480" d="M672,968.9q-.415-1.6-.829-3.195l-1.2,3.067-.829-3.067-.829,2.811q-.472-1.469-.943-2.939l-.83,3.067q-.457-1.469-.915-2.939l-.543,2.556-.715-2.6-.5,1.773v9.208h8.732V966.7l-.6,2.2" transform="translate(461.495 8277.284)" fill="#fff"/>
      <path id="Trazado_875481" data-name="Trazado 875481" d="M567.338,968.9l-.829-3.195-1.2,3.067q-.414-1.534-.829-3.067l-.829,2.811-.944-2.939q-.414,1.534-.829,3.067l-.914-2.939q-.272,1.278-.543,2.556l-.715-2.6-.5,1.773v9.208h8.732V966.7l-.6,2.2" transform="translate(516.437 8277.284)" fill="#fff"/>
      <rect id="Rectángulo_402033" data-name="Rectángulo 402033" width="99.304" height="71.661" transform="translate(1004.624 9255.429)" fill="#7f69a9"/>
      <rect id="Rectángulo_402034" data-name="Rectángulo 402034" width="41.064" height="71.661" transform="translate(1061.106 9255.429)" fill="#8f79b7"/>
      <rect id="Rectángulo_402035" data-name="Rectángulo 402035" width="8.732" height="20.934" transform="translate(1077.199 9254.063)" fill="#fff"/>
      <rect id="Rectángulo_402036" data-name="Rectángulo 402036" width="8.732" height="20.934" transform="translate(1029.703 9254.063)" fill="#fff"/>
      <path id="Trazado_875482" data-name="Trazado 875482" d="M577.543,1050.08v40.248H543a104.687,104.687,0,0,0,34.539-40.248" transform="translate(524.451 8236.979)" fill="#664e92"/>
      <rect id="Rectángulo_402037" data-name="Rectángulo 402037" width="99.304" height="71.661" transform="translate(1098.693 9255.429)" fill="#7f69a9"/>
      <rect id="Rectángulo_402038" data-name="Rectángulo 402038" width="41.064" height="71.661" transform="translate(1155.651 9255.429)" fill="#8f79b7"/>
      <rect id="Rectángulo_402039" data-name="Rectángulo 402039" width="8.732" height="20.934" transform="translate(1171.97 9254.063)" fill="#fff"/>
      <rect id="Rectángulo_402040" data-name="Rectángulo 402040" width="8.732" height="20.934" transform="translate(1124.474 9254.063)" fill="#fff"/>
      <path id="Trazado_875483" data-name="Trazado 875483" d="M777.048,1050.08v40.248H742.509a104.686,104.686,0,0,0,34.539-40.248" transform="translate(419.538 8236.979)" fill="#664e92"/>
      <path id="Trazado_875484" data-name="Trazado 875484" d="M596.95,383.53H390.015a14.125,14.125,0,0,0-14.125,14.125V551.96a14.125,14.125,0,0,0,14.125,14.125H596.95a14.125,14.125,0,0,0,14.125-14.125V397.655A14.125,14.125,0,0,0,596.95,383.53" transform="translate(608.335 8562.454)" fill="#a590cb"/>
      <path id="Trazado_875485" data-name="Trazado 875485" d="M582.424,469.035H459.393c-.036,0-.071,0-.107,0L454.2,448.6l-32.761-.585h-.07a4.289,4.289,0,0,0-4.268,4.193,4.273,4.273,0,0,0,4.192,4.345l26.2.468,23.95,96.308a4.478,4.478,0,0,0,4.26,3.317h13.774a11.951,11.951,0,1,0,16.9,0H532.13a11.951,11.951,0,1,0,16.9,0h14.583a4.269,4.269,0,1,0,0-8.538H478.949l-3.536-14.218h89.38a5.731,5.731,0,0,0,5.442-3.934l8.059-24.408,1.8-5.459,7.768-23.529a5.731,5.731,0,0,0-5.442-7.528m-84.49,100.637a4.582,4.582,0,1,1,4.581-4.581,4.587,4.587,0,0,1-4.581,4.581m42.647,0a4.582,4.582,0,1,1,4.581-4.581,4.587,4.587,0,0,1-4.581,4.581m7.563-70.536h-23V474.494H552.8Zm-30.367,0h-23l-4.656-24.642h27.654Zm-21.6,7.37h21.6v21.928H500.316Zm28.974,0h21.6l-4.143,21.928H525.147Zm-58.7-32.012h16.188l4.657,24.642H466.77L461.4,477.522a5.717,5.717,0,0,1,5.055-3.028m7.253,52.519-5.1-20.507h20.085l3.881,20.537.263,1.39H477.478a5.721,5.721,0,0,1-3.775-1.421m92.587-2.513a5.731,5.731,0,0,1-5.442,3.934H550.094l4.144-21.928h17.993Zm14.026-42.478-5.651,17.115H555.63l4.657-24.642h14.587a5.731,5.731,0,0,1,5.442,7.528" transform="translate(588.027 8530.506)" fill="#fff"/>
      <path id="Trazado_875486" data-name="Trazado 875486" d="M1149.976,661.206c1.609,1.5,2.557,1.543,3.9,2.458,5.614,3.813,2.859,12.408,7.2,14.6a6.09,6.09,0,0,0,7.089-1.732c1.862-2.8-1.754-6.378-4.619-14.984-3.45-10.363-1.448-14.905-4.5-16.29-4.089-1.856-12.875,3.942-12.622,9.57.14,3.094,3,5.86,3.551,6.375" transform="translate(203.999 8433.577)" fill="#664e92"/>
      <path id="Trazado_875487" data-name="Trazado 875487" d="M1131.664,665.1h0a3.714,3.714,0,1,0,1.536-5.022,3.714,3.714,0,0,0-1.536,5.022" transform="translate(211.636 8425.983)" fill="#664e92"/>
      <path id="Trazado_875488" data-name="Trazado 875488" d="M1150.7,591.006c-2.029,1.914-3.986,3.508-5.8,4.919-6.03,4.681-10.513,7.328-10.889,12.812a12.673,12.673,0,0,0,5.527,11.229c4.6,2.813,9.356.217,16.94-2.265,1.979-.648,4.152-1.288,6.564-1.822,19.777-4.375,30.833,3.872,34.214-1.42,2.258-3.534-2.244-7.887-11.774-26.723-9.005-17.8-9.9-23.627-13.9-23.877-6.1-.381-5.937,13.052-20.879,27.146" transform="translate(210.254 8473.303)" fill="#8f79b7"/>
      <path id="Trazado_875489" data-name="Trazado 875489" d="M1202.045,563.864c-5.338,2.838-3.578,16.588,3.931,30.71s17.923,23.271,23.261,20.433,3.578-16.588-3.931-30.71-17.923-23.27-23.261-20.432" transform="translate(177.587 8473.465)" fill="#664e92"/>
      <path id="Trazado_875490" data-name="Trazado 875490" d="M1206.346,565.727c-3.758,2-3.321,10.525.577,20.628a75.369,75.369,0,0,0,8.482,15.856c6.139,8.7,12.85,13.689,16.566,11.713,4.726-2.513,2.819-15.338-4.258-28.648s-16.642-22.062-21.368-19.549" transform="translate(175.177 8472.471)" fill="#3f266e"/>
      <path id="Trazado_875491" data-name="Trazado 875491" d="M1212.754,603.773l-2.623,1.394a75.362,75.362,0,0,0,8.482,15.856l2.582-1.373a8.991,8.991,0,1,0-8.441-15.877" transform="translate(171.97 8453.826)" fill="#8f79b7"/>
      <path id="Trazado_875492" data-name="Trazado 875492" d="M1144.893,628.35c-6.029,4.681-10.513,7.329-10.889,12.812a12.672,12.672,0,0,0,5.527,11.229c4.6,2.813,9.355.217,16.939-2.265a27.164,27.164,0,0,1-11.578-21.776" transform="translate(210.254 8441.479)" fill="#3f266e"/>
      <path id="Trazado_875496" data-name="Trazado 875496" d="M1158.779,701.706c-.6-2.323,1.8-3.281,2.061-6.729.373-4.893-4.137-6.6-3.673-10.036.631-4.673,10.549-9.938,15.178-6.237,2.6,2.077,3.309,6.8,1.91,10.02a11.318,11.318,0,0,1-1.787,2.628c-4.524,6.054-1.2,12.55-4.267,14.541-2.653,1.724-8.58-.913-9.422-4.188" transform="translate(198.613 8417.683)" fill="#a644b7"/>
      <path id="Trazado_875497" data-name="Trazado 875497" d="M1011.649,691.875c15.452,1.531,16.669,33.183,32.063,36.295,6.109,1.234,16.339-1.628,32.978-24.9l12.468,6.005c-.349,1.68-7.445,33.547-32.33,41.251-31.335,9.7-67.291-26.133-64.083-44.245,1.39-7.85,10.894-15.194,18.9-14.4" transform="translate(281.356 8411.296)" fill="#a590cb"/>
      <path id="Trazado_875498" data-name="Trazado 875498" d="M796.147,895.319c-3.713,2.772-4.9,1.576-8.859,4.337-2.065,1.439-6.978,4.828-7.658,10.335-.733,5.931,3.443,12.547,6.828,12.549a3,3,0,0,0,1.529-.443c2.359-1.464.713-5.248,2.623-9.061,1.558-3.109,4.9-5.081,6-4.429,1.12.665-.637,3.786,1.292,6.459.482.667,1.7,2.029,2.584,1.753,1.927-.6-1.28-7.874,1.938-14.026,2.953-5.643,9.012-5.5,9.135-9.135.1-3.1-4.124-6.7-7.382-6.275-3.107.4-2.971,4.16-8.028,7.935" transform="translate(400.132 8315.863)" fill="#a644b7"/>
      <path id="Trazado_875499" data-name="Trazado 875499" d="M1010.416,1235.448c-1.494,5.86-3.773,7.856-4.179,12.372-.543,6.058,2.8,10.958,4.568,13.557,9.886,14.5,34.23,13.078,35.694,12.974-21.937-14.4-26.01-24.991-25.456-32.13.521-6.73,5.367-13.164,2.335-17.152-2.388-3.14-8.14-2.764-12.227-2.094a33.73,33.73,0,0,1-.736,12.473" transform="translate(280.669 8154.538)" fill="#a644b7"/>
      <path id="Trazado_875500" data-name="Trazado 875500" d="M1005.716,1257.518c3.176.077,3.538,7.995,8.233,14.944,3.29,4.87,9.715,10.754,23.639,13.889,4.795.319,15.828,1.335,16.341,4.789.366,2.468-4.758,5.358-8.225,6.576-9.064,3.184-17.987-1.134-21.588-2.876a40.119,40.119,0,0,1-12.13-9.1l-1.944,9.48a2.876,2.876,0,0,1-2.173,1.058,2.907,2.907,0,0,1-2.631-2.326,32.8,32.8,0,0,0-.361-4.865,33.22,33.22,0,0,0-2.991-9.608,19.289,19.289,0,0,1-1.99-12.849c.758-3.553,3.13-9.173,5.822-9.108" transform="translate(283.642 8136.941)" fill="#3f266e"/>
      <path id="Trazado_875501" data-name="Trazado 875501" d="M909.749,1235.466c-1.492,5.86-3.767,7.856-4.173,12.373-.543,6.058,2.79,10.957,4.557,13.555,9.863,14.5,34.159,13.072,35.621,12.967-21.89-14.39-25.953-24.985-25.4-32.125.521-6.73,5.36-13.165,2.334-17.152-2.383-3.14-8.124-2.763-12.2-2.091a33.786,33.786,0,0,1-.737,12.473" transform="translate(333.628 8154.53)" fill="#a644b7"/>
      <path id="Trazado_875502" data-name="Trazado 875502" d="M905.057,1257.538c3.17.076,3.53,7.994,8.214,14.942,3.283,4.869,9.693,10.752,23.59,13.884,4.785.318,15.8,1.332,16.308,4.786.365,2.468-4.75,5.359-8.211,6.577-9.047,3.185-17.951-1.13-21.544-2.872a40.032,40.032,0,0,1-12.1-9.1q-.972,4.739-1.943,9.479a2.683,2.683,0,0,1-4.794-1.267,32.957,32.957,0,0,0-3.344-14.472,19.322,19.322,0,0,1-1.983-12.849c.757-3.553,3.126-9.173,5.812-9.109" transform="translate(336.649 8136.932)" fill="#462d74"/>
      <path id="Trazado_875503" data-name="Trazado 875503" d="M993.883,884.912a306.676,306.676,0,0,1,11.333,60.788A310.487,310.487,0,0,1,994.4,1055.944a15.77,15.77,0,0,1-18.03-1.546c4.55-19.233,8.642-48.1,1.545-80.879-11.337-52.36-44.043-81.493-31.424-98.91,6.5-8.971,23.681-12.981,35.031-6.7,8.188,4.534,11.3,13.294,12.364,17" transform="translate(312.763 8334.34)" fill="#3f266e"/>
      <path id="Trazado_875504" data-name="Trazado 875504" d="M954.916,886.626a306.674,306.674,0,0,1-.016,61.836,310.494,310.494,0,0,1-30.868,106.386,15.822,15.822,0,0,1-17.441-4.829c8-18.072,17.325-45.7,16.364-79.222-1.535-53.552-28.338-88.192-12.737-103,8.035-7.626,25.661-8.414,35.664-.154,7.217,5.96,8.664,15.141,9.034,18.98" transform="translate(333.342 8335.898)" fill="#462d74"/>
      <path id="Trazado_875505" data-name="Trazado 875505" d="M977.665,695.164c9.083,12.182-2.182,28.471-4.986,58.661a143.692,143.692,0,0,0,1.6,38.209,47.3,47.3,0,0,1-29.632,12.754c-22.368,1.048-36.493-15.121-38.2-17.146,3.224-46.53,15.176-82.067,31.04-93.806,3.78-2.8,11.352-8.439,21.412-7.768,1.766.118,12.785,1.067,18.772,9.1" transform="translate(331.92 8415.371)" fill="#907ab9"/>
      <path id="Trazado_875506" data-name="Trazado 875506" d="M1018.046,651.512a29.558,29.558,0,0,1-1.173,13.785,7.7,7.7,0,0,1-15.252-1.466,112.06,112.06,0,0,1,2.64-33.144c2.021,1.36,11.8,8.24,13.785,20.825" transform="translate(284.04 8440.599)" fill="#a644b7"/>
      <path id="Trazado_875507" data-name="Trazado 875507" d="M1024.476,616.415c2.394,2.318,3.065,5.09,3.79,8.086.621,2.566,4.08,16.853-4.3,22.615-5.8,3.991-14.518,1.99-19.709-2.274-7.755-6.37-10.33-20-3.032-27.416,6.191-6.293,17.739-6.344,23.247-1.011" transform="translate(285.827 8449.337)" fill="#a644b7"/>
      <path id="Trazado_875508" data-name="Trazado 875508" d="M1036.2,671.849a17.443,17.443,0,0,1-7.8-.07,18.425,18.425,0,0,1-5.569-2.371,9,9,0,0,0,4.527,5.055c2.979,1.257,6.482.231,8.842-2.615" transform="translate(272.886 8421.203)" fill="#fff"/>
      <path id="Trazado_875509" data-name="Trazado 875509" d="M877.481,698.638a335.218,335.218,0,0,1-66.812,101.189l10.6,7.94a209.583,209.583,0,0,0,77.376-98.67l-21.167-10.46" transform="translate(381.978 8409.04)" fill="#a38cc8"/>
      <path id="Trazado_875510" data-name="Trazado 875510" d="M969.694,599.9c4.2-2.153,5.348-12.354,1.586-19.155-7.521-13.6-36.269-16.51-47.7-5-8.246,8.3-.935,17.5-8.784,30.745-11.541,19.473-37.012,15.892-38.188,25.987-1.21,10.379,23.987,29.025,44.9,21.961.728-.246,15.6-5.506,19.277-18.3,3.579-12.468-6.694-20.885-1.1-31.112,2.435-4.451,7.432-8.431,12.81-9.15,8.319-1.113,12.985,6.188,17.2,4.026" transform="translate(346.839 8471.509)" fill="#210750"/>
      <path id="Trazado_875511" data-name="Trazado 875511" d="M854.96,152.116A87.566,87.566,0,1,0,942.526,64.55a87.566,87.566,0,0,0-87.566,87.566" transform="translate(350.523 8714.331)" fill="#4b3279"/>
      <path id="Trazado_875512" data-name="Trazado 875512" d="M845.606,152.116A87.566,87.566,0,1,0,933.172,64.55a87.566,87.566,0,0,0-87.566,87.566" transform="translate(355.225 8714.331)" fill="#6d5699"/>
      <path id="Trazado_875513" data-name="Trazado 875513" d="M896.9,177.905a62.056,62.056,0,1,0,62.056-62.056A62.057,62.057,0,0,0,896.9,177.905" transform="translate(334.952 8688.541)" fill="#fff"/>
      <path id="Trazado_875514" data-name="Trazado 875514" d="M985.218,168.078a36.084,36.084,0,1,1-36.084,36.084,36.084,36.084,0,0,1,36.084-36.084" transform="translate(309.502 8662.284)" fill="#7a63a4"/>
      <path id="Trazado_875515" data-name="Trazado 875515" d="M1029.227,217.912l-29.08-16.789a3.065,3.065,0,0,0-4.6,2.654v33.578a3.065,3.065,0,0,0,4.6,2.654l29.08-16.789a3.065,3.065,0,0,0,0-5.308" transform="translate(286.447 8645.881)" fill="#fff"/>
      <path id="Trazado_875516" data-name="Trazado 875516" d="M1235.835,47.746l-24.173,21.065-24.723,1.551L1219.6,41.9Z" transform="translate(183.629 8725.715)" fill="#7a63a4"/>
      <path id="Trazado_875517" data-name="Trazado 875517" d="M1218.781,5.549l-24.173,21.066-4.916,24.278,32.656-28.458Z" transform="translate(182.245 8743.991)" fill="#7a63a4"/>
      <path id="Trazado_875518" data-name="Trazado 875518" d="M1231.882,25.441l3.339,14.607-1.671-1.923,13.573,5.281-.041.177-14.512-1.229-1.759-.149c.033-.587.769-15.721.822-16.741Z" transform="translate(161.573 8733.992)" fill="#3f266e"/>
      <path id="Trazado_875519" data-name="Trazado 875519" d="M1212.546,45.208l3.339,14.607-1.671-1.923,13.573,5.281-.041.177-14.512-1.229-1.759-.149c.033-.587.769-15.721.822-16.741Z" transform="translate(171.294 8724.054)" fill="#3f266e"/>
      <line id="Línea_617" data-name="Línea 617" x1="120.459" y2="104.972" transform="translate(1287.447 8763.316)" fill="#3f266e"/>
      <path id="Trazado_875520" data-name="Trazado 875520" d="M1014.487,137.16a3,3,0,0,1,.291-4.235L1135.237,27.953a3,3,0,0,1,3.944,4.526L1018.722,137.451a3,3,0,0,1-4.235-.291" transform="translate(270.696 8733.1)" fill="#3f266e"/>
      <path id="Trazado_875523" data-name="Trazado 875523" d="M134.757,585.529A53.373,53.373,0,1,1,78.5,532.234q1.443,26.649,2.888,53.295l46.941-25.423a53.137,53.137,0,0,1,6.432,25.423" transform="translate(795.918 8489.44)" fill="#8f79b7"/>
      <path id="Trazado_875524" data-name="Trazado 875524" d="M198.638,528.8,151.7,554.224q-1.446-26.646-2.889-53.294,1.434-.079,2.889-.078a53.361,53.361,0,0,1,46.94,27.95" transform="translate(735.19 8503.803)" fill="#664e92"/>
      <path id="Trazado_875525" data-name="Trazado 875525" d="M160.363,78.631a15.367,15.367,0,0,1,.506,6.775,13.311,13.311,0,0,1-2.456,5.765,18.076,18.076,0,0,1-4.98,4.52c-.77.439-1.54.878-2.375,1.279l.464,1.655a2.374,2.374,0,0,1-1.586,2.9L148.23,102a2.374,2.374,0,0,1-2.862-1.651L145,99.06a19.9,19.9,0,0,1-3.566.61,26.835,26.835,0,0,1-4.295.2,26.252,26.252,0,0,1-3.348-.4,8.227,8.227,0,0,1-2.129-.631,2.8,2.8,0,0,1-1.233-1.216,8.77,8.77,0,0,1-1.021-2.448,7.472,7.472,0,0,1-.308-1.7,10.689,10.689,0,0,1-.1-1.144,1.038,1.038,0,0,1,.291-.751,1.426,1.426,0,0,1,.577-.329,3.587,3.587,0,0,1,1.9.194c.855.262,1.93.518,3.176.783a32.485,32.485,0,0,0,4.248.427,17.907,17.907,0,0,0,5.323-.712,13.656,13.656,0,0,0,3.786-1.619,8.145,8.145,0,0,0,2.674-2.2,6.464,6.464,0,0,0,1.364-2.893,7.792,7.792,0,0,0-.27-3.55,5.663,5.663,0,0,0-1.911-3.034,11.2,11.2,0,0,0-3.3-1.64,24.082,24.082,0,0,0-4.283-.751c-1.5-.192-3.1-.3-4.72-.518a47.5,47.5,0,0,1-4.843-.761,17.143,17.143,0,0,1-4.492-1.7,12.206,12.206,0,0,1-3.711-3.087,13.372,13.372,0,0,1-2.529-5.037,13.526,13.526,0,0,1-.393-5.58,12.385,12.385,0,0,1,1.922-5.281,17.768,17.768,0,0,1,4.472-4.545,21.138,21.138,0,0,1,2.486-1.478l-.609-2.173a2.326,2.326,0,0,1,1.6-2.847l1.707-.478a2.326,2.326,0,0,1,2.847,1.6l.507,1.81c.791-.166,1.6-.28,2.4-.394a25.525,25.525,0,0,1,3.593-.115,18.6,18.6,0,0,1,2.876.309,15.25,15.25,0,0,1,1.893.585,3.283,3.283,0,0,1,.927.521,2.7,2.7,0,0,1,.447.6c.124.244.263.54.431.939a11.208,11.208,0,0,1,.444,1.382,13.654,13.654,0,0,1,.368,1.514,4.448,4.448,0,0,1,.032,1.107,1.569,1.569,0,0,1-.291.751,1.088,1.088,0,0,1-.526.315,3.352,3.352,0,0,1-1.5-.192c-.67-.2-1.562-.4-2.624-.6a24.888,24.888,0,0,0-3.644-.261,14.157,14.157,0,0,0-4.467.583,14.92,14.92,0,0,0-3.734,1.6,6.9,6.9,0,0,0-2.3,2.151,5.132,5.132,0,0,0-1.008,2.57,6.068,6.068,0,0,0,.185,2.849,5.633,5.633,0,0,0,1.977,3.071,10.614,10.614,0,0,0,3.371,1.677,26.741,26.741,0,0,0,4.3.8c1.608.163,3.164.34,4.823.488,1.608.163,3.244.429,4.9.747a17.113,17.113,0,0,1,4.515,1.579,11.916,11.916,0,0,1,3.733,2.97,12.775,12.775,0,0,1,2.433,4.9" transform="translate(748.792 8725.32)" fill="#664e92"/>
      <path id="Trazado_875526" data-name="Trazado 875526" d="M279.48,190.446a5.249,5.249,0,0,1,.173,2.315,4.544,4.544,0,0,1-.839,1.97,6.188,6.188,0,0,1-1.7,1.545c-.263.15-.526.3-.812.437l.159.566a.811.811,0,0,1-.542.991l-.583.164a.812.812,0,0,1-.978-.564l-.124-.442a6.817,6.817,0,0,1-1.219.208,9.193,9.193,0,0,1-1.467.069,9.043,9.043,0,0,1-1.144-.137,2.825,2.825,0,0,1-.727-.215.953.953,0,0,1-.421-.416,2.989,2.989,0,0,1-.349-.836,2.544,2.544,0,0,1-.105-.58,3.64,3.64,0,0,1-.033-.391.355.355,0,0,1,.1-.257.482.482,0,0,1,.2-.112,1.222,1.222,0,0,1,.648.066c.292.09.659.177,1.085.268a11.09,11.09,0,0,0,1.452.146,6.11,6.11,0,0,0,1.819-.243,4.673,4.673,0,0,0,1.294-.553,2.784,2.784,0,0,0,.913-.752,2.212,2.212,0,0,0,.466-.989,2.667,2.667,0,0,0-.093-1.213,1.935,1.935,0,0,0-.653-1.037,3.824,3.824,0,0,0-1.129-.56,8.22,8.22,0,0,0-1.463-.257c-.514-.066-1.059-.1-1.613-.177a16.169,16.169,0,0,1-1.655-.261,5.862,5.862,0,0,1-1.535-.58,4.182,4.182,0,0,1-1.268-1.055,4.893,4.893,0,0,1-1-3.628,4.231,4.231,0,0,1,.656-1.8,6.079,6.079,0,0,1,1.528-1.553,7.266,7.266,0,0,1,.85-.505l-.208-.742a.8.8,0,0,1,.547-.973l.583-.164a.8.8,0,0,1,.973.547l.174.619c.27-.056.545-.1.82-.134a8.648,8.648,0,0,1,1.228-.039,6.318,6.318,0,0,1,.983.105,5.17,5.17,0,0,1,.647.2,1.116,1.116,0,0,1,.317.178.909.909,0,0,1,.153.2c.043.084.09.184.147.321a3.825,3.825,0,0,1,.152.472,4.561,4.561,0,0,1,.126.518,1.507,1.507,0,0,1,.011.378.535.535,0,0,1-.1.257.372.372,0,0,1-.18.108,1.146,1.146,0,0,1-.514-.066c-.229-.069-.534-.136-.9-.206a8.545,8.545,0,0,0-1.245-.089,4.844,4.844,0,0,0-1.526.2,5.108,5.108,0,0,0-1.276.548,2.363,2.363,0,0,0-.785.735,1.752,1.752,0,0,0-.345.878,2.076,2.076,0,0,0,.063.974,1.929,1.929,0,0,0,.676,1.05,3.632,3.632,0,0,0,1.152.573,9.167,9.167,0,0,0,1.469.275c.549.056,1.081.116,1.648.167.549.056,1.108.147,1.673.256a5.82,5.82,0,0,1,1.543.54,4.068,4.068,0,0,1,1.276,1.014,4.371,4.371,0,0,1,.831,1.673" transform="translate(670.166 8657.213)" fill="#664e92"/>
      <path id="Trazado_875527" data-name="Trazado 875527" d="M163.758,253.883a12.015,12.015,0,0,1,.4,5.3,10.4,10.4,0,0,1-1.919,4.505,14.112,14.112,0,0,1-3.892,3.533c-.6.343-1.2.686-1.856,1l.363,1.294a1.855,1.855,0,0,1-1.239,2.266l-1.334.374a1.855,1.855,0,0,1-2.237-1.291l-.283-1.01a15.576,15.576,0,0,1-2.787.476,20.958,20.958,0,0,1-3.357.157,20.486,20.486,0,0,1-2.617-.313,6.42,6.42,0,0,1-1.664-.492,2.185,2.185,0,0,1-.964-.95,6.884,6.884,0,0,1-.8-1.913,5.863,5.863,0,0,1-.241-1.327,8.274,8.274,0,0,1-.076-.894.81.81,0,0,1,.228-.587,1.119,1.119,0,0,1,.451-.257,2.8,2.8,0,0,1,1.481.152c.667.2,1.509.4,2.482.612a25.3,25.3,0,0,0,3.32.333,13.989,13.989,0,0,0,4.161-.556,10.678,10.678,0,0,0,2.958-1.266,6.366,6.366,0,0,0,2.091-1.72,5.051,5.051,0,0,0,1.066-2.261,6.089,6.089,0,0,0-.211-2.774,4.423,4.423,0,0,0-1.493-2.372,8.737,8.737,0,0,0-2.583-1.281,18.843,18.843,0,0,0-3.347-.587c-1.176-.15-2.421-.237-3.688-.4a37.188,37.188,0,0,1-3.786-.6,13.414,13.414,0,0,1-3.511-1.326,9.56,9.56,0,0,1-2.9-2.413,10.452,10.452,0,0,1-1.976-3.937,10.568,10.568,0,0,1-.308-4.361,9.683,9.683,0,0,1,1.5-4.127,13.906,13.906,0,0,1,3.495-3.553,16.567,16.567,0,0,1,1.943-1.155l-.476-1.7a1.818,1.818,0,0,1,1.251-2.225l1.334-.374a1.818,1.818,0,0,1,2.225,1.251l.4,1.415c.618-.13,1.247-.219,1.876-.308a19.924,19.924,0,0,1,2.808-.09,14.56,14.56,0,0,1,2.248.242,11.932,11.932,0,0,1,1.479.457,2.566,2.566,0,0,1,.725.407,2.1,2.1,0,0,1,.349.469c.1.19.206.422.337.734a8.831,8.831,0,0,1,.347,1.08,10.738,10.738,0,0,1,.288,1.184,3.473,3.473,0,0,1,.024.865,1.221,1.221,0,0,1-.228.587.843.843,0,0,1-.411.246,2.622,2.622,0,0,1-1.176-.15c-.524-.158-1.221-.312-2.05-.471a19.484,19.484,0,0,0-2.848-.2,11.058,11.058,0,0,0-3.491.455,11.667,11.667,0,0,0-2.918,1.254,5.389,5.389,0,0,0-1.8,1.681,4.008,4.008,0,0,0-.788,2.009,4.748,4.748,0,0,0,.145,2.226,4.405,4.405,0,0,0,1.546,2.4,8.312,8.312,0,0,0,2.635,1.31,20.913,20.913,0,0,0,3.359.628c1.257.127,2.472.266,3.769.382,1.257.127,2.536.335,3.826.584a13.356,13.356,0,0,1,3.529,1.234,9.316,9.316,0,0,1,2.918,2.321,9.985,9.985,0,0,1,1.9,3.827" transform="translate(742.845 8637.198)" fill="#664e92"/>
    </g>
  </g>
</svg>
