<svg xmlns="http://www.w3.org/2000/svg" width="82" height="79.355" viewBox="0 0 82 79.355">
  <g id="Grupo_1103837" data-name="Grupo 1103837" transform="translate(-207 -1360.793)">
    <g id="alerta" transform="translate(207 1360.793)">
      <path id="Trazado_684794" data-name="Trazado 684794" d="M83,66.058v3.082A11.221,11.221,0,0,1,71.785,80.355H12.215A11.221,11.221,0,0,1,1,69.139V66.058a11.168,11.168,0,0,1,1.4-5.436L32.186,6.793a11.209,11.209,0,0,1,19.627,0L81.6,60.622A11.168,11.168,0,0,1,83,66.058Z" transform="translate(-1 -1)" fill="#f9ce24"/>
      <path id="Trazado_684795" data-name="Trazado 684795" d="M82.587,66.058v3.082A11.221,11.221,0,0,1,71.372,80.355H11.8a11.213,11.213,0,0,1-9.523-5.29H58.146A11.221,11.221,0,0,0,69.361,63.849V60.767a11.168,11.168,0,0,0-1.4-5.436L38.188,1.529A11.2,11.2,0,0,1,51.4,6.793L81.185,60.622a11.168,11.168,0,0,1,1.4,5.436Z" transform="translate(-0.587 -1)" fill="#f9af24"/>
      <ellipse id="Elipse_5447" data-name="Elipse 5447" cx="7" cy="6.5" rx="7" ry="6.5" transform="translate(34 57.798)" fill="#6e3dc6"/>
      <path id="Trazado_684796" data-name="Trazado 684796" d="M39.9,50.581A6.606,6.606,0,0,1,28,54.535a6.233,6.233,0,0,0,1.323.132,6.615,6.615,0,0,0,6.613-6.613A6.525,6.525,0,0,0,34.613,44.1,6.613,6.613,0,0,1,39.9,50.581Z" transform="translate(7.895 13.547)" fill="#422477"/>
      <path id="Trazado_684797" data-name="Trazado 684797" d="M40.337,15a1.328,1.328,0,0,1,1.323,1.481L38.022,42.959A1.325,1.325,0,0,1,36.713,44.1H31.079a1.325,1.325,0,0,1-1.309-1.137L26.132,16.481A1.328,1.328,0,0,1,27.455,15Z" transform="translate(7.104 3.516)" fill="#6e3dc6"/>
      <path id="Trazado_684798" data-name="Trazado 684798" d="M40.822,16.481,37.185,42.959A1.325,1.325,0,0,1,35.875,44.1H30.241a1.325,1.325,0,0,1-1.309-1.137l-.212-1.508h3.187a1.325,1.325,0,0,0,1.309-1.137L36.7,15h2.8A1.328,1.328,0,0,1,40.822,16.481Z" transform="translate(7.942 3.516)" fill="#422477"/>
      <g id="Grupo_946421" data-name="Grupo 946421" transform="translate(31.079 3.308)">
        <path id="Trazado_684799" data-name="Trazado 684799" d="M26.483,15.4a1.985,1.985,0,0,1-1.7-3L27.8,7.362a8.275,8.275,0,0,1,3.4-3.152l1-.5a1.984,1.984,0,1,1,1.775,3.55l-1,.5A4.326,4.326,0,0,0,31.207,9.4L28.185,14.44a1.981,1.981,0,0,1-1.7.963Z" transform="translate(-24.499 -3.501)" fill="#ffedc5"/>
      </g>
    </g>
  </g>
</svg>
