<svg xmlns="http://www.w3.org/2000/svg" xmlns:xlink="http://www.w3.org/1999/xlink" width="364.167" height="310.953" viewBox="0 0 364.167 310.953">
  <defs>
    <linearGradient id="linear-gradient" x1="0.814" y1="0.117" x2="0.236" y2="0.921" gradientUnits="objectBoundingBox">
      <stop offset="0" stop-color="#be79ca"/>
      <stop offset="1" stop-color="#371f63"/>
    </linearGradient>
    <clipPath id="clip-path">
      <rect id="Rectángulo_402686" data-name="Rectángulo 402686" width="288.251" height="289.888" fill="none"/>
    </clipPath>
    <clipPath id="clip-path-3">
      <rect id="Rectángulo_402670" data-name="Rectángulo 402670" width="288.251" height="268.917" fill="none"/>
    </clipPath>
    <clipPath id="clip-path-4">
      <rect id="Rectángulo_402671" data-name="Rectángulo 402671" width="287.793" height="264.842" fill="none"/>
    </clipPath>
    <clipPath id="clip-path-5">
      <rect id="Rectángulo_402678" data-name="Rectángulo 402678" width="263.851" height="231.285" fill="none"/>
    </clipPath>
    <clipPath id="clip-path-6">
      <rect id="Rectángulo_402672" data-name="Rectángulo 402672" width="12.728" height="11.137" fill="none"/>
    </clipPath>
    <clipPath id="clip-path-7">
      <rect id="Rectángulo_402673" data-name="Rectángulo 402673" width="9.077" height="8.211" fill="none"/>
    </clipPath>
    <clipPath id="clip-path-8">
      <rect id="Rectángulo_402674" data-name="Rectángulo 402674" width="8.916" height="7.801" fill="none"/>
    </clipPath>
    <clipPath id="clip-path-9">
      <rect id="Rectángulo_402675" data-name="Rectángulo 402675" width="6.359" height="5.752" fill="none"/>
    </clipPath>
    <clipPath id="clip-path-10">
      <rect id="Rectángulo_402676" data-name="Rectángulo 402676" width="15.204" height="13.304" fill="none"/>
    </clipPath>
    <clipPath id="clip-path-11">
      <rect id="Rectángulo_402677" data-name="Rectángulo 402677" width="10.843" height="9.808" fill="none"/>
    </clipPath>
    <clipPath id="clip-path-12">
      <rect id="Rectángulo_402679" data-name="Rectángulo 402679" width="40.82" height="17.926" fill="none"/>
    </clipPath>
    <clipPath id="clip-path-14">
      <rect id="Rectángulo_402681" data-name="Rectángulo 402681" width="38.418" height="52.668" fill="none"/>
    </clipPath>
    <clipPath id="clip-path-15">
      <rect id="Rectángulo_402682" data-name="Rectángulo 402682" width="167.287" height="120.621" fill="none"/>
    </clipPath>
    <clipPath id="clip-path-16">
      <rect id="Rectángulo_402683" data-name="Rectángulo 402683" width="6.837" height="4.164" fill="none"/>
    </clipPath>
    <clipPath id="clip-path-17">
      <rect id="Rectángulo_402684" data-name="Rectángulo 402684" width="51.207" height="52.169" fill="none"/>
    </clipPath>
  </defs>
  <g id="Grupo_1103834" data-name="Grupo 1103834" transform="translate(-320.833 -457.528)">
    <g id="Grupo_1100958" data-name="Grupo 1100958" transform="translate(320.833 457.528)">
      <g id="Grupo_1100957" data-name="Grupo 1100957" transform="translate(0 0)">
        <path id="Trazado_145968" data-name="Trazado 145968" d="M68.924,0a68.924,68.924,0,1,0,68.924,68.924A68.924,68.924,0,0,0,68.924,0Z" transform="translate(0 167.204)" fill="#75baf1" opacity="0.444"/>
        <path id="Trazado_145969" data-name="Trazado 145969" d="M47.1,0a47.1,47.1,0,1,0,47.1,47.1A47.1,47.1,0,0,0,47.1,0Z" transform="translate(269.975 17.982)" fill="#75baf1" opacity="0.444"/>
        <path id="Trazado_145967" data-name="Trazado 145967" d="M155.476,0A155.476,155.476,0,1,0,310.952,155.476,155.476,155.476,0,0,0,155.476,0Z" transform="translate(40.565)" fill="url(#linear-gradient)"/>
        <path id="Trazado_145971" data-name="Trazado 145971" d="M12.949,0A12.949,12.949,0,1,0,25.9,12.949,12.949,12.949,0,0,0,12.949,0Z" transform="translate(325.62 258.892)" fill="#75baf1"/>
        <path id="Elipse_4044" data-name="Elipse 4044" d="M17.561,4.746A12.815,12.815,0,1,1,4.746,17.561,12.829,12.829,0,0,1,17.561,4.746m0-4.746A17.561,17.561,0,1,0,35.121,17.561,17.561,17.561,0,0,0,17.561,0Z" transform="translate(290.497 110.905)" fill="#fff"/>
      </g>
      <g id="Grupo_1100955" data-name="Grupo 1100955" transform="translate(37.958 0)">
        <g id="Grupo_1100954" data-name="Grupo 1100954" clip-path="url(#clip-path)">
          <g id="Grupo_1100953" data-name="Grupo 1100953">
            <g id="Grupo_1100952" data-name="Grupo 1100952" clip-path="url(#clip-path)">
              <g id="Grupo_1100909" data-name="Grupo 1100909" transform="translate(0 7.021)" opacity="0.3">
                <g id="Grupo_1100908" data-name="Grupo 1100908">
                  <g id="Grupo_1100907" data-name="Grupo 1100907" clip-path="url(#clip-path-3)">
                    <path id="Trazado_876847" data-name="Trazado 876847" d="M124.9,23.987c-8.932,7.589-15.028,17.9-22.483,26.945A110.943,110.943,0,0,1,70.186,77.6c-13.046,7.144-27.546,11.67-39.7,20.243C10.179,112.161-1.581,137.762.786,162.5s18.768,47.642,41.42,57.851c7.711,3.475,16.019,5.559,23.544,9.422,24.679,12.67,38.747,43.133,65.736,49.555,14.711,3.5,30.537-1.352,42.731-10.294s21.176-21.6,28.535-34.808c7.1-12.74,13.706-27.065,26.6-33.883,8.974-4.747,19.648-5.026,29.105-8.719,20.127-7.861,31.661-31.179,29.421-52.671S271.648,98.412,253.891,86.1c-10.673-7.4-22.99-12.941-31.314-22.91-5.464-6.544-8.807-14.549-13.128-21.9C192.7,12.8,151.166,1.666,124.9,23.987Z" transform="translate(-0.193 -11.842)" fill="none" stroke="#5f4c82" stroke-miterlimit="10" stroke-width="0.97" stroke-dasharray="4.007 4.007"/>
                  </g>
                </g>
              </g>
              <g id="Grupo_1100912" data-name="Grupo 1100912" transform="translate(0.118 9.857)" opacity="0.25" style="mix-blend-mode: overlay;isolation: isolate">
                <g id="Grupo_1100911" data-name="Grupo 1100911">
                  <g id="Grupo_1100910" data-name="Grupo 1100910" clip-path="url(#clip-path-4)">
                    <path id="Trazado_876848" data-name="Trazado 876848" d="M141.08,24.333c-9.831,6.381-17.2,15.825-25.752,23.839A110.948,110.948,0,0,1,79.946,70.485C66.092,75.9,51.131,78.527,37.977,85.469,16,97.067,1.057,120.95.232,145.783s12.5,49.655,33.661,62.684c7.2,4.435,15.174,7.568,22.14,12.364,22.85,15.73,32.9,47.746,58.839,57.575,14.14,5.357,30.458,2.575,43.7-4.729s23.771-18.7,32.764-30.862c8.672-11.724,17.064-25.083,30.723-30.193,9.509-3.557,20.13-2.464,29.983-4.915,20.969-5.215,35.4-26.861,35.932-48.462s-10.9-42.283-26.926-56.77c-9.636-8.709-21.141-15.783-28.118-26.737-4.58-7.19-6.869-15.559-10.211-23.4-12.955-30.4-52.721-46.773-81.636-28" transform="translate(-0.196 -16.354)" fill="#cfc9da"/>
                  </g>
                </g>
              </g>
              <g id="Grupo_1100933" data-name="Grupo 1100933" transform="translate(19.161 25.835)" opacity="0.39">
                <g id="Grupo_1100932" data-name="Grupo 1100932">
                  <g id="Grupo_1100931" data-name="Grupo 1100931" clip-path="url(#clip-path-5)">
                    <g id="Grupo_1100915" data-name="Grupo 1100915" transform="translate(251.123)" style="mix-blend-mode: multiply;isolation: isolate">
                      <g id="Grupo_1100914" data-name="Grupo 1100914">
                        <g id="Grupo_1100913" data-name="Grupo 1100913" clip-path="url(#clip-path-6)">
                          <path id="Trazado_876849" data-name="Trazado 876849" d="M450.614,54h8.4a2.163,2.163,0,0,0,2.162-2.163V45.028a2.163,2.163,0,0,0-2.162-2.163h-8.4a2.163,2.163,0,0,0-2.162,2.163v6.811A2.163,2.163,0,0,0,450.614,54" transform="translate(-448.45 -42.865)" fill="#5f4c82"/>
                        </g>
                      </g>
                    </g>
                    <g id="Grupo_1100918" data-name="Grupo 1100918" transform="translate(246.78 5.568)" style="mix-blend-mode: multiply;isolation: isolate">
                      <g id="Grupo_1100917" data-name="Grupo 1100917">
                        <g id="Grupo_1100916" data-name="Grupo 1100916" clip-path="url(#clip-path-7)">
                          <path id="Trazado_876850" data-name="Trazado 876850" d="M442.812,60.315h5.94a1.568,1.568,0,0,0,1.568-1.568V53.672a1.568,1.568,0,0,0-1.568-1.568h-5.94a1.568,1.568,0,0,0-1.568,1.568v5.074a1.568,1.568,0,0,0,1.568,1.568" transform="translate(-441.244 -52.104)" fill="#9d91b3"/>
                        </g>
                      </g>
                    </g>
                    <g id="Grupo_1100921" data-name="Grupo 1100921" transform="translate(135.139 221.633)" style="mix-blend-mode: multiply;isolation: isolate">
                      <g id="Grupo_1100920" data-name="Grupo 1100920">
                        <g id="Grupo_1100919" data-name="Grupo 1100919" clip-path="url(#clip-path-8)">
                          <path id="Trazado_876851" data-name="Trazado 876851" d="M257.527,418.394h5.885a1.515,1.515,0,0,0,1.515-1.515v-4.771a1.516,1.516,0,0,0-1.515-1.515h-5.885a1.516,1.516,0,0,0-1.515,1.515v4.771a1.515,1.515,0,0,0,1.515,1.515" transform="translate(-256.012 -410.594)" fill="#5f4c82"/>
                        </g>
                      </g>
                    </g>
                    <g id="Grupo_1100924" data-name="Grupo 1100924" transform="translate(132.097 225.534)" style="mix-blend-mode: multiply;isolation: isolate">
                      <g id="Grupo_1100923" data-name="Grupo 1100923">
                        <g id="Grupo_1100922" data-name="Grupo 1100922" clip-path="url(#clip-path-9)">
                          <path id="Trazado_876852" data-name="Trazado 876852" d="M252.063,422.818h4.161a1.1,1.1,0,0,0,1.1-1.1v-3.554a1.1,1.1,0,0,0-1.1-1.1h-4.161a1.1,1.1,0,0,0-1.1,1.1v3.554a1.1,1.1,0,0,0,1.1,1.1" transform="translate(-250.964 -417.066)" fill="#9d91b3"/>
                        </g>
                      </g>
                    </g>
                    <g id="Grupo_1100927" data-name="Grupo 1100927" transform="translate(5.188 95.007)" style="mix-blend-mode: multiply;isolation: isolate">
                      <g id="Grupo_1100926" data-name="Grupo 1100926">
                        <g id="Grupo_1100925" data-name="Grupo 1100925" clip-path="url(#clip-path-10)">
                          <path id="Trazado_876853" data-name="Trazado 876853" d="M42.984,200.5H53.021a2.584,2.584,0,0,1,2.584,2.583v8.137a2.584,2.584,0,0,1-2.584,2.584H42.984a2.583,2.583,0,0,1-2.583-2.584v-8.137a2.583,2.583,0,0,1,2.583-2.583" transform="translate(-40.401 -200.499)" fill="#5f4c82"/>
                        </g>
                      </g>
                    </g>
                    <g id="Grupo_1100930" data-name="Grupo 1100930" transform="translate(0 91.85)" style="mix-blend-mode: multiply;isolation: isolate">
                      <g id="Grupo_1100929" data-name="Grupo 1100929">
                        <g id="Grupo_1100928" data-name="Grupo 1100928" clip-path="url(#clip-path-11)">
                          <path id="Trazado_876854" data-name="Trazado 876854" d="M33.665,195.261h7.1a1.874,1.874,0,0,1,1.874,1.873V203.2a1.874,1.874,0,0,1-1.874,1.873h-7.1a1.873,1.873,0,0,1-1.873-1.873v-6.062a1.873,1.873,0,0,1,1.873-1.873" transform="translate(-31.792 -195.261)" fill="#9d91b3"/>
                        </g>
                      </g>
                    </g>
                  </g>
                </g>
              </g>
              <path id="Trazado_876855" data-name="Trazado 876855" d="M150.953,340.881l-.635,2.209a7.248,7.248,0,0,0-1.648.671l-2.035-1.117-1.818,1.8,1.132,2.009a7.031,7.031,0,0,0-.68,1.627l-2.237.626v2.545l2.237.626a7.033,7.033,0,0,0,.68,1.627l-1.132,2.009,1.818,1.8,2.035-1.117a7.249,7.249,0,0,0,1.648.671l.635,2.209h2.578l.635-2.209a7.238,7.238,0,0,0,1.648-.671l2.035,1.117,1.818-1.8-1.132-2.009a7.035,7.035,0,0,0,.68-1.627l2.237-.626V348.7l-2.237-.626a7.032,7.032,0,0,0-.68-1.627l1.132-2.009-1.818-1.8-2.035,1.117a7.236,7.236,0,0,0-1.648-.671l-.635-2.209Zm6.1,9.093a4.814,4.814,0,1,1-4.813-4.752,4.793,4.793,0,0,1,4.813,4.752" transform="translate(-56.825 -135.429)" fill="#5f4c82"/>
              <path id="Trazado_876856" data-name="Trazado 876856" d="M176.271,303.365l-.894,3.112a10.23,10.23,0,0,0-2.323.946l-2.866-1.574-2.562,2.53,1.594,2.83a9.982,9.982,0,0,0-.958,2.293l-3.152.882v3.585l3.152.882a9.993,9.993,0,0,0,.958,2.293l-1.594,2.83,2.562,2.529,2.866-1.574a10.261,10.261,0,0,0,2.323.946l.894,3.112H179.9l.894-3.112a10.256,10.256,0,0,0,2.323-.946l2.866,1.574,2.562-2.529-1.594-2.83a9.942,9.942,0,0,0,.959-2.293l3.152-.882v-3.585l-3.152-.882a9.93,9.93,0,0,0-.959-2.293l1.594-2.83-2.562-2.53-2.866,1.574a10.225,10.225,0,0,0-2.323-.946l-.894-3.112Zm8.6,12.811a6.782,6.782,0,1,1-6.782-6.695A6.753,6.753,0,0,1,184.868,316.176Z" transform="translate(-65.597 -120.525)" fill="none" stroke="#9d91b3" stroke-miterlimit="10" stroke-width="0.777"/>
              <g id="Grupo_1100936" data-name="Grupo 1100936" transform="translate(28.142 6.027)" opacity="0.4">
                <g id="Grupo_1100935" data-name="Grupo 1100935">
                  <g id="Grupo_1100934" data-name="Grupo 1100934" clip-path="url(#clip-path-12)">
                    <path id="Trazado_876857" data-name="Trazado 876857" d="M77.738,20.648l6.036,6.036L98.921,11.536" transform="translate(-59.027 -10.61)" fill="none" stroke="#9d91b3" stroke-miterlimit="10" stroke-width="4.345"/>
                    <path id="Trazado_876858" data-name="Trazado 876858" d="M48.23,20.648l6.036,6.036L69.414,11.536" transform="translate(-47.304 -10.61)" fill="none" stroke="#9d91b3" stroke-miterlimit="10" stroke-width="4.345"/>
                  </g>
                </g>
              </g>
              <g id="Grupo_1100939" data-name="Grupo 1100939" transform="translate(191.801 262.336)" opacity="0.4">
                <g id="Grupo_1100938" data-name="Grupo 1100938">
                  <g id="Grupo_1100937" data-name="Grupo 1100937" clip-path="url(#clip-path-12)">
                    <path id="Trazado_876859" data-name="Trazado 876859" d="M349.277,445.911l6.036,6.036L370.461,436.8" transform="translate(-330.567 -435.873)" fill="none" stroke="#9d91b3" stroke-miterlimit="10" stroke-width="4.345"/>
                    <path id="Trazado_876860" data-name="Trazado 876860" d="M319.769,445.911l6.036,6.036L340.953,436.8" transform="translate(-318.843 -435.873)" fill="none" stroke="#9d91b3" stroke-miterlimit="10" stroke-width="4.345"/>
                  </g>
                </g>
              </g>
              <path id="Trazado_876861" data-name="Trazado 876861" d="M88.686,127.381H24.846a6.953,6.953,0,0,1-6.953-6.953V77.916a6.953,6.953,0,0,1,6.953-6.953H88.686a6.953,6.953,0,0,1,6.953,6.953v42.511a6.953,6.953,0,0,1-6.953,6.953" transform="translate(-7.109 -28.193)" fill="#cfc9da"/>
              <path id="Trazado_876862" data-name="Trazado 876862" d="M84.882,161.483l-7.309,16.755-7.309-16.755Z" transform="translate(-27.915 -64.156)" fill="#cfc9da"/>
              <path id="Trazado_876863" data-name="Trazado 876863" d="M67.633,126.545l-1.02-.677c-.857-.569-20.987-14.072-20.9-26.122.059-8.571,6.181-13.013,12.2-12.971a12.942,12.942,0,0,1,9.965,4.965,12.943,12.943,0,0,1,10.036-4.827c6.016.042,12.076,4.569,12.016,13.139-.083,12.051-20.4,25.273-21.262,25.831Z" transform="translate(-18.16 -34.474)" fill="#c990d3"/>
              <path id="Trazado_876864" data-name="Trazado 876864" d="M152.144,8.014l-2.311,8.045a26.378,26.378,0,0,0-6,2.446l-7.41-4.069L129.8,20.975l4.121,7.316a25.7,25.7,0,0,0-2.478,5.927L123.29,36.5v9.267l8.149,2.281a25.719,25.719,0,0,0,2.478,5.928L129.8,61.29l6.624,6.539,7.41-4.07a26.407,26.407,0,0,0,6,2.447l2.311,8.044h9.388l2.311-8.044a26.389,26.389,0,0,0,6-2.447l7.41,4.07,6.624-6.539-4.123-7.315a25.694,25.694,0,0,0,2.478-5.928l8.149-2.281V36.5l-8.149-2.282a25.674,25.674,0,0,0-2.478-5.927l4.123-7.316-6.624-6.539-7.41,4.069a26.361,26.361,0,0,0-6-2.446l-2.311-8.045Zm4.694,15.812a17.308,17.308,0,1,1-17.532,17.307,17.457,17.457,0,0,1,17.532-17.307" transform="translate(-48.982 -3.184)" fill="#9d91b3"/>
              <path id="Trazado_876865" data-name="Trazado 876865" d="M164.4,26.813A21.79,21.79,0,1,1,142.332,48.6,21.976,21.976,0,0,1,164.4,26.813Z" transform="translate(-56.548 -10.653)" fill="none" stroke="#fff" stroke-miterlimit="10" stroke-width="1" stroke-dasharray="4 4"/>
              <path id="Trazado_876866" data-name="Trazado 876866" d="M422.518,393.417l-1.309,4.555a14.954,14.954,0,0,0-3.4,1.385l-4.2-2.3-3.751,3.7L412.2,404.9a14.534,14.534,0,0,0-1.4,3.356l-4.614,1.292v5.248l4.614,1.292a14.535,14.535,0,0,0,1.4,3.356l-2.334,4.142,3.751,3.7,4.2-2.3a14.979,14.979,0,0,0,3.4,1.385l1.309,4.555h5.316l1.308-4.555a14.979,14.979,0,0,0,3.4-1.385l4.2,2.3,3.751-3.7-2.334-4.142a14.542,14.542,0,0,0,1.4-3.356l4.614-1.292v-5.248l-4.614-1.292a14.532,14.532,0,0,0-1.4-3.356l2.334-4.142-3.751-3.7-4.2,2.3a14.954,14.954,0,0,0-3.4-1.385l-1.308-4.555Zm2.658,8.953a9.8,9.8,0,1,1-9.927,9.8A9.884,9.884,0,0,1,425.176,402.37Z" transform="translate(-161.372 -156.302)" fill="none" stroke="#5f4c82" stroke-miterlimit="10" stroke-width="1"/>
              <path id="Trazado_876867" data-name="Trazado 876867" d="M429.138,403.261a12.82,12.82,0,1,1-12.985,12.819A12.929,12.929,0,0,1,429.138,403.261Z" transform="translate(-165.335 -160.213)" fill="none" stroke="#5f4c82" stroke-miterlimit="10" stroke-width="1" stroke-dasharray="3.953 3.953"/>
              <path id="Trazado_876868" data-name="Trazado 876868" d="M408.908,263.1a4.632,4.632,0,0,0-4.632-4.632H328.552a4.632,4.632,0,0,0-4.632,4.632v2.672h84.988Z" transform="translate(-128.691 -102.686)" fill="#5f4c82"/>
              <path id="Trazado_876869" data-name="Trazado 876869" d="M323.92,270.584V328.4a4.632,4.632,0,0,0,4.632,4.632h75.723a4.632,4.632,0,0,0,4.632-4.632V270.584Z" transform="translate(-128.691 -107.501)" fill="#cfc9da"/>
              <path id="Trazado_876870" data-name="Trazado 876870" d="M431.711,263.387a1.726,1.726,0,1,1-1.727-1.726,1.726,1.726,0,0,1,1.727,1.726" transform="translate(-170.144 -103.956)" fill="#9d91b3"/>
              <path id="Trazado_876871" data-name="Trazado 876871" d="M443.141,263.387a1.726,1.726,0,1,1-1.726-1.726,1.726,1.726,0,0,1,1.726,1.726" transform="translate(-174.685 -103.956)" fill="#fff"/>
              <path id="Trazado_876872" data-name="Trazado 876872" d="M454.571,263.387a1.726,1.726,0,1,1-1.726-1.726,1.726,1.726,0,0,1,1.726,1.726" transform="translate(-179.226 -103.956)" fill="#be79ca"/>
              <path id="Trazado_876873" data-name="Trazado 876873" d="M405.363,300.8H391.932a1.553,1.553,0,0,1-.79-2.89c5.852-3.458,8.892-7.492,9.293-12.331a3.339,3.339,0,0,1,3.334-3,6.563,6.563,0,0,1,6.46,6.561h0v.522c0,4.236-1.255,6.938-3.57,10.441a1.554,1.554,0,0,1-1.3.7" transform="translate(-155.095 -112.266)" fill="#d3a5db"/>
              <path id="Trazado_876874" data-name="Trazado 876874" d="M417.576,312.522a4.871,4.871,0,0,0-4.866-4.866H387.684a1.557,1.557,0,0,0-.79.216c-1.757,1.039-3.531,1.894-4.956,2.581-.5.239-.967.466-1.393.679a1.554,1.554,0,0,0-.859,1.389V332.4a1.554,1.554,0,0,0,.859,1.389c6.274,3.137,11.491,3.516,17.573,3.516.942,0,1.905-.009,2.9-.019,1.1-.01,2.228-.021,3.415-.021h4.91a4.864,4.864,0,0,0,4.189-7.339,4.862,4.862,0,0,0,1.656-6.626,4.862,4.862,0,0,0,1.06-7.432,4.832,4.832,0,0,0,1.333-3.347" transform="translate(-150.846 -122.229)" fill="#d3a5db"/>
              <path id="Trazado_876875" data-name="Trazado 876875" d="M371.763,342.221V350.4h-3.106v-8.179a1.553,1.553,0,1,1,3.106,0" transform="translate(-146.465 -135.345)" fill="#b7aec7"/>
              <path id="Trazado_876876" data-name="Trazado 876876" d="M371.763,342.221V350.4h-3.106v-8.179a1.553,1.553,0,1,1,3.106,0" transform="translate(-146.465 -135.345)" fill="#b7aec7"/>
              <path id="Trazado_876877" data-name="Trazado 876877" d="M372.468,307.656H359.217a1.553,1.553,0,0,0-1.553,1.553v26.5a1.582,1.582,0,0,0,1.553,1.572h9.939a4.922,4.922,0,0,0,4.353-2.715,4.822,4.822,0,0,0,.513-2.171v-23.19a1.554,1.554,0,0,0-1.553-1.553" transform="translate(-142.097 -122.229)" fill="#5f4c82"/>
              <path id="Trazado_876878" data-name="Trazado 876878" d="M371.763,342.049v8.282h-3.106v-8.282a1.553,1.553,0,1,1,3.106,0" transform="translate(-146.465 -135.277)" fill="#371f63"/>
              <path id="Trazado_876879" data-name="Trazado 876879" d="M285.471,319.8l-13.725,7.666a6.125,6.125,0,0,1-7.988-1.809L216.892,259.43l29.6-16.534L281.8,306.113a6.133,6.133,0,0,0,3.015,2.677,6.126,6.126,0,0,1,.654,11.013" transform="translate(-86.17 -96.501)" fill="#5f4c82"/>
              <path id="Trazado_876880" data-name="Trazado 876880" d="M281.963,321.761l-13.725,7.666a6.126,6.126,0,0,1-7.988-1.809l-46.866-66.229,29.6-16.533,35.308,63.217a6.133,6.133,0,0,0,3.015,2.677,6.125,6.125,0,0,1,.653,11.012" transform="translate(-84.776 -97.279)" fill="#371f63"/>
              <path id="Trazado_876881" data-name="Trazado 876881" d="M164.827,212.02c9.558,17.113,12.236,33.817,5.981,37.311s-19.074-7.547-28.632-24.66-12.236-33.817-5.981-37.311,19.074,7.547,28.632,24.66" transform="translate(-52.767 -74.181)" fill="#9d91b3"/>
              <path id="Trazado_876882" data-name="Trazado 876882" d="M252.284,36.476a197.937,197.937,0,0,1-72.233,76.076c-2.695,6.7.656,21.118,8.872,35.829s18.733,25.123,25.854,26.344A197.931,197.931,0,0,1,317.434,153.12l2.194.134L253.321,34.538Z" transform="translate(-71.17 -13.722)" fill="#cfc9da"/>
              <path id="Trazado_876883" data-name="Trazado 876883" d="M172.749,199.806c-8.217-14.71-11.567-29.126-8.872-35.829q-2.859,1.725-5.777,3.359l-19.677,10.99L173.036,240.3l19.677-10.99q2.92-1.632,5.889-3.157c-7.121-1.22-17.637-11.634-25.853-26.344" transform="translate(-54.995 -65.147)" fill="#9d91b3"/>
              <g id="Grupo_1100942" data-name="Grupo 1100942" transform="translate(148.562 163.303)" opacity="0.3">
                <g id="Grupo_1100941" data-name="Grupo 1100941">
                  <g id="Grupo_1100940" data-name="Grupo 1100940" clip-path="url(#clip-path-14)">
                    <path id="Trazado_876884" data-name="Trazado 876884" d="M259.893,273.882l-11.073,6.185a1.566,1.566,0,0,1-1.527-2.735l11.073-6.184a1.566,1.566,0,0,1,1.527,2.734" transform="translate(-246.491 -270.949)" fill="#9d91b3"/>
                    <path id="Trazado_876885" data-name="Trazado 876885" d="M264.915,282.873l-11.073,6.185a1.566,1.566,0,0,1-1.527-2.734l11.073-6.184a1.566,1.566,0,1,1,1.527,2.734" transform="translate(-248.486 -274.521)" fill="#9d91b3"/>
                    <path id="Trazado_876886" data-name="Trazado 876886" d="M269.937,291.864l-11.073,6.185a1.566,1.566,0,0,1-1.527-2.734l11.073-6.184a1.566,1.566,0,1,1,1.527,2.734" transform="translate(-250.481 -278.093)" fill="#9d91b3"/>
                    <path id="Trazado_876887" data-name="Trazado 876887" d="M274.959,300.855l-11.073,6.185a1.566,1.566,0,0,1-1.527-2.734l11.073-6.184a1.566,1.566,0,1,1,1.527,2.734" transform="translate(-252.476 -281.665)" fill="#9d91b3"/>
                    <path id="Trazado_876888" data-name="Trazado 876888" d="M279.98,309.846l-11.073,6.185a1.566,1.566,0,0,1-1.527-2.734l11.073-6.184a1.566,1.566,0,1,1,1.527,2.734" transform="translate(-254.471 -285.237)" fill="#9d91b3"/>
                    <path id="Trazado_876889" data-name="Trazado 876889" d="M285,318.837l-11.073,6.185a1.566,1.566,0,0,1-1.527-2.734l11.073-6.184A1.566,1.566,0,1,1,285,318.837" transform="translate(-256.466 -288.809)" fill="#9d91b3"/>
                    <path id="Trazado_876890" data-name="Trazado 876890" d="M290.024,327.827l-11.073,6.185a1.566,1.566,0,0,1-1.527-2.734l11.073-6.184a1.566,1.566,0,0,1,1.527,2.734" transform="translate(-258.462 -292.381)" fill="#9d91b3"/>
                    <path id="Trazado_876891" data-name="Trazado 876891" d="M295.045,336.818,283.972,343a1.566,1.566,0,0,1-1.527-2.735l11.073-6.184a1.566,1.566,0,0,1,1.527,2.734" transform="translate(-260.456 -295.953)" fill="#9d91b3"/>
                    <path id="Trazado_876892" data-name="Trazado 876892" d="M300.067,345.809l-11.073,6.185a1.566,1.566,0,0,1-1.527-2.735l11.073-6.184a1.566,1.566,0,0,1,1.527,2.734" transform="translate(-262.452 -299.525)" fill="#9d91b3"/>
                  </g>
                </g>
              </g>
              <g id="Grupo_1100945" data-name="Grupo 1100945" transform="translate(97.739 112.305)" opacity="0.3" style="mix-blend-mode: multiply;isolation: isolate">
                <g id="Grupo_1100944" data-name="Grupo 1100944">
                  <g id="Grupo_1100943" data-name="Grupo 1100943" clip-path="url(#clip-path-15)">
                    <path id="Trazado_876893" data-name="Trazado 876893" d="M247.494,194.736c-30.654,8.787-59.268,23.8-85.328,42.23,7.719,9.595,15.75,14.757,20.3,12.214l13.173-7.358,44.26,62.545a6.126,6.126,0,0,0,7.988,1.81l13.725-7.666,2.114-1.181a6.126,6.126,0,0,0-.654-11.012,6.129,6.129,0,0,1-3.015-2.677l-32.118-57.5a197.925,197.925,0,0,1,82.749-12.711l2.194.134-.033-.058a13.091,13.091,0,0,0,9.241-1.032c6.087-3.4,8.3-12.492,7-24.695-27.2-3.423-55.19-.611-81.6,6.961" transform="translate(-162.166 -186.335)" fill="#9d91b3"/>
                  </g>
                </g>
              </g>
              <path id="Trazado_876894" data-name="Trazado 876894" d="M365.593,70.628c19.271,34.5,24.226,68.43,11.069,75.779s-39.447-14.663-58.717-49.165-24.226-68.43-11.069-75.779,39.447,14.663,58.717,49.165" transform="translate(-118.995 -7.965)" fill="#9d91b3"/>
              <path id="Trazado_876895" data-name="Trazado 876895" d="M365.414,75.219c17.841,31.942,22.767,63.163,11,69.734s-35.765-14-53.605-45.939-22.767-63.163-11-69.734,35.765,14,53.605,45.939" transform="translate(-121.338 -11.147)" fill="#371f63"/>
              <path id="Trazado_876896" data-name="Trazado 876896" d="M403.593,76.65l-11.1,5.279c2.589,3.859,5.11,7.963,7.52,12.276q.918,1.644,1.789,3.284l9.864-6.392a8.292,8.292,0,0,0,2.73-11h0a8.291,8.291,0,0,0-10.8-3.445" transform="translate(-155.933 -30.133)" fill="#5f4c82"/>
              <path id="Trazado_876897" data-name="Trazado 876897" d="M364.235,85.938l-42.863,20.377c2.229,5.14,4.826,10.407,7.779,15.695q1.712,3.067,3.5,5.988l40.895-26.5q-.872-1.64-1.789-3.284c-2.409-4.313-4.931-8.416-7.519-12.276" transform="translate(-127.679 -34.143)" fill="#5f4c82"/>
              <path id="Trazado_876898" data-name="Trazado 876898" d="M116.172,359.535l42.041,13.689,26.515-34.459,9.237,7.136-30.552,49.692L112.5,384.277Z" transform="translate(-44.695 -134.589)" fill="#371f63"/>
              <path id="Trazado_876899" data-name="Trazado 876899" d="M66.779,298.645c.038,5.312.24,10.464.544,15.766,2.935,4.107,6.956,7.613,11.8,9.048A26.371,26.371,0,0,0,89.69,324a18.115,18.115,0,0,0,8.659-3.012c-1.447-2.263-2.924-4.6-3.428-7.236-.328-1.719-.612-19.31-.612-19.31s8-2.214,11.016-3.978a5.512,5.512,0,0,0,2.338-2.09,5.308,5.308,0,0,0,.239-3.037,39.6,39.6,0,0,0-1.117-5.556,16.691,16.691,0,0,1-9.171-3.884,39.6,39.6,0,0,0,7.451-.927,21.425,21.425,0,0,1-1.1-2.82c1.853-2.122,3.742-4.3,5.436-6.551-3.469-1.773-6.981-3.859-10.267-5.95a43.284,43.284,0,0,0-5.47-9.755,7.234,7.234,0,0,0-4.179-2.249,16.217,16.217,0,0,0-9.725.878,22.649,22.649,0,0,0-8.02,5.705,28.435,28.435,0,0,0-7.3,15.687,50.482,50.482,0,0,0,.385,12.34c.674,5.513,1.912,10.837,1.952,16.391" transform="translate(-25.508 -98.234)" fill="#d3a5db"/>
              <path id="Trazado_876900" data-name="Trazado 876900" d="M81.95,241.173s-10.885,5.92-17.122,5.834a56.489,56.489,0,0,0,2.3,6.12c1.6,3.789,2.949,7.439,4.545,11.228a26.632,26.632,0,0,1-4.367,1.63c-1.114-2.577-2.311-5.282-3.425-7.859a5.208,5.208,0,0,0-5.767,3.232,7.129,7.129,0,0,0,1.178,6.795,6.9,6.9,0,0,0,3.176,2.383,11.944,11.944,0,0,0,4.478.215,27.994,27.994,0,0,1-3.159,23.507,16.366,16.366,0,0,0-.664-6.675,23.01,23.01,0,0,1-7.656,10.946c-.228-4.481-2.253-8.7-4.83-12.372s-5.716-6.91-8.554-10.385-5.422-7.282-6.62-11.606-1.135-9.622,1.517-13.242c-2.134-2.159-2.317-5.753-.987-8.482a13.451,13.451,0,0,1,6.659-5.948,67.8,67.8,0,0,1,8.635-2.867,65.022,65.022,0,0,0,12.2-5.178c3.267-1.8,6.529-3.935,10.244-4.282a17.859,17.859,0,0,1,8.091,1.522c3.558,1.4,7.193,3.589,8.471,7.192,1.04,2.936,0,6.054-1.5,8.781a10.944,10.944,0,0,0-1.37-6.08c.4,3.287-.265,7.062-2.727,9.275a26.142,26.142,0,0,0-2.743-3.687" transform="translate(-13.793 -89.041)" fill="#371f63"/>
              <path id="Trazado_876901" data-name="Trazado 876901" d="M126.85,435.355s-.844-32.493-3.88-45.822a70.631,70.631,0,0,0-10.4-23.389l-9.328,2.164,9.23,67.046Z" transform="translate(-41.018 -145.466)" fill="#9d91b3"/>
              <path id="Trazado_876902" data-name="Trazado 876902" d="M34.718,427.979l20.751-80.4s16.993,2.86,23.911,11.464a61.1,61.1,0,0,1,9.831,18.038l33.36,14.862,40.045-31.231,9.313,13.064L126.282,410l-35.568-7.761,3.174,25.744Z" transform="translate(-13.793 -138.091)" fill="#371f63"/>
              <path id="Trazado_876903" data-name="Trazado 876903" d="M175.857,376.118c-11.2,8.941-23.4,18.6-34.657,27.385l-.13.1-.152-.065L125.95,397.2c-13.323-5.659-31.522-13.495-44.778-19.312,13.406,5.494,31.668,13.126,45,18.778l14.96,6.357-.281.037c11.254-8.759,23.613-18.277,35-26.942" transform="translate(-32.249 -149.429)" fill="#cfc9da"/>
              <path id="Trazado_876904" data-name="Trazado 876904" d="M111.578,434.375c-8.19-1.561-16.35-3.537-24.348-5.9,8.193,1.562,16.351,3.538,24.348,5.9" transform="translate(-34.656 -170.231)" fill="#cfc9da"/>
              <path id="Trazado_876905" data-name="Trazado 876905" d="M109.819,325.546l-6.577,1.771,6.633,1.379Z" transform="translate(-41.017 -129.337)" fill="#371f63"/>
              <path id="Trazado_876906" data-name="Trazado 876906" d="M113.822,273.373a1.793,1.793,0,1,1-1.793-1.793,1.793,1.793,0,0,1,1.793,1.793" transform="translate(-43.796 -107.897)" fill="#371f63"/>
              <path id="Trazado_876907" data-name="Trazado 876907" d="M101.561,268.6a9.334,9.334,0,0,1,1.993-7.044,6.453,6.453,0,0,1,3.035-2.513,4.855,4.855,0,0,1,3.954.335l.022.3c-1.057.92-1.888,1.505-2.7,2.1-.795.612-1.8.837-2.584,1.465a10.046,10.046,0,0,0-3.419,5.377l-.3-.015" transform="translate(-40.315 -102.813)" fill="#371f63"/>
              <path id="Trazado_876908" data-name="Trazado 876908" d="M81.927,293.023a4.659,4.659,0,0,1-2.625-1.318,1.289,1.289,0,0,1-.322-.965,1.442,1.442,0,0,1,1.249-1.016,3.487,3.487,0,0,1,1.5.034,13.568,13.568,0,0,0-1.595-3.367,3.951,3.951,0,0,0-1.646-1.583,2.292,2.292,0,0,0-3.156,1.759s-.669,2.35,1.8,5.037,4.788,1.419,4.788,1.419" transform="translate(-29.898 -113.082)" fill="#c384ce"/>
              <path id="Trazado_876909" data-name="Trazado 876909" d="M75.391,286.436a2.372,2.372,0,0,1,2.9-2.065c1.368.312,2.136,1.671,2.769,2.768a13.75,13.75,0,0,1,1.16,2.895,3.829,3.829,0,0,0-2.139-.113c-1.47.456-.735,1.716.248,2.271a8.752,8.752,0,0,0,1.655.7,4.839,4.839,0,0,1-2.566-1c-1.8-1.791.753-3.055,2.442-2.548l-.348.371a12.245,12.245,0,0,0-2.349-4.327,2.224,2.224,0,0,0-3.769,1.049" transform="translate(-29.952 -112.951)" fill="#371f63"/>
              <g id="Grupo_1100948" data-name="Grupo 1100948" transform="translate(64.377 172.015)" opacity="0.6" style="mix-blend-mode: multiply;isolation: isolate">
                <g id="Grupo_1100947" data-name="Grupo 1100947">
                  <g id="Grupo_1100946" data-name="Grupo 1100946" clip-path="url(#clip-path-16)">
                    <path id="Trazado_876910" data-name="Trazado 876910" d="M113.62,286.7c.248,1.064-1.069,2.279-2.941,2.715s-3.589-.074-3.836-1.138,1.069-2.279,2.94-2.715,3.589.074,3.837,1.138" transform="translate(-106.813 -285.403)" fill="#c990d3"/>
                  </g>
                </g>
              </g>
              <g id="Grupo_1100951" data-name="Grupo 1100951" transform="translate(22.607 139.65)" opacity="0.2">
                <g id="Grupo_1100950" data-name="Grupo 1100950">
                  <g id="Grupo_1100949" data-name="Grupo 1100949" clip-path="url(#clip-path-17)">
                    <path id="Trazado_876911" data-name="Trazado 876911" d="M90.835,238.765c-1.155-3.171-5.057-5.906-8.287-6.565-3.8-.661-6.755,2.362-9.834,4.084A37.425,37.425,0,0,1,58.9,241.537c-2.438.4-4.88.686-7.237,1.312-4.606,1.063-9.476,4.845-8.674,10.066-1.075-5.327,3.872-9.321,8.548-10.512A63.865,63.865,0,0,1,58.81,241a39.019,39.019,0,0,0,13.625-5.183c2.155-1.213,4.072-2.837,6.438-3.681a8,8,0,0,1,7.188,1.138c2.012,1.365,4.077,3.08,4.775,5.495" transform="translate(-39.628 -231.705)" fill="#cfc9da"/>
                    <path id="Trazado_876912" data-name="Trazado 876912" d="M88.693,248.712c3.006-3.39.153-10.443-4.613-9.787-4.479,1.234-7.115,5.69-11.152,7.861-4.163,2.385-9.162,1.436-13.7,1.51-5.462.038-8.318,1.944-11.322,6.4,2.815-4.7,5.758-6.694,11.307-6.867,4.5-.194,9.355.8,13.42-1.573a33.6,33.6,0,0,0,5.4-4.191c1.785-1.471,3.591-3.156,5.964-3.6,5.045-.659,8.043,6.781,4.69,10.242" transform="translate(-41.641 -234.376)" fill="#cfc9da"/>
                    <path id="Trazado_876913" data-name="Trazado 876913" d="M74.317,262.021c-6.438.471-13.4,1.157-19.8,1.942a67.476,67.476,0,0,1,19.8-1.942" transform="translate(-44.266 -243.715)" fill="#cfc9da"/>
                    <path id="Trazado_876914" data-name="Trazado 876914" d="M58.07,269.039c7.133,4.97,5.832,16.973,1.609,23.5a21.457,21.457,0,0,1-5.81,6.169,24.329,24.329,0,0,0,5.413-6.408c3.915-6.618,5.318-17.837-1.211-23.26" transform="translate(-44.009 -246.538)" fill="#cfc9da"/>
                    <path id="Trazado_876915" data-name="Trazado 876915" d="M48.245,271.822a15.483,15.483,0,0,1-3.1,18.519,14.529,14.529,0,0,1-2.276,1.727,17.875,17.875,0,0,0,2.067-1.936,17.374,17.374,0,0,0,3.311-18.311" transform="translate(-39.639 -247.643)" fill="#cfc9da"/>
                    <path id="Trazado_876916" data-name="Trazado 876916" d="M37.51,285.515a14.5,14.5,0,0,0,4.261-11.964c-.064-.553-.214-1.333-.336-1.873.124.294.243.592.356.894l.271.928.171.954a11.635,11.635,0,0,1-4.722,11.062" transform="translate(-37.51 -247.586)" fill="#cfc9da"/>
                  </g>
                </g>
              </g>
              <path id="Trazado_876917" data-name="Trazado 876917" d="M246.923,360.74l12.9-13.093,8.011,11.859a30.453,30.453,0,0,1-8.2,5.488,39.508,39.508,0,0,1-7.831,2.585Z" transform="translate(-98.101 -138.118)" fill="#d3a5db"/>
              <path id="Trazado_876918" data-name="Trazado 876918" d="M268.11,343.448c3.8-2.986,7.915-5.905,12.686-6.673a2.019,2.019,0,0,1,1.066.033.758.758,0,0,1,.5.846.781.781,0,0,1-.237.35,5.651,5.651,0,0,1-1.225.815,77.4,77.4,0,0,0-11.495,7.361c4.762-2.187,9.463-4.37,14.68-4.851a4.609,4.609,0,0,1,2.38.242.678.678,0,0,1,.424.429c.054.287-.215.523-.46.682-2.169,1.4-4.735,2.005-7.182,2.824a41.109,41.109,0,0,0-8.174,3.777c5.63-1.871,10.986-3.589,16.9-4.08.095-.008.19-.015.286-.021a.982.982,0,0,1,.693,1.725,6.152,6.152,0,0,1-1.7,1,20.9,20.9,0,0,1-3.032.91c-.671.147-1.351.262-2.01.454a17.428,17.428,0,0,0-2.045.791l-6.891,3a46.794,46.794,0,0,1,14.079-2.809c.316-.011.5.348.529.663a.967.967,0,0,1-.395.82,2.484,2.484,0,0,1-.82.387,15.852,15.852,0,0,1-4.447.756c-1.724.033-3.344,1.149-4.863,1.963a4.855,4.855,0,0,1-2.436.841,3.448,3.448,0,0,1-2.038-.245,9.129,9.129,0,0,1-4.826-10.979" transform="translate(-106.338 -133.776)" fill="#d3a5db"/>
              <path id="Trazado_876919" data-name="Trazado 876919" d="M232.34,332.16l9.837-10.02,8.266,11.653-8.866,5.5Z" transform="translate(-92.307 -127.984)" fill="#d3a5db"/>
              <path id="Trazado_876920" data-name="Trazado 876920" d="M232.34,330.514s3.078-7.241,5.567-9.12,8.643-3.762,9.615-3.337.09,3.317-1.974,4.532-4.157,2.693-4.157,2.693Z" transform="translate(-92.307 -126.338)" fill="#d3a5db"/>
              <path id="Trazado_876921" data-name="Trazado 876921" d="M249.438,326.948a25.654,25.654,0,0,1-3.428,1.976l.168-.275a9.915,9.915,0,0,1-.321,2.93,2.871,2.871,0,0,1-.415.9,10.514,10.514,0,0,0,.135-1.91c0-.036.008-2.173.007-2.1a26.432,26.432,0,0,1,3.853-1.518" transform="translate(-97.513 -129.894)" fill="#371f63"/>
              <path id="Trazado_876922" data-name="Trazado 876922" d="M353.477,4.672l-29.592,41.01,26.585-43.02Z" transform="translate(-128.677 -1.058)" fill="#cfc9da"/>
              <path id="Trazado_876923" data-name="Trazado 876923" d="M400.265,2.808,327.577,59.44,397.987,0Z" transform="translate(-130.144 0)" fill="#cfc9da"/>
              <path id="Trazado_876924" data-name="Trazado 876924" d="M421.778,168.823l-51.445,6.57,50.862-10.139Z" transform="translate(-147.131 -65.654)" fill="#cfc9da"/>
              <path id="Trazado_876925" data-name="Trazado 876925" d="M426.908,113.312l-74.286,29.695,72.868-33.022Z" transform="translate(-140.094 -43.696)" fill="#cfc9da"/>
            </g>
          </g>
        </g>
      </g>
    </g>
  </g>
</svg>
