<svg xmlns="http://www.w3.org/2000/svg" width="101" height="101" viewBox="0 0 101 101">
  <g id="Grupo_1103840" data-name="Grupo 1103840" transform="translate(-783 -3778)">
    <g id="Grupo_1102313" data-name="Grupo 1102313" transform="translate(34 2029)">
      <rect id="Rectángulo_26083" data-name="Rectángulo 26083" width="101" height="101" transform="translate(749 1749)" fill="none"/>
      <g id="mujer-de-negocios" transform="translate(758 1757.001)">
        <path id="Trazado_128373" data-name="Trazado 128373" d="M51.755,3C40.293,3,31,9.814,31,18.22c0,5.418,3.874,10.161,9.685,12.86v7.9l7.674-5.756a28.14,28.14,0,0,0,3.4.221c11.462,0,20.755-6.814,20.755-15.22S63.217,3,51.755,3Z" transform="translate(10.742 0.395)" fill="#f9ce24"/>
        <path id="Trazado_128374" data-name="Trazado 128374" d="M39.207,51.427H6V19.6a16.6,16.6,0,0,1,33.207,0Z" transform="translate(1.151 0.395)" fill="#3e3d42"/>
        <path id="Trazado_128375" data-name="Trazado 128375" d="M42.742,57.207V46.8a8.318,8.318,0,0,0-5.922-7.966l-2.989-.9a6.928,6.928,0,0,1-4.926-6.628V24H17.836v7.306a6.928,6.928,0,0,1-4.926,6.628l-2.989.9A8.318,8.318,0,0,0,4,46.8V66.893A2.767,2.767,0,0,0,6.767,69.66h4.151L9.535,75.195H38.591l-1.384-4.151,5.535-4.151Z" transform="translate(0.384 8.451)" fill="#e9e9ea"/>
        <path id="Trazado_128376" data-name="Trazado 128376" d="M25.069,69.44H14L18.151,39h2.767Z" transform="translate(4.22 14.206)" fill="#be79ca"/>
        <path id="Trazado_128377" data-name="Trazado 128377" d="M27,40H46.371V64.905H27Z" transform="translate(9.207 14.59)" fill="#6e3dc6"/>
        <path id="Trazado_128378" data-name="Trazado 128378" d="M11.151,44v8.3H29.138v9.685H7Z" transform="translate(1.535 16.124)" fill="#e9e9ea"/>
        <g id="Grupo_88645" data-name="Grupo 88645" transform="translate(14.111 32.451)">
          <path id="Trazado_128379" data-name="Trazado 128379" d="M23,51h5.535v6.918H23Z" transform="translate(-6.438 -13.642)" fill="#ffcbbe"/>
          <path id="Trazado_128380" data-name="Trazado 128380" d="M41.767,49h4.151v6.918H41.767A2.767,2.767,0,0,1,39,53.151V51.767A2.767,2.767,0,0,1,41.767,49Z" transform="translate(-0.3 -14.409)" fill="#ffcbbe"/>
          <path id="Trazado_128381" data-name="Trazado 128381" d="M30.318,37.629c-.374,3.224-9.644,5.742-9.644,5.742s-9.27-2.518-9.644-5.742a6.918,6.918,0,0,0,4.109-6.323V24H26.208v7.306a6.918,6.918,0,0,0,4.11,6.324Z" transform="translate(-11.03 -24)" fill="#ffcbbe"/>
        </g>
        <path id="Trazado_128382" data-name="Trazado 128382" d="M14,35H25.069l-4.151,5.535H18.151Z" transform="translate(4.22 12.671)" fill="#fff"/>
        <path id="Trazado_128383" data-name="Trazado 128383" d="M10.74,34.363l3.127,8.357L20.785,35.8,13.078,32.91l-.014.014A6.582,6.582,0,0,1,10.74,34.363Z" transform="translate(2.969 11.87)" fill="#6e3dc6"/>
        <path id="Trazado_128384" data-name="Trazado 128384" d="M25.707,32.91,18,35.8l6.918,6.918,3.127-8.357a6.582,6.582,0,0,1-2.325-1.439Z" transform="translate(5.755 11.87)" fill="#6e3dc6"/>
        <path id="Trazado_128385" data-name="Trazado 128385" d="M32.138,14.182a2.767,2.767,0,0,0-2.767-2.767H27.586A6.536,6.536,0,0,1,23.435,9.92a6.522,6.522,0,0,1-6.116,4.262H12.768A2.767,2.767,0,0,0,10,16.949v7.925A11.318,11.318,0,0,0,20.337,36.3a11.069,11.069,0,0,0,11.8-11.046Z" transform="translate(2.685 3.05)" fill="#ffddce"/>
        <path id="Trazado_128386" data-name="Trazado 128386" d="M62.5,2.011c-10.446,0-19.2,5.465-21.516,12.771A17.987,17.987,0,0,0,5.767,20V48.46A9.676,9.676,0,0,0,3,55.254v20.09A4.163,4.163,0,0,0,7.151,79.5h2.38l-.955,3.819a1.414,1.414,0,0,0,.249,1.19,1.384,1.384,0,0,0,1.093.526H38.975a1.36,1.36,0,0,0,1.121-.581,1.384,1.384,0,0,0,.194-1.245l-.775-2.325H55.578A1.384,1.384,0,0,0,56.962,79.5V75.344h2.767a1.384,1.384,0,0,0,1.384-1.384V67.042a1.384,1.384,0,0,0-1.384-1.384H56.962V54.59a1.384,1.384,0,0,0-1.384-1.384h-11.3a9.738,9.738,0,0,0-2.532-4.691v-24.1a18.22,18.22,0,0,0,8.3,7.928V39.37A1.352,1.352,0,0,0,50.8,40.6a1.256,1.256,0,0,0,.623.152,1.424,1.424,0,0,0,.83-.277l7.236-5.424a29.07,29.07,0,0,0,3,.166c12.2,0,22.138-7.444,22.138-16.6S74.7,2.011,62.5,2.011ZM41.424,53.206H36.207a1.384,1.384,0,0,0-1.384,1.384V68.426H32.056a1.384,1.384,0,0,0-1.384-1.384H28.417L26.591,53.58l.484-.636,2.615,2.629a1.393,1.393,0,0,0,.982.4,2.065,2.065,0,0,0,.291-.028,1.4,1.4,0,0,0,1.01-.872l2.657-7.112,2.172.65a6.951,6.951,0,0,1,4.621,4.594Zm-6.6,17.987v4.151H32.056V71.193ZM23.575,54.59h.36l1.688,12.453H21.887Zm-1.162-3.625,1.342-1.342L25.1,50.965l-.65.858H23.063Zm1.342-4.774-5.438-2.034a8.209,8.209,0,0,0,1.259-4.137,11.834,11.834,0,0,0,3.362.706c.277.014.553.028.83.028a12.433,12.433,0,0,0,4.165-.719,8.163,8.163,0,0,0,1.259,4.123Zm-2.491,2.02-3.888,3.874-1.923-5.161c.291-.18.595-.36.872-.567ZM14.069,27.927V20a1.384,1.384,0,0,1,1.384-1.384H20a7.957,7.957,0,0,0,6.655-3.639,7.9,7.9,0,0,0,3.611.872h1.785a1.384,1.384,0,0,1,1.384,1.384V28.3a9.663,9.663,0,0,1-10.322,9.658,9.892,9.892,0,0,1-9.049-10.031ZM31.157,46.371l-.014-.055a8.058,8.058,0,0,0,.913.609l-1.923,5.161-3.888-3.874ZM8.535,20a15.22,15.22,0,1,1,30.44,0V46.5a9.71,9.71,0,0,0-1.37-.54l-2.989-.9a5.5,5.5,0,0,1-3.943-5.3V38.65a13.641,13.641,0,0,0,1.605-1.259,12.554,12.554,0,0,0,3.93-9.09V17.231a4.163,4.163,0,0,0-4.151-4.151H30.271A5.233,5.233,0,0,1,26.992,11.9a1.373,1.373,0,0,0-1.231-.277,1.453,1.453,0,0,0-.941.858A5.175,5.175,0,0,1,20,15.848H15.453A4.163,4.163,0,0,0,11.3,20v7.928a12.962,12.962,0,0,0,5.535,10.654v1.176a5.5,5.5,0,0,1-3.943,5.3l-2.989.9a11.733,11.733,0,0,0-1.37.54Zm8.482,62.264H11.689l.692-2.767H17.39Zm2.795,0,.374-2.767h7.14l.374,2.767Zm9.478-5.535H7.151a1.384,1.384,0,0,1-1.384-1.384V55.254a6.882,6.882,0,0,1,4.94-6.641l2.172-.65,2.657,7.112a1.4,1.4,0,0,0,1.01.872,2.065,2.065,0,0,0,.291.028,1.393,1.393,0,0,0,.982-.4l2.615-2.629.484.636L19.092,67.042H14.069V60.124H11.3v8.3a1.384,1.384,0,0,0,1.384,1.384h16.6Zm1.2,5.535L30.119,79.5h.553a1.384,1.384,0,0,0,1.384-1.384h2.767V79.5a1.384,1.384,0,0,0,1.384,1.384h.387l.457,1.384ZM55.578,68.426h2.767v4.151H55.578a1.384,1.384,0,0,1-1.384-1.384V69.81A1.384,1.384,0,0,1,55.578,68.426ZM54.195,55.973v9.935a4.165,4.165,0,0,0-2.767,3.9v1.384a4.165,4.165,0,0,0,2.767,3.9v3.016h-16.6V55.973Zm8.3-23.522a27.467,27.467,0,0,1-3.224-.208,1.4,1.4,0,0,0-1,.263l-5.465,4.1V31.469a1.371,1.371,0,0,0-.8-1.245c-5.562-2.587-8.883-6.918-8.883-11.609,0-7.624,8.689-13.836,19.371-13.836s19.371,6.213,19.371,13.836S73.178,32.451,62.5,32.451Z" transform="translate(0 0)"/>
        <path id="Trazado_128387" data-name="Trazado 128387" d="M15.384,20.151a1.384,1.384,0,0,0,1.384-1.384V17.384a1.384,1.384,0,1,0-2.767,0v1.384A1.384,1.384,0,0,0,15.384,20.151Z" transform="translate(4.22 5.382)"/>
        <path id="Trazado_128388" data-name="Trazado 128388" d="M21.384,16A1.384,1.384,0,0,0,20,17.384v1.384a1.384,1.384,0,0,0,2.767,0V17.384A1.384,1.384,0,0,0,21.384,16Z" transform="translate(6.522 5.382)"/>
        <path id="Trazado_128389" data-name="Trazado 128389" d="M19.535,24.384c-1.689,0-2.767-.819-2.767-1.384H14c0,2.327,2.431,4.151,5.535,4.151S25.069,25.327,25.069,23H22.3C22.3,23.565,21.224,24.384,19.535,24.384Z" transform="translate(4.22 8.068)"/>
        <path id="Trazado_128390" data-name="Trazado 128390" d="M38,9h5.535v2.767H38Z" transform="translate(13.427 2.697)"/>
        <path id="Trazado_128391" data-name="Trazado 128391" d="M44,9H59.22v2.767H44Z" transform="translate(15.729 2.697)"/>
        <path id="Trazado_128392" data-name="Trazado 128392" d="M38,13h8.3v2.767H38Z" transform="translate(13.427 4.231)"/>
        <path id="Trazado_128393" data-name="Trazado 128393" d="M46,13H58.453v2.767H46Z" transform="translate(16.496 4.231)"/>
        <path id="Trazado_128394" data-name="Trazado 128394" d="M38,17H61.522v2.767H38Z" transform="translate(13.427 5.766)"/>
      </g>
    </g>
  </g>
</svg>
