<svg xmlns="http://www.w3.org/2000/svg" width="101" height="101" viewBox="0 0 101 101">
  <g id="Grupo_1103842" data-name="Grupo 1103842" transform="translate(-783 -4421)">
    <g id="Grupo_1102315" data-name="Grupo 1102315" transform="translate(34 2672)">
      <rect id="Rectángulo_26083" data-name="Rectángulo 26083" width="101" height="101" transform="translate(749 1749)" fill="none"/>
      <g id="presentacion_1_" data-name="presentacion (1)" transform="translate(760.75 1759.305)">
        <g id="Grupo_88658" data-name="Grupo 88658" transform="translate(1.428 1.178)">
          <path id="Trazado_128426" data-name="Trazado 128426" d="M28.229,26.148H99.755V80.414H28.229Z" transform="translate(-25.014 -23.22)" fill="#fdf6df"/>
          <path id="Trazado_128427" data-name="Trazado 128427" d="M449.789,26.148h5.336V80.414h-5.336Z" transform="translate(-380.384 -23.22)" fill="#fae9b5"/>
          <path id="Trazado_128428" data-name="Trazado 128428" d="M84.452,12.519H9A1.255,1.255,0,0,1,7.75,11.265V8.755A1.255,1.255,0,0,1,9,7.5H84.452a1.255,1.255,0,0,1,1.255,1.255v2.51A1.255,1.255,0,0,1,84.452,12.519Z" transform="translate(-7.75 -7.5)" fill="#75baf1"/>
          <path id="Trazado_128429" data-name="Trazado 128429" d="M84.452,360.8H9a1.255,1.255,0,0,1-1.255-1.255v-2.51A1.255,1.255,0,0,1,9,355.782H84.452a1.255,1.255,0,0,1,1.255,1.255v2.51A1.255,1.255,0,0,1,84.452,360.8Z" transform="translate(-7.75 -301.098)" fill="#75baf1"/>
          <g id="Grupo_88657" data-name="Grupo 88657" transform="translate(10.016 18.718)">
            <path id="Trazado_128430" data-name="Trazado 128430" d="M77.558,400.479a6.016,6.016,0,0,0-6.016,6.016v10.317h36.084V406.495a6.016,6.016,0,0,0-6.016-6.016Z" transform="translate(-71.542 -357.494)" fill="#be79ca"/>
            <path id="Trazado_128431" data-name="Trazado 128431" d="M150.951,326.694v9.035l5.553,3.7,5.553-3.7v-9.035Z" transform="translate(-138.483 -295.295)" fill="#ffbfb1"/>
            <path id="Trazado_128432" data-name="Trazado 128432" d="M103.33,183.095c-.062,0-.124,0-.185,0a13.4,13.4,0,0,0-26.434,0c-.062,0-.123,0-.185,0a4.551,4.551,0,1,0,0,9.1c.062,0,.124,0,.185,0a13.4,13.4,0,0,0,26.434,0c.062,0,.123,0,.185,0a4.551,4.551,0,1,0,0-9.1Z" transform="translate(-71.907 -164.825)" fill="#ffcebf"/>
            <path id="Trazado_128433" data-name="Trazado 128433" d="M171.036,407.814l-2.846,2.972,1.032,4.043h3.629l1.032-4.043Z" transform="translate(-153.015 -363.678)" fill="#77af8f"/>
            <path id="Trazado_128434" data-name="Trazado 128434" d="M166.147,452.49l-1.6,8.166h6.837l-1.6-8.166Z" transform="translate(-149.941 -401.339)" fill="#77af8f"/>
            <path id="Trazado_128435" data-name="Trazado 128435" d="M125.749,384.236l-4.694,2.55,6.622,4.936,3.625-3.784Z" transform="translate(-113.281 -343.802)" fill="#be79ca"/>
            <g id="Grupo_88654" data-name="Grupo 88654" transform="translate(7.814 27.601)">
              <path id="Trazado_128436" data-name="Trazado 128436" d="M123.749,304.441h-1.472a.971.971,0,1,1,0-1.941h1.472a.971.971,0,1,1,0,1.941Z" transform="translate(-121.306 -302.5)" fill="#ffb09e"/>
            </g>
            <path id="Trazado_128437" data-name="Trazado 128437" d="M169.543,305.133c0,2.865-1.722,5.187-3.846,5.187s-3.846-2.322-3.846-5.187Z" transform="translate(-147.671 -277.119)" fill="#ffb09e"/>
            <path id="Trazado_128438" data-name="Trazado 128438" d="M190.172,183.095c-.062,0-.124,0-.185,0a13.406,13.406,0,0,0-15-11.057A13.41,13.41,0,0,1,186.43,183.1c.062,0,.123,0,.185,0a4.551,4.551,0,1,1,0,9.1c-.062,0-.124,0-.185,0a13.41,13.41,0,0,1-11.439,11.057,13.406,13.406,0,0,0,15-11.057c.062,0,.123,0,.185,0a4.551,4.551,0,1,0,0-9.1Z" transform="translate(-158.748 -164.825)" fill="#ffbfb1"/>
            <path id="Trazado_128439" data-name="Trazado 128439" d="M106.386,129.389a5.669,5.669,0,0,0-4.817-2.676h-10.9A10.057,10.057,0,0,0,80.61,136.77v8.217H99.646a7.568,7.568,0,0,0,5.068-1.939,5.12,5.12,0,0,0,4.016,1.939H113.8v-8.074A7.525,7.525,0,0,0,106.386,129.389Z" transform="translate(-79.186 -126.713)" fill="#c4573a"/>
            <g id="Grupo_88655" data-name="Grupo 88655" transform="translate(17.936)">
              <path id="Trazado_128440" data-name="Trazado 128440" d="M195.04,129.389a5.669,5.669,0,0,0-4.817-2.676h-4.446a5.669,5.669,0,0,1,4.817,2.676,7.525,7.525,0,0,1,7.419,7.524v8.074h4.446v-8.074A7.525,7.525,0,0,0,195.04,129.389Z" transform="translate(-185.777 -126.713)" fill="#a74b30"/>
            </g>
            <g id="Grupo_88656" data-name="Grupo 88656" transform="translate(24.856 27.601)">
              <path id="Trazado_128441" data-name="Trazado 128441" d="M232.294,304.441h-1.472a.971.971,0,1,1,0-1.941h1.472a.971.971,0,1,1,0,1.941Z" transform="translate(-229.851 -302.5)" fill="#ffb09e"/>
            </g>
            <path id="Trazado_128442" data-name="Trazado 128442" d="M239.17,400.479h-4.446a6.016,6.016,0,0,1,6.016,6.016v10.317h4.446V406.495A6.016,6.016,0,0,0,239.17,400.479Z" transform="translate(-209.102 -357.494)" fill="#6e3dc6"/>
            <path id="Trazado_128443" data-name="Trazado 128443" d="M191.871,384.236l4.694,2.55-6.622,4.936-3.624-3.784Z" transform="translate(-168.297 -343.802)" fill="#be79ca"/>
            <path id="Trazado_128444" data-name="Trazado 128444" d="M202.381,384.236l-1.8,1.2,2.489,1.352-4.288,3.2,1.667,1.74,6.622-4.936Z" transform="translate(-178.807 -343.802)" fill="#6e3dc6"/>
          </g>
          <path id="Trazado_128445" data-name="Trazado 128445" d="M305.648,39.468c-7.524,0-13.623,5.438-13.623,12.146a11.728,11.728,0,0,0,5.342,9.644l-1.47,4.954L304.35,63.7q.641.054,1.3.055c7.524,0,13.623-5.438,13.623-12.146s-6.1-12.146-13.623-12.146Z" transform="translate(-247.39 -34.449)" fill="#75baf1"/>
          <path id="Trazado_128446" data-name="Trazado 128446" d="M467.612,7.5h-5.336a1.255,1.255,0,0,1,1.255,1.255v2.51a1.255,1.255,0,0,1-1.255,1.255h5.336a1.255,1.255,0,0,0,1.255-1.255V8.755A1.255,1.255,0,0,0,467.612,7.5Z" transform="translate(-390.91 -7.5)" fill="#247cc3"/>
          <path id="Trazado_128447" data-name="Trazado 128447" d="M467.612,355.782h-5.336a1.255,1.255,0,0,1,1.255,1.255v2.51a1.255,1.255,0,0,1-1.255,1.255h5.336a1.255,1.255,0,0,0,1.255-1.255v-2.51A1.255,1.255,0,0,0,467.612,355.782Z" transform="translate(-390.91 -301.098)" fill="#247cc3"/>
          <path id="Trazado_128448" data-name="Trazado 128448" d="M326.44,39.468q-.675,0-1.334.058c6.9.6,12.289,5.781,12.289,12.087,0,6.708-6.1,12.146-13.623,12.146q-.657,0-1.3-.055l-5.527,1.64-.258.868,8.452-2.508q.641.054,1.3.055c7.524,0,13.623-5.438,13.623-12.146s-6.1-12.146-13.623-12.146Z" transform="translate(-268.183 -34.449)" fill="#247cc3"/>
        </g>
        <g id="Grupo_88659" data-name="Grupo 88659" transform="translate(0.25 0)">
          <path id="Trazado_128449" data-name="Trazado 128449" d="M78.129,7.375a2.435,2.435,0,0,0,2.432-2.432V2.432A2.435,2.435,0,0,0,78.129,0H70.279a1.178,1.178,0,0,0,0,2.355h7.851a.077.077,0,0,1,.077.077v2.51a.077.077,0,0,1-.077.077H2.682a.077.077,0,0,1-.077-.077V2.432a.077.077,0,0,1,.077-.077h62.1a1.178,1.178,0,0,0,0-2.355H2.682A2.435,2.435,0,0,0,.25,2.432v2.51A2.435,2.435,0,0,0,2.682,7.375h.783v47.31H2.682A2.435,2.435,0,0,0,.25,57.117v2.51a2.435,2.435,0,0,0,2.432,2.432H15.226a7.2,7.2,0,0,0-4.96,6.837V79.213a1.178,1.178,0,0,0,1.178,1.178h4.47a1.178,1.178,0,1,0,0-2.355H12.621V68.9a4.844,4.844,0,0,1,4.838-4.838h1.368l6.309,4.7a1.183,1.183,0,0,0,.774.23l.533,2.089-1.366,6.955H21.409a1.178,1.178,0,1,0,0,2.355H47.527A1.178,1.178,0,0,0,48.7,79.213V68.9a7.2,7.2,0,0,0-4.96-6.837H78.129a2.435,2.435,0,0,0,2.432-2.432v-2.51a2.435,2.435,0,0,0-2.432-2.432h-.783V7.375Zm-26.06,19.64a10.5,10.5,0,0,1-4.829-8.672c0-6.048,5.583-10.968,12.446-10.968s12.445,4.92,12.445,10.968S66.548,29.31,59.685,29.31c-.394,0-.8-.017-1.2-.051a1.177,1.177,0,0,0-.434.044l-6.37,1.89.852-2.873a1.178,1.178,0,0,0-.464-1.307ZM5.821,7.375H51.293a13,13,0,0,0-6.408,10.968,12.709,12.709,0,0,0,5.154,10.107l-1.233,4.156a1.178,1.178,0,0,0,1.464,1.464l8.243-2.446c.393.028.787.042,1.172.042,8.161,0,14.8-5.977,14.8-13.323A13,13,0,0,0,68.077,7.375h6.913v47.31H40.4a14.438,14.438,0,0,0,3.258-6.294,5.735,5.735,0,0,0,3.4-9.59,1.17,1.17,0,0,0,.184-.631V30.1a8.742,8.742,0,0,0-7.957-8.67,6.809,6.809,0,0,0-5.456-2.708h-10.9A11.247,11.247,0,0,0,11.69,29.953V38.17a1.172,1.172,0,0,0,.184.631,5.735,5.735,0,0,0,3.4,9.59,14.438,14.438,0,0,0,3.258,6.294H5.821ZM29.465,62.616l-4.345-2.9-.03-.02v-.754a14.626,14.626,0,0,0,8.751,0V59.7l-4.375,2.917Zm1.544,4.729-.644,2.523h-1.8l-.644-2.523,1.544-1.612Zm3.835-5.484.236-.158,2.452,1.332L33.22,66.25l-1.933-2.018Zm-5.379-4.6A12.23,12.23,0,0,1,17.409,47.068c-.118-.707-.628-.979-1.347-.979a3.373,3.373,0,0,1-.16-6.742h16a8.757,8.757,0,0,0,4.958-1.536,6.27,6.27,0,0,0,4.125,1.536h2.04a3.372,3.372,0,0,1-.3,6.738,1.178,1.178,0,0,0-1.208.982A12.232,12.232,0,0,1,29.465,57.26ZM14.045,36.992V29.953a8.89,8.89,0,0,1,8.879-8.88h10.9A4.475,4.475,0,0,1,37.644,23.2a1.177,1.177,0,0,0,.983.554A6.373,6.373,0,0,1,44.885,30.1v6.9h-3.9A3.936,3.936,0,0,1,37.893,35.5a1.179,1.179,0,0,0-1.707-.144A6.424,6.424,0,0,1,31.9,36.992H14.045ZM2.682,59.7a.077.077,0,0,1-.077-.077v-2.51a.077.077,0,0,1,.077-.077H21.2a14.95,14.95,0,0,0,1.539.928v1.662l-.033.018-.1.056H2.682ZM25.71,66.25,21.4,63.036,23.85,61.7l3.793,2.528Zm1.768,11.785,1.141-5.811H30.31l1.142,5.811ZM46.35,68.9v9.139h-12.5l-1.366-6.954.534-2.091a1.186,1.186,0,0,0,.774-.23l6.309-4.7h1.409A4.844,4.844,0,0,1,46.35,68.9ZM78.129,57.04a.077.077,0,0,1,.077.077v2.51a.077.077,0,0,1-.077.077h-41.8l-.1-.056-.033-.018V57.968a15.059,15.059,0,0,0,1.539-.928H78.129Z" transform="translate(-0.25 0)"/>
          <path id="Trazado_128450" data-name="Trazado 128450" d="M138.331,262.893a1.178,1.178,0,0,0-1.178,1.178v2.468a1.178,1.178,0,1,0,2.355,0v-2.468A1.178,1.178,0,0,0,138.331,262.893Z" transform="translate(-115.658 -221.616)"/>
          <path id="Trazado_128451" data-name="Trazado 128451" d="M222.837,266.539v-2.468a1.178,1.178,0,0,0-2.355,0v2.468a1.178,1.178,0,1,0,2.355,0Z" transform="translate(-185.903 -221.616)"/>
          <circle id="Elipse_4381" data-name="Elipse 4381" cx="1.686" cy="1.686" r="1.686" transform="translate(57.749 16.965)"/>
          <circle id="Elipse_4382" data-name="Elipse 4382" cx="1.686" cy="1.686" r="1.686" transform="translate(51.524 16.965)"/>
          <circle id="Elipse_4383" data-name="Elipse 4383" cx="1.686" cy="1.686" r="1.686" transform="translate(63.974 16.965)"/>
          <path id="Trazado_128452" data-name="Trazado 128452" d="M163.221,297.632h-7.692a1.178,1.178,0,0,0-1.178,1.178c0,3.509,2.254,6.364,5.024,6.364s5.024-2.855,5.024-6.364A1.178,1.178,0,0,0,163.221,297.632Zm-3.846,5.187c-1.175,0-2.2-1.212-2.546-2.832h5.093C161.577,301.607,160.55,302.819,159.375,302.819Z" transform="translate(-130.155 -250.9)"/>
        </g>
      </g>
    </g>
  </g>
</svg>
