<svg xmlns="http://www.w3.org/2000/svg" xmlns:xlink="http://www.w3.org/1999/xlink" width="400.756" height="786.667" viewBox="0 0 400.756 786.667">
  <defs>
    <clipPath id="clip-path">
      <rect id="Rectángulo_402537" data-name="Rectángulo 402537" width="400.756" height="786.667" fill="none"/>
    </clipPath>
  </defs>
  <g id="Grupo_1103834" data-name="Grupo 1103834" transform="translate(-1019.244 -6145.997)">
    <g id="Grupo_1102322" data-name="Grupo 1102322" transform="translate(1019.244 6145.997)">
      <path id="Trazado_879544" data-name="Trazado 879544" d="M323.335,658.127l-33.282,51.864,31.34,19.713,26.9-31.917Z" transform="translate(15.236 34.57)"/>
      <path id="Trazado_879545" data-name="Trazado 879545" d="M323.335,658.127l-33.282,51.864,31.34,19.713,26.9-31.917Z" transform="translate(15.236 34.57)" fill="none" stroke="#000" stroke-linecap="round" stroke-linejoin="round" stroke-width="1.273"/>
      <path id="Trazado_879546" data-name="Trazado 879546" d="M243.318,679.523l-.025,26.245-2.673,23.7-55.678-.442.907-18.223,10.832-6.217,13.708-41.919Z" transform="translate(9.714 34.808)" fill="#fff"/>
      <path id="Trazado_879547" data-name="Trazado 879547" d="M243.318,679.523l-.025,26.245-2.673,23.7-55.678-.442.907-18.223,10.832-6.217,13.708-41.919Z" transform="translate(9.714 34.808)" fill="none" stroke="#000" stroke-linecap="round" stroke-linejoin="round" stroke-width="1.273"/>
      <g id="Grupo_1102321" data-name="Grupo 1102321">
        <g id="Grupo_1102320" data-name="Grupo 1102320" clip-path="url(#clip-path)">
          <path id="Trazado_879548" data-name="Trazado 879548" d="M220.689,743l33.879-9.2-8.309-30.183s-18.175,11.407-35.114,10.436-21.9-5.831-21.9-5.831l-60.766,30.573,7.3,6.575Z" transform="translate(6.749 36.959)" fill="#f9ce24"/>
          <path id="Trazado_879549" data-name="Trazado 879549" d="M220.689,743l33.879-9.2-8.309-30.183s-18.175,11.407-35.114,10.436-21.9-5.831-21.9-5.831l-60.766,30.573,7.3,6.575Z" transform="translate(6.749 36.959)" fill="none" stroke="#000" stroke-linecap="round" stroke-linejoin="round" stroke-width="1.273"/>
          <path id="Trazado_879550" data-name="Trazado 879550" d="M151.8,741.466c15.126,0,102.822-9.172,102.822-9.172l3.288,15.238-111.5-.051c-7.68,0-16.951-2.374-18.88-5.236l1-4.956s3.42,4.176,23.269,4.176" transform="translate(6.698 38.465)" fill="#ffb901"/>
          <path id="Trazado_879551" data-name="Trazado 879551" d="M151.8,741.466c15.126,0,102.822-9.172,102.822-9.172l3.288,15.238-111.5-.051c-7.68,0-16.951-2.374-18.88-5.236l1-4.956S131.946,741.466,151.8,741.466Z" transform="translate(6.698 38.465)" fill="none" stroke="#000" stroke-linecap="round" stroke-linejoin="round" stroke-width="1.273"/>
          <path id="Trazado_879552" data-name="Trazado 879552" d="M226.271,331.408C201.82,407.377,189.46,718.073,189.46,718.073l52.1,19.31,9.8-4.1S310.92,473.155,305.6,357.544c-3.771-81.889-79.325-26.136-79.325-26.136" transform="translate(9.952 16.434)" fill="#466f90"/>
          <path id="Trazado_879553" data-name="Trazado 879553" d="M226.271,331.408C201.82,407.377,189.46,718.073,189.46,718.073l52.1,19.31,9.8-4.1S310.92,473.155,305.6,357.544C301.825,275.656,226.271,331.408,226.271,331.408Z" transform="translate(9.952 16.434)" fill="none" stroke="#000" stroke-linecap="round" stroke-linejoin="round" stroke-width="1.273"/>
          <path id="Trazado_879554" data-name="Trazado 879554" d="M298.255,695.061c-.486,17.966-2.57,30.623-2.57,54.645l62.722-1.99c-.324-13.31-18.683-53.96-23.552-74.411s-36.1,3.311-36.6,21.756" transform="translate(15.532 34.954)" fill="#fff"/>
          <path id="Trazado_879555" data-name="Trazado 879555" d="M298.255,695.061c-.486,17.966-2.57,30.623-2.57,54.645l62.722-1.99c-.324-13.31-18.683-53.96-23.552-74.411S298.755,676.616,298.255,695.061Z" transform="translate(15.532 34.954)" fill="none" stroke="#000" stroke-linecap="round" stroke-linejoin="round" stroke-width="1.273"/>
          <path id="Trazado_879556" data-name="Trazado 879556" d="M348.259,710.923c-21.049-12.943-46.224-10.382-52.056,3.555l-2.276,26.17L361.2,742.07Z" transform="translate(15.439 36.9)" fill="#f9ce24"/>
          <path id="Trazado_879557" data-name="Trazado 879557" d="M348.259,710.923c-21.049-12.943-46.224-10.382-52.056,3.555l-2.276,26.17L361.2,742.07Z" transform="translate(15.439 36.9)" fill="none" stroke="#000" stroke-linecap="round" stroke-linejoin="round" stroke-width="1.273"/>
          <path id="Trazado_879558" data-name="Trazado 879558" d="M293.453,738.1c22.075-13.959,68.5,2.922,68.5,2.922l.649,6.168-68.5.324Z" transform="translate(15.414 38.48)" fill="#ffb901"/>
          <path id="Trazado_879559" data-name="Trazado 879559" d="M293.453,738.1c22.075-13.959,68.5,2.922,68.5,2.922l.649,6.168-68.5.324Z" transform="translate(15.414 38.48)" fill="none" stroke="#000" stroke-linecap="round" stroke-linejoin="round" stroke-width="1.273"/>
          <line id="Línea_1705" data-name="Línea 1705" x2="1.564" y2="21.477" transform="translate(333.973 736.586)" fill="none" stroke="#000" stroke-linecap="round" stroke-linejoin="round" stroke-width="1.273"/>
          <path id="Trazado_879560" data-name="Trazado 879560" d="M335.659,333.644c33.772,77.369,14.185,381.292,14.185,381.292l-25.239-11.094-33,23.3c.282-8.954-38.889-324.176-29.6-377.632,4.534-26.092,73.657-15.863,73.657-15.863" transform="translate(13.687 17.422)"/>
          <path id="Trazado_879561" data-name="Trazado 879561" d="M335.659,333.644c33.772,77.369,14.185,381.292,14.185,381.292l-25.239-11.094-33,23.3c.282-8.954-38.889-324.176-29.6-377.632C266.536,323.414,335.659,333.644,335.659,333.644Z" transform="translate(13.687 17.422)" fill="none" stroke="#000" stroke-linecap="round" stroke-linejoin="round" stroke-width="1.273"/>
          <path id="Trazado_879562" data-name="Trazado 879562" d="M239.687,200.383c59.593-19.305,96.2-3.25,104.924,9.452,11.973,17.429,6.985,122.856,0,135.562-61.328,13.332-110.762,8.775-116.042-2.057s-12.108-135.434,11.118-142.957" transform="translate(11.733 10.055)" fill="#fff"/>
          <path id="Trazado_879563" data-name="Trazado 879563" d="M239.687,200.383c59.593-19.305,96.2-3.25,104.924,9.452,11.973,17.429,6.985,122.856,0,135.562-61.328,13.332-110.762,8.775-116.042-2.057S216.461,207.906,239.687,200.383Z" transform="translate(11.733 10.055)" fill="none" stroke="#000" stroke-linecap="round" stroke-linejoin="round" stroke-width="1.273"/>
          <path id="Trazado_879564" data-name="Trazado 879564" d="M226.438,334.4c25.307,6.177,88.334,6.323,98,4.287l3.345,20.645s-76.859-.727-101.347-8.142Z" transform="translate(11.894 17.565)" fill="#fff"/>
          <path id="Trazado_879565" data-name="Trazado 879565" d="M226.438,334.4c25.307,6.177,88.334,6.323,98,4.287l3.345,20.645s-76.859-.727-101.347-8.142Z" transform="translate(11.894 17.565)" fill="none" stroke="#000" stroke-linecap="round" stroke-linejoin="round" stroke-width="1.273"/>
          <path id="Trazado_879566" data-name="Trazado 879566" d="M162.976,212.508c-18.263,38.985-3.366,104.071,13.492,110.4s44.632-7.78,62.515-38.507,22.4-87.618.462-82.155-39.7,51.379-39.7,51.379-4.187-26.268-9.179-37.275c-6.909-3.368-27.591-3.841-27.591-3.841" transform="translate(8.121 10.604)" fill="#f9ce24"/>
          <path id="Trazado_879567" data-name="Trazado 879567" d="M162.976,212.508c-18.263,38.985-3.366,104.071,13.492,110.4s44.632-7.78,62.515-38.507,22.4-87.618.462-82.155-39.7,51.379-39.7,51.379-4.187-26.268-9.179-37.275C183.658,212.981,162.976,212.508,162.976,212.508Z" transform="translate(8.121 10.604)" fill="none" stroke="#000" stroke-linecap="round" stroke-linejoin="round" stroke-width="1.273"/>
          <path id="Trazado_879568" data-name="Trazado 879568" d="M275.447,127.515a11.25,11.25,0,1,1-11.25-11.25,11.251,11.251,0,0,1,11.25,11.25" transform="translate(13.287 6.107)"/>
          <path id="Trazado_879569" data-name="Trazado 879569" d="M323.47,134.641a11.25,11.25,0,1,1-11.25-11.25,11.251,11.251,0,0,1,11.25,11.25" transform="translate(15.809 6.481)"/>
          <path id="Trazado_879570" data-name="Trazado 879570" d="M324.041,142.208a7.663,7.663,0,1,1-7.663-7.663,7.664,7.664,0,0,1,7.663,7.663" transform="translate(16.216 7.067)"/>
          <path id="Trazado_879571" data-name="Trazado 879571" d="M309.194,171.53a7.663,7.663,0,1,1-7.663-7.663,7.664,7.664,0,0,1,7.663,7.663" transform="translate(15.436 8.608)"/>
          <path id="Trazado_879572" data-name="Trazado 879572" d="M289.023,109.431a7.663,7.663,0,1,1-7.663-7.663,7.664,7.664,0,0,1,7.663,7.663" transform="translate(14.377 5.346)"/>
          <path id="Trazado_879573" data-name="Trazado 879573" d="M269.226,116.621a7.663,7.663,0,1,1-7.663-7.663,7.664,7.664,0,0,1,7.663,7.663" transform="translate(13.337 5.723)"/>
          <path id="Trazado_879574" data-name="Trazado 879574" d="M321.921,147.034a11.25,11.25,0,1,1-11.25-11.25,11.251,11.251,0,0,1,11.25,11.25" transform="translate(15.728 7.132)"/>
          <path id="Trazado_879575" data-name="Trazado 879575" d="M317.583,160.667a11.25,11.25,0,1,1-11.25-11.25,11.251,11.251,0,0,1,11.25,11.25" transform="translate(15.5 7.848)"/>
          <path id="Trazado_879576" data-name="Trazado 879576" d="M283.5,116.671a11.25,11.25,0,1,1-11.25-11.25,11.251,11.251,0,0,1,11.25,11.25" transform="translate(13.71 5.537)"/>
          <path id="Trazado_879577" data-name="Trazado 879577" d="M312.936,125.347a11.25,11.25,0,1,1-11.25-11.25,11.251,11.251,0,0,1,11.25,11.25" transform="translate(15.256 5.993)"/>
          <path id="Trazado_879578" data-name="Trazado 879578" d="M298.374,118.53a11.25,11.25,0,1,1-11.25-11.25,11.251,11.251,0,0,1,11.25,11.25" transform="translate(14.491 5.635)"/>
          <path id="Trazado_879579" data-name="Trazado 879579" d="M301.025,196.351c.793-10.171,3.711-38.007,3.711-41.587,0-8.039-10.425-14.728-18.463-14.728s-20.555,7.128-20.555,15.167c0,3.584,3.393,31.1,4.311,41.153-13.417,3.863-12.595,20.384,2.243,24.792,28.383,8.432,48.61-16.291,28.753-24.8" transform="translate(13.685 7.356)" fill="#fff"/>
          <path id="Trazado_879580" data-name="Trazado 879580" d="M301.025,196.351c.793-10.171,3.711-38.007,3.711-41.587,0-8.039-10.425-14.728-18.463-14.728s-20.555,7.128-20.555,15.167c0,3.584,3.393,31.1,4.311,41.153-13.417,3.863-12.595,20.384,2.243,24.792C300.656,229.58,320.882,204.857,301.025,196.351Z" transform="translate(13.685 7.356)" fill="none" stroke="#000" stroke-linecap="round" stroke-linejoin="round" stroke-width="1.273"/>
          <path id="Trazado_879581" data-name="Trazado 879581" d="M290.572,154.52c-4.626,4.641-10.847,2.922-10.847,2.922l-.822-13.329c9.768-8.4,17.8,4.254,11.669,10.407" transform="translate(14.65 7.423)" fill="#fff"/>
          <path id="Trazado_879582" data-name="Trazado 879582" d="M278.9,144.112c9.768-8.4,18.533,4.193,11.669,10.407a12.709,12.709,0,0,1-10.847,2.922" transform="translate(14.65 7.423)" fill="none" stroke="#000" stroke-linecap="round" stroke-linejoin="round" stroke-width="1.273"/>
          <path id="Trazado_879583" data-name="Trazado 879583" d="M281.466,146.9c3.785-3.012,5.976,0,5.976,0" transform="translate(14.785 7.646)" fill="none" stroke="#000" stroke-linecap="round" stroke-linejoin="round" stroke-width="1.273"/>
          <path id="Trazado_879584" data-name="Trazado 879584" d="M279.068,118.029c-10.11,3.632-17.474,12.009-22.227,21.752-1.043,2.137-9.246,8.535-9.824,10.186-.743,2.124,1.915,3.951,4.825,4.163-2.974,13.179-1.761,25.984,3.353,31.295,10.986,11.408,55.987-14.42,53.874-42.677-1.881-25.16-23.027-27.224-30-24.719" transform="translate(12.968 6.157)" fill="#fff"/>
          <path id="Trazado_879585" data-name="Trazado 879585" d="M309.069,142.748c-1.881-25.16-23.028-27.225-30-24.719-10.111,3.632-17.474,12.009-22.228,21.752-1.042,2.137-9.245,8.534-9.823,10.186-.743,2.124,1.913,3.951,4.825,4.163-2.974,13.179-1.762,25.984,3.352,31.295" transform="translate(12.969 6.157)" fill="none" stroke="#000" stroke-linecap="round" stroke-linejoin="round" stroke-width="1.273"/>
          <path id="Trazado_879586" data-name="Trazado 879586" d="M263.254,134.9a16.015,16.015,0,0,1,6.775,1.247" transform="translate(13.828 7.086)" fill="none" stroke="#000" stroke-linecap="round" stroke-linejoin="round" stroke-width="2.365"/>
          <path id="Trazado_879587" data-name="Trazado 879587" d="M265.426,144.61a4.04,4.04,0,0,0-.5,1.088" transform="translate(13.916 7.596)" fill="none" stroke="#000" stroke-linecap="round" stroke-linejoin="round" stroke-width="3.093"/>
          <path id="Trazado_879588" data-name="Trazado 879588" d="M274.888,113.484c-17.313,16.586,15.093,28.279,15.093,28.279s14.143,13.778,14.143,31.244c16.172-24.981,8.536-46.207-1.191-53.654s-28.045-5.87-28.045-5.87" transform="translate(14.172 5.954)"/>
          <path id="Trazado_879589" data-name="Trazado 879589" d="M298.08,153.015c-4.626,4.641-10.847,2.922-10.847,2.922l-.822-13.329c9.768-8.4,17.8,4.254,11.669,10.407" transform="translate(15.044 7.344)" fill="#fff"/>
          <path id="Trazado_879590" data-name="Trazado 879590" d="M286.411,142.607c9.768-8.4,18.533,4.193,11.669,10.407a12.709,12.709,0,0,1-10.847,2.922" transform="translate(15.044 7.344)" fill="none" stroke="#000" stroke-linecap="round" stroke-linejoin="round" stroke-width="1.273"/>
          <path id="Trazado_879591" data-name="Trazado 879591" d="M288.974,145.4c3.785-3.012,5.976,0,5.976,0" transform="translate(15.179 7.567)" fill="none" stroke="#000" stroke-linecap="round" stroke-linejoin="round" stroke-width="1.273"/>
          <path id="Trazado_879592" data-name="Trazado 879592" d="M247.854,162.814c-1.313-11.2,8.881-11.662,13.206-10.272s5.792,7.337,5.792,7.337,8.032,1.236,19.308-7.106c1.93,13.979-6.178,32.977-24.945,35.526-13.775,1.87-18.921-17.609-13.361-25.486" transform="translate(12.903 7.983)"/>
          <path id="Trazado_879593" data-name="Trazado 879593" d="M250.179,161.818c-2.474-7.493,13.979-6.951,14.133-1.159s-11.354,9.577-14.133,1.159" transform="translate(13.128 8.208)" fill="#fff"/>
          <path id="Trazado_879594" data-name="Trazado 879594" d="M253.541,161.656c7.723.309,10.5-5.252,10.5-5.252" transform="translate(13.318 8.215)" fill="none" stroke="#000" stroke-linecap="round" stroke-linejoin="round" stroke-width="1.273"/>
          <path id="Trazado_879595" data-name="Trazado 879595" d="M310.349,123.841c12.187-3.244,14.153,5.9,14.153,5.9" transform="translate(16.302 6.468)" fill="none" stroke="#000" stroke-linecap="round" stroke-linejoin="round" stroke-width="1.273"/>
          <path id="Trazado_879596" data-name="Trazado 879596" d="M290.832,105.784c7.863,5.012,7.372,9.534,7.372,11.5" transform="translate(15.277 5.557)" fill="none" stroke="#000" stroke-linecap="round" stroke-linejoin="round" stroke-width="1.273"/>
          <path id="Trazado_879597" data-name="Trazado 879597" d="M312.59,156.244c5.209.884,9.436-4.423,9.436-4.423" transform="translate(16.42 7.975)" fill="none" stroke="#000" stroke-linecap="round" stroke-linejoin="round" stroke-width="1.273"/>
          <path id="Trazado_879598" data-name="Trazado 879598" d="M313.337,153.6a11.462,11.462,0,0,1,4.522,10.123" transform="translate(16.459 8.068)" fill="none" stroke="#000" stroke-linecap="round" stroke-linejoin="round" stroke-width="1.273"/>
          <path id="Trazado_879599" data-name="Trazado 879599" d="M263.939,106.128a17.7,17.7,0,0,1,15.628,1.18" transform="translate(13.864 5.508)" fill="none" stroke="#000" stroke-linecap="round" stroke-linejoin="round" stroke-width="1.273"/>
          <path id="Trazado_879600" data-name="Trazado 879600" d="M252.359,113.908c.295,7.47,5.8,8.551,5.8,8.551" transform="translate(13.256 5.983)" fill="none" stroke="#000" stroke-linecap="round" stroke-linejoin="round" stroke-width="1.273"/>
          <path id="Trazado_879601" data-name="Trazado 879601" d="M300.59,190.772c-20.864,23.193,19.732,192.586,19.732,192.586s39.148,3.915,46.375-11.142c0,0-10.992-156.666-26.651-168.977s-39.456-12.467-39.456-12.467" transform="translate(15.476 10.021)" fill="#ffb901"/>
          <path id="Trazado_879602" data-name="Trazado 879602" d="M300.59,190.772c-20.864,23.193,19.732,192.586,19.732,192.586s39.148,3.915,46.375-11.142c0,0-10.992-156.666-26.651-168.977S300.59,190.772,300.59,190.772Z" transform="translate(15.476 10.021)" fill="none" stroke="#000" stroke-linecap="round" stroke-linejoin="round" stroke-width="1.273"/>
          <path id="Trazado_879603" data-name="Trazado 879603" d="M272.172,193.3c-25.675,17.885-32.837,179.677-32.837,179.677s-23.081,9.71-31.2-3.541c-1.709-84.2,9.041-157.334,28.51-166.743,21-10.151,35.529-9.393,35.529-9.393" transform="translate(10.923 10.153)" fill="#ffb901"/>
          <path id="Trazado_879604" data-name="Trazado 879604" d="M219.181,235.173c4.574-17.446,10.453-29.09,17.461-32.477,21-10.152,35.529-9.394,35.529-9.394C246.5,211.188,239.335,372.98,239.335,372.98s-23.081,9.711-31.2-3.54c-.476-23.43.013-46,1.386-66.585" transform="translate(10.923 10.153)" fill="none" stroke="#000" stroke-linecap="round" stroke-linejoin="round" stroke-width="1.273"/>
          <path id="Trazado_879605" data-name="Trazado 879605" d="M339.883,202.637c28.292,9.217,52.728,116.855,43.841,137.744S288.673,355.6,288.673,355.6s-15.791-25.912-11.869-29.912,40.7-17.006,58.036-17.377c-46.141-85.7-7.119-109.641,5.044-105.678" transform="translate(14.507 10.622)" fill="#f9ce24"/>
          <path id="Trazado_879606" data-name="Trazado 879606" d="M323.631,208.511c5.72-5.552,12.361-7.14,16.252-5.873,28.291,9.218,52.728,116.855,43.841,137.745S288.673,355.6,288.673,355.6s-15.792-25.912-11.869-29.912,40.7-17,58.036-17.377a219.843,219.843,0,0,1-16.7-38.522" transform="translate(14.507 10.622)" fill="none" stroke="#000" stroke-linecap="round" stroke-linejoin="round" stroke-width="1.273"/>
          <path id="Trazado_879607" data-name="Trazado 879607" d="M292.794,344.266c-1.93,6.508-8.254,6.121-12.453.234-.153-.218-.306-.435-.45-.66-5.6-8.712-5.3-19.121-5.3-19.121a1.7,1.7,0,0,1,.024-.282c.482-6.918,9.155-6.459,14.512,1a22.379,22.379,0,0,1,3.781,9.4,21.374,21.374,0,0,1-.113,9.436" transform="translate(14.423 16.784)"/>
          <path id="Trazado_879608" data-name="Trazado 879608" d="M292.794,344.266c-1.93,6.508-8.254,6.121-12.453.234-.153-.218-.306-.435-.45-.66-5.6-8.712-5.3-19.121-5.3-19.121a1.7,1.7,0,0,1,.024-.282c.482-6.918,9.155-6.459,14.512,1a22.379,22.379,0,0,1,3.781,9.4A21.374,21.374,0,0,1,292.794,344.266Z" transform="translate(14.423 16.784)" fill="none" stroke="#000" stroke-linecap="round" stroke-linejoin="round" stroke-width="1.273"/>
          <path id="Trazado_879609" data-name="Trazado 879609" d="M295.428,344.116c-4.288.1-2.273.153-5.371.234-1.657.047-9.089,6.63-24.919-2.022-2.381,1.906-13.868,11.5-20.014,7.548-6.13,4.232-8.439,2.7-9.637,1.642-1.175-1.03,6.877-7.868,7.345-8.27-.547.305-9.292,5.228-12.526,5.719-3.346.506-4.746-3.515-.515-6.525-4.456,1-6.612-1.818-4.6-4.448C226.574,336.2,249.332,321.93,255,322.4c3.612.305,9.7,1.126,22.245,1.882,6.267.37,11.737.733,14.512,1a22.379,22.379,0,0,1,3.781,9.4,21.374,21.374,0,0,1-.113,9.436" transform="translate(11.789 16.934)" fill="#fff"/>
          <path id="Trazado_879610" data-name="Trazado 879610" d="M295.428,344.116c-4.288.1-2.273.153-5.371.234-1.657.047-9.089,6.63-24.919-2.022-2.381,1.906-13.868,11.5-20.014,7.548-6.13,4.232-8.439,2.7-9.637,1.642-1.175-1.03,6.877-7.868,7.345-8.27-.547.305-9.292,5.228-12.526,5.719-3.346.506-4.746-3.515-.515-6.525-4.456,1-6.612-1.818-4.6-4.448C226.574,336.2,249.332,321.93,255,322.4c3.612.305,9.7,1.126,22.245,1.882,6.267.37,11.737.733,14.512,1a22.379,22.379,0,0,1,3.781,9.4A21.374,21.374,0,0,1,295.428,344.116Z" transform="translate(11.789 16.934)" fill="none" stroke="#000" stroke-linecap="round" stroke-linejoin="round" stroke-width="1.273"/>
          <path id="Trazado_879611" data-name="Trazado 879611" d="M229.528,342.217c9.023-2.8,18.657-15.8,22.73-15.526" transform="translate(12.057 17.16)" fill="none" stroke="#000" stroke-linecap="round" stroke-linejoin="round" stroke-width="1.273"/>
          <path id="Trazado_879612" data-name="Trazado 879612" d="M241.935,342.8c7.535-5.188,11.674-11.963,14.138-12.322" transform="translate(12.708 17.359)" fill="none" stroke="#000" stroke-linecap="round" stroke-linejoin="round" stroke-width="1.273"/>
          <path id="Trazado_879613" data-name="Trazado 879613" d="M244.108,349.122c-2.023-2,6.862-5.254,10.648-9.5.86-.966,1.837-1.939,2.832-2.866" transform="translate(12.807 17.689)" fill="none" stroke="#000" stroke-linecap="round" stroke-linejoin="round" stroke-width="1.273"/>
          <path id="Trazado_879614" data-name="Trazado 879614" d="M298.119,348.943c11.408-10.911-1.134-27.707-1.134-27.707" transform="translate(15.6 16.874)" fill="#ffb901"/>
          <path id="Trazado_879615" data-name="Trazado 879615" d="M298.119,348.943c11.408-10.911-1.134-27.707-1.134-27.707" transform="translate(15.6 16.874)" fill="none" stroke="#000" stroke-linecap="round" stroke-linejoin="round" stroke-width="1.273"/>
          <path id="Trazado_879616" data-name="Trazado 879616" d="M345.474,299.4c-8.735,0-13.562,3.811-13.562,3.811,9.578-.061,14.712,2.408,18.427,5.756" transform="translate(17.434 15.727)" fill="#ffb901"/>
          <path id="Trazado_879617" data-name="Trazado 879617" d="M345.474,299.4c-8.735,0-13.562,3.811-13.562,3.811,9.578-.061,14.712,2.408,18.427,5.756" transform="translate(17.434 15.727)" fill="none" stroke="#000" stroke-linecap="round" stroke-linejoin="round" stroke-width="1.273"/>
          <path id="Trazado_879618" data-name="Trazado 879618" d="M197.493,251.042c4.562,16.794,4.562,35.156,2.041,47.085" transform="translate(10.374 13.187)" fill="#ffb901"/>
          <path id="Trazado_879619" data-name="Trazado 879619" d="M197.493,251.042c4.562,16.794,4.562,35.156,2.041,47.085" transform="translate(10.374 13.187)" fill="none" stroke="#000" stroke-linecap="round" stroke-linejoin="round" stroke-width="1.273"/>
          <path id="Trazado_879620" data-name="Trazado 879620" d="M190.178,216c-.088,1.5-1.255,2.663-3.057,3.483-5.294,2.413-16.122,1.971-21.68-.9-2.912-1.5-4.376-3.66-2.855-6.419.7-1.27,2.244-2.2,4.28-2.816h.007c6.218-1.89,16.917-.813,21.326,2.776A4.628,4.628,0,0,1,190.178,216" transform="translate(8.508 10.948)"/>
          <path id="Trazado_879621" data-name="Trazado 879621" d="M190.178,216c-.088,1.5-1.255,2.663-3.057,3.483-5.294,2.413-16.122,1.971-21.68-.9-2.912-1.5-4.376-3.66-2.855-6.419.7-1.27,2.244-2.2,4.28-2.816h.007c6.218-1.89,16.917-.813,21.326,2.776A4.628,4.628,0,0,1,190.178,216Z" transform="translate(8.508 10.948)" fill="none" stroke="#000" stroke-linecap="round" stroke-linejoin="round" stroke-width="1.273"/>
          <path id="Trazado_879622" data-name="Trazado 879622" d="M197.559,193.542c-1.552,3.983-3.515,7.964-7.626,10.024l-1.907,11.58-1.079,7.359c-5.293,2.414-16.12,1.972-21.679-.9l1.423-9.236h.008l2.366-13.686c-4.73-8.712,2.694-24.471,10.176-32.33,5.068-1.07,15.59,4.247,15.59,4.247s8.913-20.7,13.66-19.66c4.657,1.014-8.3,35.854-10.933,42.6" transform="translate(8.681 7.926)" fill="#fff"/>
          <path id="Trazado_879623" data-name="Trazado 879623" d="M197.559,193.542c-1.552,3.983-3.515,7.964-7.626,10.024l-1.907,11.58-1.079,7.359c-5.293,2.414-16.12,1.972-21.679-.9l1.423-9.236h.008l2.366-13.686c-4.73-8.712,2.694-24.471,10.176-32.33,5.068-1.07,15.59,4.247,15.59,4.247s8.913-20.7,13.66-19.66C213.15,151.953,200.19,186.794,197.559,193.542Z" transform="translate(8.681 7.926)" fill="none" stroke="#000" stroke-linecap="round" stroke-linejoin="round" stroke-width="1.273"/>
          <path id="Trazado_879624" data-name="Trazado 879624" d="M179.372,172.495c-5.647.808-5.081-10.027.266-9.871,3.861.113,3.357,9.352-.266,9.871" transform="translate(9.212 8.542)" fill="#fff"/>
          <path id="Trazado_879625" data-name="Trazado 879625" d="M179.372,172.495c-5.647.808-5.081-10.027.266-9.871C183.5,162.737,183,171.976,179.372,172.495Z" transform="translate(9.212 8.542)" fill="none" stroke="#000" stroke-linecap="round" stroke-linejoin="round" stroke-width="1.273"/>
          <path id="Trazado_879626" data-name="Trazado 879626" d="M185.419,172.763c-6.755.966-6.077-11.995.318-11.807,4.618.136,4.015,11.187-.318,11.807" transform="translate(9.488 8.455)" fill="#fff"/>
          <path id="Trazado_879627" data-name="Trazado 879627" d="M185.419,172.763c-6.755.966-6.077-11.995.318-11.807C190.355,161.092,189.752,172.143,185.419,172.763Z" transform="translate(9.488 8.455)" fill="none" stroke="#000" stroke-linecap="round" stroke-linejoin="round" stroke-width="1.273"/>
          <path id="Trazado_879628" data-name="Trazado 879628" d="M192.128,173.849c-6.755.967-6.077-11.995.318-11.807,4.618.136,4.015,11.187-.318,11.807" transform="translate(9.841 8.512)" fill="#fff"/>
          <path id="Trazado_879629" data-name="Trazado 879629" d="M192.128,173.849c-6.755.967-6.077-11.995.318-11.807C197.065,162.178,196.462,173.229,192.128,173.849Z" transform="translate(9.841 8.512)" fill="none" stroke="#000" stroke-linecap="round" stroke-linejoin="round" stroke-width="1.273"/>
          <path id="Trazado_879630" data-name="Trazado 879630" d="M193.507,186.478c-2.921-16.165-5.977-19.682-9.5-19.916s-1.423,23.359-1.423,23.359Z" transform="translate(9.558 8.749)" fill="#fff"/>
          <path id="Trazado_879631" data-name="Trazado 879631" d="M193.788,186.478c-2.921-16.165-5.977-19.682-9.5-19.916s-1.423,23.359-1.423,23.359c-4.39.595-6.239,2.933-6.239,2.933" transform="translate(9.278 8.749)" fill="none" stroke="#000" stroke-linecap="round" stroke-linejoin="round" stroke-width="1.273"/>
          <path id="Trazado_879632" data-name="Trazado 879632" d="M331.912,374.183c6.727,36.2,16.669,44.805,16.669,44.805" transform="translate(17.434 19.655)" fill="none" stroke="#fff" stroke-linecap="round" stroke-linejoin="round" stroke-width="1.273"/>
          <line id="Línea_1706" data-name="Línea 1706" x2="15.007" y2="197.907" transform="translate(311.217 528.593)" fill="none" stroke="#fff" stroke-linecap="round" stroke-linejoin="round" stroke-width="1.273"/>
          <path id="Trazado_879633" data-name="Trazado 879633" d="M160.168,346.157H261.535a3.791,3.791,0,1,1,0,7.581H91.816a3.792,3.792,0,0,1-3.791-3.791v-3.79Z" transform="translate(4.624 18.183)" fill="#fff"/>
          <path id="Trazado_879634" data-name="Trazado 879634" d="M160.168,346.157H261.535a3.791,3.791,0,1,1,0,7.581H91.816a3.792,3.792,0,0,1-3.791-3.791v-3.79Z" transform="translate(4.624 18.183)" fill="none" stroke="#000" stroke-linecap="round" stroke-linejoin="round" stroke-width="1.273"/>
          <path id="Trazado_879635" data-name="Trazado 879635" d="M90.123,355.284c.208-.625-28.562-58.677-37.047-75.772a3.246,3.246,0,0,1,2.918-4.685H163.3a7.466,7.466,0,0,1,6.944,4.721l29.924,75.737Z" transform="translate(2.77 14.436)" fill="#fff"/>
          <path id="Trazado_879636" data-name="Trazado 879636" d="M90.123,355.284c.208-.625-28.562-58.677-37.047-75.772a3.246,3.246,0,0,1,2.918-4.685H163.3a7.466,7.466,0,0,1,6.944,4.721l29.115,73.684" transform="translate(2.77 14.436)" fill="none" stroke="#000" stroke-linecap="round" stroke-linejoin="round" stroke-width="1.273"/>
          <path id="Trazado_879637" data-name="Trazado 879637" d="M132.4,321.72c-1.878,4.606-8.767,6.153-15.388,3.454s-10.467-8.62-8.591-13.226,8.768-6.153,15.389-3.454,10.467,8.62,8.59,13.226" transform="translate(5.67 16.135)" fill="#f9ce24"/>
          <path id="Trazado_879638" data-name="Trazado 879638" d="M263.891,373.4H10.657a10.021,10.021,0,1,1,0-20.041H263.891a10.021,10.021,0,0,1,0,20.041" transform="translate(0.033 18.561)" fill="#fff"/>
          <path id="Trazado_879639" data-name="Trazado 879639" d="M263.891,373.4H10.657a10.021,10.021,0,1,1,0-20.041H263.891a10.021,10.021,0,0,1,0,20.041Z" transform="translate(0.033 18.561)" fill="none" stroke="#000" stroke-linecap="round" stroke-linejoin="round" stroke-width="1.273"/>
          <path id="Trazado_879640" data-name="Trazado 879640" d="M224.776,747.478h-179a7.083,7.083,0,0,1,0-14.166h179a7.083,7.083,0,1,1,0,14.166" transform="translate(2.032 38.519)" fill="#fff"/>
          <path id="Trazado_879641" data-name="Trazado 879641" d="M224.776,747.478h-179a7.083,7.083,0,0,1,0-14.166h179a7.083,7.083,0,1,1,0,14.166Z" transform="translate(2.032 38.519)" fill="none" stroke="#000" stroke-linecap="round" stroke-linejoin="round" stroke-width="1.273"/>
          <rect id="Rectángulo_402535" data-name="Rectángulo 402535" width="14.166" height="379.869" transform="translate(130.206 391.962)" fill="#fff"/>
          <rect id="Rectángulo_402536" data-name="Rectángulo 402536" width="14.166" height="379.869" transform="translate(130.206 391.962)" fill="none" stroke="#000" stroke-linecap="round" stroke-linejoin="round" stroke-width="1.273"/>
          <path id="Trazado_879642" data-name="Trazado 879642" d="M190.139,353.36a10.021,10.021,0,0,1,0,20.041" transform="translate(9.988 18.561)" fill="none" stroke="#000" stroke-linecap="round" stroke-linejoin="round" stroke-width="1.273"/>
          <path id="Trazado_879643" data-name="Trazado 879643" d="M38.552,303.158V308.5h-3.23a14.076,14.076,0,0,0-14.06,14.06v15.161a14.076,14.076,0,0,0,14.06,14.06h3.23V356h37.33V303.158Zm-3.23,40.58a6.022,6.022,0,0,1-6.015-6.015V322.562a6.022,6.022,0,0,1,6.015-6.015h3.23v27.191Z" transform="translate(1.117 15.924)" fill="#f9ce24"/>
          <path id="Trazado_879644" data-name="Trazado 879644" d="M38.551,308.236H35.322a14.075,14.075,0,0,0-14.06,14.06m8.044,15.161V322.3a6.022,6.022,0,0,1,6.015-6.015h3.229" transform="translate(1.117 16.191)" fill="none" stroke="#000" stroke-linecap="round" stroke-linejoin="round" stroke-width="1.273"/>
          <path id="Trazado_879645" data-name="Trazado 879645" d="M37.688,347.727V303.159H75.019" transform="translate(1.98 15.924)" fill="#f9ce24"/>
          <path id="Trazado_879646" data-name="Trazado 879646" d="M37.688,347.727V303.159H75.019" transform="translate(1.98 15.924)" fill="none" stroke="#000" stroke-linecap="round" stroke-linejoin="round" stroke-width="1.273"/>
          <path id="Trazado_879647" data-name="Trazado 879647" d="M169.68,16.722a57.091,57.091,0,0,0,0,80.739l54.164,54.164L207.062,114.1a57.09,57.09,0,1,0-37.382-97.38" transform="translate(8.035 0)" fill="#ffb901"/>
          <path id="Trazado_879648" data-name="Trazado 879648" d="M190.66,55.689a6.925,6.925,0,1,1-6.926-6.926,6.926,6.926,0,0,1,6.926,6.926" transform="translate(9.287 2.561)" fill="#fff"/>
          <path id="Trazado_879649" data-name="Trazado 879649" d="M214.472,55.689a6.925,6.925,0,1,1-6.926-6.926,6.926,6.926,0,0,1,6.926,6.926" transform="translate(10.538 2.561)" fill="#fff"/>
          <path id="Trazado_879650" data-name="Trazado 879650" d="M238.284,55.689a6.925,6.925,0,1,1-6.926-6.926,6.926,6.926,0,0,1,6.926,6.926" transform="translate(11.789 2.561)" fill="#fff"/>
          <path id="Trazado_879651" data-name="Trazado 879651" d="M291.534,722.935S261.857,443.6,261.857,411.685" transform="translate(13.755 21.625)" fill="none" stroke="#fff" stroke-linecap="round" stroke-linejoin="round" stroke-width="1.273"/>
          <line id="Línea_1707" data-name="Línea 1707" x2="45.118" y2="15.32" transform="translate(207.89 725.256)" fill="none" stroke="#fff" stroke-linecap="round" stroke-linejoin="round" stroke-width="1.273"/>
          <line id="Línea_1708" data-name="Línea 1708" x2="349.081" transform="translate(35.358 785.997)" fill="#8782ff"/>
          <line id="Línea_1709" data-name="Línea 1709" x2="349.081" transform="translate(35.358 785.997)" fill="none" stroke="#000" stroke-linecap="round" stroke-linejoin="round" stroke-width="0.89"/>
        </g>
      </g>
    </g>
  </g>
</svg>
