<svg xmlns="http://www.w3.org/2000/svg" width="101" height="102" viewBox="0 0 101 102">
  <g id="Grupo_1103834" data-name="Grupo 1103834" transform="translate(-749.5 -6142.358)">
    <ellipse id="Elipse_1142" data-name="Elipse 1142" cx="50.5" cy="51" rx="50.5" ry="51" transform="translate(749.5 6142.358)" fill="#be79ca"/>
    <g id="analisis-de-consultas" transform="translate(761.511 6155.855)">
      <path id="Trazado_127953" data-name="Trazado 127953" d="M52.813,22.717A23.575,23.575,0,1,0,10,42.055s0,0,.005,0a23.567,23.567,0,0,0,35.85,6.461,23.007,23.007,0,0,0,2.685-2.683v0a23.561,23.561,0,0,0,4.275-23.117Z" transform="translate(-1.841 -1.813)" fill="#f9ce24"/>
      <path id="Trazado_127954" data-name="Trazado 127954" d="M185.438,185.424a3.815,3.815,0,0,1-5.4,0l-16.5-16.5a.814.814,0,0,1,0-1.151l.781-.781,2.685-2.685.778-.778a.814.814,0,0,1,1.151,0l16.5,16.493A3.824,3.824,0,0,1,185.438,185.424Z" transform="translate(-115.738 -115.718)" fill="#f9ce24"/>
      <path id="Trazado_127955" data-name="Trazado 127955" d="M47.446,30.117a17.3,17.3,0,1,1-17.3,17.306A17.3,17.3,0,0,1,47.446,30.117Z" transform="translate(-18.703 -18.666)" fill="#efefef"/>
      <path id="Trazado_127956" data-name="Trazado 127956" d="M47.446,30.117a17.3,17.3,0,1,1-17.3,17.306A17.3,17.3,0,0,1,47.446,30.117Z" transform="translate(-18.703 -18.666)" fill="#fff"/>
      <path id="Trazado_127957" data-name="Trazado 127957" d="M77.55,62.444a9.7,9.7,0,1,0-10.981,9.617l1.278,3.009,1.278-3.009A9.7,9.7,0,0,0,77.55,62.444Z" transform="translate(-39.103 -35.152)" fill="#77af8f"/>
      <path id="Trazado_127958" data-name="Trazado 127958" d="M82.7,71.273a.678.678,0,0,1,0-.959c.149-.148.291-.3.424-.464a.678.678,0,1,1,1.043.867c-.159.192-.33.379-.508.557A.677.677,0,0,1,82.7,71.273Zm2.047-2.7a.678.678,0,0,1-.422-.861A6.794,6.794,0,0,0,73.1,60.707a.678.678,0,0,1-.959-.959,8.152,8.152,0,0,1,13.474,8.4A.678.678,0,0,1,84.749,68.574Z" transform="translate(-49.156 -38.52)" fill="#59836b"/>
      <path id="Trazado_127959" data-name="Trazado 127959" d="M37.628,74.755c-11.169,0-20.6-9.683-20.6-21.145a20.076,20.076,0,0,1,6.168-14.4.678.678,0,0,1,.959.959A18.749,18.749,0,0,0,18.38,53.61c0,10.726,8.815,19.788,19.248,19.788a19.156,19.156,0,0,0,2.356-.147.678.678,0,1,1,.168,1.346A20.426,20.426,0,0,1,37.628,74.755Zm4.445-1.172a.678.678,0,0,1,.486-.827c.628-.163,1.263-.359,1.888-.582a.678.678,0,0,1,.457,1.277c-.664.237-1.338.445-2,.618A.678.678,0,0,1,42.074,73.583Z" transform="translate(-9.138 -25.15)" fill="#ffcbc3"/>
      <path id="Trazado_127960" data-name="Trazado 127960" d="M189.33,194.9l-1.164-1.164a.678.678,0,1,1,.959-.959l1.164,1.164a.678.678,0,0,1-.959.959Zm-3.082-3.082-11.7-11.7a.678.678,0,0,1,.959-.959l11.7,11.7a.678.678,0,0,1-.959.959Z" transform="translate(-123.787 -127.132)" fill="#ffcbc3"/>
      <path id="Trazado_127961" data-name="Trazado 127961" d="M157.461,154.766l-2.685,2.685-4.573-4.573a23.006,23.006,0,0,0,2.685-2.683Z" transform="translate(-106.19 -106.172)" fill="#7d7b79"/>
      <path id="Trazado_127962" data-name="Trazado 127962" d="M58.06,97.763a.68.68,0,0,0,.453-.846,0,0,0,0,1,0,0,.684.684,0,0,0-.846-.448.678.678,0,0,0,.4,1.3Z" transform="translate(-38.405 -66.997)"/>
      <path id="Trazado_127963" data-name="Trazado 127963" d="M83.01,71.014a.678.678,0,0,0,.678-.678v0a1.786,1.786,0,1,1,2.634,1.576A2.881,2.881,0,0,0,84.8,74.437a.678.678,0,1,0,1.356,0,1.524,1.524,0,0,1,.816-1.335,3.143,3.143,0,1,0-4.636-2.767A.678.678,0,0,0,83.01,71.014Z" transform="translate(-56.731 -45.686)"/>
      <path id="Trazado_127964" data-name="Trazado 127964" d="M92.09,98.7a.678.678,0,0,0-.678.678v.515a.678.678,0,1,0,1.356,0v-.515A.678.678,0,0,0,92.09,98.7Z" transform="translate(-63.348 -68.642)"/>
      <path id="Trazado_127965" data-name="Trazado 127965" d="M217.359,197.461a.679.679,0,1,0,.96,0A.7.7,0,0,0,217.359,197.461Z" transform="translate(-154.986 -140.477)"/>
      <path id="Trazado_127966" data-name="Trazado 127966" d="M65.251,58.9a.7.7,0,0,0-.958,0,.678.678,0,0,0,0,.96v0l4.926,4.923a3.138,3.138,0,1,1-4.438,4.438l-16.5-16.493a.137.137,0,0,1,0-.193L52.529,48.3a.133.133,0,0,1,.19,0l7.736,7.734a.7.7,0,0,0,.96,0,.679.679,0,0,0,0-.958l-7.736-7.734a1.493,1.493,0,0,0-2.11,0l-.3.3-3.663-3.66a24.218,24.218,0,0,0,.206-30.2l5.4-4.184h2.842a.678.678,0,0,0,0-1.356H52.98a.678.678,0,0,0-.415.142l-5.62,4.356a24.249,24.249,0,1,0-30.356,37l-4.971,9.855a.678.678,0,0,0,.605.984h5.018a.678.678,0,1,0,0-1.356H13.325l4.457-8.834A24.214,24.214,0,0,0,28.741,53a23.944,23.944,0,0,0,15.238-5.369l3.646,3.646-.3.3a1.5,1.5,0,0,0,0,2.11l16.5,16.493a4.494,4.494,0,0,0,6.358-6.353ZM8.753,39.914a22.892,22.892,0,0,1,37.114-26.35l-3.9,3.02a17.976,17.976,0,1,0-22.553,27.54L17.2,48.517a22.912,22.912,0,0,1-8.447-8.6ZM28.742,16.908A10.377,10.377,0,0,0,18.361,27.292c0,.054,0,.111,0,.165a.678.678,0,1,0,1.356-.022c0-.049,0-.1,0-.144a9.025,9.025,0,1,1,10.216,8.944.684.684,0,0,0-.537.407l-.654,1.541-.654-1.541a.68.68,0,0,0-.534-.407A9.011,9.011,0,0,1,21.169,32.2a.7.7,0,0,0-.939-.2.679.679,0,0,0-.2.939A10.394,10.394,0,0,0,23.416,36.2L20.03,42.908A16.63,16.63,0,1,1,40.916,17.4l-4.194,3.251a10.333,10.333,0,0,0-7.98-3.743ZM18.392,49.166,20.6,44.78a17.774,17.774,0,0,0,8.138,1.953A17.987,17.987,0,0,0,46.51,31.5a.672.672,0,0,0-.125-.5.663.663,0,0,0-.442-.269.685.685,0,0,0-.773.567A16.72,16.72,0,0,1,28.742,45.377a16.525,16.525,0,0,1-7.529-1.8l3.41-6.759a10.269,10.269,0,0,0,2.367.706l1.128,2.661a.679.679,0,0,0,1.248,0L30.5,37.521a10.382,10.382,0,0,0,7.024-15.773L41.8,18.432A16.6,16.6,0,0,1,45.151,26.1a.678.678,0,0,0,1.221.29.669.669,0,0,0,.119-.5,17.96,17.96,0,0,0-3.641-8.269L46.74,14.6A22.888,22.888,0,0,1,18.392,49.166Zm26.617-2.422c.589-.538,1.278-1.234,1.725-1.726l3.578,3.576L48.585,50.32Z" transform="translate(0 0)"/>
      <path id="Trazado_127967" data-name="Trazado 127967" d="M217.95,18.245h-9.426a.678.678,0,0,0,0,1.356h9.426a.678.678,0,0,0,0-1.356Z" transform="translate(-148.198 -10.015)"/>
      <path id="Trazado_127968" data-name="Trazado 127968" d="M217.95,30.37h-9.426a.678.678,0,0,0,0,1.356h9.426a.678.678,0,0,0,0-1.356Z" transform="translate(-148.198 -18.851)"/>
      <path id="Trazado_127969" data-name="Trazado 127969" d="M218.629,43.173a.678.678,0,0,0-.678-.678h-9.426a.678.678,0,0,0,0,1.356h9.426A.678.678,0,0,0,218.629,43.173Z" transform="translate(-148.198 -27.686)"/>
      <path id="Trazado_127970" data-name="Trazado 127970" d="M65.691,207.539H77.423a.678.678,0,0,0,0-1.356H65.691a.678.678,0,0,0,0,1.356Z" transform="translate(-44.11 -146.972)"/>
      <path id="Trazado_127971" data-name="Trazado 127971" d="M65.691,221.851H77.423a.678.678,0,1,0,0-1.356H65.691a.678.678,0,1,0,0,1.356Z" transform="translate(-44.11 -157.402)"/>
      <path id="Trazado_127972" data-name="Trazado 127972" d="M65.691,236.161H77.423a.678.678,0,1,0,0-1.356H65.691a.678.678,0,1,0,0,1.356Z" transform="translate(-44.11 -167.83)"/>
      <path id="Trazado_127973" data-name="Trazado 127973" d="M156.538,91.86a.678.678,0,1,0-.678.681h0a.666.666,0,0,0,.477-.2A.678.678,0,0,0,156.538,91.86Z" transform="translate(-109.819 -63.169)"/>
    </g>
  </g>
</svg>
