<svg xmlns="http://www.w3.org/2000/svg" xmlns:xlink="http://www.w3.org/1999/xlink" width="1240" height="572.866" viewBox="0 0 1240 572.866">
  <defs>
    <clipPath id="clip-path">
      <rect id="Rectángulo_402355" data-name="Rectángulo 402355" width="288.925" height="528.712" fill="none"/>
    </clipPath>
    <clipPath id="clip-path-2">
      <rect id="Rectángulo_402354" data-name="Rectángulo 402354" width="288.925" height="528.711" fill="none"/>
    </clipPath>
    <clipPath id="clip-path-3">
      <rect id="Rectángulo_402344" data-name="Rectángulo 402344" width="49.73" height="100.34" fill="none"/>
    </clipPath>
    <clipPath id="clip-path-4">
      <rect id="Rectángulo_402345" data-name="Rectángulo 402345" width="71.348" height="121.503" fill="none"/>
    </clipPath>
    <clipPath id="clip-path-5">
      <rect id="Rectángulo_402346" data-name="Rectángulo 402346" width="16.248" height="31.149" fill="none"/>
    </clipPath>
    <clipPath id="clip-path-6">
      <rect id="Rectángulo_402347" data-name="Rectángulo 402347" width="16.481" height="29.208" fill="none"/>
    </clipPath>
    <clipPath id="clip-path-7">
      <rect id="Rectángulo_402348" data-name="Rectángulo 402348" width="58.191" height="53.996" fill="none"/>
    </clipPath>
    <clipPath id="clip-path-8">
      <rect id="Rectángulo_402349" data-name="Rectángulo 402349" width="19.315" height="99.371" fill="none"/>
    </clipPath>
    <clipPath id="clip-path-9">
      <rect id="Rectángulo_402350" data-name="Rectángulo 402350" width="10.444" height="33.089" fill="none"/>
    </clipPath>
    <clipPath id="clip-path-10">
      <rect id="Rectángulo_402351" data-name="Rectángulo 402351" width="36.601" height="67.793" fill="none"/>
    </clipPath>
    <clipPath id="clip-path-11">
      <rect id="Rectángulo_402352" data-name="Rectángulo 402352" width="47.772" height="86.394" fill="none"/>
    </clipPath>
    <clipPath id="clip-path-12">
      <rect id="Rectángulo_402353" data-name="Rectángulo 402353" width="22.82" height="68.973" fill="none"/>
    </clipPath>
  </defs>
  <g id="Grupo_1103841" data-name="Grupo 1103841" transform="translate(-183.182 -6989.518)">
    <path id="Trazado_881851" data-name="Trazado 881851" d="M9,36.727H20.938V42H2.148V13.563H9ZM35.43,42a7.432,7.432,0,0,1-.625-1.895,6.12,6.12,0,0,1-5.078,2.285,7.5,7.5,0,0,1-5.078-1.807,5.751,5.751,0,0,1-2.09-4.541,5.91,5.91,0,0,1,2.539-5.2q2.539-1.758,7.383-1.758h2.031V27.977q0-2.91-2.52-2.91a2.055,2.055,0,0,0-2.344,2.3H23.066a5.909,5.909,0,0,1,2.607-4.98,10.948,10.948,0,0,1,6.65-1.914,9.607,9.607,0,0,1,6.387,1.973,6.858,6.858,0,0,1,2.4,5.41v9.355a9.581,9.581,0,0,0,.9,4.453V42Zm-4.121-4.3a3.671,3.671,0,0,0,2.041-.527,3.305,3.305,0,0,0,1.162-1.191V32.605H32.6q-3.437,0-3.437,3.086a1.884,1.884,0,0,0,.605,1.455A2.191,2.191,0,0,0,31.309,37.7ZM55.82,36.063a1.521,1.521,0,0,0-.879-1.348A13.369,13.369,0,0,0,51.6,33.66a15.23,15.23,0,0,1-4.062-1.436A6.8,6.8,0,0,1,45.1,30.066a5.154,5.154,0,0,1-.84-2.91,5.841,5.841,0,0,1,2.4-4.795,9.9,9.9,0,0,1,6.289-1.885,10.964,10.964,0,0,1,6.719,1.895,5.924,5.924,0,0,1,2.539,4.98h-6.6q0-2.539-2.676-2.539a2.652,2.652,0,0,0-1.738.576,1.784,1.784,0,0,0-.7,1.436,1.637,1.637,0,0,0,.859,1.426,8.12,8.12,0,0,0,2.744.9,23.714,23.714,0,0,1,3.311.84q4.766,1.641,4.766,5.879A5.535,5.535,0,0,1,59.6,40.574a11.263,11.263,0,0,1-6.65,1.816,11.494,11.494,0,0,1-4.844-.977,8.1,8.1,0,0,1-3.32-2.656,6.015,6.015,0,0,1-1.191-3.535h6.152a2.544,2.544,0,0,0,.977,2.139,4.017,4.017,0,0,0,2.4.674,3.16,3.16,0,0,0,2.021-.547A1.749,1.749,0,0,0,55.82,36.063Zm28.32,1.25a2.927,2.927,0,0,0,2.148-.752,2.757,2.757,0,0,0,.742-2.1H93.2a7.306,7.306,0,0,1-2.49,5.7A9.263,9.263,0,0,1,84.3,42.391,9.379,9.379,0,0,1,77.031,39.5q-2.656-2.891-2.656-8.008v-.273a12.872,12.872,0,0,1,1.182-5.654,8.6,8.6,0,0,1,3.408-3.77,10.162,10.162,0,0,1,5.273-1.318,9.146,9.146,0,0,1,6.543,2.285A8.105,8.105,0,0,1,93.2,28.953H87.031a3.613,3.613,0,0,0-.8-2.52,2.764,2.764,0,0,0-2.148-.879q-2.559,0-2.988,3.262a23.015,23.015,0,0,0-.137,2.852,9.04,9.04,0,0,0,.762,4.414A2.637,2.637,0,0,0,84.141,37.313Zm24.434,2.4a6.786,6.786,0,0,1-5.645,2.676,6.655,6.655,0,0,1-5.264-2.021,8.5,8.5,0,0,1-1.787-5.811V20.867h6.582V34.6q0,2.715,2.637,2.715a3.44,3.44,0,0,0,3.223-1.621V20.867h6.621V42H108.77ZM130.449,42a7.432,7.432,0,0,1-.625-1.895,6.12,6.12,0,0,1-5.078,2.285,7.5,7.5,0,0,1-5.078-1.807,5.751,5.751,0,0,1-2.09-4.541,5.91,5.91,0,0,1,2.539-5.2q2.539-1.758,7.383-1.758h2.031V27.977q0-2.91-2.52-2.91a2.055,2.055,0,0,0-2.344,2.3h-6.582a5.909,5.909,0,0,1,2.607-4.98,10.948,10.948,0,0,1,6.65-1.914,9.607,9.607,0,0,1,6.387,1.973,6.858,6.858,0,0,1,2.4,5.41v9.355a9.581,9.581,0,0,0,.9,4.453V42Zm-4.121-4.3a3.671,3.671,0,0,0,2.041-.527,3.305,3.305,0,0,0,1.162-1.191V32.605h-1.914q-3.437,0-3.437,3.086a1.884,1.884,0,0,0,.605,1.455A2.191,2.191,0,0,0,126.328,37.7Zm21.113-22.09v5.254h3.477v4.57h-3.477v9.668a2.468,2.468,0,0,0,.43,1.66,2.3,2.3,0,0,0,1.7.469,9.656,9.656,0,0,0,1.641-.117v4.707a12.147,12.147,0,0,1-3.711.566q-3.4,0-5.02-1.6a6.564,6.564,0,0,1-1.621-4.863V25.438h-2.7v-4.57h2.7V15.613Zm18.848,11.211-2.168-.156q-3.105,0-3.984,1.953V42h-6.582V20.867h6.172l.215,2.715q1.66-3.105,4.629-3.105a6.419,6.419,0,0,1,1.836.234Zm.84,4.414a12.473,12.473,0,0,1,1.23-5.635,8.8,8.8,0,0,1,3.535-3.8,10.647,10.647,0,0,1,5.41-1.328,9.717,9.717,0,0,1,7.48,2.939,11.279,11.279,0,0,1,2.734,8v.234a10.944,10.944,0,0,1-2.744,7.842,9.743,9.743,0,0,1-7.432,2.9,9.854,9.854,0,0,1-7.246-2.705,10.58,10.58,0,0,1-2.949-7.334Zm6.582.41a7.863,7.863,0,0,0,.918,4.3,3.058,3.058,0,0,0,2.715,1.367q3.516,0,3.594-5.41v-.664q0-5.684-3.633-5.684-3.3,0-3.574,4.9ZM220,31.59a12.744,12.744,0,0,1-2.217,7.861,7.107,7.107,0,0,1-5.986,2.939,6.092,6.092,0,0,1-4.785-2.129v9.863H200.43V20.867h6.152l.2,1.953a6.093,6.093,0,0,1,4.98-2.344,7.165,7.165,0,0,1,6.074,2.881Q220,26.238,220,31.277Zm-6.582-.41q0-5.625-3.281-5.625a3.1,3.1,0,0,0-3.125,1.68v8.32a3.2,3.2,0,0,0,3.164,1.758q3.145,0,3.242-5.43Zm22.266-4.355-2.168-.156q-3.105,0-3.984,1.953V42h-6.582V20.867h6.172l.215,2.715q1.66-3.105,4.629-3.105a6.419,6.419,0,0,1,1.836.234Zm12.6,15.566a10.863,10.863,0,0,1-7.871-2.9,10.016,10.016,0,0,1-3.008-7.549v-.547a12.978,12.978,0,0,1,1.2-5.723,8.789,8.789,0,0,1,3.506-3.838,10.584,10.584,0,0,1,5.469-1.357,9.148,9.148,0,0,1,7.031,2.764q2.578,2.764,2.578,7.705V33.5H244.1a4.744,4.744,0,0,0,1.543,2.793,4.591,4.591,0,0,0,3.086,1.016,5.915,5.915,0,0,0,4.883-2.187l3.008,3.555a8.408,8.408,0,0,1-3.486,2.705A11.781,11.781,0,0,1,248.281,42.391Zm-.742-16.836q-2.891,0-3.437,3.828h6.641v-.508a3.26,3.26,0,0,0-.8-2.451A3.186,3.186,0,0,0,247.539,25.555Zm11.523,5.723a14.269,14.269,0,0,1,1.055-5.664,8.491,8.491,0,0,1,3.027-3.8,7.98,7.98,0,0,1,4.59-1.338,6.345,6.345,0,0,1,5.156,2.227l.234-1.836H279.1V41.2a8.91,8.91,0,0,1-1.3,4.854,8.334,8.334,0,0,1-3.76,3.164,13.82,13.82,0,0,1-5.7,1.1,11.922,11.922,0,0,1-4.5-.879,8.126,8.126,0,0,1-3.33-2.285l2.754-3.867a6.035,6.035,0,0,0,4.844,2.168q4.375,0,4.375-4.492V40.3a6.181,6.181,0,0,1-4.785,2.09,7.638,7.638,0,0,1-6.25-2.959,12.26,12.26,0,0,1-2.383-7.92Zm6.6.41a7.518,7.518,0,0,0,.977,4.111,3.081,3.081,0,0,0,2.734,1.514,3.5,3.5,0,0,0,3.105-1.426V27a3.408,3.408,0,0,0-3.066-1.445,3.1,3.1,0,0,0-2.754,1.572A8.573,8.573,0,0,0,265.664,31.688Zm29.766,8.027a6.786,6.786,0,0,1-5.645,2.676,6.655,6.655,0,0,1-5.264-2.021,8.5,8.5,0,0,1-1.787-5.811V20.867h6.582V34.6q0,2.715,2.637,2.715a3.44,3.44,0,0,0,3.223-1.621V20.867H301.8V42h-6.172Zm16.016-18.848.215,2.48a7.167,7.167,0,0,1,6.035-2.871,6.029,6.029,0,0,1,4.932,1.973q1.631,1.973,1.689,5.938V42h-6.6V28.66a3.566,3.566,0,0,0-.645-2.354,2.982,2.982,0,0,0-2.344-.752,3.139,3.139,0,0,0-2.871,1.523V42h-6.582V20.867Zm24.18-5.254v5.254H339.1v4.57h-3.477v9.668a2.468,2.468,0,0,0,.43,1.66,2.3,2.3,0,0,0,1.7.469,9.656,9.656,0,0,0,1.641-.117v4.707a12.147,12.147,0,0,1-3.711.566q-3.4,0-5.02-1.6a6.564,6.564,0,0,1-1.621-4.863V25.438h-2.7v-4.57h2.7V15.613ZM353.594,42a7.431,7.431,0,0,1-.625-1.895,6.12,6.12,0,0,1-5.078,2.285,7.5,7.5,0,0,1-5.078-1.807,5.751,5.751,0,0,1-2.09-4.541,5.91,5.91,0,0,1,2.539-5.2q2.539-1.758,7.383-1.758h2.031V27.977q0-2.91-2.52-2.91a2.055,2.055,0,0,0-2.344,2.3H341.23a5.909,5.909,0,0,1,2.607-4.98,10.948,10.948,0,0,1,6.65-1.914,9.607,9.607,0,0,1,6.387,1.973,6.858,6.858,0,0,1,2.4,5.41v9.355a9.581,9.581,0,0,0,.9,4.453V42Zm-4.121-4.3a3.672,3.672,0,0,0,2.041-.527,3.305,3.305,0,0,0,1.162-1.191V32.605h-1.914q-3.437,0-3.437,3.086a1.884,1.884,0,0,0,.605,1.455A2.191,2.191,0,0,0,349.473,37.7Zm24.512-1.641a1.521,1.521,0,0,0-.879-1.348,13.369,13.369,0,0,0-3.34-1.055,15.23,15.23,0,0,1-4.062-1.436,6.8,6.8,0,0,1-2.441-2.158,5.154,5.154,0,0,1-.84-2.91,5.841,5.841,0,0,1,2.4-4.795,9.9,9.9,0,0,1,6.289-1.885,10.964,10.964,0,0,1,6.719,1.895,5.924,5.924,0,0,1,2.539,4.98h-6.6q0-2.539-2.676-2.539a2.652,2.652,0,0,0-1.738.576,1.784,1.784,0,0,0-.7,1.436,1.638,1.638,0,0,0,.859,1.426,8.12,8.12,0,0,0,2.744.9,23.714,23.714,0,0,1,3.311.84q4.766,1.641,4.766,5.879a5.535,5.535,0,0,1-2.568,4.707,11.263,11.263,0,0,1-6.65,1.816,11.494,11.494,0,0,1-4.844-.977,8.1,8.1,0,0,1-3.32-2.656,6.015,6.015,0,0,1-1.191-3.535h6.152a2.544,2.544,0,0,0,.977,2.139,4.017,4.017,0,0,0,2.4.674,3.16,3.16,0,0,0,2.021-.547A1.749,1.749,0,0,0,373.984,36.063ZM1.016,71.219q0-5.039,2.188-7.891a7.185,7.185,0,0,1,6.035-2.852,6.136,6.136,0,0,1,5.2,2.656l.469-2.266h5.7V90.125H14V80.242a6.126,6.126,0,0,1-4.8,2.148,7.121,7.121,0,0,1-5.967-2.9Q1.016,76.59,1.016,71.219Zm6.582.41q0,5.684,3.281,5.684A3.178,3.178,0,0,0,14,75.594V67.234a3.11,3.11,0,0,0-3.086-1.68q-3.066,0-3.3,4.9Zm29.316,8.086a6.786,6.786,0,0,1-5.645,2.676,6.655,6.655,0,0,1-5.264-2.021,8.5,8.5,0,0,1-1.787-5.811V60.867H30.8V74.6q0,2.715,2.637,2.715a3.44,3.44,0,0,0,3.223-1.621V60.867h6.621V82H37.109Zm20.2,2.676a10.863,10.863,0,0,1-7.871-2.9,10.016,10.016,0,0,1-3.008-7.549v-.547a12.978,12.978,0,0,1,1.2-5.723,8.789,8.789,0,0,1,3.506-3.838,10.584,10.584,0,0,1,5.469-1.357,9.148,9.148,0,0,1,7.031,2.764Q66.016,66,66.016,70.945V73.5H52.93A4.744,4.744,0,0,0,54.473,76.3a4.591,4.591,0,0,0,3.086,1.016,5.915,5.915,0,0,0,4.883-2.187l3.008,3.555a8.408,8.408,0,0,1-3.486,2.705A11.781,11.781,0,0,1,57.109,82.391Zm-.742-16.836q-2.891,0-3.437,3.828H59.57v-.508a3.26,3.26,0,0,0-.8-2.451A3.186,3.186,0,0,0,56.367,65.555ZM87.559,77.313a2.927,2.927,0,0,0,2.148-.752,2.757,2.757,0,0,0,.742-2.1h6.172a7.306,7.306,0,0,1-2.49,5.7,9.263,9.263,0,0,1-6.416,2.227A9.379,9.379,0,0,1,80.449,79.5q-2.656-2.891-2.656-8.008v-.273a12.872,12.872,0,0,1,1.182-5.654,8.6,8.6,0,0,1,3.408-3.77,10.162,10.162,0,0,1,5.273-1.318A9.146,9.146,0,0,1,94.2,62.762a8.105,8.105,0,0,1,2.422,6.191H90.449a3.613,3.613,0,0,0-.8-2.52,2.764,2.764,0,0,0-2.148-.879q-2.559,0-2.988,3.262a23.015,23.015,0,0,0-.137,2.852,9.04,9.04,0,0,0,.762,4.414A2.637,2.637,0,0,0,87.559,77.313Zm11.016-6.074A12.473,12.473,0,0,1,99.8,65.6a8.8,8.8,0,0,1,3.535-3.8,10.647,10.647,0,0,1,5.41-1.328,9.717,9.717,0,0,1,7.48,2.939,11.279,11.279,0,0,1,2.734,8v.234a10.944,10.944,0,0,1-2.744,7.842,9.743,9.743,0,0,1-7.432,2.9,9.854,9.854,0,0,1-7.246-2.705,10.58,10.58,0,0,1-2.949-7.334Zm6.582.41a7.863,7.863,0,0,0,.918,4.3,3.058,3.058,0,0,0,2.715,1.367q3.516,0,3.594-5.41v-.664q0-5.684-3.633-5.684-3.3,0-3.574,4.9ZM127.91,60.867l.215,2.48a7.166,7.166,0,0,1,6.035-2.871,6.029,6.029,0,0,1,4.932,1.973q1.631,1.973,1.689,5.938V82h-6.6V68.66a3.566,3.566,0,0,0-.645-2.354,2.982,2.982,0,0,0-2.344-.752,3.139,3.139,0,0,0-2.871,1.523V82h-6.582V60.867Zm15.684,10.41q0-5.02,2.168-7.91a7.136,7.136,0,0,1,6.055-2.891,6.069,6.069,0,0,1,4.766,2.227V52h6.6V82h-5.918l-.332-2.266a6.232,6.232,0,0,1-5.156,2.656A7.123,7.123,0,0,1,145.8,79.5Q143.594,76.609,143.594,71.277Zm6.582.41q0,5.625,3.281,5.625a3.24,3.24,0,0,0,3.125-1.836V67.43a3.153,3.153,0,0,0-3.086-1.875q-3.047,0-3.3,4.922Zm29.336,8.027a6.786,6.786,0,0,1-5.645,2.676,6.655,6.655,0,0,1-5.264-2.021,8.5,8.5,0,0,1-1.787-5.811V60.867H173.4V74.6q0,2.715,2.637,2.715a3.44,3.44,0,0,0,3.223-1.621V60.867h6.621V82h-6.172Zm18.906-2.4a2.927,2.927,0,0,0,2.148-.752,2.757,2.757,0,0,0,.742-2.1h6.172a7.306,7.306,0,0,1-2.49,5.7,9.263,9.263,0,0,1-6.416,2.227,9.379,9.379,0,0,1-7.266-2.891q-2.656-2.891-2.656-8.008v-.273a12.872,12.872,0,0,1,1.182-5.654,8.6,8.6,0,0,1,3.408-3.77,10.162,10.162,0,0,1,5.273-1.318,9.146,9.146,0,0,1,6.543,2.285,8.105,8.105,0,0,1,2.422,6.191h-6.172a3.613,3.613,0,0,0-.8-2.52,2.764,2.764,0,0,0-2.148-.879q-2.559,0-2.988,3.262a23.016,23.016,0,0,0-.137,2.852A9.04,9.04,0,0,0,196,76.082,2.637,2.637,0,0,0,198.418,77.313Zm22.07,5.078a10.863,10.863,0,0,1-7.871-2.9,10.016,10.016,0,0,1-3.008-7.549v-.547a12.978,12.978,0,0,1,1.2-5.723,8.789,8.789,0,0,1,3.506-3.838,10.584,10.584,0,0,1,5.469-1.357,9.148,9.148,0,0,1,7.031,2.764q2.578,2.764,2.578,7.705V73.5H216.309a4.744,4.744,0,0,0,1.543,2.793,4.591,4.591,0,0,0,3.086,1.016,5.915,5.915,0,0,0,4.883-2.187l3.008,3.555a8.408,8.408,0,0,1-3.486,2.705A11.781,11.781,0,0,1,220.488,82.391Zm-.742-16.836q-2.891,0-3.437,3.828h6.641v-.508a3.26,3.26,0,0,0-.8-2.451A3.186,3.186,0,0,0,219.746,65.555Zm18.34-4.687.215,2.48a7.166,7.166,0,0,1,6.035-2.871,6.029,6.029,0,0,1,4.932,1.973q1.631,1.973,1.689,5.938V82h-6.6V68.66a3.566,3.566,0,0,0-.645-2.354,2.982,2.982,0,0,0-2.344-.752,3.139,3.139,0,0,0-2.871,1.523V82h-6.582V60.867ZM276.465,82a7.431,7.431,0,0,1-.625-1.895,6.12,6.12,0,0,1-5.078,2.285,7.5,7.5,0,0,1-5.078-1.807,5.751,5.751,0,0,1-2.09-4.541,5.91,5.91,0,0,1,2.539-5.2q2.539-1.758,7.383-1.758h2.031V67.977q0-2.91-2.52-2.91a2.055,2.055,0,0,0-2.344,2.3H264.1a5.909,5.909,0,0,1,2.607-4.98,10.948,10.948,0,0,1,6.65-1.914,9.607,9.607,0,0,1,6.387,1.973,6.858,6.858,0,0,1,2.4,5.41v9.355a9.581,9.581,0,0,0,.9,4.453V82Zm-4.121-4.3a3.672,3.672,0,0,0,2.041-.527,3.3,3.3,0,0,0,1.162-1.191V72.605h-1.914q-3.437,0-3.437,3.086a1.884,1.884,0,0,0,.605,1.455A2.191,2.191,0,0,0,272.344,77.7ZM292.734,82h-6.6V52h6.6Zm24.238.391a10.863,10.863,0,0,1-7.871-2.9,10.016,10.016,0,0,1-3.008-7.549v-.547a12.978,12.978,0,0,1,1.2-5.723,8.789,8.789,0,0,1,3.506-3.838,10.584,10.584,0,0,1,5.469-1.357A9.148,9.148,0,0,1,323.3,63.24q2.578,2.764,2.578,7.705V73.5H312.793a4.744,4.744,0,0,0,1.543,2.793,4.591,4.591,0,0,0,3.086,1.016,5.915,5.915,0,0,0,4.883-2.187l3.008,3.555a8.408,8.408,0,0,1-3.486,2.705A11.781,11.781,0,0,1,316.973,82.391Zm-.742-16.836q-2.891,0-3.437,3.828h6.641v-.508a3.26,3.26,0,0,0-.8-2.451A3.187,3.187,0,0,0,316.23,65.555Zm-.078-13.574h6.953l-5.43,6.133H312.3ZM337.09,66.688l3.066-5.82h6.836L341.426,71.16,347.266,82h-6.875l-3.32-6.25L333.809,82h-6.914l5.859-10.84-5.547-10.293h6.914ZM356.055,82h-6.6V60.867h6.6Zm-6.992-26.582a2.938,2.938,0,0,1,1.016-2.3,4.318,4.318,0,0,1,5.273,0,3.123,3.123,0,0,1,0,4.609,4.318,4.318,0,0,1-5.273,0A2.938,2.938,0,0,1,349.063,55.418Zm18.711.2v5.254h3.477v4.57h-3.477v9.668a2.468,2.468,0,0,0,.43,1.66,2.3,2.3,0,0,0,1.7.469,9.656,9.656,0,0,0,1.641-.117v4.707a12.147,12.147,0,0,1-3.711.566q-3.4,0-5.02-1.6a6.564,6.564,0,0,1-1.621-4.863V65.438h-2.7v-4.57h2.7V55.613Zm4.648,15.625a12.473,12.473,0,0,1,1.23-5.635,8.8,8.8,0,0,1,3.535-3.8,10.647,10.647,0,0,1,5.41-1.328,9.717,9.717,0,0,1,7.48,2.939,11.279,11.279,0,0,1,2.734,8v.234a10.944,10.944,0,0,1-2.744,7.842,9.743,9.743,0,0,1-7.432,2.9,9.854,9.854,0,0,1-7.246-2.705,10.58,10.58,0,0,1-2.949-7.334Zm6.582.41a7.863,7.863,0,0,0,.918,4.3,3.058,3.058,0,0,0,2.715,1.367q3.516,0,3.594-5.41v-.664q0-5.684-3.633-5.684-3.3,0-3.574,4.9ZM12.07,122.391a10.863,10.863,0,0,1-7.871-2.9,10.016,10.016,0,0,1-3.008-7.549v-.547a12.978,12.978,0,0,1,1.2-5.723A8.789,8.789,0,0,1,5.9,101.834a10.584,10.584,0,0,1,5.469-1.357A9.148,9.148,0,0,1,18.4,103.24q2.578,2.764,2.578,7.705V113.5H7.891A4.744,4.744,0,0,0,9.434,116.3a4.591,4.591,0,0,0,3.086,1.016,5.915,5.915,0,0,0,4.883-2.187l3.008,3.555a8.408,8.408,0,0,1-3.486,2.705A11.781,11.781,0,0,1,12.07,122.391Zm-.742-16.836q-2.891,0-3.437,3.828h6.641v-.508a3.26,3.26,0,0,0-.8-2.451A3.186,3.186,0,0,0,11.328,105.555Zm18.34-4.687.215,2.48a7.167,7.167,0,0,1,6.035-2.871,6.029,6.029,0,0,1,4.932,1.973q1.631,1.973,1.689,5.938V122h-6.6V108.66a3.566,3.566,0,0,0-.645-2.354,2.982,2.982,0,0,0-2.344-.752,3.139,3.139,0,0,0-2.871,1.523V122H23.5V100.867ZM63.086,122h-6.6V92h6.6Zm15.957,0a7.432,7.432,0,0,1-.625-1.895,6.12,6.12,0,0,1-5.078,2.285,7.5,7.5,0,0,1-5.078-1.807,5.751,5.751,0,0,1-2.09-4.541,5.91,5.91,0,0,1,2.539-5.2q2.539-1.758,7.383-1.758h2.031v-1.113q0-2.91-2.52-2.91a2.055,2.055,0,0,0-2.344,2.3H66.68a5.909,5.909,0,0,1,2.607-4.98,10.948,10.948,0,0,1,6.65-1.914,9.607,9.607,0,0,1,6.387,1.973,6.858,6.858,0,0,1,2.4,5.41v9.355a9.581,9.581,0,0,0,.9,4.453V122Zm-4.121-4.3a3.671,3.671,0,0,0,2.041-.527,3.305,3.305,0,0,0,1.162-1.191v-3.379H76.211q-3.437,0-3.437,3.086a1.884,1.884,0,0,0,.605,1.455A2.191,2.191,0,0,0,74.922,117.7Zm31.836-3.535,3.34-13.3h6.934L110.137,122h-6.719l-6.895-21.133h6.953Zm22.461,8.223a10.863,10.863,0,0,1-7.871-2.9,10.016,10.016,0,0,1-3.008-7.549v-.547a12.978,12.978,0,0,1,1.2-5.723,8.789,8.789,0,0,1,3.506-3.838,10.584,10.584,0,0,1,5.469-1.357,9.148,9.148,0,0,1,7.031,2.764q2.578,2.764,2.578,7.705V113.5H125.039a4.744,4.744,0,0,0,1.543,2.793,4.591,4.591,0,0,0,3.086,1.016,5.915,5.915,0,0,0,4.883-2.187l3.008,3.555a8.408,8.408,0,0,1-3.486,2.705A11.781,11.781,0,0,1,129.219,122.391Zm-.742-16.836q-2.891,0-3.437,3.828h6.641v-.508a3.26,3.26,0,0,0-.8-2.451A3.186,3.186,0,0,0,128.477,105.555Zm18.34-4.687.215,2.48a7.166,7.166,0,0,1,6.035-2.871A6.029,6.029,0,0,1,158,102.449q1.631,1.973,1.689,5.938V122h-6.6V108.66a3.566,3.566,0,0,0-.645-2.354,2.982,2.982,0,0,0-2.344-.752,3.139,3.139,0,0,0-2.871,1.523V122h-6.582V100.867ZM171,95.613v5.254h3.477v4.57H171v9.668a2.468,2.468,0,0,0,.43,1.66,2.3,2.3,0,0,0,1.7.469,9.656,9.656,0,0,0,1.641-.117v4.707a12.147,12.147,0,0,1-3.711.566q-3.4,0-5.02-1.6a6.564,6.564,0,0,1-1.621-4.863V105.438h-2.7v-4.57h2.7V95.613ZM188.965,122a7.432,7.432,0,0,1-.625-1.895,6.12,6.12,0,0,1-5.078,2.285,7.5,7.5,0,0,1-5.078-1.807,5.751,5.751,0,0,1-2.09-4.541,5.91,5.91,0,0,1,2.539-5.2q2.539-1.758,7.383-1.758h2.031v-1.113q0-2.91-2.52-2.91a2.055,2.055,0,0,0-2.344,2.3H176.6a5.909,5.909,0,0,1,2.607-4.98,10.948,10.948,0,0,1,6.65-1.914,9.607,9.607,0,0,1,6.387,1.973,6.858,6.858,0,0,1,2.4,5.41v9.355a9.581,9.581,0,0,0,.9,4.453V122Zm-4.121-4.3a3.671,3.671,0,0,0,2.041-.527,3.305,3.305,0,0,0,1.162-1.191v-3.379h-1.914q-3.438,0-3.437,3.086a1.884,1.884,0,0,0,.605,1.455A2.191,2.191,0,0,0,184.844,117.7Zm37.227-3.4q.43-2.207-2.383-3.418l-3.2-1.328q-6.738-3.027-6.406-8.242a7.276,7.276,0,0,1,1.641-4.248,9.745,9.745,0,0,1,4.16-2.9,15.309,15.309,0,0,1,5.8-1,9.865,9.865,0,0,1,6.787,2.461A8.176,8.176,0,0,1,231,102.02h-6.641a3.979,3.979,0,0,0-.693-2.627,3,3,0,0,0-2.471-1.025,5.177,5.177,0,0,0-2.969.781,3.169,3.169,0,0,0-1.523,2.207q-.371,1.953,2.9,3.2a31.894,31.894,0,0,1,4.756,2.148q4.668,2.793,4.375,7.539a7.72,7.72,0,0,1-1.582,4.316,9.145,9.145,0,0,1-3.955,2.871,14.613,14.613,0,0,1-5.674.977,13.7,13.7,0,0,1-4.277-.723,9.412,9.412,0,0,1-3.379-1.992,8.654,8.654,0,0,1-2.734-6.934l6.7.02a4.587,4.587,0,0,0,.84,3.311,4.035,4.035,0,0,0,3.223,1.123,4.836,4.836,0,0,0,2.8-.771A3.2,3.2,0,0,0,222.07,114.3Zm17.227-1.953L237.617,122h-6.68l4.922-28.437,10.215.02a10.29,10.29,0,0,1,7.471,2.637,8.129,8.129,0,0,1,2.393,6.836,9.3,9.3,0,0,1-1.836,4.98,10.169,10.169,0,0,1-4.229,3.223,14.953,14.953,0,0,1-5.889,1.113Zm.918-5.293,4.023.039a4.97,4.97,0,0,0,3.887-1.65,4.907,4.907,0,0,0,1.074-3.916,3,3,0,0,0-.908-1.885,3.115,3.115,0,0,0-1.982-.771l-4.668-.02ZM263.516,122h-6.68l4.941-28.437h6.66Zm27.832,0h-6.465l-6.8-17.949L274.961,122h-6.68L273.2,93.563h6.523l6.777,17.949,3.105-17.949h6.68Zm27.207-5.937a1.521,1.521,0,0,0-.879-1.348,13.369,13.369,0,0,0-3.34-1.055,15.23,15.23,0,0,1-4.062-1.436,6.8,6.8,0,0,1-2.441-2.158,5.154,5.154,0,0,1-.84-2.91,5.841,5.841,0,0,1,2.4-4.795,9.9,9.9,0,0,1,6.289-1.885,10.964,10.964,0,0,1,6.719,1.895,5.924,5.924,0,0,1,2.539,4.98h-6.6q0-2.539-2.676-2.539a2.652,2.652,0,0,0-1.738.576,1.784,1.784,0,0,0-.7,1.436,1.638,1.638,0,0,0,.859,1.426,8.12,8.12,0,0,0,2.744.9,23.714,23.714,0,0,1,3.311.84q4.766,1.641,4.766,5.879a5.535,5.535,0,0,1-2.568,4.707,11.263,11.263,0,0,1-6.65,1.816,11.494,11.494,0,0,1-4.844-.977,8.1,8.1,0,0,1-3.32-2.656,6.015,6.015,0,0,1-1.191-3.535h6.152a2.544,2.544,0,0,0,.977,2.139,4.017,4.017,0,0,0,2.4.674,3.16,3.16,0,0,0,2.021-.547A1.749,1.749,0,0,0,318.555,116.063Zm8.594-4.824a12.473,12.473,0,0,1,1.23-5.635,8.8,8.8,0,0,1,3.535-3.8,10.647,10.647,0,0,1,5.41-1.328,9.717,9.717,0,0,1,7.48,2.939,11.279,11.279,0,0,1,2.734,8v.234a10.944,10.944,0,0,1-2.744,7.842,9.743,9.743,0,0,1-7.432,2.9,9.854,9.854,0,0,1-7.246-2.705,10.58,10.58,0,0,1-2.949-7.334Zm6.582.41a7.863,7.863,0,0,0,.918,4.3,3.058,3.058,0,0,0,2.715,1.367q3.516,0,3.594-5.41v-.664q0-5.684-3.633-5.684-3.3,0-3.574,4.9Zm22.754-10.781.215,2.48a7.167,7.167,0,0,1,6.035-2.871,6.029,6.029,0,0,1,4.932,1.973q1.631,1.973,1.689,5.938V122h-6.6V108.66a3.566,3.566,0,0,0-.645-2.354,2.982,2.982,0,0,0-2.344-.752,3.139,3.139,0,0,0-2.871,1.523V122h-6.582V100.867Zm20.605,14.746a3.747,3.747,0,0,1,2.6.928,3.238,3.238,0,0,1,0,4.746,4.1,4.1,0,0,1-5.205-.01,3.236,3.236,0,0,1,0-4.727A3.715,3.715,0,0,1,377.09,115.613Zm0-15.586a3.747,3.747,0,0,1,2.6.928,3.238,3.238,0,0,1,0,4.746,4.1,4.1,0,0,1-5.205-.01,3.236,3.236,0,0,1,0-4.727A3.715,3.715,0,0,1,377.09,100.027Z" transform="translate(288.182 6975.955)" fill="#12263f"/>
    <path id="Trazado_876141" data-name="Trazado 876141" d="M219.123,108.8a78.1,78.1,0,0,1,77.984,77.985V306.171a70.421,70.421,0,1,0,140.841.55v-196H441.8V306.171a74.2,74.2,0,1,1-148.406.138V186.923a74.166,74.166,0,0,0-74.136-74.134Z" transform="translate(-35.941 7111.107)" fill="#33146b"/>
    <path id="Trazado_876142" data-name="Trazado 876142" d="M331.3,304.879V109.434a74.2,74.2,0,0,1,148.406,0V304.879h-3.851V109.434a70.42,70.42,0,1,0-140.84,0V305.017H331.3v-.138Z" transform="translate(70.57 7083.514)" fill="#33146b"/>
    <path id="Trazado_876143" data-name="Trazado 876143" d="M436.4,357.383V161.8h3.852V357.245a70.421,70.421,0,0,0,140.841,0V161.8h3.853V357.245a74.274,74.274,0,0,1-148.547.138" transform="translate(110.024 7131.004)" fill="#33146b"/>
    <path id="Trazado_876144" data-name="Trazado 876144" d="M541.5,269.855V74.272a74.2,74.2,0,1,1,148.406-.138V269.579h-3.851V74.272a70.42,70.42,0,1,0-140.84,0V269.717H541.5v.138Z" transform="translate(149.479 7070.264)" fill="#33146b"/>
    <path id="Trazado_876145" data-name="Trazado 876145" d="M646.7,301.908V106.326h3.712V301.771a70.422,70.422,0,0,0,140.843,0V182.8a78.363,78.363,0,0,1,78.4-78.4h230.516v3.851H869.654a74.755,74.755,0,0,0-74.686,74.685V301.908a74.134,74.134,0,1,1-148.267,0" transform="translate(188.973 7109.457)" fill="#33146b"/>
    <path id="Trazado_876146" data-name="Trazado 876146" d="M731.36,203.912a60.93,60.93,0,1,1-73.416,45.113,60.93,60.93,0,0,1,73.416-45.113" transform="translate(192.563 7146.184)" fill="#f9ce24" opacity="0.796"/>
    <path id="Trazado_876147" data-name="Trazado 876147" d="M730.942,204.489a60.106,60.106,0,1,1-72.419,44.5A60.1,60.1,0,0,1,730.942,204.489Z" transform="translate(192.789 7146.408)" fill="none" stroke="#fff" stroke-miterlimit="10" stroke-width="1.166"/>
    <path id="Trazado_876148" data-name="Trazado 876148" d="M672.18,61.761a60.934,60.934,0,1,1-69.949-50.329A60.933,60.933,0,0,1,672.18,61.761" transform="translate(153.083 7074.254)" fill="#f9ce24" opacity="0.796"/>
    <path id="Trazado_876149" data-name="Trazado 876149" d="M671.137,61.668a60.107,60.107,0,1,1-69-49.647A60.107,60.107,0,0,1,671.137,61.668Z" transform="translate(153.308 7074.479)" fill="none" stroke="#fff" stroke-miterlimit="10.001" stroke-width="1.166"/>
    <path id="Trazado_876150" data-name="Trazado 876150" d="M531.042,263.043a60.93,60.93,0,1,1-79.82,32.464,60.931,60.931,0,0,1,79.82-32.464" transform="translate(113.786 7167.209)" fill="#f9ce24" opacity="0.803"/>
    <path id="Trazado_876151" data-name="Trazado 876151" d="M530.5,263.578A60.106,60.106,0,1,1,451.76,295.6,60.1,60.1,0,0,1,530.5,263.578Z" transform="translate(114.012 7167.434)" fill="none" stroke="#fff" stroke-miterlimit="10" stroke-width="1.166"/>
    <path id="Trazado_876152" data-name="Trazado 876152" d="M462.809,107.177a60.932,60.932,0,1,1-60.932-60.93,60.931,60.931,0,0,1,60.932,60.93" transform="translate(74.191 7087.627)" fill="#f9ce24" opacity="0.798"/>
    <path id="Trazado_881850" data-name="Trazado 881850" d="M60.1,0A60.1,60.1,0,1,1,0,60.1,60.1,60.1,0,0,1,60.1,0Z" transform="matrix(1, -0.002, 0.002, 1, 415.849, 7134.814)" fill="none" stroke="#fff" stroke-width="1.166"/>
    <g id="Grupo_1100770" data-name="Grupo 1100770" transform="translate(1134.256 7033.672)">
      <g id="Grupo_1100769" data-name="Grupo 1100769" clip-path="url(#clip-path)">
        <g id="Grupo_1100768" data-name="Grupo 1100768" transform="translate(0 0.001)">
          <g id="Grupo_1100767" data-name="Grupo 1100767" clip-path="url(#clip-path-2)">
            <path id="Trazado_876153" data-name="Trazado 876153" d="M270.083,375.19s-10.67,20.909-27.807,15.952c4.419-17.354,27.807-15.952,27.807-15.952" transform="translate(18.842 29.175)" fill="#9686b3"/>
            <path id="Trazado_876154" data-name="Trazado 876154" d="M228.282,363.788s-2.048,23.387,15.2,28.237c5.389-17.028-15.2-28.237-15.2-28.237" transform="translate(17.748 28.291)" fill="#6f5996"/>
            <path id="Trazado_876155" data-name="Trazado 876155" d="M262.275,404.651s-14.334,18.537-30.285,10.563c7.544-16.274,30.285-10.563,30.285-10.563" transform="translate(18.042 31.393)" fill="#9686b3"/>
            <path id="Trazado_876156" data-name="Trazado 876156" d="M223.08,385.981s-6.359,22.633,9.7,30.5c8.514-15.628-9.7-30.5-9.7-30.5" transform="translate(17.252 30.017)" fill="#6f5996"/>
            <path id="Trazado_876157" data-name="Trazado 876157" d="M249.908,431.01s-17.244,15.952-31.579,5.281c10.131-14.657,31.579-5.281,31.579-5.281" transform="translate(16.979 33.289)" fill="#9686b3"/>
            <path id="Trazado_876158" data-name="Trazado 876158" d="M214.473,406.3s-10.023,21.231,4.419,31.794c10.993-14.119-4.419-31.794-4.419-31.794" transform="translate(16.416 31.597)" fill="#6f5996"/>
            <path id="Trazado_876159" data-name="Trazado 876159" d="M190.425,471.576s52.272-39.014,61.756-105.083" transform="translate(14.809 28.501)" fill="none" stroke="#9686b3" stroke-linecap="round" stroke-miterlimit="10" stroke-width="2.03"/>
            <path id="Trazado_876160" data-name="Trazado 876160" d="M251.752,341.493s9.7,21.341-4.85,31.686c-10.885-14.228,4.85-31.686,4.85-31.686" transform="translate(18.903 26.557)" fill="#9686b3"/>
            <path id="Trazado_876161" data-name="Trazado 876161" d="M146.308,494.365s12.933-117.153,64.02-127.824,6.036,68.763-8.083,92.9,13.58,4.418,30.285-8.408C245.786,440.8,250.1,500.4,146.308,494.365" transform="translate(11.378 28.429)" fill="#9686b3"/>
            <path id="Trazado_876162" data-name="Trazado 876162" d="M183.707,409c4.527-21.663,41.6-42.464,41.6-42.464-3.664-1.186-8.514-1.293-14.981,0-51.086,10.562-64.02,127.822-64.02,127.822,1.94.108,3.88.214,5.82.214.323,0,.539-.107.862-.107,53.673-8.191,29.315-69.731,30.716-85.466" transform="translate(11.378 28.432)" fill="#6f5996"/>
            <path id="Trazado_876163" data-name="Trazado 876163" d="M226.566,367.971s-36.321,25.542-54.859,100.986" transform="translate(13.354 28.616)" fill="none" stroke="#6f5996" stroke-miterlimit="10" stroke-width="1.073"/>
            <path id="Trazado_876164" data-name="Trazado 876164" d="M228.657,444.959c-11.209,8.622-27.375,20.263-32.549,19.724,6.251,10.453,30.824-10.024,39.015-17.352-.862-3.45-3.449-4.742-6.467-2.372" transform="translate(15.251 34.509)" fill="#6f5996"/>
            <path id="Trazado_876165" data-name="Trazado 876165" d="M223.458,407.792a79.2,79.2,0,0,0-33.95,4.635" transform="translate(14.738 31.692)" fill="none" stroke="#6f5996" stroke-miterlimit="10" stroke-width="1.073"/>
            <path id="Trazado_876166" data-name="Trazado 876166" d="M16.408,345.245s8.838,26.191,29.639,23.28c-2.048-20.91-29.639-23.28-29.639-23.28" transform="translate(1.276 26.849)" fill="#9686b3"/>
            <path id="Trazado_876167" data-name="Trazado 876167" d="M66.456,338.745s-1.617,27.591-22.525,30.285c-3.449-20.693,22.525-30.285,22.525-30.285" transform="translate(3.392 26.343)" fill="#6f5996"/>
            <path id="Trazado_876168" data-name="Trazado 876168" d="M20.747,380.814s13.58,24.142,33.519,17.459c-6.036-20.153-33.519-17.459-33.519-17.459" transform="translate(1.613 29.605)" fill="#9686b3"/>
            <path id="Trazado_876169" data-name="Trazado 876169" d="M68.436,365.5s3.557,27.375-16.49,33.95c-7.221-19.724,16.49-33.95,16.49-33.95" transform="translate(3.933 28.424)" fill="#6f5996"/>
            <path id="Trazado_876170" data-name="Trazado 876170" d="M30.736,413.676s17.352,21.448,35.89,11.531c-9.269-18.861-35.89-11.531-35.89-11.531" transform="translate(2.39 32.061)" fill="#9686b3"/>
            <path id="Trazado_876171" data-name="Trazado 876171" d="M74.806,390.674s8.083,26.405-10.562,36.213C53.9,408.672,74.806,390.674,74.806,390.674" transform="translate(4.773 30.382)" fill="#6f5996"/>
            <path id="Trazado_876172" data-name="Trazado 876172" d="M95.712,471.568s-54.32-54.32-54.1-133" transform="translate(3.236 26.33)" fill="none" stroke="#9686b3" stroke-linecap="round" stroke-miterlimit="10" stroke-width="2.392"/>
            <path id="Trazado_876173" data-name="Trazado 876173" d="M42.478,308.872s-14.873,23.28.323,37.722c14.981-14.659-.323-37.722-.323-37.722" transform="translate(2.797 24.02)" fill="#9686b3"/>
            <path id="Trazado_876174" data-name="Trazado 876174" d="M135.533,481.163c50,0,90.533,2.268,90.533,5.064s-40.533,5.064-90.533,5.064S45,489.025,45,486.227s40.533-5.064,90.533-5.064" transform="translate(3.5 37.419)" fill="#9e90b9"/>
            <path id="Trazado_876175" data-name="Trazado 876175" d="M0,206.283c36.213-41.925,82.881-66.822,134.613-66.822,68.869,0,123.3,36.213,123.3,106.16,0,67.361-82.342,83.852-82.342,115v28.453H79.755l-.539-41.386c0-47.637,82.342-74.582,82.342-103.035,0-19.724-20.154-24.358-38.369-24.358-22.31,0-49.685,21.771-67.361,42.465ZM124.806,402.006c36.752,0,61.648,25.328,61.648,54.858,0,28.993-23.819,53.35-61.648,53.35-33.626,0-59.062-26.405-59.062-53.35,0-25.866,21.771-54.858,59.062-54.858" transform="translate(0 10.845)" fill="#8977a9"/>
            <path id="Trazado_876176" data-name="Trazado 876176" d="M11.09,206.283C47.3,164.357,93.971,139.461,145.7,139.461c68.869,0,123.3,36.213,123.3,106.16,0,67.361-82.342,83.852-82.342,115v28.453H90.845l-.539-41.386c0-47.637,82.342-74.582,82.342-103.035,0-19.724-20.154-24.358-38.369-24.358-22.31,0-49.685,21.771-67.361,42.465ZM135.9,402.006c36.752,0,61.648,25.328,61.648,54.858,0,28.993-23.819,53.35-61.648,53.35-33.626,0-59.062-26.405-59.062-53.35,0-25.866,21.771-54.858,59.062-54.858" transform="translate(0.862 10.845)" fill="#dad5e4"/>
            <path id="Trazado_876177" data-name="Trazado 876177" d="M51.916,254.748H63.879L51.7,242.462Z" transform="translate(4.021 18.855)" fill="#8977a9"/>
            <g id="Grupo_1100739" data-name="Grupo 1100739" transform="translate(61.172 152.03)" opacity="0.66" style="isolation: isolate">
              <g id="Grupo_1100738" data-name="Grupo 1100738">
                <g id="Grupo_1100737" data-name="Grupo 1100737" clip-path="url(#clip-path-3)">
                  <path id="Trazado_876178" data-name="Trazado 876178" d="M99.483,230.947l-8.3-63.7,15.3-26.19a158,158,0,0,0-37.075,10.346c-6.9,11.963-15.3,30.178-11.855,42.465C62.839,213.595,79.652,241.4,79.652,241.4Z" transform="translate(-56.758 -141.061)" fill="#9e90b9"/>
                </g>
              </g>
            </g>
            <g id="Grupo_1100742" data-name="Grupo 1100742" transform="translate(134.937 150.306)" opacity="0.66" style="isolation: isolate">
              <g id="Grupo_1100741" data-name="Grupo 1100741">
                <g id="Grupo_1100740" data-name="Grupo 1100740" clip-path="url(#clip-path-4)">
                  <path id="Trazado_876179" data-name="Trazado 876179" d="M188.681,250.471s-4.2,15.3-13.58,8.947-23.926-20.478-23.926-20.478l15.52-57.985L125.2,155.628l8.191-16.167,63.157,37.722Z" transform="translate(-125.2 -139.461)" fill="#9e90b9"/>
                </g>
              </g>
            </g>
            <path id="Trazado_876180" data-name="Trazado 876180" d="M133.644,132.619V156.33l16.059,2.694,30.285,16.813-23.172,60.355,30.716,18.968a5.384,5.384,0,0,0,7.437-1.723,4.877,4.877,0,0,0,.754-3.019,52.465,52.465,0,0,0-2.156-13.472l20.693-53.35a25.893,25.893,0,0,0-12.179-32.226l-40.74-21.017Z" transform="translate(10.393 10.137)" fill="#624a8d"/>
            <path id="Trazado_876181" data-name="Trazado 876181" d="M155.144,229.837l30.716,18.969a5.383,5.383,0,0,0,7.437-1.724,4.877,4.877,0,0,0,.754-3.019,52.473,52.473,0,0,0-2.156-13.472,67.2,67.2,0,0,1-30.5-17.137Z" transform="translate(12.066 16.599)" fill="#6f5996"/>
            <path id="Trazado_876182" data-name="Trazado 876182" d="M138.558,156.322H129.4l-24.789,29.53,8.838,59.6L81.868,259.679a4.736,4.736,0,0,1-6.251-2.37,4.518,4.518,0,0,1-.431-1.723c-.216-4.526.108-10.562,2.8-15.842l-7.329-56.259a23.139,23.139,0,0,1,6.574-19.4L110.86,130.46l27.7,2.263Z" transform="translate(5.479 10.145)" fill="#624a8d"/>
            <path id="Trazado_876183" data-name="Trazado 876183" d="M113.008,238.672l-3.126-21.017c-16.059,17.569-32.333,15.3-32.333,15.3-2.587,5.282-3.018,11.317-2.8,15.842a4.788,4.788,0,0,0,4.958,4.527,4.5,4.5,0,0,0,1.724-.432Z" transform="translate(5.809 16.926)" fill="#6f5996"/>
            <g id="Grupo_1100745" data-name="Grupo 1100745" transform="translate(210.151 163.34)" opacity="0.22" style="isolation: isolate">
              <g id="Grupo_1100744" data-name="Grupo 1100744">
                <g id="Grupo_1100743" data-name="Grupo 1100743" clip-path="url(#clip-path-5)">
                  <path id="Trazado_876184" data-name="Trazado 876184" d="M200.114,151.555a18.741,18.741,0,0,0,.754,26.513,19.613,19.613,0,0,0,8.407,4.634l.216-.646a25.761,25.761,0,0,0-9.377-30.5" transform="translate(-194.987 -151.555)" fill="#b749ca"/>
                </g>
              </g>
            </g>
            <g id="Grupo_1100748" data-name="Grupo 1100748" transform="translate(75.823 171.426)" opacity="0.22" style="isolation: isolate">
              <g id="Grupo_1100747" data-name="Grupo 1100747">
                <g id="Grupo_1100746" data-name="Grupo 1100746" clip-path="url(#clip-path-6)">
                  <path id="Trazado_876185" data-name="Trazado 876185" d="M86.833,172.2a15.858,15.858,0,0,0-6.9-13.148l-2.8,2.8a23.14,23.14,0,0,0-6.574,19.4l.862,7.006A16.116,16.116,0,0,0,86.833,172.2" transform="translate(-70.352 -159.057)" fill="#b749ca"/>
                </g>
              </g>
            </g>
            <path id="Trazado_876186" data-name="Trazado 876186" d="M161.343,130.356,136.662,132.4c-2.156,8.083-2.8,18.538-3.018,24.035l16.059,2.694,18.861,10.453a89.943,89.943,0,0,1,14.227-28.129Z" transform="translate(10.393 10.137)" fill="#280863"/>
            <path id="Trazado_876187" data-name="Trazado 876187" d="M191.782,234.4c-.323-1.509-.754-3.126-1.186-4.635a64.025,64.025,0,0,1-17.352-7.112c1.293,3.881,5.6,9.592,18.538,11.748" transform="translate(13.473 17.315)" fill="#280863"/>
            <path id="Trazado_876188" data-name="Trazado 876188" d="M94.528,228.456c-9.7,4.635-17.137,3.663-17.137,3.663a27.836,27.836,0,0,0-2.048,5.714c5.928-.431,14.765-2.158,19.184-9.378" transform="translate(5.859 17.766)" fill="#280863"/>
            <g id="Grupo_1100751" data-name="Grupo 1100751" transform="translate(75.823 140.493)" opacity="0.22" style="isolation: isolate">
              <g id="Grupo_1100750" data-name="Grupo 1100750">
                <g id="Grupo_1100749" data-name="Grupo 1100749" clip-path="url(#clip-path-7)">
                  <path id="Trazado_876189" data-name="Trazado 876189" d="M110.76,130.356,77.133,163.981a23.139,23.139,0,0,0-6.574,19.4l.108.971c27.375-4.2,49.685-38.369,57.876-52.6Z" transform="translate(-70.352 -130.356)" fill="#b749ca"/>
                </g>
              </g>
            </g>
            <path id="Trazado_876190" data-name="Trazado 876190" d="M109.843,49.555s-9.592,3.987-14.658,16.059-13.041,37.507-13.041,37.507l27.806-10.67Z" transform="translate(6.388 3.853)" fill="#a092ba"/>
            <path id="Trazado_876191" data-name="Trazado 876191" d="M135.65,39.456,107.844,50.341v87.083s9.7,2.264,27.7,2.264,27.7-2.264,27.7-2.264V50.341Z" transform="translate(8.387 3.067)" fill="#c9c1d8"/>
            <path id="Trazado_876192" data-name="Trazado 876192" d="M109.275,49.555s-9.592,3.987-14.658,16.059c-1.509,3.665-3.341,8.515-5.173,13.58,5.281,1.186,13.58,3.664,19.831,8.408Z" transform="translate(6.956 3.853)" fill="#c9c1d8"/>
            <path id="Trazado_876193" data-name="Trazado 876193" d="M138.022,55.456l-30.178,61.864V91.885Z" transform="translate(8.387 4.312)" fill="#6f5996"/>
            <path id="Trazado_876194" data-name="Trazado 876194" d="M151.334,71.655s1.724,37.83,0,46.452-6.79,19.723-6.79,31.148S160.495,126.3,160.495,126.3V91.808Z" transform="translate(11.241 5.572)" fill="#6f5996"/>
            <path id="Trazado_876195" data-name="Trazado 876195" d="M160.495,49.555h0A27.9,27.9,0,0,1,176.662,71l6.359,45.374a23.025,23.025,0,0,1-3.988,16.274l-15.089,20.8V173.5a3.978,3.978,0,0,1-3.988,3.987,3.012,3.012,0,0,1-.97-.107c-5.712-1.51-14.442-4.635-14.442-9.808V151.19a23.74,23.74,0,0,1,3.557-12.609l12.394-20.91-8.838-41.28c0,.108-3.449-22.848,8.838-26.836" transform="translate(11.241 3.853)" fill="#beb5d0"/>
            <path id="Trazado_876196" data-name="Trazado 876196" d="M178.659,88.463,176.18,70.894a27.678,27.678,0,0,0-16.059-21.341h-.108c-12.287,3.988-8.838,26.944-8.838,26.944L154.3,91.155a50.7,50.7,0,0,1,24.358-2.692" transform="translate(11.722 3.853)" fill="#c9c1d8"/>
            <path id="Trazado_876197" data-name="Trazado 876197" d="M172.644,118.325a11.129,11.129,0,0,0,4.527,8.947,22.226,22.226,0,0,0,3.664-15.628l-.539-3.987a11.475,11.475,0,0,0-7.652,10.668" transform="translate(13.427 8.371)" fill="#9e90b9"/>
            <line id="Línea_622" data-name="Línea 622" y1="7.222" x2="4.634" transform="translate(171.736 114.302)" fill="none" stroke="#513781" stroke-miterlimit="10" stroke-width="0.909"/>
            <path id="Trazado_876198" data-name="Trazado 876198" d="M134.126,49.016h0a6.556,6.556,0,0,1-6.682-6.574V31.557H140.7V42.441a6.533,6.533,0,0,1-6.574,6.574" transform="translate(9.911 2.453)" fill="#beb5d0"/>
            <path id="Trazado_876199" data-name="Trazado 876199" d="M144.074,24.848a9.241,9.241,0,0,0,1.724-5.5c0-3.557.754-10.992-4.527-14.011s-15.951-7.759-14.227-3.879.431,3.34-3.126,3.233-2.91,12.287,0,17.137,20.154,3.017,20.154,3.017" transform="translate(9.448 -0.001)" fill="#391b6f"/>
            <path id="Trazado_876200" data-name="Trazado 876200" d="M127.9,23.713a3.18,3.18,0,0,1-3.557,2.8,3.11,3.11,0,0,1-2.8-3.558,3.147,3.147,0,0,1,3.126-2.8,3.447,3.447,0,0,1,3.233,3.558" transform="translate(9.451 1.566)" fill="#beb5d0"/>
            <path id="Trazado_876201" data-name="Trazado 876201" d="M139.744,23.713a3.2,3.2,0,1,0,6.359-.756,3.147,3.147,0,0,0-3.126-2.8,3.527,3.527,0,0,0-3.233,3.558" transform="translate(10.867 1.566)" fill="#beb5d0"/>
            <path id="Trazado_876202" data-name="Trazado 876202" d="M134.436,38.887h-.216a9.383,9.383,0,0,1-9.377-9.376V16.146a6.762,6.762,0,0,1,6.79-6.79h5.281a6.762,6.762,0,0,1,6.79,6.79V29.511a9.224,9.224,0,0,1-9.269,9.376" transform="translate(9.709 0.727)" fill="#beb5d0"/>
            <path id="Trazado_876203" data-name="Trazado 876203" d="M127.444,31.555V42.98c8.622,0,13.257-8.408,13.257-8.408l-7.329-3.019h-5.928Z" transform="translate(9.911 2.453)" fill="#513781"/>
            <path id="Trazado_876204" data-name="Trazado 876204" d="M130.453,19.849c0,.753-.323,1.292-.754,1.292s-.754-.646-.754-1.292.323-1.292.754-1.292.754.537.754,1.292" transform="translate(10.028 1.442)" fill="#391b6f"/>
            <path id="Trazado_876205" data-name="Trazado 876205" d="M131.647,15.69s-2.371-1.078-4.2,0" transform="translate(9.911 1.182)" fill="none" stroke="#391b6f" stroke-linecap="round" stroke-miterlimit="10" stroke-width="0.909"/>
            <path id="Trazado_876206" data-name="Trazado 876206" d="M137.6,18.557c.417,0,.754.579.754,1.292s-.337,1.292-.754,1.292-.754-.579-.754-1.292.337-1.292.754-1.292" transform="translate(10.642 1.442)" fill="#391b6f"/>
            <path id="Trazado_876207" data-name="Trazado 876207" d="M135.844,15.69s2.371-1.078,4.2,0" transform="translate(10.565 1.182)" fill="none" stroke="#391b6f" stroke-linecap="round" stroke-miterlimit="10" stroke-width="0.909"/>
            <path id="Trazado_876208" data-name="Trazado 876208" d="M138.539,26.946c-4.311-.648-2.587-.648-4.311-.648s0,0-4.311.648-5.173-6.791-5.173-6.791v8.408a9.382,9.382,0,0,0,9.377,9.376h.216a9.383,9.383,0,0,0,9.377-9.376V20.155c.108.11-.862,7.438-5.173,6.791" transform="translate(9.701 1.566)" fill="#391b6f"/>
            <path id="Trazado_876209" data-name="Trazado 876209" d="M83,103.212l50.979-70.7a1.883,1.883,0,0,1,2.587-.431l.108.108a1.808,1.808,0,0,1,.431,2.156l-3.233,7.112,2.91,2.588a11.876,11.876,0,0,1,2.048,15.412l-37.183,56.583a11.15,11.15,0,0,1-15.52,3.127c-.323-.214-.647-.539-.97-.753l-.216-.108A11.112,11.112,0,0,1,83,103.212" transform="translate(6.29 2.468)" fill="#beb5d0"/>
            <path id="Trazado_876210" data-name="Trazado 876210" d="M84.5,100.555a9.3,9.3,0,0,0-3.018.431,11.408,11.408,0,0,0,3.449,12.071l.216.107a11.119,11.119,0,0,0,12.394,1.292v-.862A13.017,13.017,0,0,0,84.5,100.555" transform="translate(6.295 7.819)" fill="#9e90b9"/>
            <line id="Línea_623" data-name="Línea 623" y1="14.874" transform="translate(162.467 163.34)" fill="none" stroke="#513781" stroke-miterlimit="10" stroke-width="0.909"/>
            <g id="Grupo_1100754" data-name="Grupo 1100754" transform="translate(175.185 57.612)" opacity="0.41" style="isolation: isolate">
              <g id="Grupo_1100753" data-name="Grupo 1100753">
                <g id="Grupo_1100752" data-name="Grupo 1100752" clip-path="url(#clip-path-8)">
                  <path id="Trazado_876211" data-name="Trazado 876211" d="M177.633,132.133a22.26,22.26,0,0,0,3.988-16.275l-6.359-45.372a27.513,27.513,0,0,0-9.377-17.03c-1.293,5.5-3.233,19.83.754,44.08,5.281,32.333-4.1,55.291-4.1,55.291Z" transform="translate(-162.544 -53.456)" fill="#fff"/>
                </g>
              </g>
            </g>
            <g id="Grupo_1100757" data-name="Grupo 1100757" transform="translate(146.533 5.125)" opacity="0.41" style="isolation: isolate">
              <g id="Grupo_1100756" data-name="Grupo 1100756">
                <g id="Grupo_1100755" data-name="Grupo 1100755" clip-path="url(#clip-path-9)">
                  <path id="Trazado_876212" data-name="Trazado 876212" d="M146.4,24.91a3.682,3.682,0,0,0-2.156-3.342,10.839,10.839,0,0,0,.323-2.694c0-3.556.754-10.992-4.527-14.011-.108,0-.108-.106-.216-.106a12.831,12.831,0,0,1-1.4,5.28c-1.078,2.909-4.958,21.77,0,27.809a9.452,9.452,0,0,0,4.527-8.083v-1.4h.323A3.148,3.148,0,0,0,146.4,24.91" transform="translate(-135.959 -4.756)" fill="#fff"/>
                </g>
              </g>
            </g>
            <g id="Grupo_1100760" data-name="Grupo 1100760" transform="translate(110.678 46.619)" opacity="0.41" style="isolation: isolate">
              <g id="Grupo_1100759" data-name="Grupo 1100759">
                <g id="Grupo_1100758" data-name="Grupo 1100758" clip-path="url(#clip-path-10)">
                  <path id="Trazado_876213" data-name="Trazado 876213" d="M135.3,43.256s-34.165,43.757-32.549,67.792l34.6-52.379A11.877,11.877,0,0,0,135.3,43.256" transform="translate(-102.692 -43.256)" fill="#fff"/>
                </g>
              </g>
            </g>
            <path id="Trazado_876214" data-name="Trazado 876214" d="M139.423,86.1c-4.2,9.161-22.31,25.974-31.579,34.274v13.578c31.471-8.838,37.4-60.355,31.579-47.852" transform="translate(8.387 6.543)" fill="#9686b3"/>
            <g id="Grupo_1100763" data-name="Grupo 1100763" transform="translate(99.823 156.445)" opacity="0.41" style="isolation: isolate">
              <g id="Grupo_1100762" data-name="Grupo 1100762">
                <g id="Grupo_1100761" data-name="Grupo 1100761" clip-path="url(#clip-path-11)">
                  <path id="Trazado_876215" data-name="Trazado 876215" d="M99.072,231.447l-5.928-48.392,34.489-37.4H140.35" transform="translate(-92.579 -145.118)" fill="none" stroke="#280863" stroke-miterlimit="10" stroke-width="1"/>
                </g>
              </g>
            </g>
            <g id="Grupo_1100766" data-name="Grupo 1100766" transform="translate(178.134 167.087)" opacity="0.41" style="isolation: isolate">
              <g id="Grupo_1100765" data-name="Grupo 1100765">
                <g id="Grupo_1100764" data-name="Grupo 1100764" clip-path="url(#clip-path-12)">
                  <path id="Trazado_876216" data-name="Trazado 876216" d="M165.544,155.456l21.879,13.58-19.939,54.751" transform="translate(-165.259 -154.998)" fill="none" stroke="#280863" stroke-miterlimit="10" stroke-width="1"/>
                </g>
              </g>
            </g>
          </g>
        </g>
      </g>
    </g>
  </g>
</svg>
