<svg xmlns="http://www.w3.org/2000/svg" width="101" height="101" viewBox="0 0 101 101">
  <g id="Grupo_1103835" data-name="Grupo 1103835" transform="translate(-749.5 -6305.358)">
    <circle id="Elipse_1146" data-name="Elipse 1146" cx="50.5" cy="50.5" r="50.5" transform="translate(749.5 6305.358)" fill="#be79ca"/>
    <g id="analisis" transform="translate(767.5 6316.8)">
      <g id="Grupo_88491" data-name="Grupo 88491" transform="translate(0.992 7.55)">
        <g id="Grupo_88489" data-name="Grupo 88489" transform="translate(0 0)">
          <path id="Trazado_127974" data-name="Trazado 127974" d="M7.5,49.43V90.365a1.814,1.814,0,0,0,1.815,1.814H62.8a1.815,1.815,0,0,0,1.815-1.814V49.43A1.815,1.815,0,0,0,62.8,47.615H9.315A1.815,1.815,0,0,0,7.5,49.43Z" transform="translate(-7.5 -43.175)" fill="#ebeef2"/>
          <path id="Trazado_127975" data-name="Trazado 127975" d="M403.974,47.616h-3.285a1.814,1.814,0,0,1,1.814,1.815V90.365a1.815,1.815,0,0,1-1.814,1.815h3.285a1.815,1.815,0,0,0,1.815-1.815V49.43A1.814,1.814,0,0,0,403.974,47.616Z" transform="translate(-348.672 -43.176)" fill="#d1d6de"/>
          <g id="Grupo_88488" data-name="Grupo 88488" transform="translate(12.583 10.121)">
            <g id="Grupo_88484" data-name="Grupo 88484" transform="translate(0 12.723)">
              <circle id="Elipse_4338" data-name="Elipse 4338" cx="2.315" cy="2.315" r="2.315" fill="#77af8f"/>
            </g>
            <g id="Grupo_88485" data-name="Grupo 88485" transform="translate(9.107 7.552)">
              <circle id="Elipse_4339" data-name="Elipse 4339" cx="2.315" cy="2.315" r="2.315" fill="#f9ce24"/>
            </g>
            <g id="Grupo_88486" data-name="Grupo 88486" transform="translate(18.213 12.723)">
              <circle id="Elipse_4340" data-name="Elipse 4340" cx="2.315" cy="2.315" r="2.315" fill="#be79ca"/>
            </g>
            <g id="Grupo_88487" data-name="Grupo 88487" transform="translate(27.32)">
              <circle id="Elipse_4341" data-name="Elipse 4341" cx="2.315" cy="2.315" r="2.315" fill="#6e3dc6"/>
            </g>
          </g>
          <path id="Trazado_127976" data-name="Trazado 127976" d="M80.428,387.641v-3.176h37.821v3.176a1.264,1.264,0,0,1-1.264,1.264H81.692A1.264,1.264,0,0,1,80.428,387.641Z" transform="translate(-70.78 -335.461)" fill="#f9ce24"/>
          <path id="Trazado_127977" data-name="Trazado 127977" d="M333.771,384.465v3.176a1.264,1.264,0,0,1-1.264,1.264h3.208a1.264,1.264,0,0,0,1.264-1.264v-3.176Z" transform="translate(-289.51 -335.461)" fill="#90741a"/>
          <path id="Trazado_127978" data-name="Trazado 127978" d="M189.243,18.5V15.554a1.5,1.5,0,0,1,1.5-1.5h6.035a1.5,1.5,0,0,1,1.5,1.5V18.5h-9.029Z" transform="translate(-165.199 -14.057)" fill="#f9ce24"/>
          <path id="Trazado_127979" data-name="Trazado 127979" d="M224.987,14.058h-3.231a1.5,1.5,0,0,1,1.5,1.5V18.5h3.231V15.555A1.5,1.5,0,0,0,224.987,14.058Z" transform="translate(-193.411 -14.058)" fill="#90741a"/>
          <rect id="Rectángulo_26030" data-name="Rectángulo 26030" width="4.025" height="8.768" transform="translate(12.886 34.532)" fill="#77af8f"/>
          <rect id="Rectángulo_26031" data-name="Rectángulo 26031" width="4.025" height="13.838" transform="translate(21.993 29.461)" fill="#77af8f"/>
          <rect id="Rectángulo_26032" data-name="Rectángulo 26032" width="4.025" height="8.768" transform="translate(31.099 34.532)" fill="#77af8f"/>
          <rect id="Rectángulo_26033" data-name="Rectángulo 26033" width="4.025" height="17.792" transform="translate(40.206 25.507)" fill="#77af8f"/>
        </g>
        <g id="Grupo_88490" data-name="Grupo 88490" transform="translate(39.095 18.243)">
          <path id="Trazado_127980" data-name="Trazado 127980" d="M409.456,293.841l7.386,12.794a2.78,2.78,0,0,0,3.8,1.018h0a2.78,2.78,0,0,0,1.018-3.8l-7.386-12.794Z" transform="translate(-395.374 -272.658)" fill="#75baf1"/>
          <path id="Trazado_127981" data-name="Trazado 127981" d="M414.271,291.06l-4.815,2.78,2.879,4.987a15.139,15.139,0,0,0,4.815-2.78Z" transform="translate(-395.374 -272.657)" fill="#4a9dde"/>
          <circle id="Elipse_4342" data-name="Elipse 4342" cx="11.976" cy="11.976" r="11.976" fill="#f9ce24"/>
          <circle id="Elipse_4343" data-name="Elipse 4343" cx="8.428" cy="8.428" r="8.428" transform="translate(3.548 3.548)" fill="#5c9cee"/>
        </g>
      </g>
      <g id="Grupo_88492" data-name="Grupo 88492" transform="translate(0 6.558)">
        <path id="Trazado_127982" data-name="Trazado 127982" d="M125.745,89.676a3.311,3.311,0,1,0-2.643-1.321l-5.434,7.594a3.3,3.3,0,0,0-3.281.723l-3.622-2.055a3.307,3.307,0,1,0-6.466,0l-3.622,2.055a3.3,3.3,0,1,0,.982,1.725l3.622-2.055a3.3,3.3,0,0,0,4.5,0l3.622,2.055a3.308,3.308,0,1,0,5.876-1.291l5.434-7.594A3.3,3.3,0,0,0,125.745,89.676Zm0-4.63a1.323,1.323,0,1,1-1.323,1.323A1.324,1.324,0,0,1,125.745,85.045Zm-27.32,15.369a1.323,1.323,0,1,1,1.323-1.323A1.324,1.324,0,0,1,98.425,100.414Zm9.107-5.171a1.323,1.323,0,1,1,1.323-1.323A1.324,1.324,0,0,1,107.532,95.243Zm9.107,5.171a1.323,1.323,0,1,1,1.323-1.323A1.325,1.325,0,0,1,116.639,100.414Z" transform="translate(-82.534 -72.94)"/>
        <path id="Trazado_127983" data-name="Trazado 127983" d="M55.405,84.68H2.807a.823.823,0,0,1-.822-.822V42.923a.823.823,0,0,1,.822-.822H7.484a.992.992,0,0,0,0-1.984H2.807A2.81,2.81,0,0,0,0,42.923V83.858a2.81,2.81,0,0,0,2.807,2.807H9.648v2.184A2.259,2.259,0,0,0,11.9,91.1h9.932l-4.675,9.128a.992.992,0,1,0,1.766.9L24.066,91.1h10.97l5.139,10.033a.992.992,0,1,0,1.766-.9L37.266,91.1H47.2a2.259,2.259,0,0,0,2.256-2.256V86.664h5.951a.992.992,0,1,0,0-1.984Zm-7.936,4.168a.272.272,0,0,1-.272.272H11.9a.272.272,0,0,1-.272-.272V86.664H47.469Z" transform="translate(0 -35.676)"/>
        <path id="Trazado_127984" data-name="Trazado 127984" d="M80.063,12.982h44.842a.823.823,0,0,1,.822.822v9.434a.992.992,0,1,0,1.984,0V13.8A2.81,2.81,0,0,0,124.905,11H103.668V9.047a2.492,2.492,0,0,0-2.489-2.489H95.144a2.492,2.492,0,0,0-2.489,2.489V11H80.063a.992.992,0,1,0,0,1.984ZM94.639,9.047a.505.505,0,0,1,.5-.5h6.035a.506.506,0,0,1,.5.5V11H94.639V9.047Z" transform="translate(-68.61 -6.558)"/>
        <path id="Trazado_127985" data-name="Trazado 127985" d="M98.394,267.576a.992.992,0,0,0-.992.992v8.768a.992.992,0,0,0,.992.992h4.025a.992.992,0,0,0,.992-.992v-8.768a.992.992,0,0,0-.992-.992Zm3.033,8.768H99.386v-6.783h2.041Z" transform="translate(-84.516 -233.044)"/>
        <path id="Trazado_127986" data-name="Trazado 127986" d="M167.229,229.248a.992.992,0,0,0-.992.992v13.838a.992.992,0,0,0,.992.992h4.025a.992.992,0,0,0,.992-.992V230.24a.992.992,0,0,0-.992-.992Zm3.033,13.838h-2.041V231.232h2.041Z" transform="translate(-144.244 -199.787)"/>
        <path id="Trazado_127987" data-name="Trazado 127987" d="M236.065,267.576a.992.992,0,0,0-.992.992v8.768a.992.992,0,0,0,.992.992h4.025a.992.992,0,0,0,.992-.992v-8.768a.992.992,0,0,0-.992-.992Zm3.033,8.768h-2.041v-6.783H239.1Z" transform="translate(-203.974 -233.044)"/>
        <path id="Trazado_127988" data-name="Trazado 127988" d="M304.9,311.832a.992.992,0,0,0-.992.992v2.913a.992.992,0,0,0,.992.992h4.025a.992.992,0,0,0,0-1.984h-3.033v-1.921A.992.992,0,0,0,304.9,311.832Z" transform="translate(-263.703 -271.445)"/>
        <path id="Trazado_127989" data-name="Trazado 127989" d="M323.665,176.165l-5.692-9.86a12.975,12.975,0,1,0-12.83,3.661,13.039,13.039,0,0,0,3.378.447,12.806,12.806,0,0,0,2.921-.337l5.691,9.86a3.772,3.772,0,1,0,6.533-3.772Zm-18.009-8.115a10.984,10.984,0,1,1,8.335-1.1A10.913,10.913,0,0,1,305.656,168.05ZM321.292,179.6a1.789,1.789,0,0,1-2.442-.654l-5.475-9.486a13.023,13.023,0,0,0,3.094-1.788l5.477,9.487a1.786,1.786,0,0,1-.654,2.442Z" transform="translate(-256.435 -126.228)"/>
        <path id="Trazado_127990" data-name="Trazado 127990" d="M340.721,183.462a9.39,9.39,0,0,0-.47-6.8.992.992,0,1,0-1.8.846,7.432,7.432,0,1,1-2.24-2.769.992.992,0,1,0,1.2-1.582,9.422,9.422,0,1,0,3.308,10.307Z" transform="translate(-279.661 -149.455)"/>
      </g>
    </g>
  </g>
</svg>
