<svg xmlns="http://www.w3.org/2000/svg" width="101" height="102" viewBox="0 0 101 102">
  <g id="Grupo_1103836" data-name="Grupo 1103836" transform="translate(-749.5 -6467.358)">
    <ellipse id="Elipse_1147" data-name="Elipse 1147" cx="50.5" cy="51" rx="50.5" ry="51" transform="translate(749.5 6467.358)" fill="#be79ca"/>
    <g id="Send_package" data-name="Send package" transform="translate(763.69 6483.358)">
      <path id="Trazado_127991" data-name="Trazado 127991" d="M40.828,44.148a2.183,2.183,0,0,0-1.1.009L22.26,48.838a3.278,3.278,0,0,0-2.3,2.262L8.248,44.339a3.294,3.294,0,1,0-3.292,5.706L24.407,61.273a2.195,2.195,0,0,0,1.1.294H44.15a2.195,2.195,0,0,0,.981-.231l3.926-1.963V46.2Z" transform="translate(0.098 4.078)" fill="#ffbcab"/>
      <path id="Trazado_127992" data-name="Trazado 127992" d="M5,11.779H20.362L22.557,3H9.389Z" transform="translate(0.262 0.097)" fill="#c09a23"/>
      <path id="Trazado_127993" data-name="Trazado 127993" d="M42.557,11.779,38.168,3H25l2.195,8.779Z" transform="translate(2.209 0.097)" fill="#c09a23"/>
      <path id="Trazado_127994" data-name="Trazado 127994" d="M53.779,43H45V62.752h8.779V43Z" transform="translate(4.155 3.99)" fill="#4da1e3"/>
      <path id="Trazado_127995" data-name="Trazado 127995" d="M53,45h8.779V60.362H53Z" transform="translate(4.934 4.185)" fill="#75baf1"/>
      <path id="Trazado_127996" data-name="Trazado 127996" d="M5,11H44.5V41.725H5Z" transform="translate(0.262 0.876)" fill="#f9ce24"/>
      <path id="Trazado_127997" data-name="Trazado 127997" d="M23.389,21.973l4.389,2.195V11H19V24.168Z" transform="translate(1.625 0.876)" fill="#6e3dc6"/>
      <path id="Trazado_127998" data-name="Trazado 127998" d="M27.779,11.779,25.584,3H21.195L19,11.779Z" transform="translate(1.625 0.097)" fill="#6e3dc6"/>
      <path id="Trazado_127999" data-name="Trazado 127999" d="M42.309,11V30.752a6.584,6.584,0,0,1-6.584,6.584H5v4.389H44.5V11Z" transform="translate(0.262 0.876)" fill="#c09a23"/>
      <path id="Trazado_128000" data-name="Trazado 128000" d="M53,45h3.292V60.362H53Z" transform="translate(4.934 4.185)" fill="#4da1e3"/>
      <g id="Grupo_88493" data-name="Grupo 88493" transform="translate(2.305 2)">
        <path id="Trazado_128001" data-name="Trazado 128001" d="M66.712,44.195H59.031V43.1a1.1,1.1,0,0,0-1.1-1.1H49.155a1.1,1.1,0,0,0-1.1,1.1v1.886l-6.865-1.716a3.305,3.305,0,0,0-1.646.014L22.073,47.963a4.35,4.35,0,0,0-2.479,1.788l-10.7-6.178A4.392,4.392,0,0,0,4.5,51.18L23.955,62.41a3.292,3.292,0,0,0,1.646.439H44.248a3.307,3.307,0,0,0,1.472-.347l2.338-1.17v1.516a1.1,1.1,0,0,0,1.1,1.1h8.779a1.1,1.1,0,0,0,1.1-1.1v-1.1h7.681a1.1,1.1,0,0,0,1.1-1.1V45.292a1.1,1.1,0,0,0-1.1-1.1ZM44.738,60.545a1.115,1.115,0,0,1-.491.11H25.6a1.1,1.1,0,0,1-.549-.147L5.6,49.281a2.2,2.2,0,0,1-.794-3,2.232,2.232,0,0,1,2.987-.8l11.054,6.382a4.37,4.37,0,0,0,5.494,4.586l13.086-3.506a1.1,1.1,0,1,0-.567-2.12L23.777,54.331a2.194,2.194,0,1,1-1.136-4.239L40.113,45.4a1.1,1.1,0,0,1,.549,0l7.4,1.845V58.878Zm12.1,1.207H50.252V44.195h6.584Zm8.779-2.195H59.031V46.389h6.584Z" transform="translate(-2.305 1.893)" fill="#231f20"/>
        <path id="Trazado_128002" data-name="Trazado 128002" d="M45.588,11.385,41.2,2.607A1.1,1.1,0,0,0,40.212,2H9.487a1.1,1.1,0,0,0-.982.607L4.115,11.385a1.953,1.953,0,0,0-.115.49V42.6a1.1,1.1,0,0,0,1.1,1.1H44.6a1.1,1.1,0,0,0,1.1-1.1V11.876a1.954,1.954,0,0,0-.11-.491Zm-2.763-.607H30.094L28.448,4.195H39.531ZM21.557,12.973h6.584v10.3l-2.8-1.4a1.1,1.1,0,0,0-.981,0l-2.8,1.4Zm4.63-8.779,1.646,6.584H21.865l1.646-6.584Zm-16.022,0H21.248L19.6,10.779H6.873ZM43.5,41.5H6.195V12.973H19.362V25.044a1.1,1.1,0,0,0,1.588.982l3.9-1.95,3.9,1.955a1.1,1.1,0,0,0,1.588-.988V12.973H43.5Z" transform="translate(-2.14 -2)" fill="#231f20"/>
      </g>
    </g>
  </g>
</svg>
