<svg id="pista-4" xmlns="http://www.w3.org/2000/svg" width="83.958" height="83.958" viewBox="0 0 83.958 83.958">
  <g id="Layer_2">
    <g id="Grupo_1102035" data-name="Grupo 1102035">
      <g id="Grupo_1102033" data-name="Grupo 1102033">
        <g id="Grupo_1102031" data-name="Grupo 1102031" transform="translate(1.049 1.049)">
          <circle id="Elipse_11895" data-name="Elipse 11895" cx="40.91" cy="40.91" r="40.91" transform="translate(0 0)" fill="#fff"/>
        </g>
        <g id="Grupo_1102032" data-name="Grupo 1102032">
          <path id="Trazado_877375" data-name="Trazado 877375" d="M41.979,2.624A39.356,39.356,0,1,1,2.624,41.979,39.4,39.4,0,0,1,41.979,2.624m0-2.624A41.979,41.979,0,1,0,83.959,41.979,41.979,41.979,0,0,0,41.979,0Z"/>
        </g>
      </g>
      <g id="Grupo_1102034" data-name="Grupo 1102034" transform="translate(5.822 5.822)">
        <circle id="Elipse_11896" data-name="Elipse 11896" cx="36.157" cy="36.157" r="36.157" fill="#fc0"/>
      </g>
    </g>
  </g>
  <g id="Number-Icons_copy_6" transform="translate(31.019 22.58)">
    <g id="Grupo_1102038" data-name="Grupo 1102038">
      <g id="Grupo_1102037" data-name="Grupo 1102037">
        <g id="Grupo_1102036" data-name="Grupo 1102036">
          <path id="Trazado_877376" data-name="Trazado 877376" d="M23.645,45.97,34.957,17.212h7.018V44.447h3.591v4.611H41.976V56.01H36.5V49.059H23.645ZM36.5,44.449V38.725l.546-14.63h-.681L29.641,44.449Z" transform="translate(-23.645 -17.212)" fill="#231f20"/>
        </g>
      </g>
    </g>
  </g>
</svg>
