<svg xmlns="http://www.w3.org/2000/svg" width="101" height="102" viewBox="0 0 101 102">
  <g id="Grupo_1103837" data-name="Grupo 1103837" transform="translate(-749.5 -6630.358)">
    <ellipse id="Elipse_1145" data-name="Elipse 1145" cx="50.5" cy="51" rx="50.5" ry="51" transform="translate(749.5 6630.358)" fill="#be79ca"/>
    <g id="beneficio" transform="translate(766.5 6647.358)">
      <g id="Grupo_88504" data-name="Grupo 88504" transform="translate(2.081 2.081)">
        <g id="Grupo_88494" data-name="Grupo 88494" transform="translate(19.452 0)">
          <path id="Trazado_128003" data-name="Trazado 128003" d="M64.188,3.2a4.066,4.066,0,0,0-2.9-1.2H24.1A4.1,4.1,0,0,0,20,6.1c0,.151.011.3.022.454l1.545,13.843c.195-.011.389-.022.594-.022h4.323a8.66,8.66,0,0,1-1.891,5.4h8.375l4.744,5.684a2.206,2.206,0,0,0,3.9-1.4V25.774l18.868-.108h.011a4.089,4.089,0,0,0,3.134-3.534L65.365,6.55c.011-.151.022-.3.022-.454a4.066,4.066,0,0,0-1.2-2.9Z" transform="translate(-20 -2)" fill="#daf2e4"/>
        </g>
        <g id="Grupo_88495" data-name="Grupo 88495" transform="translate(45.387 19.452)">
          <path id="Trazado_128004" data-name="Trazado 128004" d="M63.452,30.6v.076A2.292,2.292,0,0,1,59.54,32.3l-3.653-3.653V65.387H51.565V28.645L47.912,32.3A2.292,2.292,0,0,1,44,30.677V30.6a2.275,2.275,0,0,1,.584-1.524l4.225-4.744,3.123-3.523a2.39,2.39,0,0,1,3.588,0l3.026,3.4,4.323,4.863a2.275,2.275,0,0,1,.584,1.524Z" transform="translate(-44 -20)" fill="#6e3dc6"/>
        </g>
        <g id="Grupo_88496" data-name="Grupo 88496" transform="translate(29.177 34.581)">
          <path id="Trazado_128005" data-name="Trazado 128005" d="M48.452,44.6v.076A2.292,2.292,0,0,1,44.54,46.3l-3.653-3.653V64.258H36.565V42.645L32.912,46.3A2.292,2.292,0,0,1,29,44.677V44.6a2.275,2.275,0,0,1,.584-1.524l7.348-8.267a2.39,2.39,0,0,1,3.588,0l7.348,8.267A2.275,2.275,0,0,1,48.452,44.6Z" transform="translate(-29 -34)" fill="#6e3dc6"/>
        </g>
        <g id="Grupo_88497" data-name="Grupo 88497" transform="translate(0 58.355)">
          <path id="Trazado_128006" data-name="Trazado 128006" d="M14.968,56H25.774a2.168,2.168,0,0,1,2.161,2.161v2.161a2.168,2.168,0,0,1-2.161,2.161H4.161A2.168,2.168,0,0,1,2,60.323V58.161A2.168,2.168,0,0,1,4.161,56H14.968Z" transform="translate(-2 -56)" fill="#c09a23"/>
        </g>
        <g id="Grupo_88498" data-name="Grupo 88498" transform="translate(0 45.387)">
          <path id="Trazado_128007" data-name="Trazado 128007" d="M14.968,44H25.774a2.168,2.168,0,0,1,2.161,2.161v2.161a2.168,2.168,0,0,1-2.161,2.161H4.161A2.168,2.168,0,0,1,2,48.323V46.161A2.168,2.168,0,0,1,4.161,44H14.968Z" transform="translate(-2 -44)" fill="#c09a23"/>
        </g>
        <g id="Grupo_88499" data-name="Grupo 88499" transform="translate(0 51.871)">
          <path id="Trazado_128008" data-name="Trazado 128008" d="M14.968,50H25.774a2.168,2.168,0,0,1,2.161,2.161v2.161a2.168,2.168,0,0,1-2.161,2.161H4.161A2.168,2.168,0,0,1,2,54.323V52.161A2.168,2.168,0,0,1,4.161,50H14.968Z" transform="translate(-2 -50)" fill="#f9ce24"/>
        </g>
        <g id="Grupo_88500" data-name="Grupo 88500" transform="translate(0 38.903)">
          <path id="Trazado_128009" data-name="Trazado 128009" d="M14.968,38H25.774a2.168,2.168,0,0,1,2.161,2.161v2.161a2.168,2.168,0,0,1-2.161,2.161H4.161A2.168,2.168,0,0,1,2,42.323V40.161A2.168,2.168,0,0,1,4.161,38H14.968Z" transform="translate(-2 -38)" fill="#f9ce24"/>
        </g>
        <g id="Grupo_88501" data-name="Grupo 88501" transform="translate(0 25.935)">
          <path id="Trazado_128010" data-name="Trazado 128010" d="M14.968,34.645H10.645A8.643,8.643,0,0,1,2,26H6.323A8.643,8.643,0,0,1,14.968,34.645Z" transform="translate(-2 -26)" fill="#77af8f"/>
        </g>
        <g id="Grupo_88502" data-name="Grupo 88502" transform="translate(12.968 18.371)">
          <path id="Trazado_128011" data-name="Trazado 128011" d="M22.645,19h4.323a8.66,8.66,0,0,1-1.891,5.4c-.205.249-.411.486-.638.713a8.661,8.661,0,0,1-6.116,2.529H14a8.63,8.63,0,0,1,8.051-8.624C22.245,19.011,22.44,19,22.645,19Z" transform="translate(-14 -19)" fill="#77af8f"/>
        </g>
        <g id="Grupo_88503" data-name="Grupo 88503" transform="translate(0 7.565)">
          <path id="Trazado_128012" data-name="Trazado 128012" d="M14.968,17.645H10.645A8.643,8.643,0,0,1,2,9H6.323A8.643,8.643,0,0,1,14.968,17.645Z" transform="translate(-2 -9)" fill="#77af8f"/>
        </g>
      </g>
      <g id="Grupo_88505" data-name="Grupo 88505" transform="translate(1 1)">
        <path id="Trazado_128013" data-name="Trazado 128013" d="M62.242,34.593a3.351,3.351,0,0,0,2.385.988,3.43,3.43,0,0,0,2.521-5.692L63.824,26.15a5.178,5.178,0,0,0,2.412-3.818L67.969,6.747A5.3,5.3,0,0,0,68,6.176,5.182,5.182,0,0,0,62.824,1h-37.2a5.182,5.182,0,0,0-5.176,5.176,5.334,5.334,0,0,0,.031.572l1.422,12.795A9.728,9.728,0,0,0,16.129,23V18.29A9.738,9.738,0,0,0,6.4,8.565H1V9.645a9.738,9.738,0,0,0,9.726,9.726h3.242V30.562A9.707,9.707,0,0,0,6.4,26.935H1v1.081a9.738,9.738,0,0,0,9.726,9.726h3.242V39.9H4.242A3.246,3.246,0,0,0,1,43.145v2.161a3.221,3.221,0,0,0,.843,2.161A3.221,3.221,0,0,0,1,49.629V51.79a3.221,3.221,0,0,0,.843,2.161A3.221,3.221,0,0,0,1,56.113v2.161a3.221,3.221,0,0,0,.843,2.161A3.221,3.221,0,0,0,1,62.6v2.161A3.246,3.246,0,0,0,4.242,68H68V65.839H60.435V32.786ZM10.726,17.21a7.576,7.576,0,0,1-7.488-6.484H6.4a7.576,7.576,0,0,1,7.488,6.484Zm0,18.371A7.576,7.576,0,0,1,3.238,29.1H6.4a7.576,7.576,0,0,1,7.488,6.484Zm14.9-32.419h37.2a3.018,3.018,0,0,1,3.015,3.015,3.077,3.077,0,0,1-.018.333L64.088,22.092a3.015,3.015,0,0,1-1.738,2.4L59.8,21.622a3.488,3.488,0,0,0-5.213,0l-2.8,3.152h-9.72v5.357a1.128,1.128,0,0,1-1.994.722l-5.065-6.079H28.07A9.654,9.654,0,0,0,29.1,20.452V19.371H24.06L22.631,6.511a3.148,3.148,0,0,1-.018-.335,3.018,3.018,0,0,1,3.015-3.015ZM23.694,21.532h3.165a7.576,7.576,0,0,1-7.488,6.484H16.206A7.576,7.576,0,0,1,23.694,21.532Zm-7.565,16.21V30.177h3.242A9.7,9.7,0,0,0,26.6,26.935h7.395l4.417,5.3a3.289,3.289,0,0,0,5.815-2.105v-3.2h5.638l-2.625,2.953a3.426,3.426,0,0,0-.852,2.319,3.373,3.373,0,0,0,5.758,2.385l1.807-1.807V65.839H44.226V47.915l1.807,1.807a3.351,3.351,0,0,0,2.385.988,3.43,3.43,0,0,0,2.521-5.692L43.59,36.752a3.487,3.487,0,0,0-5.213,0l-7.348,8.267a3.427,3.427,0,0,0-.852,2.319,3.373,3.373,0,0,0,5.758,2.385l1.807-1.807V65.839H28.9a3.206,3.206,0,0,0,.2-1.081V62.6a3.221,3.221,0,0,0-.843-2.161,3.216,3.216,0,0,0,.843-2.161V56.113a3.221,3.221,0,0,0-.843-2.161A3.216,3.216,0,0,0,29.1,51.79V49.629a3.221,3.221,0,0,0-.843-2.161,3.216,3.216,0,0,0,.843-2.161V43.145A3.246,3.246,0,0,0,25.855,39.9H16.129Zm25.935,28.1H39.9V42.7l-5.5,5.5a1.207,1.207,0,0,1-.857.354,1.232,1.232,0,0,1-1.211-1.289,1.213,1.213,0,0,1,.306-.805l7.348-8.266a1.37,1.37,0,0,1,1.982,0l7.348,8.266a1.272,1.272,0,0,1,.306.883,1.212,1.212,0,0,1-2.068.857l-5.5-5.5ZM4.242,59.355a1.082,1.082,0,0,1-1.081-1.081V56.113a1.082,1.082,0,0,1,1.081-1.081H5.323v2.161H7.484V55.032H9.645v2.161h2.161V55.032h2.161v2.161h2.161V55.032H18.29v2.161h2.161V55.032h2.161v2.161h2.161V55.032h1.081a1.082,1.082,0,0,1,1.081,1.081v2.161a1.082,1.082,0,0,1-1.081,1.081ZM3.161,51.79V49.629a1.082,1.082,0,0,1,1.081-1.081H5.323V50.71H7.484V48.548H9.645V50.71h2.161V48.548h2.161V50.71h2.161V48.548H18.29V50.71h2.161V48.548h2.161V50.71h2.161V48.548h1.081a1.082,1.082,0,0,1,1.081,1.081V51.79a1.082,1.082,0,0,1-1.081,1.081H4.242A1.082,1.082,0,0,1,3.161,51.79Zm0-8.645a1.082,1.082,0,0,1,1.081-1.081H5.323v2.161H7.484V42.065H9.645v2.161h2.161V42.065h2.161v2.161h2.161V42.065H18.29v2.161h2.161V42.065h2.161v2.161h2.161V42.065h1.081a1.082,1.082,0,0,1,1.081,1.081v2.161a1.082,1.082,0,0,1-1.081,1.081H4.242a1.082,1.082,0,0,1-1.081-1.081ZM23.694,65.839H4.242a1.082,1.082,0,0,1-1.081-1.081V62.6a1.082,1.082,0,0,1,1.081-1.081H5.323v2.161H7.484V61.516H9.645v2.161h2.161V61.516h2.161v2.161h2.161V61.516H18.29v2.161h2.161V61.516h2.161v2.161h2.161V61.516h1.081A1.082,1.082,0,0,1,26.935,62.6v2.161a1.082,1.082,0,0,1-1.081,1.081Zm32.419,0V27.569l-5.5,5.5a1.207,1.207,0,0,1-.857.354,1.232,1.232,0,0,1-1.211-1.289,1.213,1.213,0,0,1,.306-.805L56.2,23.059a1.37,1.37,0,0,1,1.982,0l7.348,8.266a1.272,1.272,0,0,1,.306.883,1.212,1.212,0,0,1-2.068.857l-5.5-5.5v38.27Z" transform="translate(-1 -1)"/>
        <path id="Trazado_128014" data-name="Trazado 128014" d="M34.4,15.806H32.242a1.082,1.082,0,0,1-1.081-1.081H29a3.246,3.246,0,0,0,3.242,3.242v2.161H34.4V17.968a3.242,3.242,0,0,0,0-6.484H32.242a1.081,1.081,0,1,1,0-2.161H34.4A1.082,1.082,0,0,1,35.484,10.4h2.161A3.246,3.246,0,0,0,34.4,7.161V5H32.242V7.161a3.242,3.242,0,0,0,0,6.484H34.4a1.081,1.081,0,1,1,0,2.161Z" transform="translate(1.258 -0.677)"/>
        <path id="Trazado_128015" data-name="Trazado 128015" d="M41,5H58.29V7.161H41Z" transform="translate(2.226 -0.677)"/>
        <path id="Trazado_128016" data-name="Trazado 128016" d="M55,9h2.161v2.161H55Z" transform="translate(3.355 -0.355)"/>
        <path id="Trazado_128017" data-name="Trazado 128017" d="M41,9H53.968v2.161H41Z" transform="translate(2.226 -0.355)"/>
        <path id="Trazado_128018" data-name="Trazado 128018" d="M41,13H58.29v2.161H41Z" transform="translate(2.226 -0.032)"/>
      </g>
    </g>
  </g>
</svg>
