<svg xmlns="http://www.w3.org/2000/svg" width="163" height="163" viewBox="0 0 163 163">
  <g id="Grupo_1103835" data-name="Grupo 1103835" transform="translate(-246.667 -1053)">
    <circle id="Elipse_11527" data-name="Elipse 11527" cx="81.5" cy="81.5" r="81.5" transform="translate(246.667 1053)" fill="#f9ce24"/>
    <g id="Grupo_1100830" data-name="Grupo 1100830" transform="translate(285 1093)">
      <path id="Trazado_876514" data-name="Trazado 876514" d="M159.134,51.521A22.571,22.571,0,1,1,181.705,28.95a22.6,22.6,0,0,1-22.571,22.571m0-41.67a19.1,19.1,0,1,0,19.1,19.1,19.121,19.121,0,0,0-19.1-19.1" transform="translate(-98.366 -6.379)" fill="#371f63"/>
      <path id="Trazado_876515" data-name="Trazado 876515" d="M182.487,73.4a1.748,1.748,0,0,1-1.229-.507l-6.945-6.945a1.736,1.736,0,1,1,2.455-2.455l5.633,5.632,10.931-12.493a1.736,1.736,0,1,1,2.611,2.288L183.79,72.81a1.725,1.725,0,0,1-1.243.59Z" transform="translate(-125.191 -42.148)" fill="#371f63"/>
      <path id="Trazado_876516" data-name="Trazado 876516" d="M103.483,119.065H58.341a1.736,1.736,0,0,1-1.7-1.4L49.695,82.945a1.733,1.733,0,0,1,1.7-2.077h13.89a1.736,1.736,0,1,1,0,3.473H53.515l6.251,31.252H102.06l.962-4.809a1.757,1.757,0,0,1,2.042-1.362,1.736,1.736,0,0,1,1.365,2.042l-1.24,6.2a1.743,1.743,0,0,1-1.705,1.4" transform="translate(-35.77 -60.033)" fill="#371f63"/>
      <path id="Trazado_876517" data-name="Trazado 876517" d="M22.568,83.278a1.735,1.735,0,0,1-1.7-1.4L12.261,38.844a5.222,5.222,0,0,0-5.108-4.188h0l-5.41.007h0a1.736,1.736,0,0,1,0-3.472l5.41-.007h.01a8.706,8.706,0,0,1,8.515,6.98l8.6,43.038a1.731,1.731,0,0,1-1.365,2.042A1.6,1.6,0,0,1,22.568,83.278Z" transform="translate(0 -24.246)" fill="#371f63"/>
      <path id="Trazado_876518" data-name="Trazado 876518" d="M101.486,215.435H42.454a5.209,5.209,0,0,1,0-10.418H49.4a1.736,1.736,0,0,1,0,3.473H42.454a1.736,1.736,0,0,0,0,3.473h59.032a1.736,1.736,0,0,1,0,3.473" transform="translate(-26.827 -149.457)" fill="#371f63"/>
      <path id="Trazado_876519" data-name="Trazado 876519" d="M81.434,268.567a6.945,6.945,0,1,1,6.945-6.945,6.952,6.952,0,0,1-6.945,6.945m0-10.418a3.473,3.473,0,1,0,3.473,3.473,3.476,3.476,0,0,0-3.473-3.473" transform="translate(-53.654 -185.228)" fill="#371f63"/>
      <path id="Trazado_876520" data-name="Trazado 876520" d="M193.168,268.567a6.945,6.945,0,1,1,6.945-6.945,6.952,6.952,0,0,1-6.945,6.945m0-10.418a3.473,3.473,0,1,0,3.473,3.473,3.476,3.476,0,0,0-3.473-3.473" transform="translate(-134.136 -185.228)" fill="#371f63"/>
    </g>
  </g>
</svg>
