<svg xmlns="http://www.w3.org/2000/svg" width="101" height="102" viewBox="0 0 101 102">
  <g id="Grupo_1103838" data-name="Grupo 1103838" transform="translate(-749.5 -6792.358)">
    <ellipse id="Elipse_1150" data-name="Elipse 1150" cx="50.5" cy="51" rx="50.5" ry="51" transform="translate(749.5 6792.358)" fill="#be79ca"/>
    <g id="innovacion" transform="translate(764.737 6805.358)">
      <path id="Trazado_128019" data-name="Trazado 128019" d="M58.5,13.383a1.167,1.167,0,0,1-1.167-.828,11.305,11.305,0,0,0-.758-1.82A1.167,1.167,0,0,1,56.8,9.323a1.167,1.167,0,0,0,0-1.68L55,5.87a1.167,1.167,0,0,0-1.68,0,1.225,1.225,0,0,1-.863.362,1.167,1.167,0,0,1-.548-.14,11.3,11.3,0,0,0-1.8-.758,1.167,1.167,0,0,1-.828-1.167A1.167,1.167,0,0,0,48.117,3H45.573a1.167,1.167,0,0,0-1.167,1.167,1.167,1.167,0,0,1-.828,1.167,11.3,11.3,0,0,0-1.82.758,1.167,1.167,0,0,1-.548.14,1.225,1.225,0,0,1-.863-.362,1.167,1.167,0,0,0-1.68,0l-1.8,1.8a1.167,1.167,0,0,0,0,1.68,1.167,1.167,0,0,1,.222,1.412,11.3,11.3,0,0,0-.758,1.8,1.167,1.167,0,0,1-1.167.828A1.167,1.167,0,0,0,34,14.55v2.52a1.167,1.167,0,0,0,1.167,1.167,1.167,1.167,0,0,1,1.167.805,11.118,11.118,0,0,0,.758,1.843,1.167,1.167,0,0,1,.14.548,1.225,1.225,0,0,1-.362.863,1.167,1.167,0,0,0,0,1.68l1.8,1.82a1.167,1.167,0,0,0,1.68,0,1.167,1.167,0,0,1,1.412-.222,11.3,11.3,0,0,0,1.82.758,1.167,1.167,0,0,1,.828,1.167,1.167,1.167,0,0,0,1.167,1.167h2.52A1.167,1.167,0,0,0,49.26,27.5a1.167,1.167,0,0,1,.828-1.167,11.305,11.305,0,0,0,1.82-.758,1.167,1.167,0,0,1,1.412.222,1.167,1.167,0,0,0,1.68,0L56.8,24a1.167,1.167,0,0,0,0-1.68,1.225,1.225,0,0,1-.362-.863,1.167,1.167,0,0,1,.14-.548,11.119,11.119,0,0,0,.758-1.82,1.167,1.167,0,0,1,1.167-.805,1.167,1.167,0,0,0,1.167-1.167V14.573a1.167,1.167,0,0,0-1.167-1.19Z" transform="translate(4.462 0.167)" fill="#75baf1"/>
      <circle id="Elipse_4344" data-name="Elipse 4344" cx="7" cy="7" r="7" transform="translate(44.295 9)" fill="#daf2e4"/>
      <path id="Trazado_128020" data-name="Trazado 128020" d="M44.857,40.682A30.94,30.94,0,0,0,38.371,56H19.541a30.94,30.94,0,0,0-6.487-15.318A20.358,20.358,0,0,1,8.387,25.34,20.72,20.72,0,0,1,26.622,7.128a21.922,21.922,0,0,1,4.737,0A20.72,20.72,0,0,1,49.582,25.34,20.358,20.358,0,0,1,44.857,40.682Z" transform="translate(0.173 0.833)" fill="#f9ce24"/>
      <path id="Trazado_128021" data-name="Trazado 128021" d="M18,53.667H36.667V49H18Z" transform="translate(1.795 7.833)" fill="#414d5c"/>
      <g id="Grupo_88506" data-name="Grupo 88506" transform="translate(17.462 25.333)">
        <path id="Trazado_128022" data-name="Trazado 128022" d="M16,31h4.667v4.667H16Z" transform="translate(-16 -20.5)" fill="#c09a23"/>
        <path id="Trazado_128023" data-name="Trazado 128023" d="M0,0H4.667V4.667H0Z" transform="translate(8.167 4.667) rotate(180)" fill="#c09a23"/>
        <path id="Trazado_128024" data-name="Trazado 128024" d="M32,28h4.667v4.667H32Z" transform="translate(-13.333 -21)" fill="#c09a23"/>
      </g>
      <path id="Trazado_128025" data-name="Trazado 128025" d="M22.375,8.843,21.792,6.58A21.84,21.84,0,0,0,18.35,7.747l.945,2.135a18.492,18.492,0,0,1,3.08-1.038Z" transform="translate(1.853 0.763)"/>
      <path id="Trazado_128026" data-name="Trazado 128026" d="M10.43,19.612,8.237,18.9a20.452,20.452,0,0,0-.817,3.617l2.333.327a18.667,18.667,0,0,1,.677-3.232Z" transform="translate(0.032 2.817)"/>
      <path id="Trazado_128027" data-name="Trazado 128027" d="M17.293,11.058,16.01,9.11a21.478,21.478,0,0,0-2.87,2.263l1.587,1.7a19.542,19.542,0,0,1,2.567-2.018Z" transform="translate(0.985 1.185)"/>
      <path id="Trazado_128028" data-name="Trazado 128028" d="M13.167,14.782l-1.89-1.412A22.271,22.271,0,0,0,9.34,16.438l2.065,1.085a20.032,20.032,0,0,1,1.762-2.742Z" transform="translate(0.352 1.895)"/>
      <path id="Trazado_128029" data-name="Trazado 128029" d="M16.74,40.52l-2.1,1.015q.729,1.489,1.307,3.045l2.193-.805a34.766,34.766,0,0,0-1.4-3.255Z" transform="translate(1.235 6.42)"/>
      <path id="Trazado_128030" data-name="Trazado 128030" d="M8.45,31.332a21.887,21.887,0,0,0,1.61,3.255l1.995-1.167a19.507,19.507,0,0,1-1.423-2.94Z" transform="translate(0.203 4.747)"/>
      <path id="Trazado_128031" data-name="Trazado 128031" d="M13.448,35.29,11.64,36.76a26.075,26.075,0,0,1,1.9,2.707L15.525,38.3a29.05,29.05,0,0,0-2.077-3.01Z" transform="translate(0.735 5.548)"/>
      <path id="Trazado_128032" data-name="Trazado 128032" d="M9.563,25l-2.333.07A22.167,22.167,0,0,0,7.638,28.7l2.333-.455A20,20,0,0,1,9.563,25Z" transform="translate(0 3.833)"/>
      <path id="Trazado_128033" data-name="Trazado 128033" d="M19,56H35.333v2.333H19Z" transform="translate(1.962 9)"/>
      <path id="Trazado_128034" data-name="Trazado 128034" d="M21,60H32.667v2.333H21Z" transform="translate(2.295 9.667)"/>
      <path id="Trazado_128035" data-name="Trazado 128035" d="M61.667,12.372a16.334,16.334,0,0,0-.817-2.053,2.333,2.333,0,0,0,0-3.337L59.018,5.208a2.508,2.508,0,0,0-1.692-.688,2.473,2.473,0,0,0-1.692.7,16.146,16.146,0,0,0-2.018-.887A2.333,2.333,0,0,0,51.283,2H48.74a2.333,2.333,0,0,0-2.333,2.333,16.531,16.531,0,0,0-2.088.828,2.427,2.427,0,0,0-3.337,0l-1.773,1.82a2.4,2.4,0,0,0-.688,1.692,2.333,2.333,0,0,0,.163.852A21.56,21.56,0,0,0,30.33,6.807a22.388,22.388,0,0,0-2.5-.14,13.837,13.837,0,0,0-1.843.082l.187,2.333A11.18,11.18,0,0,1,27.833,9a20.592,20.592,0,0,1,2.24.128A19.472,19.472,0,0,1,47.293,26.29a19.087,19.087,0,0,1-4.457,14.467,32.492,32.492,0,0,0-6.6,14.91H32.5V35.833h1.167V37a1.167,1.167,0,0,0,1.167,1.167H39.5A1.167,1.167,0,0,0,40.667,37V32.333A1.167,1.167,0,0,0,39.5,31.167H34.833a1.167,1.167,0,0,0-1.167,1.167V33.5H31.333a1.167,1.167,0,0,0-1.167,1.167v21H29v-28A1.167,1.167,0,0,0,27.833,26.5H25.5V25.333a1.167,1.167,0,0,0-1.167-1.167H19.667A1.167,1.167,0,0,0,18.5,25.333V30a1.167,1.167,0,0,0,1.167,1.167h4.667A1.167,1.167,0,0,0,25.5,30V28.833h1.167V55.667H25.5v-17.5A1.167,1.167,0,0,0,24.333,37H22V35.833a1.167,1.167,0,0,0-1.167-1.167H16.167A1.167,1.167,0,0,0,15,35.833V40.5a1.167,1.167,0,0,0,1.167,1.167h4.667A1.167,1.167,0,0,0,22,40.5V39.333h1.167V55.667H19.492v-.175l-1.167.175,1.167-.175c-.093-.595-.2-1.167-.35-1.808l-2.333.525c.128.56.233,1.1.315,1.633A14.5,14.5,0,0,1,17.333,58v3.5A1.167,1.167,0,0,0,18.5,62.667H37.167A1.167,1.167,0,0,0,38.333,61.5V58a29.517,29.517,0,0,1,6.288-15.773A21.35,21.35,0,0,0,49.65,30h1.61a2.333,2.333,0,0,0,2.333-2.392,16.333,16.333,0,0,0,2.053-.817,2.427,2.427,0,0,0,3.337,0l1.773-1.773a2.4,2.4,0,0,0,.688-1.692,2.473,2.473,0,0,0-.7-1.692,16.147,16.147,0,0,0,.922-2.018A2.333,2.333,0,0,0,64,17.283V14.74a2.333,2.333,0,0,0-2.333-2.368ZM36,33.5h2.333v2.333H36ZM23.167,28.833H20.833V26.5h2.333Zm-3.5,10.5H17.333V37h2.333ZM36,60.333H19.667V58H36ZM44.458,14.25A5.833,5.833,0,1,1,50,21.833a5.635,5.635,0,0,1-1.342-.175A21.77,21.77,0,0,0,44.458,14.25Zm17.208,3.033a2.333,2.333,0,0,0-2.333,1.633,9.987,9.987,0,0,1-.665,1.633,2.252,2.252,0,0,0-.28,1.1,2.532,2.532,0,0,0,.7,1.715l-1.8,1.773a2.333,2.333,0,0,0-2.777-.432,9.578,9.578,0,0,1-1.622.677,2.427,2.427,0,0,0-1.68,2.333H49.7a10.636,10.636,0,0,0-.082-1.61c-.082-.537-.175-1.307-.3-1.948a6.85,6.85,0,0,0,.688.012A8.167,8.167,0,1,0,42.685,12.5c-.432-.4-.875-.77-1.342-1.167a2.333,2.333,0,0,0,.222-.957,2.532,2.532,0,0,0-.7-1.715l1.8-1.773a2.333,2.333,0,0,0,2.777.432A9.333,9.333,0,0,1,47.1,6.667,2.427,2.427,0,0,0,48.74,4.333h2.543a2.333,2.333,0,0,0,1.645,2.333,10.839,10.839,0,0,1,1.622.677,2.473,2.473,0,0,0,2.812-.42l1.773,1.8A2.333,2.333,0,0,0,58.7,11.5a9.578,9.578,0,0,1,.63,1.563,2.427,2.427,0,0,0,2.333,1.68Z" transform="translate(1.295 0)"/>
    </g>
  </g>
</svg>
