<svg xmlns="http://www.w3.org/2000/svg" width="101" height="102" viewBox="0 0 101 102">
  <g id="Grupo_1103840" data-name="Grupo 1103840" transform="translate(-749.5 -7099.358)">
    <ellipse id="Elipse_11976" data-name="Elipse 11976" cx="50.5" cy="51" rx="50.5" ry="51" transform="translate(749.5 7099.358)" fill="#be79ca"/>
    <g id="mensaje-destacado" transform="translate(766.5 7117.358)">
      <g id="Layer_1" data-name="Layer 1" transform="translate(3.237 3.237)">
        <path id="Trazado_128062" data-name="Trazado 128062" d="M64.63,10.947V44.5a8.947,8.947,0,0,1-8.947,8.947H42.262L33.315,64.63,24.368,53.446H10.947A8.947,8.947,0,0,1,2,44.5V10.947A8.947,8.947,0,0,1,10.947,2H55.683A8.947,8.947,0,0,1,64.63,10.947Z" transform="translate(-2 -2)" fill="#f9ce24"/>
        <path id="Trazado_128063" data-name="Trazado 128063" d="M24.657,7.031,29.5,16.58l10.819,1.532-7.829,7.433L34.334,36.04l-9.676-4.954L14.981,36.04l1.848-10.495L9,18.112,19.819,16.58Z" transform="translate(6.657 4.222)" fill="#effaf4"/>
      </g>
      <g id="Layer_2" data-name="Layer 2" transform="translate(1 1)">
        <path id="Trazado_128064" data-name="Trazado 128064" d="M56.919,1H12.184A11.2,11.2,0,0,0,1,12.184V45.735A11.2,11.2,0,0,0,12.184,56.919H24.531l8.276,10.345a2.261,2.261,0,0,0,3.494,0l8.272-10.345H56.919A11.2,11.2,0,0,0,68.1,45.735V12.184A11.2,11.2,0,0,0,56.919,1Zm6.71,44.735a6.71,6.71,0,0,1-6.71,6.71H43.5a2.237,2.237,0,0,0-1.747.839l-7.2,9-7.2-9a2.237,2.237,0,0,0-1.747-.841H12.184a6.71,6.71,0,0,1-6.71-6.71V12.184a6.71,6.71,0,0,1,6.71-6.71H56.919a6.71,6.71,0,0,1,6.71,6.71Z" transform="translate(-1 -1)"/>
        <path id="Trazado_128065" data-name="Trazado 128065" d="M41.864,17.08,32.2,15.711l-4.31-8.5a2.328,2.328,0,0,0-3.99,0l-4.31,8.5L9.923,17.08A2.237,2.237,0,0,0,8.7,20.916l6.956,6.605-1.64,9.314A2.237,2.237,0,0,0,17.237,39.2l8.656-4.433L34.55,39.2a2.237,2.237,0,0,0,3.223-2.378l-1.64-9.314,6.956-6.605a2.237,2.237,0,0,0-1.226-3.825Zm-9.681,8.026a2.223,2.223,0,0,0-.671,2.013l1.067,6.068L26.9,30.28a2.237,2.237,0,0,0-2.04,0L19.19,33.187l1.067-6.068a2.223,2.223,0,0,0-.671-2.013l-4.474-4.25,6.236-.881a2.237,2.237,0,0,0,1.682-1.206l2.863-5.617,2.843,5.61a2.237,2.237,0,0,0,1.682,1.206l6.236.881Z" transform="translate(7.658 5.287)"/>
      </g>
    </g>
  </g>
</svg>
