<svg xmlns="http://www.w3.org/2000/svg" xmlns:xlink="http://www.w3.org/1999/xlink" width="295" height="251.893" viewBox="0 0 295 251.893">
  <defs>
    <linearGradient id="linear-gradient" x1="0.814" y1="0.117" x2="0.236" y2="0.921" gradientUnits="objectBoundingBox">
      <stop offset="0" stop-color="#be79ca"/>
      <stop offset="1" stop-color="#371f63"/>
    </linearGradient>
    <clipPath id="clip-path">
      <rect id="Rectángulo_401948" data-name="Rectángulo 401948" width="295" height="208.708" fill="none"/>
    </clipPath>
  </defs>
  <g id="Grupo_1102107" data-name="Grupo 1102107" transform="translate(-915 -10825.01)">
    <g id="Grupo_1099735" data-name="Grupo 1099735" transform="translate(915 10825.01)">
      <path id="Trazado_145968" data-name="Trazado 145968" d="M55.833,0a55.833,55.833,0,1,0,55.833,55.833A55.833,55.833,0,0,0,55.833,0Z" transform="translate(0 135.446)" fill="#75baf1" opacity="0.444"/>
      <path id="Trazado_145969" data-name="Trazado 145969" d="M38.151,0A38.151,38.151,0,1,0,76.3,38.151,38.151,38.151,0,0,0,38.151,0Z" transform="translate(218.698 14.567)" fill="#75baf1" opacity="0.444"/>
      <path id="Trazado_145967" data-name="Trazado 145967" d="M125.946,0A125.946,125.946,0,1,0,251.893,125.946,125.946,125.946,0,0,0,125.946,0Z" transform="translate(32.861)" fill="url(#linear-gradient)"/>
      <path id="Trazado_145971" data-name="Trazado 145971" d="M10.489,0A10.489,10.489,0,1,0,20.979,10.489,10.489,10.489,0,0,0,10.489,0Z" transform="translate(263.774 209.72)" fill="#75baf1"/>
      <path id="Elipse_4044" data-name="Elipse 4044" d="M14.225,3.845A10.381,10.381,0,1,1,3.845,14.225,10.392,10.392,0,0,1,14.225,3.845m0-3.845A14.225,14.225,0,1,0,28.451,14.225,14.225,14.225,0,0,0,14.225,0Z" transform="translate(235.323 89.841)" fill="#fff"/>
    </g>
    <g id="Grupo_1100081" data-name="Grupo 1100081" transform="translate(915 10825.01)">
      <g id="Grupo_1100080" data-name="Grupo 1100080" clip-path="url(#clip-path)">
        <path id="Trazado_875171" data-name="Trazado 875171" d="M147.5,227.411c81.462,0,147.5,3.857,147.5,8.614s-66.038,8.614-147.5,8.614S0,240.783,0,236.025s66.038-8.614,147.5-8.614" transform="translate(0 -35.932)" fill="#be79ca"/>
        <path id="Trazado_875172" data-name="Trazado 875172" d="M239.219,185.667l66.9.337a13.5,13.5,0,0,0,13.565-13.426v0l.735-144.8a13.5,13.5,0,0,0-13.427-13.565h0l-66.9-.337A13.5,13.5,0,0,0,226.527,27.3v0l-.735,144.8a13.5,13.5,0,0,0,13.427,13.564" transform="translate(-35.676 -2.193)" fill="#a99fbc"/>
        <path id="Trazado_875173" data-name="Trazado 875173" d="M323.921,182.682c-.029-3.53-1.22-147.28-1.272-153.559A17.682,17.682,0,0,0,304.944,11.7l-67.038-.035a17.292,17.292,0,0,0-17.417,17.167q0,.112,0,.225l1.272,153.559a17.682,17.682,0,0,0,17.705,17.423l67.038.035a17.292,17.292,0,0,0,17.417-17.165v-.227m-17.2-1.881-67.792-.035a10.2,10.2,0,0,1-10.212-10.049l-.637-76.868-.54-65.159a9.973,9.973,0,0,1,9.915-10.031h.131l67.791.035A10.2,10.2,0,0,1,315.59,28.743c.285,34.489,1.151,138.925,1.179,142.027a9.974,9.974,0,0,1-9.914,10.032h-.133Z" transform="translate(-34.838 -1.843)" fill="#3f2869"/>
        <path id="Trazado_875174" data-name="Trazado 875174" d="M134.28,100.506a.992.992,0,0,1-.992-.992,1,1,0,0,1,.041-.283l4.463-14.962a.991.991,0,1,1,1.9.567L135.229,99.8a.993.993,0,0,1-.949.708" transform="translate(-21.06 -13.203)" fill="#d3cedd"/>
        <rect id="Rectángulo_401944" data-name="Rectángulo 401944" width="29.837" height="39.348" transform="translate(107.312 82.913)" fill="#bbb3ca"/>
        <path id="Trazado_875175" data-name="Trazado 875175" d="M160.406,67.468l.543.486a.669.669,0,0,0,.939-.024l9.638-10.6a.656.656,0,0,0-.07-.925l0,0-.543-.486a.668.668,0,0,0-.939.024l-9.638,10.6a.655.655,0,0,0,.069.924l0,0" transform="translate(-25.308 -8.807)" fill="#3f2869"/>
        <path id="Trazado_875176" data-name="Trazado 875176" d="M121.459,59.417c1.288-1.047,11.25,3.324,11.124,4.846s6.952,16.274,6.952,16.274l12.232-9.753h.005c.108-.353,1.268-4.146,1.324-4.825.059-.711,2.126-1.958,3.086-1.774s-.821,1.388-.938,1.608c-.318.6.912.828.912.828s3.536-1.937,3.61-3.08.8-3.531,1.568-3.031c.394.258.391,1.954.268,2.759.227-.914.549-1.945.861-2.048.572-.187.856.541.752.9s-1.026,4.236-1.308,4.673-5.978,5.024-6.8,6.023c0,0-15.821,18.086-16.948,18.559-.988.415-4.512-5.817-7.842-9.955s-12.88-18.729-8.854-22" transform="translate(-19.037 -9.363)" fill="#bfb7cd"/>
        <path id="Trazado_875177" data-name="Trazado 875177" d="M81.554,216.277s-2.175,2.121-2.224,2.9-.193,9.119.7,9.9,3.494,1.33,2.656,2.206c-.633.662-5.507.52-8.737.343-.943-.052-2.125-7.578-2.5-8.68-.542-1.606-1.861-5.22-1.368-6.342a9.407,9.407,0,0,1,3.009-2.712,14.792,14.792,0,0,0,3.333-3.55Z" transform="translate(-11.056 -33.234)" fill="#afa5c1"/>
        <path id="Trazado_875178" data-name="Trazado 875178" d="M109.975,223.236s-1.946,5.5-1.948,5.51c-.145.871-.714,3.022-.714,3.813,0,2.974,13.411-2.526,10.405-3.842a3.179,3.179,0,0,1-1.215-2.084,6.961,6.961,0,0,1,1.13-3.515Z" transform="translate(-16.956 -35.254)" fill="#bfb7cd"/>
        <path id="Trazado_875179" data-name="Trazado 875179" d="M131.29,101.708s.978,9.851.978,10c0,15.938,3.159,47.068,2.558,50.068-1.466,7.309-17.242,44.593-17.242,44.593l-8.526-1.019,11.114-44.64-4.089-17.967L110.3,107.225Z" transform="translate(-17.231 -16.07)" fill="#371f63"/>
        <path id="Trazado_875180" data-name="Trazado 875180" d="M97.222,110.687,95.6,120.029l-4.378,38.433L74.554,196.025s2.345,5.465,5.8,6.231l26.532-38.563,16.481-49.348-.578-10.964Z" transform="translate(-11.78 -16.335)" fill="#3f2869"/>
        <path id="Trazado_875181" data-name="Trazado 875181" d="M137.179,69.007l-11.824,1.207s-.542-9.693-.542-14.314c0-5.609.477-12.835,1.155-12.679a10.307,10.307,0,0,1,5.987,3.58c5.275,7.245,5.225,22.205,5.225,22.205" transform="translate(-19.721 -6.829)" fill="#bbb3ca"/>
        <path id="Trazado_875182" data-name="Trazado 875182" d="M85.659,118.221c-1.8-2.918-2.209-2.5-2.43-2.884-.262-.45.029-7.394.029-7.394s.723-20.476.8-21.58l9.237-18.9L85.311,60.04S75.8,80.883,75.5,82.062s1.89,29.008,2.006,31.463c0,0-.926,2.969-1.446,4.853a16.825,16.825,0,0,0-.253,4.47,17.694,17.694,0,0,0,.337,4.277c.4,2.012.926-.072.926-.072s-.078-3.855.221-3.806c.232.038.152,2.145.569,4.378.107.573.215,1.139.318,1.658.271,1.362,1.17,1.591,1.109.122a14.078,14.078,0,0,0-.2-1.989A11.709,11.709,0,0,1,79,125.544a15.251,15.251,0,0,1-.072-1.932c.061.03.205-.2.337.4.159.728.161,2.347.477,3.4.178.6.478,1.867.478,1.867a12.354,12.354,0,0,0,.926,1.826c.655-.057.453-1.465.106-2.246a9.488,9.488,0,0,0-.323-1.937s-.12-2.84.274-2.863a32.352,32.352,0,0,1,.984,3.387c.5,1.542,1.248,3.019,1.562,2.968.533-.084.159-1.852.159-1.852s-.328-1.226-.4-1.641c-.092-.487-.253-1.964-.253-1.964s-.337-5.169.04-5.155a2.449,2.449,0,0,1,1.461.758c.13.314.072,1.01.2,1.328a.842.842,0,0,0,.955.485c.39-.128.333-1.884.333-1.884a5.677,5.677,0,0,0-.578-2.271" transform="translate(-11.924 -9.487)" fill="#bfb7cd"/>
        <path id="Trazado_875183" data-name="Trazado 875183" d="M127.095,54.836c.248,1.71,4.793,48.206,4.793,48.206-21.528,10.4-33.407,1.852-33.407,1.852s.7-32.65-.14-37.094c-.559-2.94-1.255-22.481.65-23.025a47.649,47.649,0,0,1,8.3-1.768c2.61-.271,12.741-.428,14.554.181a23.083,23.083,0,0,1,5.246,11.648" transform="translate(-15.444 -6.757)" fill="#cdc7d8"/>
        <path id="Trazado_875184" data-name="Trazado 875184" d="M80.974,64.884,91.217,71.76s5.773-8.588,8.871-11.648c3.882-3.831-1.414-15.568-3.914-14.9-5.6,1.484-15.2,19.675-15.2,19.675" transform="translate(-12.794 -7.139)" fill="#cdc7d8"/>
        <path id="Trazado_875185" data-name="Trazado 875185" d="M72.991,214.492S78,228.6,79.962,229.281c.52.181,3.019.64,3.491,1.745a4.777,4.777,0,0,1,0,1.445H73.013s-1.321-6.216-1.842-8.947c0,0-2.765-6.674-2.458-7.28s4.278-1.751,4.278-1.751" transform="translate(-10.853 -33.891)" fill="#e0bfe6"/>
        <path id="Trazado_875186" data-name="Trazado 875186" d="M106.408,234.587l1.536-4.852s3.225,1.364,4.838,1.137a48.862,48.862,0,0,0,4.761-1.137c6.437,2.118,11.71,3.147,10.751,4.852H106.408Z" transform="translate(-16.813 -36.299)" fill="#e0bfe6"/>
        <path id="Trazado_875187" data-name="Trazado 875187" d="M112.189,31.606l-1.584,9.683s5.8,12.321,9.262,11.283c2.907-.871,1.118-11.451,1.118-11.451s-1.585-5.683-1.109-8.527-7.687-.988-7.687-.988" transform="translate(-17.476 -4.9)" fill="#bfb7cd"/>
        <path id="Trazado_875188" data-name="Trazado 875188" d="M120.149,32.594c.475-2.843-7.688-.988-7.688-.988l-.131.833a4.606,4.606,0,0,0,.885,1.4,10.96,10.96,0,0,0,7.138,3.1,14.882,14.882,0,0,1-.2-4.343" transform="translate(-17.748 -4.9)" fill="#9f93b4"/>
        <path id="Trazado_875189" data-name="Trazado 875189" d="M110.776,14.255c-.231-.084-1.852,11.44,1.223,14.61s9.056,4.21,11.2,1.711c2.374-2.762,2.255-15.143-2.52-18.4s-9.9,2.083-9.9,2.083" transform="translate(-17.403 -1.757)" fill="#bfb7cd"/>
        <path id="Trazado_875190" data-name="Trazado 875190" d="M110.795,9.1c-1.676.19-3.957,1.079-6.307,4.814-2.892,4.593-.758,9.683,2.61,12.178s3.307,5.356,3.307,5.356l.546-1.468a8.012,8.012,0,0,0,.421-3.514,6.635,6.635,0,0,0-.545-2.113c-.81-1.667,1.74-2.779,2.454-4.162.55-1.068.577-3.512,1.444-5.278l1.036-1.347s2.389-1.783,4.727-1.28-.531-10.434-9.693-3.187" transform="translate(-16.295 -1.045)" fill="#3f2869"/>
        <path id="Trazado_875191" data-name="Trazado 875191" d="M114.427,24.7c.024,1.405-.642,2.556-1.488,2.571s-1.553-1.115-1.576-2.52.642-2.556,1.488-2.57S114.4,23.3,114.427,24.7" transform="translate(-17.596 -3.505)" fill="#bfb7cd"/>
        <path id="Trazado_875192" data-name="Trazado 875192" d="M141.718,101.462a.635.635,0,0,1-.743-.505l0-.012a73.69,73.69,0,0,1-.9-7.738c-.337-6.036.477-9.451,2.487-10.441s5.225.421,9.834,4.306a73.357,73.357,0,0,1,5.627,5.347.635.635,0,0,1-.024.9l-.009.008a.635.635,0,0,1-.892-.035c-4.194-4.493-11.337-10.675-13.977-9.379s-1.98,10.742-.9,16.817a.634.634,0,0,1-.505.734Z" transform="translate(-22.121 -13.029)" fill="#7b6b98"/>
        <path id="Trazado_875193" data-name="Trazado 875193" d="M146.94,97.293c-.537,0,.019-.225-.019-.763-1.026-14.439-4.252-12.942-4.394-13.35a.794.794,0,0,1,1.031-.964c.454.162,4.082,1.932,4.373,14.061a.99.99,0,0,1-.967,1.01Z" transform="translate(-22.515 -12.983)" fill="#bbb3ca"/>
        <path id="Trazado_875194" data-name="Trazado 875194" d="M158.84,91.745l-21.563,10.29,10.234,41.817,36.39-18.408Z" transform="translate(-21.69 -14.496)" fill="#8f82a8"/>
        <path id="Trazado_875195" data-name="Trazado 875195" d="M141.2,95.128a2.745,2.745,0,0,0,.324-.242c-.383-4.555-.314-8.969,1.116-10.462-.035-.072-.347-.736-.674-1.425-1.656,1.282-2.442,4.686-2.135,10.213a9.589,9.589,0,0,0,.219,1.144c.481.528.917.871,1.15.771" transform="translate(-22.084 -13.114)" fill="#bfb7cd"/>
        <path id="Trazado_875196" data-name="Trazado 875196" d="M190.875,119.875l-27.989-28.13,25.063,33.7.85-3.681Z" transform="translate(-25.737 -14.496)" fill="#7b6b98"/>
        <path id="Trazado_875197" data-name="Trazado 875197" d="M82.073,45.8a25.913,25.913,0,0,0-2.485-12.774c-1.729-3.506-6.008-5.5-9.91-5.5-12.391-.015-13.965,15.934-21.853,22.086-2.366,1.846-5,3.355-7.256,5.328a10.782,10.782,0,0,0,.6,3.835c2.435,6.451,8.643,10.1,14.608,13.388a39.068,39.068,0,0,0,16.98,4.4A140.608,140.608,0,0,0,78.14,62.739c2-5.447,3.685-11.119,3.933-16.938" transform="translate(-6.409 -4.35)" fill="#9588ac"/>
        <path id="Trazado_875198" data-name="Trazado 875198" d="M108.261,122.139s-.926-.7-1.218-.962c-.337-.3-1.286-1.286-1.286-1.286s-3.128-3.577-2.836-3.789,1.179.109,1.456.264.608.307.881.461a.629.629,0,0,0,.842-.239c.224-.321-.726-1.166-1.114-1.394a50.094,50.094,0,0,0-5.225-2.113c-.448-.176-4.692-7.371-6.349-9.72-2.593-3.927-6.483-9.077-6.757-9.493l-4.2-18.3-8.063-.652s5.938,21.494,6.36,22.533c.2.5,6.937,9.132,6.941,9.13,3.594,4.042,7.073,7.6,7.662,8.3,0,0,.88,2.568,1.534,4.245a15.318,15.318,0,0,0,2.208,3.4,11.469,11.469,0,0,0,2.488,3.074c1.419,1.238.66-.589.66-.589s-2.2-2.768-1.948-2.906c.2-.107,1.307,1.477,2.863,2.863.4.356.8.706,1.162,1.026.962.837,1.768.482.906-.555a12.565,12.565,0,0,0-1.259-1.334,10.265,10.265,0,0,1-1.1-1.319,13.511,13.511,0,0,1-1.129-1.368c.063-.013.043-.266.479.1a31.5,31.5,0,0,0,2.251,2.2c.467.332,1.4,1.085,1.4,1.085a12.029,12.029,0,0,0,1.735.977c.464-.421-.493-1.516-1.188-1.882a8.431,8.431,0,0,0-1.32-1.226s-1.671-2-1.383-2.246c.237-.2,5.19,3.815,5.625,3.36.359-.371-1.074-1.643-1.074-1.643" transform="translate(-11.754 -11.837)" fill="#afa5c1"/>
        <path id="Trazado_875199" data-name="Trazado 875199" d="M42.941,216.583s-.872,5.888-2.375,7.788a15.055,15.055,0,0,0-2.029,2.6c-.941,1.794-.421,4.463.273,5.935.356.758-.025.754.786,1a5.026,5.026,0,0,0,5.978-2.73,13.553,13.553,0,0,0,1.174-5.017c.253-5.346,1.966-8.064,1.966-8.064Z" transform="translate(-6.008 -34.221)" fill="#bfb7cd"/>
        <path id="Trazado_875200" data-name="Trazado 875200" d="M74.88,219.781s.539,6.638.1,8.8c-.234,1.155-1.539,3.536-.941,4.621a2.966,2.966,0,0,0,1.282,1.359l15.509.242c.842.013.286-.515-.395-1a31.5,31.5,0,0,0-5.576-3c-.232-.109-1.078-.632-1.383-.813a10.637,10.637,0,0,1-2.219-1.905c-1.113-1.206-1.211-7.052-1.211-7.052Z" transform="translate(-11.674 -34.726)" fill="#bfb7cd"/>
        <path id="Trazado_875201" data-name="Trazado 875201" d="M86.683,114.668s1.953,10.778.674,17.845-7.437,72.567-7.437,72.567l-6.84.376S71.649,178.091,71.9,174.29s2.286-10.173,2.286-10.173l-.681-22.091L82.138,113Z" transform="translate(-11.356 -17.855)" fill="#cdc7d8"/>
        <path id="Trazado_875202" data-name="Trazado 875202" d="M62,111.826s-5.389,7.882-6.668,14.4.941,26.569-1.526,35.117c-1.335,4.631-6.4,11.773-7.165,17.752s-3.789,21.639-3.789,21.639l6.837,1.318,15.888-39.116,12.462-35.355,3.193-18.208Z" transform="translate(-6.77 -17.282)" fill="#bbb3ca"/>
        <path id="Trazado_875203" data-name="Trazado 875203" d="M68.8,59.02s-7.131-.441-9.952,2.548,6.258,26.639,6.77,30.445S63,105.935,63,105.935s16.751,3.277,21.538.2c0,0,.879-27.626.366-30.344s-5.154-13.506-6.18-14.593S68.8,59.02,68.8,59.02" transform="translate(-9.212 -9.322)" fill="#bbb3ca"/>
        <path id="Trazado_875204" data-name="Trazado 875204" d="M73.1,47.993s-.037.2-.1.552c-.318,1.667-1.543,7.2-2.369,8.717-1,1.837,3.422,7.7,7.677,6.981,1.263-.213-1.071-5.384-.959-5.931.216-1.048.505-2.479.8-3.945l.5-2.454c.455-2.241.826-4.073.826-4.073Z" transform="translate(-11.136 -7.559)" fill="#bfb7cd"/>
        <path id="Trazado_875205" data-name="Trazado 875205" d="M73.428,48.543c.067-.347.1-.552.1-.552l6.376-.155s-.371,1.832-.826,4.073c-.16.784-.329,1.618-.5,2.442a6.046,6.046,0,0,1-3.045-1.484,7.807,7.807,0,0,1-2.306-3.335c.078-.392.141-.729.194-.989" transform="translate(-11.571 -7.558)" fill="#9f93b4"/>
        <path id="Trazado_875206" data-name="Trazado 875206" d="M77.371,31.281a5.84,5.84,0,0,0-4.889,2.032c-1.884,2.369-3.914,9.7.765,13.68s9.3-.525,9.989-5.3.953-10.58-5.865-10.407" transform="translate(-11.12 -4.94)" fill="#bfb7cd"/>
        <path id="Trazado_875207" data-name="Trazado 875207" d="M86.813,43.067c-.558,1.056-1.5,1.64-2.094,1.306s-.63-1.462-.072-2.518,1.5-1.64,2.094-1.306.63,1.462.072,2.518" transform="translate(-13.312 -6.392)" fill="#bfb7cd"/>
        <path id="Trazado_875208" data-name="Trazado 875208" d="M77.181,30.339s-4.015,6.968-6.888,7.289-3.249,4.024-3.249,4.024,1.026-8.531,3.873-10.176a10.83,10.83,0,0,1,6.264-1.137" transform="translate(-10.593 -4.782)" fill="#9588ac"/>
        <path id="Trazado_875209" data-name="Trazado 875209" d="M45.944,231.936a7.732,7.732,0,0,1-7.494-3.046c-.947,1.8-1.409,4.479-.712,5.955.614,1.3,2.406,1.263,3.818,1.314a3.7,3.7,0,0,0,3.388-2.016,11.9,11.9,0,0,0,1-2.209" transform="translate(-5.91 -36.166)" fill="#3f2869"/>
        <path id="Trazado_875210" data-name="Trazado 875210" d="M83.471,231.834a14.41,14.41,0,0,1-8.829-.337c-.437,1.2-1.017,2.717-.71,3.589.376,1.068.913,1.308,1.386,1.321,3.746.1,13.725.226,16.58.262a.453.453,0,0,0,.362-.746c-.708-.823-8.483-3.908-8.789-4.09" transform="translate(-11.668 -36.577)" fill="#3f2869"/>
        <path id="Trazado_875211" data-name="Trazado 875211" d="M71.233,40.722c.234,1.237-.236,2.372-1.049,2.534s-1.662-.709-1.9-1.947.237-2.372,1.049-2.534,1.662.708,1.9,1.947" transform="translate(-10.78 -6.124)" fill="#bfb7cd"/>
        <path id="Trazado_875212" data-name="Trazado 875212" d="M51.66,112.892a46.989,46.989,0,0,1,5.586-6.376c2.874-2.637,5.656-4.114,9.493-3.284a16.892,16.892,0,0,1,6.85,3.714,39.085,39.085,0,0,1,5.3,5.63l-2.332,1.34a22.724,22.724,0,0,0-4.692-6.25,12.261,12.261,0,0,0-5.084-3.063,8.536,8.536,0,0,0-2.6-.3,6.571,6.571,0,0,0-1.048.146c-4.119.956-8.129,7.06-9.094,9.707Z" transform="translate(-8.162 -16.275)" fill="#7b6b98"/>
        <path id="Trazado_875213" data-name="Trazado 875213" d="M56.775,88.743l-3.517,12.242c4.578-.3,15.47.842,18.22.967,4.214-.516,5.518-.152,6.541.365.551.278,2.79,1.567,2.79,1.567s1.751,2.517,1.575,2.641c-.589.421-2.179-1.984-2.179-1.984s-1.525-.717-1.761-.792c-.589-.184-.354.075-.354.075.474.229,2.385,1.567,2.385,1.567s2.677,2.615,2.464,2.678a4.088,4.088,0,0,1-1.733-.9c-.6-.428-1.468-1.273-2.032-1.618-.99-.605-1.751-.674-1.422-.408.239.192.693.21,1.288.573,1.449.881,3.27,2.614,2.966,2.723-.267.1-1.783-.96-3.194-1.655a9.474,9.474,0,0,0-2.75-.452,3.141,3.141,0,0,0,.509.616c.215.2,2.118,1.07,1.8,1.481s-4.674-1.347-4.674-1.347l-2.09-1.253-.133-.019s-21.126,4.681-25.483-.1c-3.716-4.074,3.386-21.366,3.429-21.26Z" transform="translate(-7.097 -13.344)" fill="#bfb7cd"/>
        <path id="Trazado_875214" data-name="Trazado 875214" d="M51.66,112.892a46.989,46.989,0,0,1,5.586-6.376c2.874-2.637,5.656-4.114,9.493-3.284,3.519.842.248,1.06.026,1.2-1.542-.12-2.6-.135-2.586-.135a6.571,6.571,0,0,0-1.048.146c-4.119.957-8.129,7.06-9.094,9.707Z" transform="translate(-8.162 -16.275)" fill="#7b6b98"/>
        <path id="Trazado_875215" data-name="Trazado 875215" d="M57.774,86.568s8.054-12.057,8.778-16.486-3.26-9.91-7.325-9.486-9.664,20.611-9.664,20.611Z" transform="translate(-7.831 -9.571)" fill="#bbb3ca"/>
        <path id="Trazado_875216" data-name="Trazado 875216" d="M76.042,136.625H51.782a4.314,4.314,0,0,1-4.382-4.246,4.384,4.384,0,0,1,.045-.7l3.5-18.176H78.086l2.327,18.445a4.323,4.323,0,0,1-3.957,4.66c-.138.011-.277.015-.415.013" transform="translate(-7.489 -17.934)" fill="#8f82a8"/>
        <path id="Trazado_875217" data-name="Trazado 875217" d="M84.761,131.932l-2.327-18.445a35.155,35.155,0,0,0-5.491,0l2.327,18.445a4.322,4.322,0,0,1-3.955,4.66c-.139.012-.277.016-.416.014h5.49a4.322,4.322,0,0,0,4.385-4.259c0-.139,0-.277-.013-.415" transform="translate(-11.835 -17.914)" fill="#7b6b98"/>
        <rect id="Rectángulo_401945" data-name="Rectángulo 401945" width="1.287" height="8.165" transform="translate(221.59 73.593)" fill="#371f63"/>
        <rect id="Rectángulo_401946" data-name="Rectángulo 401946" width="1.287" height="8.165" transform="translate(253.154 73.593)" fill="#371f63"/>
        <path id="Trazado_875218" data-name="Trazado 875218" d="M292.912,104.051h-5.041V100.4a3.819,3.819,0,0,0,.491-.126h-1.708v3.778h-5.878a7.1,7.1,0,0,0-7.1,7.095v.609h26.327v-.609a7.1,7.1,0,0,0-7.095-7.094m-17.982,6.483a5.886,5.886,0,0,1,5.847-5.268h12.137a5.886,5.886,0,0,1,5.846,5.268Z" transform="translate(-43.243 -15.843)" fill="#cdc7d8"/>
        <path id="Trazado_875219" data-name="Trazado 875219" d="M281.761,111.6h12.858l-5.869,15.121Z" transform="translate(-44.519 -17.634)" fill="#f3f2f6"/>
        <path id="Trazado_875220" data-name="Trazado 875220" d="M303.341,180.332l-7.522-38.03,2.341-17.325s-3.789-3.671-1.286-13.374h-6.132l-3.3,12.22-4.682-12.22h-5.8s1.186,11.231-1.979,12.546l3.561,18.149-4.22,38.03Z" transform="translate(-43.344 -17.634)" fill="#e0bfe6"/>
        <path id="Trazado_875221" data-name="Trazado 875221" d="M283.931,104.051H278.89V100.4a3.818,3.818,0,0,0,.491-.126h-1.708v3.778H271.8a7.1,7.1,0,0,0-7.095,7.095v.609h26.326v-.609a7.1,7.1,0,0,0-7.1-7.094m-17.983,6.483a5.886,5.886,0,0,1,5.846-5.268h12.137a5.884,5.884,0,0,1,5.846,5.268Z" transform="translate(-41.824 -15.843)" fill="#cdc7d8"/>
        <path id="Trazado_875222" data-name="Trazado 875222" d="M273.489,104.051h-5.041V100.4a3.819,3.819,0,0,0,.491-.126H267.23v3.778h-5.88a7.1,7.1,0,0,0-7.1,7.095v.609h26.327v-.609a7.1,7.1,0,0,0-7.092-7.094m-17.983,6.483a5.885,5.885,0,0,1,5.843-5.269h12.137a5.886,5.886,0,0,1,5.847,5.268Z" transform="translate(-40.173 -15.843)" fill="#bbb3ca"/>
        <path id="Trazado_875223" data-name="Trazado 875223" d="M255.731,112.334l-4.748,34.353a18.185,18.185,0,0,0,13.847,1.319c3.933-1.25,5.869,1.121,9.1,1.451s7.055-.857,7.517-.857-3.067-36.268-3.067-36.268Z" transform="translate(-39.656 -17.749)" fill="#8f82a8"/>
        <path id="Trazado_875224" data-name="Trazado 875224" d="M262.105,148.8c.175-.008.351-.018.53-.03l1.267-36.438h-.527Z" transform="translate(-41.414 -17.749)" fill="#7b6b98"/>
        <path id="Trazado_875225" data-name="Trazado 875225" d="M267.353,114.288a1.179,1.179,0,1,1-1.287-1.061c.036,0,.072-.005.108-.005a1.125,1.125,0,0,1,1.179,1.066" transform="translate(-41.871 -17.889)" fill="#e0bfe6"/>
        <path id="Trazado_875226" data-name="Trazado 875226" d="M267.353,124.195a1.179,1.179,0,1,1-1.287-1.061c.036,0,.072-.005.108-.005a1.125,1.125,0,0,1,1.179,1.066" transform="translate(-41.871 -19.455)" fill="#e0bfe6"/>
        <path id="Trazado_875227" data-name="Trazado 875227" d="M281.883,96.119a1.96,1.96,0,0,1-.069.532h-7.559a3.659,3.659,0,0,0-.481-2.385h7.064a2.117,2.117,0,0,1,1.045,1.852" transform="translate(-43.258 -14.895)" fill="#3f2869"/>
        <path id="Trazado_875228" data-name="Trazado 875228" d="M305.107,183.961v2.388h-1.979v7.483h-3.978v-7.484H252.886v7.483h-3.978v-7.483h-1.124v-2.61a.323.323,0,0,1,.323-.323h7.042V104.074a9.818,9.818,0,0,1,9.553-9.8c.084-.005.174-.005.258-.005h2.981a2.12,2.12,0,0,1,1.045,1.852,2.023,2.023,0,0,1-.069.532H264.96a7.448,7.448,0,0,0-7.427,7.428v78.4h39.232v-78.4a7.433,7.433,0,0,0-7.422-7.422H286.5a3.665,3.665,0,0,0-.48-2.385h3.317a9.808,9.808,0,0,1,9.807,9.808v79.341h5.41a.546.546,0,0,1,.554.537Z" transform="translate(-39.151 -14.894)" fill="#371f63"/>
        <rect id="Rectángulo_401947" data-name="Rectángulo 401947" width="42.853" height="14.492" transform="translate(215.996 60.196)" fill="#8f82a8"/>
        <path id="Trazado_875229" data-name="Trazado 875229" d="M291.094,96.119a1.994,1.994,0,0,1-.069.532H284.7a3.664,3.664,0,0,0-.481-2.385h5.829a2.118,2.118,0,0,1,1.046,1.852" transform="translate(-44.908 -14.895)" fill="#3f2869"/>
        <path id="Trazado_875230" data-name="Trazado 875230" d="M292.664,96.364a3.2,3.2,0,0,1-2.231,2.675h-1.709V98h.607a2.167,2.167,0,0,0,2.1-1.636,1.963,1.963,0,0,0,.069-.533,2.118,2.118,0,0,0-1.045-1.852,2.174,2.174,0,0,0-2.252,0h-.992l-.427-.375a3.378,3.378,0,0,1,2.548-1.16,3.214,3.214,0,0,1,2.854,1.535,3.664,3.664,0,0,1,.479,2.383" transform="translate(-45.313 -14.607)" fill="#cdc7d8"/>
        <path id="Trazado_875231" data-name="Trazado 875231" d="M283.686,96.364a3.2,3.2,0,0,1-2.237,2.675h-1.7V98h.606a2.168,2.168,0,0,0,2.1-1.636,1.961,1.961,0,0,0,.069-.533,2.117,2.117,0,0,0-1.045-1.852,2.174,2.174,0,0,0-2.252,0h-1l-.427-.375a3.386,3.386,0,0,1,2.553-1.16,3.213,3.213,0,0,1,2.854,1.535,3.663,3.663,0,0,1,.479,2.383" transform="translate(-43.894 -14.607)" fill="#cdc7d8"/>
        <path id="Trazado_875232" data-name="Trazado 875232" d="M273.243,96.364a3.2,3.2,0,0,1-2.231,2.675H269.3V98h.606a2.168,2.168,0,0,0,2.1-1.636,2,2,0,0,0,.068-.533,2.119,2.119,0,0,0-1.044-1.852,2.174,2.174,0,0,0-2.252,0h-.727c-.084,0-.174,0-.259.005l-.432-.38a3.378,3.378,0,0,1,2.548-1.16,3.213,3.213,0,0,1,2.854,1.535,3.664,3.664,0,0,1,.479,2.383" transform="translate(-42.244 -14.607)" fill="#bbb3ca"/>
        <path id="Trazado_875233" data-name="Trazado 875233" d="M264.841,81.62c1.431.882,3.729.79,3.729-.892,0-2.157-3.829-1.353-3.829-4.081,0-2.235,2.937-2.83,4.608-1.884l-.3.892c-1.3-.708-3.2-.517-3.2.866,0,2.038,3.843,1.229,3.843,4.119,0,1.306-.967,2.436-2.964,2.436a4.377,4.377,0,0,1-2.16-.54Z" transform="translate(-41.803 -11.745)" fill="#fff"/>
        <path id="Trazado_875234" data-name="Trazado 875234" d="M273.67,80.318l-.879,2.662H271.66l2.875-8.464h1.319l2.888,8.464h-1.168l-.9-2.662Zm2.779-.854c-.833-2.542-.807-2.182-1.269-3.981h-.024c-.445,1.78-.632,2.06-1.256,3.981Z" transform="translate(-42.923 -11.774)" fill="#fff"/>
        <path id="Trazado_875235" data-name="Trazado 875235" d="M281.548,74.517h1.095v7.547h3.621v.917h-4.709Z" transform="translate(-44.486 -11.774)" fill="#fff"/>
        <path id="Trazado_875236" data-name="Trazado 875236" d="M292.969,79.012h-3.29v3.051h3.667v.917h-4.76V74.517h4.57v.916h-3.478v2.675h3.29Z" transform="translate(-45.598 -11.774)" fill="#fff"/>
        <path id="Trazado_875237" data-name="Trazado 875237" d="M262.009,55.664a.589.589,0,0,0-.589-.589.6.6,0,0,0-.156.021c-.555.176-1.113.342-1.67.511-1.23.374-1.263.427-1.376.344-.26-.2.01-.715.127-.9a7.046,7.046,0,0,0,.8-1.192c.343-.882-.186-1.719-1.167-1.535-.9.168-1.792.39-2.682.616.443-.926.912-1.841,1.34-2.774a.406.406,0,0,0-.451-.589l-3.9.651c-.2.033-1.11.3-1.223.1-.1-.179.253-.8.312-.95.337-.818.441-1.112,1.47-3.8a.475.475,0,0,0-.582-.582c-3.179,1.263-3.339.86-3.889,1.454a.225.225,0,0,0,.008.317.222.222,0,0,0,.09.053c.391.163.494.175,1.963-.232q.57-.158,1.13-.344c-1.31,3.24-1.719,4.025-1.08,4.668.443.446.623.329,5.046-.421-.514.947-.967,1.921-1.444,2.892a.462.462,0,0,0,.514.674c3.212-.621,3.271-.767,3.568-.745.008,0,.093-.168,0,.092-.151.437-1,1.095-1.116,1.974a1.394,1.394,0,0,0,1.069,1.657c.04.008.082.016.124.021a9.743,9.743,0,0,0,2.518-.61,11.963,11.963,0,0,0,.2,2.832,1.859,1.859,0,0,0,.473,1.019.494.494,0,0,0,.821-.216c.194-1.011-.466-1.636-.25-4.422" transform="translate(-39.234 -7.108)" fill="#d3cedd"/>
        <path id="Trazado_875238" data-name="Trazado 875238" d="M282.936,48.93a16.2,16.2,0,0,1-2.64-1.154c-.168-.091-.494-.223-.512-.448-.043-.542.976-.793,2.131-2.2.5-.608,1.59-1.822.827-2.6a5.8,5.8,0,0,0-1.525-.852c-.371-.189-.733-.394-1.1-.589,2.037-2.189,2.112-1.969,2.157-2.68a.366.366,0,0,0-.365-.365c-.7.062-.512.072-3.108,2.811a.571.571,0,0,0,.115.887c.505.253,2.838,1.294,3.1,1.468-.031.017-.071.152-.084.178A9.376,9.376,0,0,1,279.6,45.91c-.736.627-1.3,1.705-.411,2.478a11.308,11.308,0,0,0,2.563,1.319c-1.3,1.3-2.61,2.6-3.9,3.912a.627.627,0,0,0,.126.977c1.051.455,2.081.943,3.11,1.44a10.6,10.6,0,0,1-2.63,1.9c-.714.365-.284,1.516,1.455.476a10.217,10.217,0,0,0,2.645-2.124.63.63,0,0,0-.013-.892.571.571,0,0,0-.113-.088c-1-.522-2.034-1-3.071-1.454,1.278-1.315,2.544-2.645,3.822-3.957a.581.581,0,0,0-.253-.962" transform="translate(-43.874 -6.012)" fill="#d3cedd"/>
        <path id="Trazado_875239" data-name="Trazado 875239" d="M314.276,54.786a.582.582,0,0,0,.769-.2,13.452,13.452,0,0,0,2.218-4.073c.242-.786-.935-1.082-1.216-.337a16.457,16.457,0,0,1-1.654,3.393,12.5,12.5,0,0,1-2.225-1.6.6.6,0,0,0-.847.01.593.593,0,0,0-.084.109c-.421.907-1.93,4.388-1.91,4.437a.194.194,0,0,0-.088-.044c-.384-.119-1.44-1.01-2-1.271-.625-.291-1.263.421-1.565.9-.609.973-.46,2.487-1.347,3.284-.853.763-1.775-1.089-3.308-.92-1.179.13-1.431,1.295-1.937,3.072a1.392,1.392,0,0,0,.038,1.263.3.3,0,0,0,.329.134c.684-.253.779-.943,1.283-2.547.064-.2.115-.579.337-.674.731-.32,1.56,1.152,2.937,1.042a2.642,2.642,0,0,0,2.075-1.964c.264-.727.3-1.778.888-2.347.56.344,1.117.707,1.7,1a1.128,1.128,0,0,0,1.566-.309,1.013,1.013,0,0,0,.056-.091,19.906,19.906,0,0,0,1.031-2.232c.221-.5.446-.992.664-1.49a14.131,14.131,0,0,0,2.289,1.446" transform="translate(-47.236 -7.86)" fill="#d3cedd"/>
        <path id="Trazado_875240" data-name="Trazado 875240" d="M244.331,69.758c-4.07,1.768-2.621,4.489-1.132,4.143a.958.958,0,0,0,.789-1.1.944.944,0,0,0-.1-.3.39.39,0,0,0-.706.093c-.049.277-.347.194-.321-.113.034-.413.5-.7.8-.913.713-.5,1.632-1.156,2.547-.83,1.367.485,2.049,2.486.312,4.034-2.506,2.233-6.979-.243-6.216-3.588a4.7,4.7,0,0,1,3.808-3.5c.356-.06.232-.56-.084-.589-2.358-.221-4.394,1.9-4.707,4.144a4.766,4.766,0,0,0,3.356,5.058,4.535,4.535,0,0,0,5.769-2.413,3.117,3.117,0,0,0-4.116-4.126" transform="translate(-37.81 -10.599)" fill="#d3cedd"/>
        <path id="Trazado_875241" data-name="Trazado 875241" d="M319.9,71.677c-.6.32-1.347,1.239-.842,1.924a.633.633,0,0,0,.87.207.623.623,0,0,0,.106-.082c.3-.3.281-.733.758-.842.407-.091.74.262.883.61.436,1.063-.526,2.35-1.363,2.919a2.147,2.147,0,0,1-3.393-1.6,4.868,4.868,0,0,1,.279-1.62c.075-.3-.277-.639-.562-.432a2.885,2.885,0,0,0-.5,3.589,3.432,3.432,0,0,0,3.284,1.721,4.435,4.435,0,0,0,3.335-2.513c1.309-2.624-.9-4.918-2.858-3.882" transform="translate(-49.889 -11.285)" fill="#d3cedd"/>
        <path id="Trazado_875242" data-name="Trazado 875242" d="M176.858.606C164.8,2.851,156.15,10.673,157.529,18.078c.69,3.7,3.756,6.6,8.157,8.29l-3.758,13.2,9.614-11.774a33.794,33.794,0,0,0,10.309-.371c12.055-2.245,20.708-10.067,19.33-17.472S188.913-1.639,176.858.606" transform="translate(-24.867 0)" fill="#e0bfe6"/>
        <path id="Trazado_875243" data-name="Trazado 875243" d="M181.221,23.482l-.019-2.056a9.988,9.988,0,0,1-2.6-.437,1.251,1.251,0,0,1-.837-1.493l.019-.077a1.248,1.248,0,0,1,1.51-.916.84.84,0,0,1,.09.025,7.292,7.292,0,0,0,2.351.382c1.234-.012,2.072-.5,2.065-1.362-.008-.822-.7-1.335-2.312-1.861-2.323-.758-3.913-1.824-3.933-3.923-.018-1.9,1.31-3.41,3.621-3.887l-.019-2.055,2.121-.02.018,1.9a9.218,9.218,0,0,1,1.978.266,1.251,1.251,0,0,1-.615,2.425l-.041-.011a6.644,6.644,0,0,0-1.9-.253c-1.407.013-1.852.624-1.852,1.229.007.714.769,1.161,2.61,1.836,2.584.884,3.634,2.065,3.653,4.012.018,1.926-1.33,3.584-3.813,4.042l.021,2.207Z" transform="translate(-28.055 -0.917)" fill="#3f2869"/>
      </g>
    </g>
  </g>
</svg>
