<svg xmlns="http://www.w3.org/2000/svg" xmlns:xlink="http://www.w3.org/1999/xlink" width="1029.301" height="604.282" viewBox="0 0 1029.301 604.282">
  <defs>
    <clipPath id="clip-path">
      <rect id="Rectángulo_402057" data-name="Rectángulo 402057" width="1029.301" height="604.283" fill="#6e3dc6"/>
    </clipPath>
  </defs>
  <g id="Grupo_1103847" data-name="Grupo 1103847" transform="translate(-285.699 -13580.205)">
    <g id="Grupo_1100297" data-name="Grupo 1100297" transform="translate(285.699 13580.205)" clip-path="url(#clip-path)">
      <path id="Trazado_875528" data-name="Trazado 875528" d="M402.529,0H684.641a7.028,7.028,0,0,1,7.029,7.029V60.8a7.028,7.028,0,0,1-7.029,7.029H402.529A7.029,7.029,0,0,1,395.5,60.8V7.029A7.029,7.029,0,0,1,402.529,0" transform="translate(-17.644)" fill="#6e3dc6"/>
      <path id="Trazado_875529" data-name="Trazado 875529" d="M482.605,37.286a5.288,5.288,0,0,1-1.781,3.8,6.252,6.252,0,0,1-4.233,1.385,5.625,5.625,0,0,1-4.521-1.935,7.93,7.93,0,0,1-1.647-5.311V34.31a8.953,8.953,0,0,1,.76-3.8,5.688,5.688,0,0,1,2.171-2.519,6.784,6.784,0,0,1,7.445.508,5.683,5.683,0,0,1,1.831,3.889h-3.082a3.117,3.117,0,0,0-.805-2.1,2.987,2.987,0,0,0-2.109-.652,2.616,2.616,0,0,0-2.3,1.1,6.18,6.18,0,0,0-.785,3.423v1.129a6.618,6.618,0,0,0,.734,3.541,2.566,2.566,0,0,0,2.315,1.121,3.04,3.04,0,0,0,2.13-.653,2.944,2.944,0,0,0,.805-2.017Zm4.957,4.978h-2.976v-11.1h2.976Zm-3.153-13.978a1.459,1.459,0,0,1,.446-1.1,1.925,1.925,0,0,1,2.428,0,1.566,1.566,0,0,1,0,2.206,1.9,1.9,0,0,1-2.411,0,1.456,1.456,0,0,1-.456-1.108Zm10.214,11.792a1.949,1.949,0,0,0,1.338-.452,1.581,1.581,0,0,0,.534-1.2h2.777a3.8,3.8,0,0,1-.616,2.068A4.058,4.058,0,0,1,497,41.951a5.192,5.192,0,0,1-2.324.518,4.819,4.819,0,0,1-3.757-1.513,5.991,5.991,0,0,1-1.375-4.182v-.191a5.923,5.923,0,0,1,1.365-4.095,4.764,4.764,0,0,1,3.746-1.529A4.669,4.669,0,0,1,498,32.144a4.2,4.2,0,0,1,1.277,3.153h-2.785a2.02,2.02,0,0,0-.534-1.4,1.987,1.987,0,0,0-2.92.216,4.361,4.361,0,0,0-.528,2.448v.308a4.42,4.42,0,0,0,.524,2.463,1.809,1.809,0,0,0,1.591.749m9.473,2.186H501.12V26.5H504.1Zm1.981-5.655a6.584,6.584,0,0,1,.636-2.944,4.656,4.656,0,0,1,1.832-2.006,5.344,5.344,0,0,1,2.776-.708,5.058,5.058,0,0,1,3.669,1.375,5.519,5.519,0,0,1,1.586,3.736l.02.76a5.8,5.8,0,0,1-1.426,4.105,5.527,5.527,0,0,1-7.661,0,5.907,5.907,0,0,1-1.433-4.187Zm2.962.216a4.14,4.14,0,0,0,.6,2.417,2.141,2.141,0,0,0,3.387.01,4.529,4.529,0,0,0,.606-2.643,4.1,4.1,0,0,0-.606-2.4,1.969,1.969,0,0,0-1.7-.852,1.94,1.94,0,0,0-1.683.846,4.6,4.6,0,0,0-.59,2.623Zm14.157-.2a6.69,6.69,0,0,1,1.165-4.136,3.779,3.779,0,0,1,3.186-1.539,3.4,3.4,0,0,1,2.675,1.211V26.5H533.2V42.264h-2.675l-.143-1.18a3.49,3.49,0,0,1-2.853,1.385,3.769,3.769,0,0,1-3.146-1.543,6.908,6.908,0,0,1-1.185-4.3m2.962.216a4.375,4.375,0,0,0,.544,2.388,1.772,1.772,0,0,0,1.58.831,1.986,1.986,0,0,0,1.94-1.16V34.525a1.956,1.956,0,0,0-1.914-1.159q-2.145,0-2.145,3.479Zm14.455,5.626a5.452,5.452,0,0,1-3.977-1.5,5.326,5.326,0,0,1-1.534-3.993v-.287a6.71,6.71,0,0,1,.649-2.992,4.739,4.739,0,0,1,1.831-2.032,5.144,5.144,0,0,1,2.7-.714,4.609,4.609,0,0,1,3.587,1.433,5.837,5.837,0,0,1,1.309,4.075v1.216h-7.07a2.755,2.755,0,0,0,.867,1.745,2.62,2.62,0,0,0,1.831.657,3.2,3.2,0,0,0,2.675-1.242l1.458,1.63a4.45,4.45,0,0,1-1.807,1.473,5.922,5.922,0,0,1-2.524.528m-.338-9.113a1.856,1.856,0,0,0-1.433.6,3.07,3.07,0,0,0-.7,1.7h4.125v-.236a2.2,2.2,0,0,0-.534-1.529,1.915,1.915,0,0,0-1.456-.534Zm14.953,8.908h-2.977V26.5h2.976Zm8.877,0a3.3,3.3,0,0,1-.3-1,3.588,3.588,0,0,1-2.8,1.2,3.944,3.944,0,0,1-2.708-.944,3.037,3.037,0,0,1-1.073-2.381,3.137,3.137,0,0,1,1.313-2.709,6.457,6.457,0,0,1,3.781-.955h1.365v-.636a1.829,1.829,0,0,0-.4-1.231,1.555,1.555,0,0,0-1.247-.461,1.768,1.768,0,0,0-1.175.359,1.218,1.218,0,0,0-.426.985h-2.962a2.976,2.976,0,0,1,.591-1.786,3.935,3.935,0,0,1,1.683-1.288,6.137,6.137,0,0,1,2.443-.467,4.85,4.85,0,0,1,3.259,1.032,3.607,3.607,0,0,1,1.206,2.9V39.7a5.312,5.312,0,0,0,.441,2.388v.176ZM561.651,40.2a2.56,2.56,0,0,0,1.211-.292,1.921,1.921,0,0,0,.821-.785V37.213h-1.108q-2.227,0-2.37,1.539l-.01.175a1.189,1.189,0,0,0,.39.913,1.516,1.516,0,0,0,1.067.361m16.677-1.56,2.063-7.482h3.1l-3.745,11.1h-2.833l-3.746-11.1h3.1Zm11.444,3.828a5.452,5.452,0,0,1-3.977-1.5,5.325,5.325,0,0,1-1.534-3.993v-.287a6.7,6.7,0,0,1,.647-2.991,4.74,4.74,0,0,1,1.831-2.032,5.142,5.142,0,0,1,2.7-.714,4.608,4.608,0,0,1,3.587,1.433,5.837,5.837,0,0,1,1.309,4.075v1.215h-7.07a2.754,2.754,0,0,0,.867,1.745,2.62,2.62,0,0,0,1.831.657,3.2,3.2,0,0,0,2.675-1.242L594.1,40.47a4.451,4.451,0,0,1-1.807,1.473,5.928,5.928,0,0,1-2.521.526m-.338-9.113a1.856,1.856,0,0,0-1.433.6,3.07,3.07,0,0,0-.7,1.7h4.125v-.236a2.2,2.2,0,0,0-.534-1.529,1.915,1.915,0,0,0-1.456-.534Zm9.319-2.2.1,1.283a3.877,3.877,0,0,1,3.192-1.488,3.22,3.22,0,0,1,2.627,1.037,4.835,4.835,0,0,1,.883,3.1v7.175h-2.962v-7.1a1.926,1.926,0,0,0-.411-1.37,1.842,1.842,0,0,0-1.365-.426,2.041,2.041,0,0,0-1.886,1.064v7.834h-2.962v-11.1Zm12.593-2.73v2.73h1.9v2.175h-1.9v5.541a1.325,1.325,0,0,0,.236.883,1.189,1.189,0,0,0,.9.267,4.764,4.764,0,0,0,.872-.072V42.2a6.118,6.118,0,0,1-1.8.267q-3.12,0-3.181-3.153V33.335h-1.624V31.159h1.624V28.43Zm9.985,13.835a3.3,3.3,0,0,1-.3-1,3.589,3.589,0,0,1-2.8,1.2,3.942,3.942,0,0,1-2.707-.944,3.037,3.037,0,0,1-1.073-2.381,3.136,3.136,0,0,1,1.309-2.709,6.457,6.457,0,0,1,3.781-.955h1.365v-.636a1.829,1.829,0,0,0-.4-1.231,1.555,1.555,0,0,0-1.247-.461,1.769,1.769,0,0,0-1.175.359,1.219,1.219,0,0,0-.426.985H614.7a2.976,2.976,0,0,1,.594-1.785,3.935,3.935,0,0,1,1.683-1.288,6.137,6.137,0,0,1,2.443-.467,4.85,4.85,0,0,1,3.259,1.032,3.607,3.607,0,0,1,1.206,2.9V39.7a5.313,5.313,0,0,0,.441,2.388v.176ZM618.877,40.2a2.56,2.56,0,0,0,1.211-.292,1.921,1.921,0,0,0,.821-.785V37.213H619.8q-2.227,0-2.37,1.539l-.011.175a1.189,1.189,0,0,0,.39.913,1.516,1.516,0,0,0,1.067.361" transform="translate(-20.986 -1.182)" fill="#fff"/>
      <path id="Trazado_875530" data-name="Trazado 875530" d="M0,611.641V329.529A7.029,7.029,0,0,1,7.029,322.5H60.8a7.029,7.029,0,0,1,7.029,7.029V611.641A7.029,7.029,0,0,1,60.8,618.67H7.029A7.029,7.029,0,0,1,0,611.641" transform="translate(0 -14.388)" fill="#6e3dc6"/>
      <path id="Trazado_875531" data-name="Trazado 875531" d="M36.783,513.411v2.453h5.471v3.075H27.31v-5.549a6.28,6.28,0,0,1,1.18-4.084,4.075,4.075,0,0,1,3.335-1.433,4.6,4.6,0,0,1,2.55.662A4.512,4.512,0,0,1,36,510.542L42.11,507.3h.143v3.3Zm-2.494,2.453V513.38a2.546,2.546,0,0,0-.59-1.8,2.108,2.108,0,0,0-1.624-.636,2.258,2.258,0,0,0-1.662.6,2.494,2.494,0,0,0-.606,1.842v2.475Zm8.17-15.251a5.452,5.452,0,0,1-1.5,3.977,5.325,5.325,0,0,1-3.993,1.534h-.287a6.7,6.7,0,0,1-2.991-.647,4.74,4.74,0,0,1-2.032-1.832,5.144,5.144,0,0,1-.714-2.7,4.608,4.608,0,0,1,1.433-3.587,5.837,5.837,0,0,1,4.075-1.309h1.215v7.07a2.755,2.755,0,0,0,1.745-.867,2.62,2.62,0,0,0,.657-1.831,3.2,3.2,0,0,0-1.242-2.675l1.63-1.46a4.448,4.448,0,0,1,1.473,1.806,5.929,5.929,0,0,1,.528,2.525m-9.113.338a1.856,1.856,0,0,0,.6,1.433,3.071,3.071,0,0,0,1.7.7v-4.125h-.236a2.2,2.2,0,0,0-1.529.534,1.919,1.919,0,0,0-.534,1.455m8.908-7.4H33.324V495.2H31.149v-1.652h-.944a3.832,3.832,0,0,1-2.9-1.078,4.153,4.153,0,0,1-1.032-3,6.928,6.928,0,0,1,.205-1.509l2.3.035a3.777,3.777,0,0,0-.1.9q0,1.672,1.571,1.673h.893v-2.209h2.175v2.207h8.927Zm.205-11.586a5.452,5.452,0,0,1-1.5,3.977,5.325,5.325,0,0,1-3.993,1.534h-.287a6.7,6.7,0,0,1-2.991-.647A4.74,4.74,0,0,1,31.658,485a5.142,5.142,0,0,1-.714-2.7,4.609,4.609,0,0,1,1.433-3.587,5.837,5.837,0,0,1,4.075-1.309h1.215v7.07a2.754,2.754,0,0,0,1.745-.867,2.62,2.62,0,0,0,.657-1.831,3.2,3.2,0,0,0-1.242-2.675l1.63-1.461a4.451,4.451,0,0,1,1.473,1.807,5.929,5.929,0,0,1,.528,2.525m-9.113.338a1.856,1.856,0,0,0,.6,1.433,3.07,3.07,0,0,0,1.7.7v-4.127h-.236a2.2,2.2,0,0,0-1.529.534,1.917,1.917,0,0,0-.534,1.457m.585-12.829a8.143,8.143,0,0,0-.084,1.067,2.172,2.172,0,0,0,1.139,2.207h7.269v2.962h-11.1v-2.8l1.324-.082a2.748,2.748,0,0,1-1.529-2.474,3.115,3.115,0,0,1,.134-.924Zm8.323-1.58h-11.1v-2.976h11.1Zm-13.978.177a1.459,1.459,0,0,1-1.1-.446,1.925,1.925,0,0,1,0-2.428,1.566,1.566,0,0,1,2.206,0,1.9,1.9,0,0,1,0,2.411,1.455,1.455,0,0,1-1.108.455Zm8.341-5.134a6.69,6.69,0,0,1-4.136-1.165,3.779,3.779,0,0,1-1.539-3.186,3.4,3.4,0,0,1,1.211-2.675H26.49v-2.98H42.253v2.675l-1.18.143a3.489,3.489,0,0,1,1.385,2.857,3.768,3.768,0,0,1-1.543,3.146,6.908,6.908,0,0,1-4.3,1.185m.216-2.962a4.375,4.375,0,0,0,2.388-.544,1.772,1.772,0,0,0,.831-1.58,1.986,1.986,0,0,0-1.16-1.939H34.515a1.957,1.957,0,0,0-1.16,1.919q0,2.14,3.48,2.14ZM36.6,451.1a6.593,6.593,0,0,1-2.942-.64,4.657,4.657,0,0,1-2.006-1.835,5.344,5.344,0,0,1-.708-2.776,5.058,5.058,0,0,1,1.375-3.669,5.519,5.519,0,0,1,3.736-1.586l.76-.02A5.8,5.8,0,0,1,40.916,442a5.527,5.527,0,0,1,0,7.661,5.907,5.907,0,0,1-4.187,1.433Zm.216-2.962a4.141,4.141,0,0,0,2.417-.6,2.141,2.141,0,0,0,.01-3.387,4.529,4.529,0,0,0-2.643-.606,4.1,4.1,0,0,0-2.4.606,1.968,1.968,0,0,0-.849,1.7,1.94,1.94,0,0,0,.846,1.683,4.606,4.606,0,0,0,2.623.592Zm2.372-15.4a.956.956,0,0,0-.86.539A6.127,6.127,0,0,0,37.766,435q-.831,3.961-3.366,3.961a3.051,3.051,0,0,1-2.465-1.226,4.949,4.949,0,0,1-.991-3.207,5.324,5.324,0,0,1,1-3.382,3.138,3.138,0,0,1,2.586-1.268v2.962a1.432,1.432,0,0,0-1.051.411,1.736,1.736,0,0,0-.416,1.283,1.774,1.774,0,0,0,.338,1.16,1.069,1.069,0,0,0,.86.411.915.915,0,0,0,.8-.467,4.817,4.817,0,0,0,.524-1.575,12.874,12.874,0,0,1,.5-1.868,3.069,3.069,0,0,1,2.987-2.35,2.9,2.9,0,0,1,2.458,1.308,5.618,5.618,0,0,1,.939,3.366,5.869,5.869,0,0,1-.5,2.478,4.16,4.16,0,0,1-1.365,1.7,3.167,3.167,0,0,1-1.873.616V436.5a1.551,1.551,0,0,0,1.21-.585,2.325,2.325,0,0,0,.42-1.457,2.145,2.145,0,0,0-.323-1.288,1.006,1.006,0,0,0-.846-.438" transform="translate(-1.172 -19.177)" fill="#fff"/>
      <path id="Trazado_875532" data-name="Trazado 875532" d="M1074.2,329.529V611.641a7.029,7.029,0,0,1-7.029,7.029h-53.775a7.029,7.029,0,0,1-7.029-7.029V329.529a7.029,7.029,0,0,1,7.029-7.029h53.775a7.029,7.029,0,0,1,7.029,7.029" transform="translate(-44.896 -14.388)" fill="#6e3dc6"/>
      <path id="Trazado_875533" data-name="Trazado 875533" d="M1039.826,437.429v-2.453h-5.471V431.9H1049.3v5.549a6.28,6.28,0,0,1-1.18,4.084,4.074,4.074,0,0,1-3.335,1.433,4.6,4.6,0,0,1-2.55-.662,4.513,4.513,0,0,1-1.624-2.006l-6.111,3.237h-.143v-3.3Zm2.494-2.453v2.484a2.546,2.546,0,0,0,.59,1.8,2.108,2.108,0,0,0,1.624.636,2.258,2.258,0,0,0,1.662-.6,2.5,2.5,0,0,0,.606-1.842v-2.475Zm-8.17,15.251a5.452,5.452,0,0,1,1.5-3.977,5.325,5.325,0,0,1,3.992-1.534h.287a6.7,6.7,0,0,1,2.991.647,4.739,4.739,0,0,1,2.032,1.831,5.143,5.143,0,0,1,.714,2.7,4.605,4.605,0,0,1-1.433,3.587,5.837,5.837,0,0,1-4.075,1.309h-1.215v-7.07a2.755,2.755,0,0,0-1.745.867,2.62,2.62,0,0,0-.657,1.831,3.2,3.2,0,0,0,1.242,2.675l-1.63,1.46a4.448,4.448,0,0,1-1.473-1.806,5.927,5.927,0,0,1-.528-2.525m9.113-.338a1.856,1.856,0,0,0-.6-1.433,3.071,3.071,0,0,0-1.7-.7v4.125h.236a2.2,2.2,0,0,0,1.529-.534,1.916,1.916,0,0,0,.534-1.455m-8.908,7.4h8.929v-1.653h2.175v1.652h.944a3.832,3.832,0,0,1,2.9,1.078,4.152,4.152,0,0,1,1.032,3,6.919,6.919,0,0,1-.205,1.509l-2.3-.035a3.776,3.776,0,0,0,.1-.9q0-1.672-1.571-1.673h-.893v2.209h-2.175v-2.207h-8.927Zm-.205,11.586a5.452,5.452,0,0,1,1.5-3.977,5.325,5.325,0,0,1,3.992-1.534h.287a6.7,6.7,0,0,1,2.991.647,4.74,4.74,0,0,1,2.032,1.831,5.141,5.141,0,0,1,.714,2.7,4.605,4.605,0,0,1-1.433,3.587,5.837,5.837,0,0,1-4.075,1.309h-1.215v-7.07a2.755,2.755,0,0,0-1.745.867,2.62,2.62,0,0,0-.657,1.831,3.2,3.2,0,0,0,1.242,2.675l-1.63,1.461a4.45,4.45,0,0,1-1.473-1.807,5.927,5.927,0,0,1-.528-2.525m9.113-.338a1.856,1.856,0,0,0-.6-1.433,3.071,3.071,0,0,0-1.7-.7v4.127h.236a2.2,2.2,0,0,0,1.529-.534,1.918,1.918,0,0,0,.534-1.457m-.585,12.829a8.131,8.131,0,0,0,.084-1.067,2.173,2.173,0,0,0-1.139-2.207h-7.269v-2.962h11.1v2.8l-1.324.082a2.747,2.747,0,0,1,1.529,2.474,3.116,3.116,0,0,1-.134.924Zm-8.323,1.58h11.1v2.976h-11.1Zm13.978-.177a1.46,1.46,0,0,1,1.1.446,1.925,1.925,0,0,1,0,2.428,1.566,1.566,0,0,1-2.206,0,1.9,1.9,0,0,1,0-2.411,1.455,1.455,0,0,1,1.108-.455Zm-8.341,5.134a6.69,6.69,0,0,1,4.136,1.165,3.779,3.779,0,0,1,1.539,3.186,3.4,3.4,0,0,1-1.211,2.675h5.664v2.98h-15.764v-2.675l1.18-.143a3.489,3.489,0,0,1-1.385-2.857,3.768,3.768,0,0,1,1.543-3.146,6.908,6.908,0,0,1,4.3-1.185m-.216,2.962a4.377,4.377,0,0,0-2.389.544,1.772,1.772,0,0,0-.831,1.58,1.986,1.986,0,0,0,1.16,1.939h4.378a1.957,1.957,0,0,0,1.16-1.919q0-2.14-3.479-2.14Zm.236,8.877a6.593,6.593,0,0,1,2.942.64,4.657,4.657,0,0,1,2.006,1.835,5.344,5.344,0,0,1,.708,2.776,5.058,5.058,0,0,1-1.375,3.669,5.519,5.519,0,0,1-3.735,1.586l-.76.02a5.806,5.806,0,0,1-4.105-1.429,5.527,5.527,0,0,1,0-7.661,5.907,5.907,0,0,1,4.187-1.433Zm-.216,2.962a4.143,4.143,0,0,0-2.417.6,2.141,2.141,0,0,0-.01,3.387,4.529,4.529,0,0,0,2.643.606,4.1,4.1,0,0,0,2.4-.606,1.968,1.968,0,0,0,.849-1.7,1.939,1.939,0,0,0-.847-1.683,4.606,4.606,0,0,0-2.622-.592Zm-2.372,15.4a.956.956,0,0,0,.86-.539,6.126,6.126,0,0,0,.559-1.729q.831-3.961,3.366-3.961a3.051,3.051,0,0,1,2.465,1.226,4.949,4.949,0,0,1,.991,3.207,5.324,5.324,0,0,1-1,3.382,3.138,3.138,0,0,1-2.586,1.268V518a1.432,1.432,0,0,0,1.051-.411,1.736,1.736,0,0,0,.416-1.283,1.775,1.775,0,0,0-.338-1.16,1.07,1.07,0,0,0-.86-.411.915.915,0,0,0-.8.467,4.816,4.816,0,0,0-.524,1.575,12.751,12.751,0,0,1-.5,1.868,3.068,3.068,0,0,1-2.987,2.35,2.9,2.9,0,0,1-2.458-1.308,5.624,5.624,0,0,1-.939-3.366,5.869,5.869,0,0,1,.5-2.478,4.159,4.159,0,0,1,1.365-1.7,3.168,3.168,0,0,1,1.873-.616v2.812a1.551,1.551,0,0,0-1.211.585,2.324,2.324,0,0,0-.42,1.457,2.15,2.15,0,0,0,.323,1.288,1,1,0,0,0,.846.438" transform="translate(-46.136 -19.268)" fill="#fff"/>
      <path id="Trazado_875534" data-name="Trazado 875534" d="M876.871,174.471c93.468,89.179,44.025,220.484-1.754,279.507-5.377-10.273-17.06-37.9-17.06-37.9L836.624,611.6l139.9-108.891-32.662,7.818c108.936-233.134-67-336.06-67-336.06" transform="translate(-37.324 -7.784)" fill="#f9ce24"/>
      <path id="Trazado_875535" data-name="Trazado 875535" d="M203.557,174.471c-93.468,89.179-44.025,220.484,1.754,279.507,5.377-10.273,17.06-37.9,17.06-37.9L243.8,611.606,103.9,502.714l32.664,7.818c-108.936-233.134,67-336.06,67-336.06" transform="translate(-4.505 -7.784)" fill="#f9ce24"/>
      <path id="Trazado_875536" data-name="Trazado 875536" d="M540.628,131h.539q2.6.006,5.193.072l-.024.954c-1.892-.048-3.813-.072-5.708-.072Zm11.461.29q2.873.146,5.721.364l-.073.953c-1.887-.144-3.8-.267-5.7-.362Zm11.431.875c1.91.195,3.8.413,5.7.656l-.122.948c-1.877-.241-3.785-.461-5.67-.654l.1-.951Zm11.371,1.461q1.728.268,3.45.562h0l.082.013.013,0,.075.012.01,0,.076.013.014,0,.071.011.021,0,.065.011.027,0,.059.011.029,0,.057.01.034.006.05.009.041.008.042.008.048.008.038.007.049.009.035.007.055.01.029,0,.059.01.023,0,.067.012.015,0,.073.013.009,0,.932.166-.171.94c-1.863-.337-3.757-.656-5.628-.946Zm11.279,2.046.745.157h0l.076.016.012,0,.069.014.021,0,.062.013.025,0,.06.013.029.006.054.011.034.008.05.011.041.009.044.01.044.01.041.009.051.011.034.007.065.014.019,0q.612.133,1.222.268h0l.174.038h0l.086.02h0l.085.019h0l.171.038h0l.084.018h0l.081.018.008,0,.082.018h0l.085.019h0l.169.038h.006l.169.039h0l.164.037.015,0,.08.018.057.013.026.006.065.014.02,0,.073.017.01,0,.072.017.014,0,.971.226-.219.93c-1.843-.434-3.717-.85-5.572-1.236Zm11.158,2.629q1,.262,1.99.534h0l.079.022.011,0,.074.02.013,0,.07.019.017,0,.068.018.02.006.064.018.022.006.062.017.025.007.057.016.03.008.055.015.03.009.055.015.029.008.056.016.03.008.053.014.032.01.055.015.031.009.057.015.027.008.067.019.018,0,.169.048.022.006.063.018.027.007.058.017.026.007.059.017.029.008.055.015.03.009.055.015.031.01.054.015.029.008.057.016.027.008.059.017.024.007.061.017.025.007.06.017.024.007.063.018.021.006.068.02.014,0,.073.021.012,0,.078.023h0l.943.272-.267.918c-1.818-.53-3.669-1.042-5.5-1.525Zm11.006,3.205c.589.188,1.168.375,1.754.569l.008,0,.071.023.013,0,.066.022.018.006.064.021.016.006.063.021.023.008.056.018.03.01.052.017.033.011.049.016.034.011.049.016.038.013.043.014.044.014.038.012.051.017.032.01.06.02.022.008.252.084.009,0,.075.025.018.007.066.022.017.006.066.022.021.008.062.021.023.008.06.02.025.009.059.02.023.008.061.02.024.009.057.019.028.01.054.018.032.011.052.018.032.011.05.016.035.012.045.015.039.013.038.013.047.016.03.01.052.018.023.008c.409.139.828.285,1.236.427l-.314.9c-1.788-.623-3.609-1.232-5.413-1.809Zm10.824,3.773.7.268.009,0,.068.027.016.006.061.023.028.011.051.02.039.015.039.014.055.021.024.01.077.03h0q1,.386,2,.781l.013,0,.068.027.02.009.057.022.03.012.052.02.03.012.05.02.033.012.047.019.037.014.04.016.043.017.036.014.046.018.031.012.051.02.026.01.058.023.01,0c.465.186.921.37,1.384.559l-.361.885c-1.753-.716-3.541-1.418-5.312-2.087Zm10.613,4.331c.265.116.533.234.8.352l.011,0,.054.024.03.012.043.019.037.017.037.016.046.021.031.013.05.022.03.013.053.024.024.01.058.026.021.01.065.029.012.006.072.032.008,0q1.88.841,3.741,1.716l-.406.865c-1.714-.805-3.462-1.6-5.2-2.36Zm10.375,4.876q2.567,1.287,5.089,2.638l-.45.842c-1.67-.893-3.375-1.777-5.067-2.626l.428-.854Zm10.109,5.406c1.664.947,3.309,1.91,4.946,2.9l-.493.818c-1.622-.978-3.279-1.949-4.925-2.884Zm9.816,5.921.06.038.01.007.042.028.031.02.034.021.041.027.027.017.048.031a.216.216,0,0,0,.025.015l.05.032.022.014.054.034.019.011.057.037.014.01.06.038.014.01.064.041.009.006q2.069,1.333,4.108,2.711l-.535.791c-1.57-1.06-3.174-2.115-4.769-3.135Zm9.5,6.419c.356.255.71.508,1.065.765l.008.006.056.041.013.01.052.037.021.015.044.032.029.021.041.03.03.021.038.029.033.024.035.026.04.029.028.02.048.035.022.016.061.044.008.006.289.21,0,0,.067.048.011.009c.021.014.041.03.061.045l.01.007.06.045.012.009.058.043.014.011.056.041.015.011.057.042.013.01.059.043.01.009.063.046.009.007.065.048.006,0,.215.159,0,0,.064.047.024.018.044.032.034.025.034.026.039.03.028.02.046.033.021.016.053.038.012.01.057.043.009.006c.446.332.881.656,1.325.991l-.575.763c-1.512-1.14-3.061-2.276-4.6-3.376Zm9.155,6.9.56.445,0,0c.021.016.042.032.062.05l.013.01c.017.013.034.027.051.041l.026.02.041.032.031.025.033.027.036.03.03.023.04.033.022.018.047.037.015.012.053.043,0,0c.455.366.9.728,1.352,1.1l.006,0,.055.045.011.01.05.041.018.014.045.037.023.019c.01.009.031.024.041.033l.027.022.039.032.029.024.036.031.032.026.033.028.038.032.027.022.05.041.016.013q.724.6,1.444,1.2l-.613.732c-1.452-1.216-2.94-2.43-4.422-3.608Zm8.789,7.36q.4.355.8.713l0,0,.06.054.017.015.046.04.027.024.036.033.032.029.029.026.04.035.023.021.042.037.02.018.044.039.019.017.046.041.014.013c.016.013.034.03.05.044l.012.011.052.047,0,0,.362.327.009.007.05.046.014.012.047.042.017.015.042.039.024.02.039.036.025.022.038.034.026.024.037.034.03.026.032.03c.013.011.026.022.038.033l.026.024.047.042.015.014.063.057h0q.929.843,1.847,1.7l-.65.7c-1.388-1.289-2.812-2.578-4.231-3.83Zm8.4,7.8q.575.562,1.146,1.128l.01.01.052.051.016.016.043.043.023.023.038.037.027.027.032.032.031.032.028.028.036.036.019.019c.015.015.03.029.044.044l.011.011.051.05v0q1.179,1.175,2.339,2.367l0,0,.053.053.011.012.033.033-.686.666c-1.319-1.359-2.675-2.718-4.029-4.042Zm7.988,8.222q1.883,2.039,3.715,4.126l0,0c.018.021.036.041.054.062l.011.011.044.052.007.008-.718.63c-1.248-1.424-2.532-2.852-3.817-4.244Zm7.556,8.62c.057.069.114.138.171.205l0,0,.051.061.01.011.047.056.01.012.046.055.01.012.046.055.011.013.045.054.011.013.048.058.008.01.169.205h0l.054.067.01.011.046.055.015.018.039.049.019.023.036.044s.016.019.02.025l.035.043.019.023.037.046c.009.011.01.011.018.022l.037.046.018.021c.012.016.026.032.038.047l.017.021c.013.017.028.034.042.051l.011.015.047.056.009.011.053.065c0,.006,0,0,0,0l.282.347h0l.056.069.055.069,0,0q.959,1.182,1.9,2.376l-.75.592c-1.173-1.487-2.383-2.978-3.594-4.434Zm7.1,9,0,0q.186.248.372.5l.008.01.044.058.014.02.037.051a.176.176,0,0,1,.016.022l.034.046.021.028c.01.013.02.027.03.041l.024.032c.009.011.017.024.027.035s.017.024.026.035l.026.034.026.035c.009.01.016.022.024.032l.029.038.02.028.032.043.014.02.037.05.008.011c.789,1.068,1.573,2.149,2.343,3.232l0,0c.012.017.024.032.035.05l.015.021.029.041.023.032.023.032c.009.014.02.028.03.041l.007.01-.78.553c-1.095-1.545-2.226-3.1-3.361-4.613Zm6.632,9.35q.768,1.144,1.521,2.3l0,.007.035.053.013.02.03.047.018.028.026.038.023.037c.008.011.014.02.022.032l.028.043.017.026c.01.017.022.034.033.051a.145.145,0,0,0,.012.02c.013.02.026.04.039.059l.007.01c.014.024.03.047.045.07l0,0q.633.976,1.257,1.96l-.806.512c-1.015-1.6-2.065-3.207-3.12-4.78Zm6.141,9.679q.39.652.776,1.306l.009.013c.011.021.024.041.035.061l.012.021.031.053.015.026.028.047c.007.012.011.02.019.032l.025.043.018.032.026.042.021.036.021.036.023.039.019.032.026.045.017.029.026.044.018.031.027.046.013.023.03.052.011.018.2.343,0,0,.034.06.01.016.032.056.01.017.032.055.011.019c.01.018.021.037.032.055l.01.018.032.054.011.02.032.056.009.014c.013.024.02.036.034.06l.007.011c.013.025.024.042.037.066.371.642.734,1.277,1.1,1.922l-.832.469c-.931-1.649-1.9-3.309-2.869-4.934Zm5.634,9.984c.512.965,1.023,1.947,1.522,2.92l0,.011.025.049.015.031c.007.012.014.027.02.039s.014.027.021.04l.016.032.024.048c0,.006.011.022.014.028l.027.053.011.022.03.058.01.018.032.065.006.01.036.073,0,.006q.406.8.8,1.6l-.855.426c-.845-1.695-1.723-3.4-2.611-5.076Zm5.109,10.263c.333.713.663,1.431.988,2.149l.034.076h0l.033.075,0,.006.033.073v0c.078.173.16.353.237.526l.006.012.027.06.009.018c.009.02.015.036.025.055s.007.016.011.025l.024.053.011.027.023.05.012.03.023.05a.288.288,0,0,0,.013.03l.021.048.014.033.02.046.016.036.018.041.017.039.019.041c.006.012.01.026.016.038l.018.04.018.04.017.04.02.044.014.033.023.052.013.029c.047.108.095.215.141.322l.007.013.03.069,0,.011c.01.023.021.047.031.07l.006.011.031.071,0,.01.031.071,0,.011c.011.025.022.05.032.074l0,0q.126.287.25.573l-.876.381c-.755-1.736-1.544-3.487-2.344-5.2Zm4.571,10.512q1.073,2.654,2.08,5.342l-.9.334c-.664-1.773-1.36-3.563-2.07-5.318Zm4.019,10.736q.933,2.7,1.8,5.442l-.911.289c-.571-1.806-1.173-3.63-1.791-5.419Zm3.455,10.93q.3,1.03.584,2.065l0,.009c.007.025.013.05.021.075l0,.019.018.064.007.026.016.059.008.027c0,.019.01.037.015.055l.01.034c0,.016.009.033.013.048l.01.039c0,.015.008.03.012.044l.012.044c0,.012.008.026.01.039l.012.045c0,.012.008.025.01.038l.013.049.009.032c.006.02.01.032.015.053l.008.03.015.055a.206.206,0,0,0,.008.027c0,.021.01.036.015.057l.007.025.017.062,0,.013c.006.021.014.05.019.071l0,.008.175.651,0,.007c.006.02.013.049.019.07l0,.014c.006.021.011.042.016.063l.007.023.016.059.006.025.015.056.009.031c0,.013.01.035.012.05l.01.037.011.043.012.045.01.037c0,.016.009.033.013.05s0,.018.008.031l.016.059.006.023c.006.023.012.046.018.068l0,.013c.007.028.013.054.021.081,0,.007,0-.006,0,0,.069.26.137.521.2.781l-.925.241c-.476-1.833-.983-3.686-1.507-5.5ZM757,302.684q.2.871.4,1.745h0q.215.96.421,1.924h0l.017.084,0,.009c.006.026.011.051.016.075l0,.018.014.068,0,.021c0,.021.009.042.013.063l.007.03.011.053.008.036.01.046.01.045c0,.013.006.026.008.039s.008.034.011.049l.008.033c0,.022.008.036.011.057l0,.022.014.067,0,.013q.116.55.228,1.1l-.936.192c-.38-1.855-.79-3.732-1.218-5.576Zm2.3,11.231q.1.57.2,1.142c0,.008,0,0,0,.006,0,.026.01.052.013.076l0,.014.011.067,0,.025c0,.018.007.035.01.053s0,.026.007.039l.007.039.009.051,0,.029.011.06,0,.018.012.071v0c.112.657.221,1.312.326,1.971h0c0,.029.009.055.013.084v0l.013.08v.008c0,.029.008.05.012.078l0,.01c0,.029.007.046.011.075l0,.014c0,.029.007.042.011.071l0,.017c0,.022.008.048.011.069l0,.02c0,.021.007.045.01.066l0,.023c0,.021.006.04.01.062l0,.03c0,.022.006.034.009.055l.006.035c0,.022,0,.03.008.051l.007.04.007.047c0,.016.006.032.008.049l.006.035c0,.022.007.044.01.066l0,.021c0,.027.009.054.013.081,0,.008,0,0,0,0q.062.4.122.8l-.944.143c-.284-1.874-.6-3.768-.929-5.632Zm1.718,11.336q.354,2.835.638,5.7l-.951.094c-.186-1.885-.4-3.794-.636-5.672Zm1.131,11.408c.014.205.029.4.043.609v.006c0,.022,0,.047,0,.069l0,.021,0,.047,0,.047,0,.026c0,.022,0,.043,0,.065v.015l.006.076v0q.162,2.363.276,4.739l-.954.046c-.091-1.894-.206-3.81-.345-5.7Zm.546,11.449c.011.506.021,1.011.029,1.518v.008c0,.03,0,.05,0,.079v.011l0,.078v.01c0,.03,0,.055,0,.085v0l0,.176v.017c0,.022,0,.045,0,.067v.2c0,.014,0,.039,0,.054v.032c0,.022,0,.034,0,.057v.028c0,.059,0,.108,0,.168v.084c0,.012,0,.024,0,.036v.047c0,.013,0,.026,0,.039v.046c0,.013,0,.027,0,.04v.168c0,.03,0,.042,0,.072v.028c0,.022,0,.043,0,.066v.085c0,.012,0,.026,0,.039v.084c0,.015,0,.032,0,.047v.3c0,.03,0,.043,0,.073v.12c0,.014,0,.035,0,.051v.171c0,.011,0,.023,0,.033v.282c0,.022,0,.035,0,.057v.46c0,.217,0,.433,0,.65v.066l-.955,0c0-.238,0-.475,0-.713,0-1.66-.018-3.342-.055-5Zm-.992,11.44.955.027c0,.1-.006.208-.01.312q-.034,1.191-.083,2.377h0c0,.03,0,.058,0,.087v.009c0,.027,0,.054,0,.08v.012l0,.076v.018l0,.071v.021l0,.067v.026l0,.063,0,.031c0,.019,0,.038,0,.057l0,.031c0,.019,0,.039,0,.059l0,.03c0,.019,0,.039,0,.059l0,.031c0,.019,0,.038,0,.057s0,.027,0,.034l0,.055v.032l0,.056v.032l0,.057,0,.03c0,.02,0,.04,0,.06l0,.03,0,.06v.026l0,.065v.021c0,.023,0,.046,0,.069v.018c0,.024,0,.048,0,.073v.014c0,.026,0,.052,0,.076v.009q-.032.666-.068,1.334l-.954-.052c.1-1.89.182-3.809.235-5.7m-.615,11.4.952.076c-.009.111-.018.229-.027.339v0l-.007.075v.016c0,.022,0,.041,0,.063l0,.028c0,.022,0,.032,0,.053s0,.025,0,.037l0,.05,0,.039,0,.047c0,.014,0,.029,0,.044l0,.04,0,.049c0,.008,0,.032,0,.038l0,.052,0,.037,0,.052c0,.007,0,.029,0,.036l0,.053c0,.008,0,.026,0,.033s0,.037,0,.055,0,.026,0,.033,0,.037,0,.056l0,.032-.006.055c0,.014,0,.019,0,.034s0,.036,0,.054,0,.019,0,.034,0,.035,0,.053,0,.02,0,.034,0,.037,0,.056l0,.033c0,.018,0,.036,0,.054l0,.035c0,.018,0,.036,0,.054l0,.033,0,.054c0,.015,0,.019,0,.034s0,.036,0,.054l0,.035c0,.017,0,.033,0,.051s0,.026,0,.04l0,.049,0,.039c0,.016,0,.032,0,.049s0,.026,0,.04l0,.048c0,.014,0,.028,0,.042l0,.044,0,.046,0,.043,0,.046c0,.013,0,.028,0,.041s0,.033,0,.048,0,.026,0,.039,0,.036,0,.051l0,.034,0,.056,0,.029-.006.06,0,.028c0,.022,0,.038-.006.06a.231.231,0,0,1,0,.027l-.006.063,0,.022-.006.067,0,.019-.007.069,0,.019c0,.021,0,.047-.007.069v.018c0,.022,0,.05-.008.072v.011l-.008.078v0c-.047.489-.1.982-.146,1.47l0,.017c0,.014,0,.038,0,.053s0,.025,0,.037l0,.041c0,.016,0,.031,0,.048s0,.021,0,.035l-.006.053,0,.029-.006.062,0,.015c0,.026-.006.051-.008.076v.006l-.009.084h0c0,.03-.007.058-.01.088l-.95-.1c.2-1.882.375-3.795.526-5.684m-1.2,11.352.947.124h0l-.011.086v0c0,.028-.007.055-.01.083v.007c0,.027-.007.053-.01.08v.01c0,.027-.008.053-.01.078l0,.011c0,.025-.007.051-.01.076v.012c0,.024-.007.048-.011.072l0,.018-.009.067,0,.023-.009.063,0,.026-.009.062,0,.027c0,.02,0,.04-.008.06l0,.028-.009.061,0,.028-.009.062,0,.025-.009.062,0,.027-.009.06,0,.028-.007.054-.006.034c0,.017,0,.034-.007.052l0,.036c0,.029-.009.058-.012.087l-.006.042c0,.015,0,.031-.007.046l0,.04c0,.016,0,.032-.007.048l-.006.034c0,.018,0,.036-.007.053l0,.035c0,.017-.006.034-.008.053l-.006.039c0,.016,0,.032-.007.048l-.006.043c0,.015,0,.03-.007.044l-.006.044-.007.044-.006.044c0,.015,0,.03-.007.044l-.006.041c0,.016,0,.031-.007.048l-.006.038c0,.017,0,.033-.007.05l-.006.037c0,.017,0,.033-.007.051l-.006.038-.008.05,0,.036-.008.052,0,.037-.008.05c0,.014,0,.022-.006.037l-.007.052c0,.014,0,.022-.006.036s0,.034-.008.051l0,.035c0,.018,0,.036-.008.053l0,.034-.009.055,0,.03-.009.059,0,.029-.009.06,0,.026c0,.021-.007.042-.01.063a.232.232,0,0,1,0,.025c0,.022-.006.044-.01.065l0,.021c0,.022-.007.045-.01.067l0,.022c0,.023-.007.046-.01.069l0,.017c0,.024-.007.048-.01.073l0,.015-.011.079v.006c0,.028-.009.055-.012.083v0q-.132.884-.271,1.767l-.944-.149c.3-1.87.57-3.77.819-5.648m-1.784,11.274.94.174q-.116.629-.236,1.257l0,.012c-.006.029-.008.041-.013.07l0,.027-.011.056c0,.015-.006.03-.01.045l-.007.038-.012.064,0,.02q-.355,1.846-.74,3.682v0l-.017.081,0,.015-.014.067-.006.028c0,.018-.008.037-.012.055l-.008.04-.009.04,0,.021-.934-.2c.392-1.852.765-3.736,1.109-5.6m-2.364,11.167.929.222c-.443,1.855-.915,3.72-1.4,5.558l-.924-.246c.488-1.83.959-3.691,1.4-5.533M752.8,415.766l.916.27c-.1.342-.2.685-.3,1.026-.006.021-.01.033-.016.054l-.008.026c-.009.027-.013.045-.022.073l0,.008c-.434,1.439-.878,2.863-1.339,4.29l-.909-.293c.583-1.8,1.149-3.637,1.684-5.453m-3.51,10.86.9.317c-.565,1.6-1.145,3.192-1.746,4.779l0,.009-.02.052-.011.032c-.006.013-.01.023-.014.036l-.018.049-.009.025-.023.06-.006.015c-.01.025-.018.049-.028.073v0l-.095.249-.893-.341c.675-1.769,1.338-3.572,1.966-5.358m-4.071,10.664.884.363c-.094.228-.19.461-.285.689v0c-.011.026-.02.049-.032.074l0,0c-.011.027-.02.047-.031.074l0,.007-.03.072,0,0-.031.074,0,0-.076.184-.02.049-.011.027-.023.054-.011.026-.023.055-.011.025c-.008.019-.015.038-.024.057l-.01.023-.025.058-.009.022-.026.06-.009.02-.026.062-.008.019c-.01.021-.018.042-.028.064l-.007.016-.029.068,0,.011c-.01.023-.02.047-.03.07l-.006.012c-.01.024-.02.049-.031.073l0,.008c-.01.026-.022.051-.032.076l0,0q-.122.288-.245.575v0l-.032.076-.006.012-.03.069-.006.013-.029.066-.008.019-.027.063-.009.018-.026.061-.01.021-.026.061-.009.02c-.009.019-.017.039-.025.058l-.01.025-.026.057-.009.022-.026.06-.01.02c-.009.022-.018.043-.028.065l-.007.015-.028.065-.008.016c-.011.025-.021.051-.032.075,0,.006,0,0,0,0-.047.109-.095.218-.142.327,0,.007,0,0,0,0-.011.026-.023.052-.033.078l0,.01-.031.071-.006.012-.03.068-.007.015c-.01.023-.02.045-.03.068l0,.01c-.01.024-.02.048-.031.071l0,.011-.032.072,0,.01-.032.072,0,.01-.034.077h0q-.126.287-.253.572l-.873-.386c.766-1.732,1.521-3.5,2.241-5.249m-4.618,10.438.863.409c-.059.127-.117.248-.178.375l0,.009-.033.069,0,.007-.033.068,0,.01c-.012.025-.02.043-.032.068l0,.007-.033.07,0,.008c-.012.025-.022.045-.033.071l0,0-.034.073,0,0c-.17.354-.339.705-.511,1.059v0c-.147.3-.293.6-.441.9l0,0-.034.07,0,.007-.032.064-.008.015c-.009.018-.02.04-.029.059l-.01.018c-.009.019-.017.035-.027.054l-.012.026c-.007.013-.019.038-.025.052a.2.2,0,0,0-.012.025l-.026.052-.013.027c-.007.012-.018.036-.024.049l-.016.033c-.007.012-.015.031-.021.043l-.019.037c-.009.019-.01.022-.02.041l-.018.036c-.006.012-.013.028-.02.04s-.015.031-.022.046l-.015.031c-.039.079-.078.158-.118.237-.012.027-.026.053-.039.079l0,0-.038.075v0c-.013.026-.026.052-.038.077l0,0-.038.076,0,0-.039.077q-.221.44-.442.88l-.852-.432c.855-1.69,1.7-3.415,2.511-5.126m-5.153,10.184.841.454c-.833,1.546-1.68,3.073-2.549,4.6l0,0-.035.061-.009.016-.029.05-.018.031-.022.04c-.008.012-.015.025-.022.038s-.012.021-.019.032l-.029.051-.011.02-.037.066,0,0-.829-.475c.942-1.643,1.874-3.322,2.773-4.989m-5.674,9.9.817.5q-1.489,2.451-3.039,4.86l-.8-.517c1.024-1.593,2.043-3.221,3.026-4.839m-6.177,9.6.79.538c-.548.806-1.094,1.6-1.653,2.394l0,.007c-.015.023-.026.037-.042.06l-.009.012-.037.054-.014.02-.033.047-.02.03-.027.038-.032.045-.016.023-.043.061-.006.009q-.669.953-1.348,1.9l-.776-.558c1.105-1.537,2.206-3.111,3.271-4.677m-6.663,9.268.761.578q-1.191,1.568-2.408,3.116l0,0-.052.067,0,0-.053.066,0,0-.048.061-.009.01-.047.06-.047.059-.011.015-.04.05-.013.016c-.017.022-.03.039-.048.061l0,0-.05.063,0,0c-.228.289-.455.573-.685.861l-.746-.6c1.184-1.479,2.364-2.994,3.508-4.5m-7.13,8.914.73.615-.346.41,0,0-.054.063,0,.007-.05.058-.01.012-.046.054-.011.013-.045.053-.013.015c-.014.018-.03.035-.045.053l-.011.012c-.014.018-.029.035-.044.053l-.014.016-.04.048-.016.019c-.011.012-.022.026-.033.038l-.06.07-.018.022-.041.048-.013.015-.04.048-.015.018-.041.048-.014.016-.041.048-.014.017-.043.05-.01.012-.047.053-.008.01-.049.056,0,0q-1.241,1.446-2.505,2.871l-.715-.634c1.257-1.417,2.514-2.869,3.735-4.316m-7.579,8.535.7.652q-.212.228-.426.454a.281.281,0,0,1-.023.025l-.034.036-.034.036-.023.025-.036.039-.022.023-.04.043-.016.017-.045.047-.012.013-.05.052-.006.007-.053.055,0,0c-.439.464-.872.921-1.316,1.381l0,.006-.047.049-.013.014-.043.044-.018.019-.037.039-.025.025-.032.034-.029.03-.03.031-.032.033-.028.029c-.011.012-.023.025-.035.036l-.023.025-.042.043-.017.018-.055.057,0,0q-.654.675-1.313,1.345l-.681-.67c1.328-1.35,2.658-2.736,3.951-4.12m-8.006,8.136.664.687q-.966.933-1.943,1.853l0,0-.06.055-.008.008-.054.051-.012.011-.051.048-.014.013-.051.047-.013.013-.05.046-.015.015-.042.039-.131.122-.013.012-.057.055,0,0-.06.055h0c-.527.493-1.063.99-1.6,1.478l-.646-.7c1.4-1.28,2.794-2.6,4.157-3.911m-8.412,7.715.627.72q-2.135,1.86-4.323,3.67h0l-.046.038-.609-.737c1.46-1.207,2.924-2.449,4.353-3.693m-8.8,7.272.589.752q-2.254,1.768-4.555,3.48l-.569-.767c1.519-1.129,3.045-2.295,4.535-3.464m-9.159,6.812.55.781-.363.255-.013.01-.055.039-.023.016-.047.032-.029.02-.04.028-.036.026-.031.022-.04.029-.028.019-.046.032-.022.015-.049.034-.017.012-.056.039c-1.159.808-2.333,1.609-3.508,2.4l-.013.01-.049.032-.025.017-.04.027-.033.022L663.8,538l-.041.027-.027.018-.048.032-.012.008-.529-.795c1.575-1.05,3.159-2.136,4.707-3.226m-9.5,6.33.509.808q-1.778,1.121-3.579,2.208l-.009.006-.064.038-.018.011-.056.034-.02.012-.054.032-.024.014-.05.03-.026.015-.048.029-.03.018-.043.026-.032.019-.04.024-.036.021-.036.023-.037.022-.027.016-.406.242,0,0-.071.042h0l-.07.041,0,0-.108.065-.488-.822c1.627-.968,3.266-1.97,4.868-2.98m-9.811,5.834.466.833-.466.261-.009,0-.066.036-.016.01-.057.032-.026.014-.05.028-.027.014-.049.028-.029.016-.047.025-.031.017-.044.024-.033.019-.043.024-.032.018-.044.024-.033.018-.04.023-.035.019-.036.02-.075.042-.039.021-.033.019-.042.023-.037.02-.039.022-.039.021-.035.02-.039.021-.039.022-.034.019-.041.023-.035.018-.043.024-.032.018-.043.023-.033.019-.045.024-.031.017-.048.026-.028.015-.052.028-.025.014-.054.03-.022.011-.063.034-.012.007-.39.212-.008,0-.07.037-.01.006-.068.036-.013.007-.064.035-.014.008-.063.033-.015.009-.064.034-.013.008-.063.033-.016.01-.062.033-.014.008-.064.034-.014.008-.071.038,0,0-.075.039,0,0-.311.167-.023.011-.054.029-.032.017-.043.023-.037.02-.039.021-.041.022-.033.017-.048.026-.027.013-.052.029-.02.01-.058.031-.014.008-.066.035h0l-.681.36-.445-.846c1.675-.882,3.363-1.8,5.016-2.724m-10.1,5.318.423.857-.117.057-.012.006-.062.031-.016.009-.056.028-.027.012-.049.025-.032.016-.041.019-.049.024-.027.013-.065.032-.011,0q-1.526.748-3.064,1.473l-.007,0-.07.033-.02.01-.058.027a.258.258,0,0,1-.028.013l-.046.022-.039.018-.038.018-.043.02-.033.015-.049.023-.027.012-.054.026-.018.008-.063.03-.007,0-.945.439-.4-.867c1.719-.794,3.452-1.622,5.15-2.461m-10.36,4.787.377.877q-1.477.638-2.967,1.253h0l-.079.032-.006,0-.075.031-.01,0-.071.03-.012,0-.065.027-.02.009-.059.024-.023.01-.054.023-.029.011-.048.02-.033.013-.036.015c-.562.23-1.14.464-1.7.69l-.355-.887c1.758-.7,3.531-1.441,5.271-2.191m-10.6,4.243.332.9q-.568.211-1.137.417h0l-.318.116h0l-.791.286-.008,0-.066.024-.015.006-.057.02-.028.01-.051.018-.032.011-.05.018-.033.011-.046.017-.036.012-.044.015-.042.015-.038.013-.044.016-.037.013-.05.017-.031.01-.054.019-.028.01-.059.021-.022.008-.066.023-.016.006-.079.029h0q-1.056.373-2.116.735l-.309-.9c1.791-.612,3.6-1.256,5.377-1.915m-10.8,3.688.286.911q-1.495.467-3,.913h0l-.079.024-.024.007-.058.017-.033.01-.051.015-.039.011-.042.012-.046.014-.036.01-.051.014-.032.01-.051.015-.033.01-.052.015-.029.009-.057.017-.024.007-.061.018-.019.006-.065.019-.017,0-.068.02-.01,0-.075.021,0,0c-.479.139-.955.277-1.436.413l-.261-.918c1.821-.518,3.662-1.067,5.469-1.632m-10.979,3.12.238.926-.032.008-.035.009-.053.014-.028.007-.063.016-.017,0-.072.018-.008,0c-1.748.445-3.5.868-5.263,1.273l-.213-.931c1.846-.422,3.713-.875,5.546-1.345m-11.126,2.546.189.936-.876.175h0l-.082.016-.008,0-.073.014-.017,0-.065.013-.024,0-.053.01-.037.008-.039.008-.05.01-.023,0q-1.943.38-3.9.724h-.008l-.073.013-.017,0-.064.011-.026,0-.055.01-.037.006-.046.009-.045.008-.019,0-.165-.941c1.867-.327,3.754-.682,5.61-1.056M573.336,571.9l.14.945q-1.5.222-3.011.425h-.007l-.08.011h-.012l-.075.01-.022,0-.064.009-.03,0-.057.008-.035,0-.051.007-.039,0-.049.007-.041,0-.046.007-.041,0-.047.007-.041.006-.048.006-.038,0-.051.007-.037,0-.052.007-.035,0-.054.007-.033,0-.057.008-.028,0-.062.009-.025,0-.068.009-.017,0-.076.01h-.009q-.62.079-1.243.155l-.116-.949c1.881-.229,3.783-.486,5.656-.763m-11.329,1.381.091.952q-2.846.272-5.712.474l-.067-.953c1.891-.132,3.8-.291,5.688-.472m-11.386.8.043.954q-2.856.126-5.729.181l-.018-.955c1.9-.036,3.815-.1,5.7-.181m-17.125.109c1.892.059,3.812.1,5.708.108l-.007.955c-1.525-.01-3.052-.034-4.57-.075l-1.162-.034Zm-11.4-.653c1.886.157,3.8.29,5.693.4l-.054.953c-.3-.017-.6-.034-.9-.053h0l-.089,0h0l-.088-.006h0l-.089-.006-.088-.006h0l-.088-.006-.088-.006h0l-.178-.011h0q-2.058-.132-4.105-.3ZM510.753,572.3c1.875.253,3.781.485,5.665.691l-.1.95c-.4-.044-.792-.087-1.192-.133h0l-.085-.01h0l-.081-.01h-.01l-.076-.009-.014,0-.071-.009-.022,0-.065-.008-.024,0-.062-.008-.03,0-.057-.007-.037,0-.049-.006-.043,0-.045-.006-.045,0-.042,0-.046-.006-.044-.006-.046,0-.04,0-.053-.007-.036,0-.054-.007-.033,0-.059-.008-.029,0-.164-.02-.012,0-.088-.011-.051-.006-.035,0-.055-.007-.033,0-.061-.008-.026,0-.06-.008-.028,0-.067-.008-.019,0-.063-.008-.026,0-.064-.009-.023,0-.065-.008-.022,0-.073-.009-.013,0-.074-.01-.013,0-.077-.01H512.6l-.079-.01h-.008l-.081-.011h0l-.081-.01h-.007c-.572-.073-1.14-.147-1.71-.225Zm-11.269-1.819c1.861.35,3.753.68,5.622.982l-.152.943q-.974-.156-1.945-.323H503l-.079-.013-.012,0-.075-.012-.017,0-.072-.012-.011,0-.077-.013-.011,0-.076-.012-.012,0-.076-.012-.012,0-.077-.013h-.008l-.08-.014H502.3l-.081-.014h-.006l-.082-.014h0q-1.412-.246-2.815-.51Zm-11.158-2.4c1.84.446,3.712.874,5.564,1.273l-.2.934-.786-.171-.059-.012-.026-.006-.075-.016-.009,0-.079-.018h0l-.083-.018h0q-1.811-.4-3.611-.828h-.006l-.077-.019-.01,0-.074-.018-.029-.007-.054-.012-.6-.146ZM477.308,565.1c1.814.541,3.661,1.066,5.49,1.559l-.249.923-1-.272h0l-.077-.022-.01,0-.072-.019-.012,0-.069-.019-.017,0-.065-.018-.02-.006-.062-.016-.025-.008-.058-.016-.026-.007-.058-.016-.027-.008-.056-.015-.029-.009-.054-.015-.033-.009-.052-.014-.032-.01-.052-.014-.031-.009L480.43,567l-.037-.011-.044-.012-.04-.011-.046-.012-.038-.011-.047-.013-.037-.01-.049-.013-.035-.01-.047-.013-.038-.011-.047-.012-.036-.01-.048-.013-.035-.01-.052-.014-.031-.009-.053-.015-.031-.009-.054-.016-.028-.008-.056-.016-.027-.008-.058-.016-.024-.007-.059-.017-.023-.007-.062-.018-.017,0-.066-.019-.016,0-.07-.019-.006,0-.076-.022,0,0-.648-.187-.009,0-.069-.02-.014,0-.062-.018-.023-.007-.058-.017-.026-.008-.053-.015L478,566.3l-.048-.014-.038-.011-.042-.011-.045-.013-.037-.011-.048-.013-.035-.011-.052-.015-.03-.01-.06-.017-.02-.006-.073-.022-.01,0-.425-.126Zm-10.849-3.546c1.785.635,3.6,1.255,5.4,1.844l-.3.909-.511-.168h0l-.081-.027-.01,0-.07-.024-.021-.007-.062-.02-.023-.008-.058-.02-.028-.009-.053-.018-.033-.01-.044-.015-.042-.013-.036-.012-.049-.016-.028-.01-.056-.018-.018-.007q-2.111-.7-4.2-1.446Zm-10.651-4.1c1.749.726,3.532,1.441,5.3,2.121l-.343.891q-2.678-1.032-5.322-2.13ZM445.386,552.8c1.708.817,3.452,1.622,5.181,2.393l-.39.873c-.694-.31-1.4-.628-2.086-.945l-.032-.014-.03-.013-.053-.025-.02-.009-.06-.028-.019-.01-.063-.029-.013-.006-.068-.031-.011-.006-.072-.033-.006,0-.075-.034,0,0q-1.015-.469-2.024-.948l-.037-.017-.037-.018-.073-.034,0,0-.416-.2Zm-10.168-5.187c1.664.9,3.364,1.8,5.05,2.659l-.434.851-.017-.009-.04-.02-.034-.018-.049-.025-.027-.013-.06-.031-.015-.009q-1-.509-1.985-1.028h0l-.077-.04h0l-.076-.041h0l-.076-.04,0,0-.075-.039,0,0-.55-.29-.016-.009-.059-.032-.026-.013-.052-.028-.026-.013-.051-.027-.032-.016-.043-.024-.036-.019-.039-.021-.039-.02-.036-.02-.04-.021-.035-.019-.043-.023-.031-.016-.045-.025-.028-.014-.051-.027-.022-.012-.053-.028-.02-.01-.426-.229h0l-.072-.038,0,0-.066-.034-.011-.007-.062-.033-.012-.007-.063-.034-.011-.006-.064-.035-.01,0-.065-.035-.01-.006-.065-.035-.007,0-.069-.037,0,0-.132-.072Zm-9.885-5.7c1.616.989,3.266,1.97,4.906,2.916l-.478.828-.464-.269h0l-.074-.043,0,0-.067-.038-.013-.008-.064-.037-.011-.008-.065-.037-.012-.007-.143-.084-.01-.006-.075-.043-.041-.024-.032-.019-.047-.028-.029-.016-.052-.031-.02-.011-.054-.031-.02-.011-.053-.032-.019-.01-.053-.032-.022-.012-.054-.032-.017-.01-.057-.033-.015-.01-.058-.034-.014-.008-.06-.035-.011-.007-.064-.038h0c-.241-.141-.479-.282-.718-.425h0l-.068-.04-.007,0-.068-.04h0l-.069-.042,0,0-.069-.041,0,0-.069-.041,0,0-.571-.342h0l-.068-.041,0,0-.065-.039-.009,0-.064-.039-.008,0-.063-.038-.011-.006-.062-.038-.009,0-.064-.039-.008,0-.066-.039,0,0c-.323-.2-.648-.393-.969-.589Zm-9.579-6.208c1.563,1.071,3.16,2.136,4.749,3.166l-.52.8q-2.218-1.437-4.4-2.926h0l-.067-.045-.018-.012-.052-.035-.026-.018-.04-.028-.037-.025-.03-.02-.048-.033-.014-.009-.037-.027Zm-9.246-6.693c1.5,1.15,3.046,2.3,4.58,3.406l-.561.774-.032-.024-.02-.014-.053-.037-.014-.011-.06-.043,0,0q-1.553-1.128-3.084-2.279l-.008,0-.057-.044-.016-.011c-.016-.013-.034-.026-.051-.038l-.021-.016-.046-.034-.043-.032-.023-.017q-.536-.4-1.068-.811Zm-8.891-7.159c1.445,1.226,2.924,2.449,4.4,3.636l-.6.744q-.312-.251-.624-.5l-.007-.006-.058-.047-.016-.013-.048-.038-.023-.019-.04-.032-.032-.026-.031-.025-.038-.031-.022-.017-.048-.039,0,0q-1.73-1.409-3.428-2.85Zm-8.512-7.606c1.38,1.3,2.794,2.6,4.207,3.858l-.636.712-.063-.056-.009-.008-.053-.047-.019-.017-.042-.037-.028-.025-.031-.028-.038-.034-.019-.017-.048-.043-.006,0c-1.307-1.173-2.592-2.353-3.87-3.556Zm-8.11-8.032c1.311,1.366,2.658,2.735,4,4.068l-.673.679c-.415-.411-.825-.821-1.236-1.234h0l-.057-.058h0l-.056-.056,0-.006-.054-.054,0,0-.055-.056-.006-.006-.211-.213-.019-.02-.027-.027-.034-.034-.026-.027-.036-.036-.022-.023-.04-.04-.02-.02-.043-.044-.016-.016-.045-.046-.016-.016-.049-.05-.01-.01-.054-.055-.006-.006q-.94-.957-1.87-1.926Zm-7.688-8.437c1.239,1.431,2.515,2.867,3.79,4.268l-.706.643q-.363-.4-.721-.8h0l-.058-.065,0,0-.054-.059-.008-.009-.05-.055-.01-.011-.043-.048-.017-.019-.041-.046-.017-.019-.038-.043c-.023-.026-.049-.053-.072-.08h0l-.051-.057-.006-.006-.051-.056-.006-.007-.051-.056,0-.006-.053-.06h0q-1.235-1.381-2.449-2.783Zm-7.245-8.821c1.165,1.493,2.364,2.993,3.566,4.457l-.738.607-.032-.04-.008-.01-.039-.047-.02-.025-.03-.036-.03-.036c-.01-.011-.012-.015-.021-.026l-.039-.047-.014-.017c-.016-.021-.032-.041-.05-.061l0,0q-1.672-2.044-3.3-4.128Zm-6.781-9.181c1.085,1.552,2.206,3.111,3.331,4.635l-.768.567c-.368-.5-.731-.994-1.095-1.494l0,0-.041-.056-.011-.016-.032-.045a.345.345,0,0,1-.022-.031l-.026-.034c-.009-.013-.018-.026-.028-.038l-.021-.03-.035-.048-.012-.018c-.015-.02-.03-.041-.045-.062l0,0q-1-1.379-1.972-2.773Zm-6.3-9.518c1,1.605,2.044,3.22,3.089,4.8l-.8.526-.2-.3,0-.007-.044-.066-.008-.011-.038-.059-.012-.018-.035-.053-.014-.022L354.89,475l-.02-.03-.027-.041c0-.007-.018-.027-.022-.033l-.023-.036-.025-.038-.02-.031-.029-.043-.012-.019c-.86-1.312-1.71-2.64-2.542-3.97Zm-5.8-9.831c.919,1.656,1.874,3.322,2.837,4.953l-.823.486c-.028-.049-.051-.087-.079-.135l0-.008-.03-.051c0-.01-.01-.018-.015-.027l-.023-.039-.023-.039-.018-.031-.029-.049-.012-.02-.034-.059-.008-.014c-.013-.022-.027-.044-.039-.066l0-.007-.043-.073v0q-.9-1.542-1.784-3.1l-.007-.012-.036-.064-.008-.014-.034-.06-.011-.02-.032-.055-.013-.024c-.01-.016-.018-.032-.028-.048s-.01-.019-.017-.032l-.024-.043c-.007-.012-.012-.023-.02-.034l-.02-.036-.023-.041-.017-.031c-.01-.018-.016-.028-.026-.046l-.01-.016c-.126-.226-.252-.451-.377-.677Zm-5.285-10.116c.832,1.7,1.7,3.414,2.577,5.092l-.846.442c-.882-1.688-1.749-3.4-2.588-5.114Zm-4.754-10.376c.743,1.741,1.52,3.5,2.309,5.219l-.868.4c-.292-.639-.585-1.284-.871-1.927l0,0-.032-.072,0-.007-.031-.069,0-.01-.03-.066-.006-.013c-.011-.026-.017-.037-.028-.063l-.008-.016c-.011-.026-.017-.037-.028-.063l-.007-.013-.029-.064-.006-.014-.029-.065,0-.011c-.011-.026-.019-.042-.03-.068l0-.009-.2-.453,0,0-.029-.066-.006-.013-.026-.058-.01-.022-.025-.056-.01-.021-.024-.055-.011-.026-.022-.051-.013-.03-.021-.048-.014-.033-.02-.046-.014-.033-.021-.048c0-.01-.009-.021-.013-.032l-.021-.048-.013-.032-.021-.047-.014-.034-.02-.046-.014-.032-.02-.048-.014-.032-.02-.046c-.006-.014-.012-.028-.018-.041l-.016-.038-.025-.057-.013-.03c-.01-.024-.02-.048-.031-.073l-.01-.024-.025-.057-.01-.022c-.009-.019-.017-.039-.025-.058l-.011-.026c-.008-.018-.016-.036-.024-.055l-.011-.025-.023-.054-.012-.029-.023-.053-.01-.023-.026-.06-.009-.02c-.01-.02-.018-.041-.027-.062l-.009-.018-.027-.063-.008-.018-.029-.067,0-.011-.032-.072,0-.01-.069-.161Zm-4.209-10.61c.652,1.778,1.338,3.572,2.036,5.332l-.888.353q-.312-.788-.62-1.58l0,0c-.01-.024-.018-.049-.028-.074l-.006-.012c-.008-.022-.016-.044-.025-.066l-.008-.019c-.008-.019-.015-.038-.022-.057l-.011-.027c-.007-.016-.012-.032-.018-.048l-.015-.037-.011-.031-.02-.053,0-.01c-.265-.686-.522-1.363-.779-2.052v0l-.026-.068-.006-.016c-.008-.02-.014-.036-.021-.056l-.011-.03-.017-.048c0-.011-.01-.024-.013-.036l-.016-.041c0-.015-.01-.031-.016-.045l-.012-.033-.02-.054-.009-.023-.026-.069,0-.01-.278-.754Zm-3.652-10.814c.559,1.809,1.15,3.637,1.756,5.431l-.9.306c-.287-.847-.563-1.681-.839-2.533l0-.01c-.007-.02-.011-.032-.017-.053l-.011-.031-.016-.05-.01-.033c0-.013-.01-.031-.014-.044l-.013-.041-.012-.039-.014-.044c0-.007-.01-.031-.012-.037s-.01-.032-.015-.049l-.011-.033-.016-.052-.01-.031c-.007-.018-.012-.036-.018-.054l-.01-.029-.017-.054-.01-.03-.017-.055-.01-.029-.017-.054-.01-.029-.018-.057c0-.007-.006-.02-.009-.027l-.018-.057-.009-.026c-.006-.021-.012-.041-.019-.062l-.007-.021c-.008-.022-.014-.044-.021-.066l-.006-.017-.023-.073,0-.011-.023-.071,0-.014-.026-.081v0c-.018-.056-.035-.113-.053-.169l-.008-.024c-.006-.019-.012-.039-.018-.059l-.012-.037-.014-.046-.012-.04-.013-.043c-.007-.02-.008-.025-.014-.046l-.011-.036-.016-.05-.01-.032c-.007-.02-.01-.033-.017-.054l-.009-.027c-.007-.021-.011-.038-.018-.058l-.007-.023-.021-.066,0-.012-.022-.072,0-.01-.025-.076h0c-.049-.156-.1-.316-.146-.472Zm-3.085-10.989c.464,1.836.959,3.692,1.471,5.514l-.92.258q-.7-2.5-1.344-5.017h0c-.007-.028-.014-.055-.021-.083l0-.007c-.007-.026-.012-.052-.019-.077l0-.012c-.006-.025-.012-.049-.018-.074l0-.012-.017-.071-.006-.02-.015-.061-.007-.027-.014-.055,0-.021Zm-2.51-11.136c.369,1.858.766,3.737,1.183,5.584l-.932.21c-.169-.75-.332-1.492-.493-2.245l0-.01c0-.021-.01-.048-.014-.069l0-.018-.013-.062-.006-.025c0-.021-.008-.035-.011-.056s0-.021-.007-.032l-.01-.049-.009-.039-.01-.045-.009-.042c0-.014-.006-.028-.01-.042s-.006-.03-.01-.045,0-.027-.009-.041-.007-.032-.01-.048l-.008-.034-.011-.053-.007-.033-.011-.053-.007-.032-.011-.055-.007-.032-.012-.058,0-.026c0-.021-.01-.042-.013-.063l0-.024c0-.021-.01-.042-.013-.063l0-.023c0-.021-.009-.042-.013-.062a.2.2,0,0,0-.006-.026c0-.022-.009-.044-.013-.066l0-.019-.014-.069,0-.019c0-.024-.01-.048-.015-.072l0-.014-.014-.072,0-.016-.034-.168v0c-.012-.058-.024-.116-.035-.174,0-.014,0-.019-.008-.033s-.007-.035-.011-.053-.007-.032-.01-.053l-.007-.031c0-.021-.009-.042-.012-.063l0-.023c0-.021-.011-.05-.014-.071l0-.012c0-.022-.011-.052-.014-.073l0-.013-.016-.077v-.006c-.061-.3-.12-.6-.181-.9Zm-1.929-11.249c.272,1.874.572,3.771.891,5.637l-.941.161,0-.017,0-.029-.011-.056-.006-.035-.009-.05-.007-.043-.008-.043c0-.015-.006-.032-.008-.048s0-.024-.007-.038-.007-.039-.011-.059l0-.026c0-.027-.01-.053-.013-.079l0-.006q-.327-1.939-.621-3.888l0-.01-.011-.076,0-.031-.009-.053-.007-.047-.006-.039c0-.022-.006-.038-.01-.059l0-.025-.011-.072,0-.012c-.04-.273-.08-.546-.119-.82ZM320.409,373.8c.175,1.887.376,3.8.6,5.676l-.949.112q-.175-1.463-.329-2.932v0c0-.029-.007-.057-.01-.085v0l-.009-.08v-.01c0-.025-.006-.05-.008-.075l0-.016c0-.024,0-.048-.008-.072l0-.017c0-.023,0-.045-.007-.068l0-.023c0-.021,0-.042-.007-.063l0-.026-.006-.058,0-.031-.006-.054,0-.034-.006-.053,0-.035,0-.051c0-.014,0-.025,0-.039l0-.04c0-.015,0-.034,0-.05l0-.032-.006-.057,0-.024-.006-.064,0-.018c-.019-.189-.039-.392-.057-.582l0-.015c0-.015,0-.038,0-.053l0-.037,0-.044,0-.045c0-.014,0-.023,0-.037s0-.035,0-.053l0-.028-.006-.063V374.5c0-.026-.006-.052-.008-.077v0l-.009-.085v0l-.009-.085h0c-.011-.119-.022-.238-.033-.357Zm-.762-11.388c.078,1.894.182,3.811.309,5.7l-.953.064q-.116-1.738-.205-3.482v0c0-.03,0-.058,0-.087v0c0-.029,0-.057,0-.086v0c0-.028,0-.056,0-.084v-.006c0-.028,0-.055,0-.082v-.009c0-.027,0-.053,0-.08v-.01c0-.028,0-.054,0-.081v-.008c0-.027,0-.053,0-.08v-.011c0-.026,0-.053,0-.078v-.011c0-.027,0-.053,0-.078v-.01c0-.028,0-.054,0-.082v-.006c0-.028,0-.056,0-.084V363.7c0-.028,0-.056,0-.085v0c0-.03,0-.059,0-.089q-.024-.537-.047-1.076Zm-1.136-11.43.955.01c-.007.708-.01,1.427-.01,2.136,0,1.188.01,2.392.029,3.579l-.955.015c0-.037,0-.075,0-.112v0c0-.031,0-.062,0-.093,0-.014,0-.023,0-.037s0-.04,0-.06,0-.026,0-.048v-.044c0-.082,0-.144,0-.226v-.012c0-.03,0-.053,0-.082v-.009c-.006-.448-.01-.891-.013-1.34,0-.112,0-.234,0-.347v-.118c0-.023,0-.049,0-.072v-.185c0-.023,0-.033,0-.056V353.6c0-.015,0-.032,0-.047v-.8c0-.031,0-.047,0-.076v-.008c0-.24,0-.476,0-.716h0c0-.03,0-.056,0-.086v-.093h0c0-.022,0-.053,0-.075v-.074c0-.015,0-.031,0-.046h0c0-.2,0-.4,0-.6m.4-11.456.953.057c-.114,1.889-.205,3.807-.271,5.7l-.955-.033q.1-2.807.265-5.592v0l.006-.081v-.014l0-.036m.984-11.422.95.107c-.211,1.881-.4,3.792-.564,5.68l-.952-.082c.034-.4.07-.8.107-1.2V332.6l.008-.076v-.016l.007-.07,0-.02.006-.066,0-.027c0-.015,0-.043.006-.058l0-.037c0-.014,0-.033,0-.047s0-.032,0-.048l0-.038.006-.055c0-.007,0-.024,0-.032l.006-.064,0-.022c0-.025,0-.05.008-.075v-.01q.178-1.873.387-3.736m1.571-11.355.942.156c-.308,1.868-.6,3.766-.854,5.643l-.947-.131.058-.418,0-.023.006-.044c0-.014,0-.03.007-.045l0-.036c0-.017,0-.034.008-.052l0-.031.009-.058,0-.027.009-.062,0-.022c0-.023.007-.045.01-.067l0-.019c0-.023.007-.047.01-.07l0-.015c0-.025.007-.049.01-.074l0-.015c0-.024.007-.05.01-.074l0-.011c0-.026.007-.052.01-.077l0-.011.011-.077v-.01l.011-.079,0-.011.011-.078V320.9l.011-.082c0-.007,0,0,0,0,0-.029.009-.057.012-.085v0c0-.029.009-.058.013-.088q.285-1.95.606-3.891m2.155-11.258.933.2c-.4,1.85-.79,3.731-1.146,5.591l-.939-.18,0-.02a.218.218,0,0,1,0-.027c0-.021.008-.038.011-.06l0-.024.011-.062,0-.023c0-.021.008-.042.012-.063l0-.022c0-.022.009-.043.012-.064l0-.023.011-.063,0-.021c0-.021.008-.044.012-.065l0-.024.011-.062,0-.021c0-.022.008-.044.012-.065v0c.013-.071.027-.141.041-.212,0-.013.006-.028.008-.041l.008-.037.01-.05.008-.036c0-.016.007-.033.01-.051l.007-.034c0-.017.007-.035.01-.053l.007-.033.01-.054.006-.029.011-.058.006-.03.011-.058.006-.027c0-.02.008-.04.012-.06l0-.028c0-.019.009-.039.012-.059l0-.026c0-.021.009-.041.012-.062l0-.025c0-.021.009-.042.013-.063l0-.022c0-.022.009-.044.013-.066l0-.021c0-.022.01-.045.013-.067l0-.019.014-.067,0-.021.013-.068,0-.018.014-.069,0-.018.014-.073,0-.012.014-.075,0-.013c.006-.026.01-.051.015-.076l0-.01c0-.027.01-.053.015-.079l0-.009c.012-.056.024-.113.035-.17v0c.048-.232.1-.464.144-.7l.007-.033.011-.053c0-.013,0-.024.009-.038s.006-.031.01-.046l.01-.046.008-.04.012-.055,0-.027.014-.064,0-.021.014-.069,0-.014c.007-.028.01-.043.015-.072l0-.013c.006-.028.011-.051.017-.079h0C323.414,306.443,323.516,305.969,323.62,305.491Zm2.737-11.13.921.251c-.5,1.827-.982,3.685-1.434,5.524l-.928-.228q.467-1.9.967-3.788h0l.022-.08v0c.007-.028.012-.048.02-.075l0-.01c.008-.028.012-.044.019-.072l0-.013c.008-.028.011-.041.018-.069l0-.015c.008-.028.011-.039.017-.067l.006-.02.016-.06.008-.03.014-.053c0-.011.006-.024.01-.035l.012-.046.011-.045.011-.038c0-.019.01-.037.015-.056l.007-.025.02-.075,0-.007q.116-.431.234-.862m3.312-10.975.907.3c-.594,1.8-1.172,3.63-1.72,5.443l-.914-.276q.672-2.231,1.392-4.443v0l.025-.076,0-.01c.008-.021.014-.042.021-.063l.008-.023.013-.043C329.493,283.92,329.58,283.655,329.669,283.385Zm3.878-10.788.89.347c-.687,1.765-1.36,3.564-2,5.345l-.9-.323q.182-.5.366-1.009l0-.007.029-.077,0-.006.028-.074,0-.012.026-.071L332,276.7l.023-.064.009-.022c.007-.02.014-.04.022-.06l.009-.023c.007-.02.013-.039.021-.058l.01-.025.02-.056.011-.028c.006-.017.012-.034.019-.052l.011-.031c.007-.018.012-.036.019-.053l.01-.029c.011-.028.02-.054.031-.081l.015-.042.014-.038c.008-.02.011-.031.018-.051l.011-.031c.006-.013.012-.033.017-.046l.014-.037.014-.04c.006-.013.011-.028.015-.041s.01-.024.016-.044l.014-.036c.007-.02.01-.026.016-.046l.014-.036.016-.044.014-.038.015-.043.015-.039.015-.042.015-.039.015-.043c0-.013.01-.026.015-.039l.015-.042.015-.041.014-.039.018-.046.012-.035c.007-.017.013-.033.019-.051l.011-.029.022-.06.009-.021c.01-.027.019-.053.03-.079q.426-1.132.864-2.258m4.434-10.571.871.393c-.778,1.726-1.543,3.488-2.276,5.234l-.881-.37c.092-.219.184-.439.277-.657l0-.007c.011-.024.02-.049.031-.073l0-.01.029-.069.007-.015.027-.063.009-.019c.008-.019.015-.037.024-.056l.011-.028c.007-.015.013-.031.019-.046s.01-.023.015-.036.01-.024.016-.036.013-.031.019-.045l.006-.012Q337.066,264.058,337.981,262.026Zm4.976-10.327.85.437c-.867,1.684-1.723,3.4-2.544,5.109l-.861-.415c.643-1.335,1.305-2.673,1.973-3.993l.007-.011.028-.055.011-.023.026-.051.013-.027.024-.046.017-.034.021-.042.017-.034c.007-.012.016-.03.022-.042l.018-.035c.007-.012.014-.03.021-.042s.012-.024.018-.035l.021-.04.02-.04.019-.036.021-.042.018-.035.022-.044c0-.007.014-.027.017-.033l.023-.045.017-.032.024-.047.015-.031.023-.044.017-.034.017-.032Zm5.5-10.055.825.48c-.952,1.638-1.9,3.31-2.8,4.971l-.839-.459.042-.076,0-.006c.013-.023.026-.046.038-.069l.008-.014.033-.06.01-.02.03-.053c0-.007.011-.022.015-.028l.026-.047c0-.007.013-.024.016-.03s.016-.031.025-.045l.018-.033c.008-.013.014-.027.022-.039l.021-.038.016-.03.027-.05,0,0C346.8,244.53,347.622,243.086,348.461,241.643Zm6.015-9.758.8.522c-1.036,1.587-2.065,3.208-3.058,4.82l-.813-.5q.353-.57.707-1.14a.115.115,0,0,0,.011-.018l.032-.051.027-.044.016-.026.034-.053.01-.016c.015-.024.025-.04.04-.063l0,0c.718-1.146,1.451-2.292,2.19-3.424m6.511-9.436.772.563c-1.115,1.531-2.226,3.1-3.3,4.657l-.786-.543q.712-1.032,1.435-2.056l0,0,.047-.066.007-.01.045-.064.006-.008.046-.065.006-.008.046-.065,0-.007c.017-.023.033-.046.05-.07h0q.8-1.132,1.62-2.254m6.987-9.088.742.6c-1.192,1.471-2.383,2.978-3.537,4.48l-.758-.583c.449-.584.9-1.161,1.352-1.74l.051-.065,0,0,.049-.062,0-.006q1-1.278,2.025-2.538h0l.044-.055.011-.013.013-.017m7.444-8.718.711.639c-1.267,1.408-2.533,2.853-3.762,4.293l-.726-.62q1.221-1.43,2.465-2.838l.006-.007c.017-.019.034-.039.053-.058l.01-.011.046-.053.017-.018c.012-.015.026-.031.039-.045l.02-.023.035-.039.026-.03.029-.032.031-.034.022-.025.039-.044.009-.01c.313-.354.617-.693.932-1.043Zm7.882-8.323.676.674c-1.337,1.341-2.675,2.718-3.977,4.094l-.694-.657q1.969-2.078,3.994-4.111m8.3-7.91.641.709c-1.4,1.271-2.811,2.578-4.182,3.885l-.659-.692c.205-.2.416-.4.622-.591l.02-.018.03-.028.037-.035.019-.019.046-.043.014-.013.054-.051,0-.006q1.661-1.565,3.352-3.1m8.692-7.473.6.74c-1.467,1.2-2.94,2.43-4.376,3.665l-.623-.724Q398.068,182.751,400.291,180.937Zm9.066-7.016.565.77c-1.527,1.12-3.06,2.276-4.558,3.436l-.585-.756.01-.008.042-.032.029-.023.035-.027.034-.027.032-.024.038-.03.023-.018.44-.339,0,0,.061-.048.006,0,.06-.046.008-.007.061-.047,0,0,.065-.05c.265-.2.528-.4.794-.606l0,0,.061-.047.009-.006.056-.043.013-.01.055-.042.01-.009.057-.043.01-.007.057-.044.01-.008.056-.043.011-.009.183-.139.007,0,.027-.02.044-.033.021-.015.051-.038.017-.013c.018-.012.035-.026.053-.039l.018-.013.054-.041.011-.009.061-.046.008-.006.067-.051h0q.9-.672,1.8-1.334m9.413-6.542.525.8c-1.583,1.04-3.174,2.116-4.729,3.2l-.546-.784c.206-.143.41-.285.616-.426l.009-.007.057-.039.02-.013.047-.033.033-.022.036-.026.046-.032.023-.015q1.215-.835,2.442-1.656l0,0,.067-.045.019-.012.052-.034.027-.018.042-.028.038-.026.03-.02.046-.03.021-.015.054-.035.011-.008.062-.042h0C418.136,167.8,418.455,167.586,418.77,167.379Zm9.739-6.049.482.825c-1.634.957-3.278,1.949-4.887,2.948l-.5-.811Q426.035,162.779,428.509,161.331Zm10.037-5.536.439.848c-1.681.871-3.374,1.776-5.033,2.691l-.461-.837q.861-.474,1.726-.942l.006,0,.072-.039.009,0,.067-.036.014-.008.063-.034.015-.008.06-.032.019-.011.061-.032.015-.009.062-.033.016-.009.066-.035.01-.006.07-.037.009,0,.155-.083.023-.012.053-.029.033-.017.042-.023.036-.019.041-.022.037-.02.038-.02.041-.022.035-.019.042-.022.033-.018.042-.022.035-.019.044-.023.028-.015.05-.026.025-.013.053-.028.02-.011.056-.03.016-.009.062-.033h0C437.447,156.366,437.992,156.081,438.546,155.794Zm10.31-5.01.4.869c-1.723.783-3.461,1.6-5.165,2.428l-.417-.859.027-.013.035-.017.05-.024.024-.011.056-.028.018-.009.064-.032.008,0,.071-.034,0,0q1.023-.494,2.05-.978h0l.062-.03.018-.009.057-.027.021-.011.053-.025.029-.013.046-.021.034-.016.041-.019.04-.019.036-.017.044-.02.034-.016.049-.023.028-.013.057-.027.02-.009.066-.032.012-.006.073-.033.008,0,.647-.3.006,0,.075-.034,0,0,.075-.034.008,0,.074-.033.008,0,.073-.032.01,0,.074-.033.006,0,.072-.033.011,0,.07-.032.011,0,.064-.03.018-.008.067-.031.012-.006.057-.027.026-.011h0l.485-.222m10.557-4.469.35.889c-1.763.693-3.541,1.418-5.284,2.156l-.373-.88h0q1.482-.626,2.973-1.233h0l.08-.033c.007,0,0,0,0,0l.078-.032.006,0,.075-.031.009,0,.072-.03.013,0,.069-.028.013-.006.07-.029.011,0,.075-.031.006,0,.08-.032h0q.831-.335,1.665-.663m10.775-3.914.3.907c-1.8.6-3.609,1.232-5.389,1.878l-.327-.9q.672-.245,1.347-.484h0l.167-.059h0l.167-.059h0q.675-.239,1.352-.474t1.354-.464l.007,0,.078-.026.007,0,.076-.026.01,0,.076-.026.01,0,.07-.024.019-.007.065-.022.019-.007.063-.021.022-.008.059-.02.026-.009.054-.018.031-.01.053-.018.03-.01.053-.017.031-.011.048-.016.037-.012.03-.01.05-.017m10.964-3.349.255.921c-1.825.505-3.669,1.042-5.48,1.6l-.279-.913q2.737-.836,5.5-1.6m11.123-2.774.207.932c-1.849.411-3.717.851-5.555,1.309l-.231-.927q2.342-.583,4.7-1.119h0l.081-.018.031-.008.049-.011.055-.012.028-.007.071-.015.01,0Zm11.251-2.193.159.942c-1.868.314-3.757.656-5.615,1.019l-.183-.938q2.1-.41,4.222-.781l.01,0,.075-.012.021,0,.061-.011.032-.006.05-.009.046-.008.032-.006.062-.011.018,0,.076-.012h0C502.906,134.189,503.211,134.137,503.525,134.085Zm11.35-1.608.109.949c-1.881.217-3.786.462-5.66.728l-.135-.947q2.822-.4,5.662-.728h.024m11.417-1.022.061.953c-1.892.12-3.806.268-5.691.436l-.085-.952q2.848-.255,5.715-.438m11.455-.437.012.955c-1.9.024-3.815.073-5.706.145l-.036-.955.558-.02h0l.084,0h.011l.075,0h.026l.061,0h.035l.052,0,.048,0h.038l.058,0h.03l.087,0,.076,0h.012l.084,0h0q2.19-.07,4.39-.1" transform="translate(-14.209 -5.844)" fill="#727997"/>
      <path id="Trazado_875537" data-name="Trazado 875537" d="M453.529,104H645.835a7.028,7.028,0,0,1,7.029,7.029v46.132a7.028,7.028,0,0,1-7.029,7.029H453.529a7.029,7.029,0,0,1-7.029-7.029V111.029A7.029,7.029,0,0,1,453.529,104" transform="translate(-19.919 -4.64)" fill="#be79ca"/>
      <path id="Trazado_875538" data-name="Trazado 875538" d="M497.975,139v5.265H494.9V129.321h5.828a6.734,6.734,0,0,1,2.962.612,4.54,4.54,0,0,1,1.965,1.75,4.882,4.882,0,0,1,.688,2.58,4.292,4.292,0,0,1-1.507,3.469A6.263,6.263,0,0,1,500.674,139Zm0-2.494h2.752a2.708,2.708,0,0,0,1.863-.573,2.09,2.09,0,0,0,.641-1.642,2.463,2.463,0,0,0-.649-1.777,2.415,2.415,0,0,0-1.786-.7h-2.822Zm16.523-.565a8.1,8.1,0,0,0-1.064-.084A2.172,2.172,0,0,0,511.228,137v7.269h-2.962v-11.1h2.8l.082,1.324a2.748,2.748,0,0,1,2.473-1.529,3.116,3.116,0,0,1,.924.134Zm.6,2.668a6.586,6.586,0,0,1,.633-2.944,4.658,4.658,0,0,1,1.835-2.006,5.344,5.344,0,0,1,2.776-.708,5.058,5.058,0,0,1,3.669,1.375,5.519,5.519,0,0,1,1.586,3.736l.02.76a5.8,5.8,0,0,1-1.426,4.105,5.527,5.527,0,0,1-7.661,0,5.907,5.907,0,0,1-1.433-4.187Zm2.962.216a4.139,4.139,0,0,0,.6,2.417,2.141,2.141,0,0,0,3.387.01,4.529,4.529,0,0,0,.606-2.643,4.1,4.1,0,0,0-.606-2.4,1.969,1.969,0,0,0-1.7-.852,1.939,1.939,0,0,0-1.683.846,4.6,4.6,0,0,0-.59,2.623Zm15.4,2.37a.955.955,0,0,0-.539-.86,6.126,6.126,0,0,0-1.729-.559q-3.961-.831-3.961-3.366a3.051,3.051,0,0,1,1.226-2.465,4.949,4.949,0,0,1,3.207-.991,5.324,5.324,0,0,1,3.382,1,3.138,3.138,0,0,1,1.268,2.586h-2.962a1.432,1.432,0,0,0-.411-1.051,1.736,1.736,0,0,0-1.283-.416,1.774,1.774,0,0,0-1.16.338,1.069,1.069,0,0,0-.411.86.916.916,0,0,0,.467.8,4.818,4.818,0,0,0,1.575.524,12.876,12.876,0,0,1,1.868.5,3.069,3.069,0,0,1,2.35,2.987,2.9,2.9,0,0,1-1.308,2.458,5.618,5.618,0,0,1-3.366.939,5.868,5.868,0,0,1-2.478-.5,4.16,4.16,0,0,1-1.7-1.365,3.168,3.168,0,0,1-.616-1.873h2.812a1.549,1.549,0,0,0,.585,1.211,2.325,2.325,0,0,0,1.457.42,2.148,2.148,0,0,0,1.291-.324,1,1,0,0,0,.435-.846m14.788-2.377a6.661,6.661,0,0,1-1.165,4.108,3.733,3.733,0,0,1-3.145,1.543,3.46,3.46,0,0,1-2.72-1.17v5.235h-2.962V133.159H541l.1,1.088a3.485,3.485,0,0,1,2.812-1.294,3.761,3.761,0,0,1,3.192,1.519,6.842,6.842,0,0,1,1.139,4.187Zm-2.962-.216a4.369,4.369,0,0,0-.549-2.388,1.79,1.79,0,0,0-1.6-.842,1.942,1.942,0,0,0-1.923,1.058v4.547a1.974,1.974,0,0,0,1.939,1.1q2.125,0,2.125-3.476Zm9.91,5.867a5.452,5.452,0,0,1-3.977-1.5,5.325,5.325,0,0,1-1.534-3.993v-.287a6.7,6.7,0,0,1,.647-2.991,4.739,4.739,0,0,1,1.831-2.032,5.144,5.144,0,0,1,2.7-.714,4.605,4.605,0,0,1,3.587,1.433,5.837,5.837,0,0,1,1.309,4.075v1.215h-7.07a2.755,2.755,0,0,0,.867,1.745,2.62,2.62,0,0,0,1.831.657,3.2,3.2,0,0,0,2.675-1.242l1.46,1.63a4.451,4.451,0,0,1-1.807,1.473,5.922,5.922,0,0,1-2.524.528m-.338-9.113a1.856,1.856,0,0,0-1.433.6,3.071,3.071,0,0,0-.7,1.7h4.125v-.236a2.2,2.2,0,0,0-.534-1.529,1.915,1.915,0,0,0-1.456-.534Zm11.207,6.722a1.949,1.949,0,0,0,1.338-.452,1.581,1.581,0,0,0,.534-1.2h2.781a3.806,3.806,0,0,1-.624,2.068,4.061,4.061,0,0,1-1.653,1.457,5.192,5.192,0,0,1-2.324.518,4.823,4.823,0,0,1-3.761-1.513,5.991,5.991,0,0,1-1.375-4.182v-.191a5.923,5.923,0,0,1,1.365-4.095,4.764,4.764,0,0,1,3.746-1.529,4.67,4.67,0,0,1,3.344,1.186,4.2,4.2,0,0,1,1.277,3.153h-2.78a2.025,2.025,0,0,0-.534-1.4,1.987,1.987,0,0,0-2.92.216,4.36,4.36,0,0,0-.528,2.448v.308a4.419,4.419,0,0,0,.524,2.463,1.81,1.81,0,0,0,1.591.747m10.961,0a1.949,1.949,0,0,0,1.338-.452,1.581,1.581,0,0,0,.534-1.2h2.781a3.8,3.8,0,0,1-.616,2.068,4.069,4.069,0,0,1-1.661,1.457,5.192,5.192,0,0,1-2.324.518,4.82,4.82,0,0,1-3.756-1.513,5.991,5.991,0,0,1-1.375-4.182v-.191a5.923,5.923,0,0,1,1.365-4.095,4.764,4.764,0,0,1,3.746-1.529,4.67,4.67,0,0,1,3.344,1.186,4.2,4.2,0,0,1,1.277,3.153h-2.785a2.025,2.025,0,0,0-.534-1.4,1.987,1.987,0,0,0-2.92.216,4.36,4.36,0,0,0-.528,2.448v.308a4.42,4.42,0,0,0,.523,2.463,1.81,1.81,0,0,0,1.59.747Zm9.473,2.186h-2.977v-11.1h2.976Zm-3.153-13.978a1.459,1.459,0,0,1,.446-1.1,1.925,1.925,0,0,1,2.428,0,1.566,1.566,0,0,1,0,2.206,1.9,1.9,0,0,1-2.411,0,1.456,1.456,0,0,1-.456-1.108Zm5.131,8.323a6.586,6.586,0,0,1,.638-2.944,4.658,4.658,0,0,1,1.831-2,5.344,5.344,0,0,1,2.776-.708,5.058,5.058,0,0,1,3.669,1.375,5.519,5.519,0,0,1,1.586,3.736l.02.76a5.807,5.807,0,0,1-1.426,4.1,5.527,5.527,0,0,1-7.661,0,5.907,5.907,0,0,1-1.433-4.187Zm2.962.216a4.14,4.14,0,0,0,.6,2.417,2.141,2.141,0,0,0,3.387.01,4.529,4.529,0,0,0,.606-2.643,4.1,4.1,0,0,0-.606-2.4,1.969,1.969,0,0,0-1.7-.852,1.94,1.94,0,0,0-1.683.846,4.608,4.608,0,0,0-.589,2.623ZM594.3,128.5h3.233l-2.843,3.181h-2.411Zm9.247,4.659.1,1.283a3.877,3.877,0,0,1,3.192-1.489,3.22,3.22,0,0,1,2.627,1.037,4.835,4.835,0,0,1,.883,3.1v7.174h-2.962v-7.1a1.926,1.926,0,0,0-.411-1.37,1.838,1.838,0,0,0-1.365-.426,2.04,2.04,0,0,0-1.882,1.064v7.834h-2.962v-11.1Z" transform="translate(-22.079 -5.733)" fill="#12263f"/>
      <path id="Trazado_875539" data-name="Trazado 875539" d="M259.529,204H430.816a7.029,7.029,0,0,1,7.029,7.029v46.132a7.029,7.029,0,0,1-7.029,7.029H259.529a7.029,7.029,0,0,1-7.029-7.029V211.029A7.029,7.029,0,0,1,259.529,204" transform="translate(-11.265 -9.101)" fill="#be79ca"/>
      <path id="Trazado_875540" data-name="Trazado 875540" d="M272.975,225.037V230.3H269.9V215.359h5.828a6.733,6.733,0,0,1,2.962.612,4.54,4.54,0,0,1,1.965,1.75,4.881,4.881,0,0,1,.688,2.58,4.29,4.29,0,0,1-1.507,3.469,6.262,6.262,0,0,1-4.162,1.267Zm0-2.494h2.753a2.708,2.708,0,0,0,1.863-.573,2.09,2.09,0,0,0,.641-1.642,2.463,2.463,0,0,0-.649-1.777,2.415,2.415,0,0,0-1.786-.7h-2.822Zm9.689,2.1a6.576,6.576,0,0,1,.636-2.942,4.66,4.66,0,0,1,1.831-2.006,5.344,5.344,0,0,1,2.776-.708,5.058,5.058,0,0,1,3.669,1.375,5.519,5.519,0,0,1,1.586,3.736l.02.76a5.8,5.8,0,0,1-1.426,4.105,5.527,5.527,0,0,1-7.661,0,5.907,5.907,0,0,1-1.433-4.187Zm2.962.216a4.14,4.14,0,0,0,.6,2.417,2.141,2.141,0,0,0,3.387.01,4.529,4.529,0,0,0,.606-2.643,4.1,4.1,0,0,0-.606-2.4,1.969,1.969,0,0,0-1.7-.852,1.94,1.94,0,0,0-1.683.846,4.607,4.607,0,0,0-.591,2.625Zm15.4,2.372a.955.955,0,0,0-.539-.86,6.127,6.127,0,0,0-1.729-.559q-3.961-.831-3.961-3.366a3.051,3.051,0,0,1,1.226-2.465,4.95,4.95,0,0,1,3.209-.992,5.324,5.324,0,0,1,3.382,1,3.138,3.138,0,0,1,1.268,2.586h-2.962a1.432,1.432,0,0,0-.411-1.051,1.736,1.736,0,0,0-1.283-.416,1.774,1.774,0,0,0-1.16.338,1.069,1.069,0,0,0-.411.86.915.915,0,0,0,.467.8,4.817,4.817,0,0,0,1.575.524,12.876,12.876,0,0,1,1.868.5,3.069,3.069,0,0,1,2.347,2.987,2.9,2.9,0,0,1-1.307,2.458,5.618,5.618,0,0,1-3.366.939,5.869,5.869,0,0,1-2.478-.5,4.16,4.16,0,0,1-1.7-1.365,3.167,3.167,0,0,1-.616-1.873h2.812a1.549,1.549,0,0,0,.585,1.211,2.325,2.325,0,0,0,1.457.42,2.145,2.145,0,0,0,1.288-.323,1.006,1.006,0,0,0,.438-.847m8.343-10.765v2.73h1.9v2.175h-1.9v5.541a1.325,1.325,0,0,0,.236.883,1.189,1.189,0,0,0,.9.267,4.763,4.763,0,0,0,.872-.072v2.249a6.118,6.118,0,0,1-1.8.267q-3.12,0-3.181-3.153v-5.982h-1.624V219.2H306.4v-2.73Zm7.707,10.211,2.063-7.482h3.1l-3.745,11.1h-2.829l-3.75-11.1h3.1Zm11.444,3.828a5.452,5.452,0,0,1-3.977-1.5,5.325,5.325,0,0,1-1.534-3.993v-.287a6.7,6.7,0,0,1,.647-2.991,4.74,4.74,0,0,1,1.831-2.032,5.144,5.144,0,0,1,2.7-.714,4.608,4.608,0,0,1,3.587,1.433,5.837,5.837,0,0,1,1.309,4.075v1.215h-7.07a2.755,2.755,0,0,0,.868,1.745,2.62,2.62,0,0,0,1.831.657,3.2,3.2,0,0,0,2.675-1.242l1.46,1.63a4.451,4.451,0,0,1-1.8,1.473,5.934,5.934,0,0,1-2.526.528m-.34-9.113a1.856,1.856,0,0,0-1.433.6,3.071,3.071,0,0,0-.7,1.7h4.125v-.236a2.2,2.2,0,0,0-.534-1.529,1.919,1.919,0,0,0-1.455-.534m9.319-2.2.1,1.283a3.877,3.877,0,0,1,3.192-1.488,3.22,3.22,0,0,1,2.627,1.037,4.835,4.835,0,0,1,.883,3.1V230.3h-2.962v-7.1a1.927,1.927,0,0,0-.411-1.37,1.839,1.839,0,0,0-1.375-.425,2.04,2.04,0,0,0-1.874,1.063V230.3h-2.962V219.2Zm12.594-2.729v2.73h1.9v2.175h-1.9v5.541a1.325,1.325,0,0,0,.236.883,1.189,1.189,0,0,0,.9.267,4.763,4.763,0,0,0,.872-.072v2.249a6.118,6.118,0,0,1-1.8.267q-3.12,0-3.181-3.153v-5.982H345.5V219.2h1.624v-2.73Zm9.986,13.834a3.3,3.3,0,0,1-.3-1,3.589,3.589,0,0,1-2.8,1.2,3.942,3.942,0,0,1-2.7-.944,3.037,3.037,0,0,1-1.073-2.381,3.139,3.139,0,0,1,1.309-2.709,6.457,6.457,0,0,1,3.781-.955h1.365v-.636a1.829,1.829,0,0,0-.4-1.231,1.555,1.555,0,0,0-1.247-.461,1.769,1.769,0,0,0-1.175.359,1.219,1.219,0,0,0-.426.985h-2.962a2.978,2.978,0,0,1,.592-1.786,3.935,3.935,0,0,1,1.683-1.288,6.137,6.137,0,0,1,2.443-.467,4.85,4.85,0,0,1,3.259,1.032,3.607,3.607,0,0,1,1.206,2.9v4.813a5.313,5.313,0,0,0,.441,2.388v.176Zm-2.452-2.063a2.56,2.56,0,0,0,1.211-.292,1.921,1.921,0,0,0,.821-.785v-1.911h-1.108q-2.227,0-2.37,1.539l-.01.175a1.189,1.189,0,0,0,.39.913,1.516,1.516,0,0,0,1.067.361m13.3-1.006a.956.956,0,0,0-.539-.86,6.127,6.127,0,0,0-1.729-.559q-3.961-.831-3.961-3.366a3.052,3.052,0,0,1,1.227-2.468,4.949,4.949,0,0,1,3.207-.991,5.325,5.325,0,0,1,3.378.994,3.138,3.138,0,0,1,1.268,2.586h-2.962a1.432,1.432,0,0,0-.411-1.051,1.736,1.736,0,0,0-1.283-.416,1.774,1.774,0,0,0-1.16.338,1.07,1.07,0,0,0-.411.86.915.915,0,0,0,.467.8,4.818,4.818,0,0,0,1.575.524,12.875,12.875,0,0,1,1.868.5,3.069,3.069,0,0,1,2.35,2.987,2.9,2.9,0,0,1-1.3,2.463,5.618,5.618,0,0,1-3.366.939,5.869,5.869,0,0,1-2.478-.5,4.158,4.158,0,0,1-1.7-1.365,3.168,3.168,0,0,1-.616-1.873h2.814a1.549,1.549,0,0,0,.585,1.211,2.325,2.325,0,0,0,1.457.42,2.145,2.145,0,0,0,1.288-.323,1.006,1.006,0,0,0,.438-.847M385.1,226.1l2.052-6.906h3.181l-4.465,12.824-.246.585a3.386,3.386,0,0,1-3.284,2.175,4.663,4.663,0,0,1-1.314-.191v-2.246l.452.011a2.441,2.441,0,0,0,1.255-.257,1.685,1.685,0,0,0,.652-.852l.349-.913L379.842,219.2h3.192Z" transform="translate(-12.041 -9.608)" fill="#12263f"/>
      <path id="Trazado_875541" data-name="Trazado 875541" d="M226.529,340H369.155a7.029,7.029,0,0,1,7.029,7.029v46.132a7.029,7.029,0,0,1-7.029,7.029H226.529a7.029,7.029,0,0,1-7.029-7.029V347.029A7.029,7.029,0,0,1,226.529,340" transform="translate(-9.792 -15.168)" fill="#be79ca"/>
      <path id="Trazado_875542" data-name="Trazado 875542" d="M284.606,373.3a5.288,5.288,0,0,1-1.781,3.8,6.252,6.252,0,0,1-4.233,1.385,5.624,5.624,0,0,1-4.521-1.935,7.93,7.93,0,0,1-1.647-5.311v-.913a8.953,8.953,0,0,1,.76-3.8,5.689,5.689,0,0,1,2.171-2.519,6.784,6.784,0,0,1,7.445.508,5.683,5.683,0,0,1,1.831,3.889h-3.082a3.122,3.122,0,0,0-.805-2.1,2.987,2.987,0,0,0-2.109-.652,2.616,2.616,0,0,0-2.3,1.1,6.18,6.18,0,0,0-.785,3.423v1.129a6.618,6.618,0,0,0,.734,3.541,2.566,2.566,0,0,0,2.315,1.121,3.04,3.04,0,0,0,2.13-.653,2.944,2.944,0,0,0,.805-2.017Zm4.957,4.978h-2.976v-11.1h2.976ZM286.409,364.3a1.46,1.46,0,0,1,.446-1.1,1.925,1.925,0,0,1,2.428,0,1.566,1.566,0,0,1,0,2.206,1.9,1.9,0,0,1-2.411,0,1.456,1.456,0,0,1-.456-1.108Zm10.707,14.184a5.452,5.452,0,0,1-3.977-1.5,5.326,5.326,0,0,1-1.535-3.993V372.7a6.7,6.7,0,0,1,.647-2.991,4.75,4.75,0,0,1,1.837-2.033,5.144,5.144,0,0,1,2.7-.714,4.609,4.609,0,0,1,3.587,1.433,5.837,5.837,0,0,1,1.309,4.075v1.216h-7.07a2.755,2.755,0,0,0,.867,1.745,2.62,2.62,0,0,0,1.832.657,3.2,3.2,0,0,0,2.675-1.242l1.452,1.63a4.45,4.45,0,0,1-1.8,1.473,5.922,5.922,0,0,1-2.524.528m-.338-9.113a1.856,1.856,0,0,0-1.433.6,3.071,3.071,0,0,0-.7,1.7h4.127v-.236a2.2,2.2,0,0,0-.534-1.529,1.918,1.918,0,0,0-1.458-.534Zm12.829.585a8.15,8.15,0,0,0-1.068-.084,2.172,2.172,0,0,0-2.207,1.139v7.269H303.37v-11.1h2.8l.082,1.324a2.747,2.747,0,0,1,2.474-1.529,3.116,3.116,0,0,1,.924.134Zm7.666,0a8.151,8.151,0,0,0-1.068-.084A2.172,2.172,0,0,0,314,371.007v7.269h-2.962v-11.1h2.8l.082,1.324a2.747,2.747,0,0,1,2.474-1.529,3.116,3.116,0,0,1,.924.134Zm6.342,8.529a5.452,5.452,0,0,1-3.977-1.5,5.325,5.325,0,0,1-1.534-3.993V372.7a6.7,6.7,0,0,1,.647-2.991,4.739,4.739,0,0,1,1.831-2.032,5.144,5.144,0,0,1,2.7-.714,4.608,4.608,0,0,1,3.587,1.433,5.837,5.837,0,0,1,1.309,4.075v1.215h-7.07a2.755,2.755,0,0,0,.867,1.745,2.62,2.62,0,0,0,1.831.657,3.2,3.2,0,0,0,2.675-1.242l1.46,1.63a4.451,4.451,0,0,1-1.807,1.473,5.923,5.923,0,0,1-2.524.528m-.338-9.113a1.856,1.856,0,0,0-1.433.6,3.071,3.071,0,0,0-.7,1.7h4.125v-.236a2.2,2.2,0,0,0-.534-1.529,1.915,1.915,0,0,0-1.456-.534Z" transform="translate(-12.153 -16.184)" fill="#12263f"/>
      <path id="Trazado_875543" data-name="Trazado 875543" d="M317.529,488H460.155a7.029,7.029,0,0,1,7.029,7.029v46.132a7.029,7.029,0,0,1-7.029,7.029H317.529a7.029,7.029,0,0,1-7.029-7.029V495.029A7.029,7.029,0,0,1,317.529,488" transform="translate(-13.852 -21.771)" fill="#be79ca"/>
      <path id="Trazado_875544" data-name="Trazado 875544" d="M360.048,526.276h-3.078l-5.994-9.832v9.832H347.9V511.333h3.075l6,9.853v-9.853h3.069Zm7.6.205a5.452,5.452,0,0,1-3.977-1.5,5.325,5.325,0,0,1-1.534-3.992V520.7a6.7,6.7,0,0,1,.647-2.991,4.747,4.747,0,0,1,1.831-2.033,5.144,5.144,0,0,1,2.7-.714,4.609,4.609,0,0,1,3.587,1.433,5.837,5.837,0,0,1,1.309,4.075v1.216h-7.07a2.755,2.755,0,0,0,.867,1.745,2.62,2.62,0,0,0,1.831.657,3.2,3.2,0,0,0,2.675-1.242l1.46,1.63a4.447,4.447,0,0,1-1.806,1.473,5.93,5.93,0,0,1-2.525.528m-.338-9.113a1.856,1.856,0,0,0-1.433.6,3.071,3.071,0,0,0-.7,1.7H369.3v-.236a2.2,2.2,0,0,0-.534-1.529,1.914,1.914,0,0,0-1.452-.534m6.157,3.271a6.509,6.509,0,0,1,1.216-4.116,3.94,3.94,0,0,1,3.279-1.56,3.456,3.456,0,0,1,2.843,1.253l.123-1.051h2.688v10.741a4.745,4.745,0,0,1-.659,2.536,4.249,4.249,0,0,1-1.863,1.642,6.546,6.546,0,0,1-2.812.565,6.09,6.09,0,0,1-2.381-.487,4.23,4.23,0,0,1-1.758-1.258l1.314-1.807a3.476,3.476,0,0,0,2.688,1.242,2.547,2.547,0,0,0,1.837-.63,2.368,2.368,0,0,0,.657-1.791v-.6a3.432,3.432,0,0,1-2.7,1.161,3.933,3.933,0,0,1-3.239-1.565,6.5,6.5,0,0,1-1.236-4.151Zm2.962.216a4.041,4.041,0,0,0,.606,2.364,1.927,1.927,0,0,0,1.662.86,2.062,2.062,0,0,0,1.939-1.016v-4.669a2.057,2.057,0,0,0-1.919-1.016,1.94,1.94,0,0,0-1.673.872,4.558,4.558,0,0,0-.611,2.606Zm9-.236a6.592,6.592,0,0,1,.64-2.942,4.656,4.656,0,0,1,1.832-2.006,5.344,5.344,0,0,1,2.776-.708,5.058,5.058,0,0,1,3.669,1.375,5.519,5.519,0,0,1,1.586,3.736l.02.76a5.8,5.8,0,0,1-1.426,4.105,5.527,5.527,0,0,1-7.661,0,5.907,5.907,0,0,1-1.433-4.187Zm2.962.216a4.141,4.141,0,0,0,.6,2.417,2.141,2.141,0,0,0,3.387.009,4.533,4.533,0,0,0,.616-2.641,4.1,4.1,0,0,0-.606-2.4,1.969,1.969,0,0,0-1.7-.852,1.939,1.939,0,0,0-1.683.846,4.6,4.6,0,0,0-.593,2.623ZM402.4,524.09a1.949,1.949,0,0,0,1.338-.452,1.581,1.581,0,0,0,.527-1.2h2.781a3.811,3.811,0,0,1-.616,2.068,4.062,4.062,0,0,1-1.654,1.457,5.189,5.189,0,0,1-2.326.519,4.823,4.823,0,0,1-3.755-1.514,5.991,5.991,0,0,1-1.375-4.182v-.191a5.923,5.923,0,0,1,1.365-4.095,4.764,4.764,0,0,1,3.746-1.529,4.67,4.67,0,0,1,3.344,1.186,4.2,4.2,0,0,1,1.277,3.153h-2.788a2.025,2.025,0,0,0-.534-1.4,1.987,1.987,0,0,0-2.92.216,4.36,4.36,0,0,0-.528,2.448v.308a4.42,4.42,0,0,0,.524,2.463,1.807,1.807,0,0,0,1.594.747m9.473,2.186H408.9v-11.1h2.976ZM408.723,512.3a1.46,1.46,0,0,1,.446-1.1,1.925,1.925,0,0,1,2.428,0,1.566,1.566,0,0,1,0,2.206,1.9,1.9,0,0,1-2.411,0,1.456,1.456,0,0,1-.456-1.108Zm5.131,8.323a6.584,6.584,0,0,1,.636-2.944,4.66,4.66,0,0,1,1.834-2.006,5.344,5.344,0,0,1,2.776-.708,5.058,5.058,0,0,1,3.669,1.375,5.519,5.519,0,0,1,1.586,3.736l.02.76a5.8,5.8,0,0,1-1.426,4.105,5.527,5.527,0,0,1-7.661,0,5.907,5.907,0,0,1-1.433-4.187Zm2.962.216a4.14,4.14,0,0,0,.6,2.417,2.141,2.141,0,0,0,3.387.01,4.529,4.529,0,0,0,.606-2.643,4.1,4.1,0,0,0-.606-2.4,1.969,1.969,0,0,0-1.7-.852,1.939,1.939,0,0,0-1.683.846,4.609,4.609,0,0,0-.589,2.623Zm15.4,2.37a.956.956,0,0,0-.539-.86,6.126,6.126,0,0,0-1.729-.559q-3.961-.831-3.961-3.366a3.051,3.051,0,0,1,1.226-2.465,4.949,4.949,0,0,1,3.207-.991,5.324,5.324,0,0,1,3.382,1,3.138,3.138,0,0,1,1.268,2.586h-2.962a1.432,1.432,0,0,0-.411-1.051,1.736,1.736,0,0,0-1.283-.416,1.774,1.774,0,0,0-1.16.338,1.07,1.07,0,0,0-.411.86.915.915,0,0,0,.467.8,4.817,4.817,0,0,0,1.575.524,12.859,12.859,0,0,1,1.868.5,3.069,3.069,0,0,1,2.35,2.987,2.9,2.9,0,0,1-1.307,2.458,5.618,5.618,0,0,1-3.366.939,5.868,5.868,0,0,1-2.478-.5,4.159,4.159,0,0,1-1.7-1.365,3.167,3.167,0,0,1-.616-1.873h2.812a1.549,1.549,0,0,0,.585,1.211,2.325,2.325,0,0,0,1.457.42,2.148,2.148,0,0,0,1.291-.324,1.006,1.006,0,0,0,.434-.846" transform="translate(-15.521 -22.787)" fill="#12263f"/>
      <path id="Trazado_875545" data-name="Trazado 875545" d="M623.529,488H766.155a7.029,7.029,0,0,1,7.029,7.029v46.132a7.029,7.029,0,0,1-7.029,7.029H623.529a7.029,7.029,0,0,1-7.029-7.029V495.029A7.029,7.029,0,0,1,623.529,488" transform="translate(-27.504 -21.771)" fill="#be79ca"/>
      <path id="Trazado_875546" data-name="Trazado 875546" d="M635.975,509v5.265H632.9V499.321h5.828a6.733,6.733,0,0,1,2.962.612,4.54,4.54,0,0,1,1.965,1.75,4.881,4.881,0,0,1,.688,2.58,4.29,4.29,0,0,1-1.507,3.469A6.263,6.263,0,0,1,638.674,509Zm0-2.494h2.753a2.708,2.708,0,0,0,1.863-.573,2.09,2.09,0,0,0,.641-1.642,2.463,2.463,0,0,0-.649-1.777,2.415,2.415,0,0,0-1.786-.7h-2.822Zm16.523-.565a8.1,8.1,0,0,0-1.064-.084A2.172,2.172,0,0,0,649.228,507v7.269h-2.962v-11.1h2.8l.082,1.324a2.747,2.747,0,0,1,2.474-1.529,3.116,3.116,0,0,1,.924.134Zm6.343,8.529a5.449,5.449,0,0,1-3.977-1.5,5.325,5.325,0,0,1-1.534-3.993v-.287a6.7,6.7,0,0,1,.647-2.991,4.74,4.74,0,0,1,1.831-2.032,5.142,5.142,0,0,1,2.7-.714,4.609,4.609,0,0,1,3.587,1.433,5.837,5.837,0,0,1,1.309,4.075v1.216h-7.07a2.755,2.755,0,0,0,.868,1.745,2.62,2.62,0,0,0,1.831.657,3.2,3.2,0,0,0,2.675-1.242l1.46,1.63a4.46,4.46,0,0,1-1.8,1.473,5.918,5.918,0,0,1-2.529.528m-.337-9.113a1.856,1.856,0,0,0-1.433.6,3.07,3.07,0,0,0-.7,1.7h4.125v-.236a2.2,2.2,0,0,0-.534-1.529,1.919,1.919,0,0,0-1.455-.534m12.6,5.839a.955.955,0,0,0-.539-.86,6.127,6.127,0,0,0-1.729-.559q-3.961-.831-3.961-3.366a3.051,3.051,0,0,1,1.226-2.465,4.949,4.949,0,0,1,3.207-.991,5.324,5.324,0,0,1,3.382,1,3.138,3.138,0,0,1,1.268,2.586H671a1.432,1.432,0,0,0-.411-1.051,1.736,1.736,0,0,0-1.287-.418,1.774,1.774,0,0,0-1.16.338,1.069,1.069,0,0,0-.411.86.915.915,0,0,0,.467.8,4.817,4.817,0,0,0,1.576.524,12.877,12.877,0,0,1,1.868.5,3.069,3.069,0,0,1,2.35,2.987,2.9,2.9,0,0,1-1.3,2.46,5.617,5.617,0,0,1-3.366.939,5.868,5.868,0,0,1-2.478-.5,4.16,4.16,0,0,1-1.7-1.365,3.17,3.17,0,0,1-.62-1.877h2.812a1.549,1.549,0,0,0,.585,1.211,2.325,2.325,0,0,0,1.457.42,2.145,2.145,0,0,0,1.288-.323,1.007,1.007,0,0,0,.441-.843m9.9,3.274a5.452,5.452,0,0,1-3.977-1.5,5.325,5.325,0,0,1-1.534-3.993v-.287a6.7,6.7,0,0,1,.647-2.991,4.74,4.74,0,0,1,1.831-2.032,5.142,5.142,0,0,1,2.7-.714,4.609,4.609,0,0,1,3.587,1.433,5.837,5.837,0,0,1,1.309,4.075v1.215h-7.07a2.754,2.754,0,0,0,.867,1.745,2.62,2.62,0,0,0,1.831.657,3.2,3.2,0,0,0,2.675-1.242l1.46,1.63a4.451,4.451,0,0,1-1.8,1.473,5.933,5.933,0,0,1-2.526.528m-.34-9.113a1.856,1.856,0,0,0-1.433.6,3.071,3.071,0,0,0-.7,1.7h4.125v-.236a2.2,2.2,0,0,0-.534-1.529,1.919,1.919,0,0,0-1.455-.534m9.319-2.2.1,1.283a3.877,3.877,0,0,1,3.192-1.488,3.22,3.22,0,0,1,2.627,1.037,4.835,4.835,0,0,1,.883,3.1v7.175h-2.962v-7.1a1.927,1.927,0,0,0-.411-1.37,1.838,1.838,0,0,0-1.375-.425,2.04,2.04,0,0,0-1.874,1.063v7.834H687.2v-11.1Zm12.594-2.729v2.73h1.9v2.175h-1.9v5.541a1.325,1.325,0,0,0,.236.883,1.189,1.189,0,0,0,.9.267,4.761,4.761,0,0,0,.872-.072V514.2a6.116,6.116,0,0,1-1.8.267q-3.12,0-3.181-3.153v-5.982h-1.624v-2.175h1.624v-2.73Zm9.986,13.834a3.3,3.3,0,0,1-.3-1,3.589,3.589,0,0,1-2.8,1.2,3.941,3.941,0,0,1-2.7-.944,3.036,3.036,0,0,1-1.073-2.381A3.139,3.139,0,0,1,707,508.436a6.457,6.457,0,0,1,3.781-.955h1.365v-.636a1.829,1.829,0,0,0-.4-1.231,1.554,1.554,0,0,0-1.247-.461,1.768,1.768,0,0,0-1.175.359,1.218,1.218,0,0,0-.426.985h-2.962a2.978,2.978,0,0,1,.592-1.786,3.935,3.935,0,0,1,1.683-1.288,6.137,6.137,0,0,1,2.443-.467,4.85,4.85,0,0,1,3.259,1.032,3.607,3.607,0,0,1,1.206,2.9V511.7a5.312,5.312,0,0,0,.441,2.388v.176Zm-2.452-2.063a2.561,2.561,0,0,0,1.211-.292,1.921,1.921,0,0,0,.821-.785v-1.911h-1.108q-2.227,0-2.37,1.539l-.01.175a1.189,1.189,0,0,0,.39.913,1.517,1.517,0,0,0,1.067.361m11.905-.123a1.949,1.949,0,0,0,1.337-.452,1.581,1.581,0,0,0,.534-1.2h2.781a3.81,3.81,0,0,1-.623,2.068,4.066,4.066,0,0,1-1.655,1.457,5.191,5.191,0,0,1-2.324.518,4.821,4.821,0,0,1-3.759-1.513,5.99,5.99,0,0,1-1.375-4.182v-.191a5.923,5.923,0,0,1,1.365-4.095,4.764,4.764,0,0,1,3.746-1.529,4.67,4.67,0,0,1,3.344,1.186,4.2,4.2,0,0,1,1.277,3.153h-2.781a2.025,2.025,0,0,0-.534-1.4,1.987,1.987,0,0,0-2.92.216,4.361,4.361,0,0,0-.528,2.448v.308a4.419,4.419,0,0,0,.524,2.463,1.81,1.81,0,0,0,1.591.747m9.475,2.186H728.52v-11.1H731.5Zm-3.153-13.978a1.459,1.459,0,0,1,.446-1.1,1.925,1.925,0,0,1,2.428,0,1.566,1.566,0,0,1,0,2.206,1.9,1.9,0,0,1-2.411,0,1.456,1.456,0,0,1-.458-1.108m5.131,8.323a6.584,6.584,0,0,1,.635-2.944,4.659,4.659,0,0,1,1.831-2,5.344,5.344,0,0,1,2.776-.708,5.058,5.058,0,0,1,3.67,1.372,5.519,5.519,0,0,1,1.586,3.736l.02.76a5.8,5.8,0,0,1-1.426,4.1,5.528,5.528,0,0,1-7.662,0,5.907,5.907,0,0,1-1.433-4.187Zm2.962.216a4.14,4.14,0,0,0,.6,2.417,2.141,2.141,0,0,0,3.387.01,4.529,4.529,0,0,0,.606-2.643,4.1,4.1,0,0,0-.606-2.4,1.969,1.969,0,0,0-1.7-.852,1.94,1.94,0,0,0-1.683.846,4.608,4.608,0,0,0-.592,2.624ZM739.3,498.5h3.233l-2.843,3.181h-2.411Zm9.247,4.659.1,1.283a3.877,3.877,0,0,1,3.192-1.488,3.22,3.22,0,0,1,2.627,1.037,4.835,4.835,0,0,1,.883,3.1v7.174h-2.962v-7.1a1.927,1.927,0,0,0-.411-1.37,1.842,1.842,0,0,0-1.365-.426,2.04,2.04,0,0,0-1.885,1.064v7.834h-2.962v-11.1Z" transform="translate(-28.235 -22.239)" fill="#12263f"/>
      <path id="Trazado_875547" data-name="Trazado 875547" d="M723.529,340H866.155a7.029,7.029,0,0,1,7.029,7.029v46.132a7.029,7.029,0,0,1-7.029,7.029H723.529a7.029,7.029,0,0,1-7.029-7.029V347.029A7.029,7.029,0,0,1,723.529,340" transform="translate(-31.965 -15.168)" fill="#be79ca"/>
      <path id="Trazado_875548" data-name="Trazado 875548" d="M754.887,371.8h-5.912v4h6.938v2.473H745.9V363.333h9.992v2.494h-6.917v3.565h5.912Zm5.367-4.629.1,1.283a3.877,3.877,0,0,1,3.192-1.489A3.22,3.22,0,0,1,766.17,368a4.835,4.835,0,0,1,.883,3.1v7.174h-2.962v-7.1a1.926,1.926,0,0,0-.42-1.37,1.842,1.842,0,0,0-1.365-.426,2.042,2.042,0,0,0-1.876,1.064v7.834H757.46v-11.1Zm12.592-2.73v2.73h1.9v2.175h-1.9v5.541a1.325,1.325,0,0,0,.236.883,1.189,1.189,0,0,0,.9.267,4.765,4.765,0,0,0,.872-.072v2.249a6.118,6.118,0,0,1-1.8.267q-3.12,0-3.181-3.153v-5.982h-1.624v-2.175h1.624v-2.73Zm9.792,5.511a8.151,8.151,0,0,0-1.068-.084,2.172,2.172,0,0,0-2.207,1.139v7.269H776.4v-11.1h2.8l.082,1.324a2.747,2.747,0,0,1,2.474-1.529,3.115,3.115,0,0,1,.924.134Zm6.342,8.529a5.452,5.452,0,0,1-3.976-1.5,5.325,5.325,0,0,1-1.534-3.993V372.7a6.7,6.7,0,0,1,.646-2.991,4.739,4.739,0,0,1,1.831-2.032,5.142,5.142,0,0,1,2.7-.714,4.608,4.608,0,0,1,3.586,1.433,5.836,5.836,0,0,1,1.309,4.075v1.216h-7.07a2.755,2.755,0,0,0,.867,1.745,2.62,2.62,0,0,0,1.831.657,3.2,3.2,0,0,0,2.675-1.242l1.46,1.63a4.448,4.448,0,0,1-1.806,1.473,5.93,5.93,0,0,1-2.525.528m-.338-9.113a1.856,1.856,0,0,0-1.433.6,3.073,3.073,0,0,0-.705,1.7h4.125v-.236a2.2,2.2,0,0,0-.534-1.529,1.916,1.916,0,0,0-1.453-.534m10.611,5.285,2.059-7.482h3.1l-3.741,11.1h-2.833l-3.746-11.1h3.1Zm9.6,3.623h-2.976v-11.1h2.976ZM805.7,364.3a1.459,1.459,0,0,1,.446-1.1,1.929,1.929,0,0,1,2.431,0,1.566,1.566,0,0,1,0,2.206,1.9,1.9,0,0,1-2.411,0,1.457,1.457,0,0,1-.459-1.108Zm11.61,10.91a.956.956,0,0,0-.539-.86,6.128,6.128,0,0,0-1.729-.559q-3.961-.831-3.961-3.366a3.05,3.05,0,0,1,1.222-2.465,4.949,4.949,0,0,1,3.207-.991,5.324,5.324,0,0,1,3.385.991,3.138,3.138,0,0,1,1.268,2.586H817.2a1.432,1.432,0,0,0-.411-1.051,1.736,1.736,0,0,0-1.283-.416,1.774,1.774,0,0,0-1.16.338,1.07,1.07,0,0,0-.411.86.916.916,0,0,0,.467.8,4.818,4.818,0,0,0,1.575.524,12.878,12.878,0,0,1,1.868.5,3.069,3.069,0,0,1,2.35,2.987,2.9,2.9,0,0,1-1.307,2.463,5.618,5.618,0,0,1-3.366.939,5.869,5.869,0,0,1-2.478-.5,4.16,4.16,0,0,1-1.7-1.365,3.167,3.167,0,0,1-.616-1.873h2.814a1.549,1.549,0,0,0,.585,1.211,2.325,2.325,0,0,0,1.457.42,2.145,2.145,0,0,0,1.288-.323,1.006,1.006,0,0,0,.436-.847m8.343-10.765v2.73h1.9v2.175h-1.9v5.541a1.325,1.325,0,0,0,.236.883,1.189,1.189,0,0,0,.9.267,4.765,4.765,0,0,0,.872-.072v2.249a6.112,6.112,0,0,1-1.8.267q-3.12,0-3.181-3.153v-5.982H821.06v-2.175h1.624v-2.73Zm9.986,13.834a3.3,3.3,0,0,1-.3-1,3.589,3.589,0,0,1-2.8,1.2,3.942,3.942,0,0,1-2.7-.944,3.036,3.036,0,0,1-1.073-2.381,3.139,3.139,0,0,1,1.311-2.709,6.457,6.457,0,0,1,3.781-.955h1.365v-.636a1.829,1.829,0,0,0-.4-1.232,1.555,1.555,0,0,0-1.247-.461,1.769,1.769,0,0,0-1.175.359,1.218,1.218,0,0,0-.426.985h-2.962a2.984,2.984,0,0,1,.59-1.786,3.935,3.935,0,0,1,1.683-1.288,6.137,6.137,0,0,1,2.443-.467A4.85,4.85,0,0,1,836.987,368a3.606,3.606,0,0,1,1.2,2.9v4.813a5.313,5.313,0,0,0,.441,2.388v.178Zm-2.453-2.063a2.56,2.56,0,0,0,1.211-.292,1.92,1.92,0,0,0,.821-.785v-1.911h-1.108q-2.227,0-2.37,1.539l-.01.175a1.189,1.189,0,0,0,.39.913,1.516,1.516,0,0,0,1.067.361m13.3-1.006a.956.956,0,0,0-.539-.86,6.128,6.128,0,0,0-1.729-.559q-3.961-.831-3.961-3.366a3.052,3.052,0,0,1,1.227-2.468,4.949,4.949,0,0,1,3.207-.991,5.324,5.324,0,0,1,3.382,1,3.138,3.138,0,0,1,1.268,2.586h-2.962a1.432,1.432,0,0,0-.411-1.051,1.736,1.736,0,0,0-1.283-.416,1.774,1.774,0,0,0-1.16.338,1.07,1.07,0,0,0-.411.86.916.916,0,0,0,.467.8,4.818,4.818,0,0,0,1.575.524,12.878,12.878,0,0,1,1.868.5,3.069,3.069,0,0,1,2.35,2.987,2.9,2.9,0,0,1-1.3,2.458,5.618,5.618,0,0,1-3.366.939,5.869,5.869,0,0,1-2.478-.5,4.161,4.161,0,0,1-1.7-1.365,3.168,3.168,0,0,1-.616-1.873h2.812a1.549,1.549,0,0,0,.585,1.211,2.325,2.325,0,0,0,1.457.42,2.145,2.145,0,0,0,1.288-.323,1.007,1.007,0,0,0,.432-.845" transform="translate(-33.276 -16.184)" fill="#12263f"/>
      <path id="Trazado_875549" data-name="Trazado 875549" d="M669.529,204H812.155a7.029,7.029,0,0,1,7.029,7.029v46.132a7.029,7.029,0,0,1-7.029,7.029H669.529a7.029,7.029,0,0,1-7.029-7.029V211.029A7.029,7.029,0,0,1,669.529,204" transform="translate(-29.556 -9.101)" fill="#be79ca"/>
      <path id="Trazado_875550" data-name="Trazado 875550" d="M685.274,239.2h-5.4l-1.028,3.079h-3.272l5.565-14.943h2.851l5.593,14.943h-3.273Zm-4.567-2.494h3.736l-1.878-5.593Zm14.7,3.387a1.949,1.949,0,0,0,1.338-.452,1.581,1.581,0,0,0,.534-1.2h2.782a3.8,3.8,0,0,1-.616,2.068,4.069,4.069,0,0,1-1.661,1.457,5.192,5.192,0,0,1-2.324.518,4.819,4.819,0,0,1-3.757-1.513,5.991,5.991,0,0,1-1.375-4.182v-.191a5.923,5.923,0,0,1,1.365-4.095,4.764,4.764,0,0,1,3.746-1.529,4.67,4.67,0,0,1,3.344,1.186,4.2,4.2,0,0,1,1.277,3.153h-2.785a2.026,2.026,0,0,0-.534-1.4,1.987,1.987,0,0,0-2.92.216,4.36,4.36,0,0,0-.528,2.448v.308a4.419,4.419,0,0,0,.523,2.463,1.81,1.81,0,0,0,1.591.747m11.453,2.391a5.452,5.452,0,0,1-3.977-1.5,5.325,5.325,0,0,1-1.534-3.993V236.7a6.7,6.7,0,0,1,.647-2.991,4.739,4.739,0,0,1,1.831-2.032,5.144,5.144,0,0,1,2.7-.714,4.608,4.608,0,0,1,3.586,1.433,5.836,5.836,0,0,1,1.312,4.078v1.212h-7.07a2.757,2.757,0,0,0,.86,1.743,2.62,2.62,0,0,0,1.831.657,3.2,3.2,0,0,0,2.675-1.242l1.466,1.632a4.451,4.451,0,0,1-1.807,1.473,5.929,5.929,0,0,1-2.525.528m-.338-9.113a1.856,1.856,0,0,0-1.433.6,3.07,3.07,0,0,0-.7,1.7h4.125v-.236a2.2,2.2,0,0,0-.534-1.529,1.919,1.919,0,0,0-1.455-.534m12.829.585a8,8,0,0,0-1.068-.084,2.173,2.173,0,0,0-2.207,1.139v7.269H713.11v-11.1h2.8l.082,1.324a2.747,2.747,0,0,1,2.474-1.529,3.115,3.115,0,0,1,.924.134Zm5.85,6.137a1.949,1.949,0,0,0,1.338-.452,1.581,1.581,0,0,0,.534-1.2h2.777a3.8,3.8,0,0,1-.616,2.068,4.067,4.067,0,0,1-1.658,1.457,5.192,5.192,0,0,1-2.324.518,4.82,4.82,0,0,1-3.756-1.513,5.99,5.99,0,0,1-1.372-4.182v-.191a5.923,5.923,0,0,1,1.365-4.095,4.764,4.764,0,0,1,3.746-1.529,4.67,4.67,0,0,1,3.344,1.186,4.2,4.2,0,0,1,1.277,3.153h-2.788a2.019,2.019,0,0,0-.534-1.4,1.987,1.987,0,0,0-2.92.216,4.366,4.366,0,0,0-.529,2.447v.308a4.42,4.42,0,0,0,.524,2.463,1.81,1.81,0,0,0,1.592.75m12.777,2.186a3.3,3.3,0,0,1-.3-1,3.589,3.589,0,0,1-2.8,1.2,3.942,3.942,0,0,1-2.7-.944,3.034,3.034,0,0,1-1.073-2.382,3.139,3.139,0,0,1,1.309-2.708,6.457,6.457,0,0,1,3.781-.955h1.365v-.636a1.829,1.829,0,0,0-.4-1.231,1.554,1.554,0,0,0-1.247-.461,1.762,1.762,0,0,0-1.173.358,1.218,1.218,0,0,0-.426.985H731.35a2.981,2.981,0,0,1,.589-1.785,3.935,3.935,0,0,1,1.683-1.288,6.137,6.137,0,0,1,2.443-.467A4.85,4.85,0,0,1,739.324,232a3.607,3.607,0,0,1,1.206,2.9v4.813a5.312,5.312,0,0,0,.441,2.388v.176Zm-2.453-2.063a2.56,2.56,0,0,0,1.211-.292,1.921,1.921,0,0,0,.821-.785v-1.911h-1.108q-2.227,0-2.37,1.539l-.011.175a1.189,1.189,0,0,0,.39.913,1.516,1.516,0,0,0,1.067.361m10.068-9.042.1,1.242a3.9,3.9,0,0,1,3.193-1.447,2.962,2.962,0,0,1,2.945,1.693,3.813,3.813,0,0,1,3.335-1.693,3.31,3.31,0,0,1,2.688,1.051,4.835,4.835,0,0,1,.883,3.166v7.093h-2.98v-7.081a2.111,2.111,0,0,0-.37-1.381,1.638,1.638,0,0,0-1.3-.437,1.852,1.852,0,0,0-1.848,1.273l.01,7.626h-2.962v-7.07a2.09,2.09,0,0,0-.382-1.4,1.655,1.655,0,0,0-1.294-.431,1.923,1.923,0,0,0-1.827,1.051v7.846h-2.962v-11.1Zm18.546,11.1h-2.977v-11.1h2.977ZM760.982,228.3a1.459,1.459,0,0,1,.446-1.1,1.925,1.925,0,0,1,2.428,0,1.566,1.566,0,0,1,0,2.206,1.9,1.9,0,0,1-2.411,0,1.456,1.456,0,0,1-.456-1.108Zm10.706,14.184a5.452,5.452,0,0,1-3.977-1.5,5.325,5.325,0,0,1-1.534-3.993V236.7a6.7,6.7,0,0,1,.647-2.991,4.745,4.745,0,0,1,1.831-2.033,5.144,5.144,0,0,1,2.7-.714,4.605,4.605,0,0,1,3.587,1.433,5.837,5.837,0,0,1,1.309,4.075v1.216h-7.07a2.755,2.755,0,0,0,.867,1.745,2.62,2.62,0,0,0,1.831.657,3.2,3.2,0,0,0,2.675-1.242l1.457,1.632a4.451,4.451,0,0,1-1.807,1.473,5.921,5.921,0,0,1-2.52.526m-.338-9.113a1.856,1.856,0,0,0-1.433.6,3.07,3.07,0,0,0-.7,1.7h4.125v-.236a2.2,2.2,0,0,0-.534-1.529,1.915,1.915,0,0,0-1.456-.534Zm9.319-2.2.1,1.283a3.877,3.877,0,0,1,3.192-1.488A3.22,3.22,0,0,1,786.583,232a4.835,4.835,0,0,1,.883,3.1v7.175H784.5v-7.1a1.926,1.926,0,0,0-.411-1.37,1.842,1.842,0,0,0-1.365-.426,2.04,2.04,0,0,0-1.886,1.064v7.834h-2.962v-11.1Zm12.593-2.73v2.73h1.9v2.175h-1.9v5.541a1.325,1.325,0,0,0,.236.883,1.189,1.189,0,0,0,.9.267,4.765,4.765,0,0,0,.872-.072v2.25a6.117,6.117,0,0,1-1.8.267q-3.12,0-3.181-3.153v-5.982h-1.624v-2.175H790.3v-2.73Zm2.781,8.18a6.583,6.583,0,0,1,.635-2.944,4.66,4.66,0,0,1,1.831-2.006,5.344,5.344,0,0,1,2.776-.708,5.057,5.057,0,0,1,3.672,1.377,5.519,5.519,0,0,1,1.586,3.736l.02.76a5.806,5.806,0,0,1-1.429,4.1,5.527,5.527,0,0,1-7.661,0,5.907,5.907,0,0,1-1.433-4.187Zm2.962.216a4.14,4.14,0,0,0,.6,2.417,2.141,2.141,0,0,0,3.387.01,4.529,4.529,0,0,0,.606-2.643,4.1,4.1,0,0,0-.606-2.4,1.969,1.969,0,0,0-1.7-.852,1.94,1.94,0,0,0-1.683.846,4.608,4.608,0,0,0-.592,2.624Z" transform="translate(-30.139 -10.117)" fill="#12263f"/>
    </g>
    <path id="Trazado_881856" data-name="Trazado 881856" d="M7.373,13.684A8.051,8.051,0,0,0,6.306,13.6,2.171,2.171,0,0,0,4.1,14.74V22H1.138V10.905h2.8l.082,1.323A2.746,2.746,0,0,1,6.491,10.7a3.105,3.105,0,0,1,.923.133ZM13.9,22.205a5.447,5.447,0,0,1-3.973-1.5A5.321,5.321,0,0,1,8.4,16.719v-.287a6.7,6.7,0,0,1,.646-2.989,4.741,4.741,0,0,1,1.83-2.03,5.137,5.137,0,0,1,2.7-.713,4.6,4.6,0,0,1,3.584,1.436,5.833,5.833,0,0,1,1.307,4.071v1.21H11.4a2.753,2.753,0,0,0,.866,1.743,2.619,2.619,0,0,0,1.83.656,3.2,3.2,0,0,0,2.676-1.241l1.456,1.63a4.449,4.449,0,0,1-1.8,1.471A5.921,5.921,0,0,1,13.9,22.205ZM13.566,13.1a1.856,1.856,0,0,0-1.43.595,3.073,3.073,0,0,0-.7,1.7h4.122v-.236a2.191,2.191,0,0,0-.533-1.523A1.915,1.915,0,0,0,13.566,13.1Zm9.71,8.9H20.3V6.25h2.974Zm8.87,0a3.291,3.291,0,0,1-.3-.995,3.586,3.586,0,0,1-2.8,1.2,3.939,3.939,0,0,1-2.7-.943,3.034,3.034,0,0,1-1.072-2.379,3.135,3.135,0,0,1,1.307-2.707,6.451,6.451,0,0,1,3.779-.954h1.364v-.636a1.828,1.828,0,0,0-.395-1.23,1.553,1.553,0,0,0-1.246-.461,1.766,1.766,0,0,0-1.174.359,1.219,1.219,0,0,0-.426.984H25.522a2.977,2.977,0,0,1,.595-1.784A3.931,3.931,0,0,1,27.8,11.167a6.129,6.129,0,0,1,2.44-.467,4.842,4.842,0,0,1,3.256,1.031,3.605,3.605,0,0,1,1.2,2.9v4.809a5.3,5.3,0,0,0,.441,2.389V22ZM29.7,19.939a2.552,2.552,0,0,0,1.21-.292,1.919,1.919,0,0,0,.82-.784V16.955H30.618q-2.225,0-2.369,1.538l-.01.174a1.186,1.186,0,0,0,.39.913A1.514,1.514,0,0,0,29.7,19.939Zm11.895-.123a1.944,1.944,0,0,0,1.333-.451,1.581,1.581,0,0,0,.533-1.2h2.779a3.8,3.8,0,0,1-.615,2.066,4.06,4.06,0,0,1-1.656,1.456,5.183,5.183,0,0,1-2.323.518,4.817,4.817,0,0,1-3.753-1.512,5.985,5.985,0,0,1-1.374-4.178v-.195a5.917,5.917,0,0,1,1.364-4.091A4.761,4.761,0,0,1,41.621,10.7a4.667,4.667,0,0,1,3.338,1.184,4.193,4.193,0,0,1,1.277,3.153H43.456a2.02,2.02,0,0,0-.533-1.4,1.986,1.986,0,0,0-2.917.215,4.363,4.363,0,0,0-.528,2.446v.308A4.418,4.418,0,0,0,40,19.067,1.808,1.808,0,0,0,41.59,19.816ZM51.054,22H48.081V10.905h2.974ZM47.906,8.034a1.459,1.459,0,0,1,.446-1.1,1.922,1.922,0,0,1,2.425,0,1.451,1.451,0,0,1,.451,1.1,1.455,1.455,0,0,1-.456,1.107,1.9,1.9,0,0,1-2.41,0A1.455,1.455,0,0,1,47.906,8.034Zm5.127,8.316a6.58,6.58,0,0,1,.636-2.943,4.654,4.654,0,0,1,1.83-2,5.34,5.34,0,0,1,2.774-.708,5.052,5.052,0,0,1,3.666,1.374,5.514,5.514,0,0,1,1.584,3.732l.021.759a5.8,5.8,0,0,1-1.425,4.1,5.524,5.524,0,0,1-7.655.005,5.9,5.9,0,0,1-1.43-4.184ZM56,16.565a4.136,4.136,0,0,0,.595,2.415,2.139,2.139,0,0,0,3.384.01,4.526,4.526,0,0,0,.6-2.64,4.1,4.1,0,0,0-.6-2.4,1.968,1.968,0,0,0-1.7-.851,1.935,1.935,0,0,0-1.682.846A4.6,4.6,0,0,0,56,16.565Zm12.1-5.66.092,1.282A3.874,3.874,0,0,1,71.377,10.7,3.219,3.219,0,0,1,74,11.736a4.832,4.832,0,0,1,.882,3.1V22H71.921V14.9a1.923,1.923,0,0,0-.41-1.369,1.836,1.836,0,0,0-1.364-.426,2.039,2.039,0,0,0-1.876,1.066V22H65.307V10.905Zm14.14,11.3a5.447,5.447,0,0,1-3.973-1.5,5.321,5.321,0,0,1-1.533-3.989v-.287a6.7,6.7,0,0,1,.646-2.989,4.741,4.741,0,0,1,1.83-2.03,5.137,5.137,0,0,1,2.7-.713,4.6,4.6,0,0,1,3.584,1.436A5.833,5.833,0,0,1,86.8,16.207v1.21H79.734A2.753,2.753,0,0,0,80.6,19.16a2.619,2.619,0,0,0,1.83.656,3.2,3.2,0,0,0,2.676-1.241l1.456,1.63a4.449,4.449,0,0,1-1.8,1.471A5.921,5.921,0,0,1,82.236,22.205ZM81.9,13.1a1.856,1.856,0,0,0-1.43.595,3.073,3.073,0,0,0-.7,1.7h4.122v-.236a2.191,2.191,0,0,0-.533-1.523A1.915,1.915,0,0,0,81.9,13.1ZM94.49,18.934a.955.955,0,0,0-.538-.856,6.115,6.115,0,0,0-1.728-.559q-3.958-.831-3.958-3.363a3.049,3.049,0,0,1,1.225-2.466,4.943,4.943,0,0,1,3.2-.99,5.32,5.32,0,0,1,3.379.995,3.135,3.135,0,0,1,1.266,2.584H94.377a1.434,1.434,0,0,0-.41-1.051,1.736,1.736,0,0,0-1.282-.415,1.774,1.774,0,0,0-1.159.338,1.068,1.068,0,0,0-.41.861.913.913,0,0,0,.467.795,4.8,4.8,0,0,0,1.574.523,12.856,12.856,0,0,1,1.866.5,3.066,3.066,0,0,1,2.348,2.984,2.894,2.894,0,0,1-1.3,2.456,5.618,5.618,0,0,1-3.363.938,5.867,5.867,0,0,1-2.476-.5,4.155,4.155,0,0,1-1.7-1.364,3.169,3.169,0,0,1-.615-1.871h2.81a1.547,1.547,0,0,0,.584,1.21,2.318,2.318,0,0,0,1.456.42,2.146,2.146,0,0,0,1.287-.323A1,1,0,0,0,94.49,18.934Zm18.642-.01h-5.394L106.712,22h-3.271L109,7.07h2.851L117.438,22h-3.271Zm-4.563-2.492H112.3l-1.876-5.588Zm13.34,3.1h6.532V22h-9.608V7.07h3.076ZM133.28,16.74V22H130.2V7.07h5.824a6.738,6.738,0,0,1,2.958.615,4.534,4.534,0,0,1,1.964,1.748,4.875,4.875,0,0,1,.687,2.579,4.287,4.287,0,0,1-1.5,3.461,6.257,6.257,0,0,1-4.158,1.266Zm0-2.492h2.748a2.7,2.7,0,0,0,1.861-.574,2.088,2.088,0,0,0,.641-1.641,2.463,2.463,0,0,0-.646-1.774,2.413,2.413,0,0,0-1.784-.7h-2.82Z" transform="translate(543 13804.205)" fill="#12263f"/>
    <path id="Trazado_881855" data-name="Trazado 881855" d="M.677,16.371a6.686,6.686,0,0,1,1.164-4.132A3.776,3.776,0,0,1,5.024,10.7,3.4,3.4,0,0,1,7.7,11.91V6.25h2.974V22H8l-.144-1.179A3.487,3.487,0,0,1,5,22.205a3.766,3.766,0,0,1-3.143-1.543A6.9,6.9,0,0,1,.677,16.371Zm2.963.215a4.368,4.368,0,0,0,.543,2.389,1.771,1.771,0,0,0,1.579.831A1.983,1.983,0,0,0,7.7,18.647V14.269A1.955,1.955,0,0,0,5.783,13.11Q3.64,13.11,3.64,16.586Zm14.438,5.619a5.447,5.447,0,0,1-3.973-1.5,5.321,5.321,0,0,1-1.533-3.989v-.287a6.7,6.7,0,0,1,.646-2.989,4.741,4.741,0,0,1,1.83-2.03,5.137,5.137,0,0,1,2.7-.713,4.6,4.6,0,0,1,3.584,1.436,5.833,5.833,0,0,1,1.307,4.071v1.21H15.576a2.753,2.753,0,0,0,.866,1.743,2.619,2.619,0,0,0,1.83.656,3.2,3.2,0,0,0,2.676-1.241l1.456,1.63a4.449,4.449,0,0,1-1.8,1.471A5.921,5.921,0,0,1,18.078,22.205ZM17.739,13.1a1.856,1.856,0,0,0-1.43.595,3.073,3.073,0,0,0-.7,1.7h4.122v-.236a2.191,2.191,0,0,0-.533-1.523A1.915,1.915,0,0,0,17.739,13.1ZM27.1,10.905l.092,1.241A3.9,3.9,0,0,1,30.382,10.7a2.959,2.959,0,0,1,2.943,1.692A3.809,3.809,0,0,1,36.658,10.7a3.309,3.309,0,0,1,2.687,1.051,4.831,4.831,0,0,1,.882,3.163V22H37.252V14.925a2.113,2.113,0,0,0-.369-1.379,1.636,1.636,0,0,0-1.3-.436,1.85,1.85,0,0,0-1.846,1.271L33.746,22H30.782V14.935a2.087,2.087,0,0,0-.379-1.395,1.652,1.652,0,0,0-1.292-.431,1.92,1.92,0,0,0-1.825,1.046V22H24.322V10.905Zm14.94,5.445a6.58,6.58,0,0,1,.636-2.943,4.654,4.654,0,0,1,1.83-2,5.34,5.34,0,0,1,2.774-.708,5.052,5.052,0,0,1,3.666,1.374,5.514,5.514,0,0,1,1.584,3.732l.021.759a5.8,5.8,0,0,1-1.425,4.1,5.524,5.524,0,0,1-7.655.005,5.9,5.9,0,0,1-1.43-4.184ZM45,16.565A4.136,4.136,0,0,0,45.6,18.98a2.139,2.139,0,0,0,3.384.01,4.526,4.526,0,0,0,.6-2.64,4.1,4.1,0,0,0-.6-2.4,1.968,1.968,0,0,0-1.7-.851,1.935,1.935,0,0,0-1.682.846A4.6,4.6,0,0,0,45,16.565Zm15.381,2.369a.955.955,0,0,0-.538-.856,6.115,6.115,0,0,0-1.728-.559q-3.958-.831-3.958-3.363a3.049,3.049,0,0,1,1.225-2.466,4.943,4.943,0,0,1,3.2-.99,5.32,5.32,0,0,1,3.379.995,3.135,3.135,0,0,1,1.266,2.584H60.272a1.434,1.434,0,0,0-.41-1.051,1.736,1.736,0,0,0-1.282-.415,1.774,1.774,0,0,0-1.159.338,1.068,1.068,0,0,0-.41.861.913.913,0,0,0,.467.795,4.8,4.8,0,0,0,1.574.523,12.856,12.856,0,0,1,1.866.5,3.066,3.066,0,0,1,2.348,2.984,2.894,2.894,0,0,1-1.3,2.456,5.618,5.618,0,0,1-3.363.938,5.867,5.867,0,0,1-2.476-.5,4.155,4.155,0,0,1-1.7-1.364,3.169,3.169,0,0,1-.615-1.871h2.81a1.547,1.547,0,0,0,.584,1.21,2.318,2.318,0,0,0,1.456.42,2.146,2.146,0,0,0,1.287-.323A1,1,0,0,0,60.385,18.934ZM68.722,8.178v2.728h1.9v2.174h-1.9v5.537a1.322,1.322,0,0,0,.236.882,1.184,1.184,0,0,0,.9.267,4.726,4.726,0,0,0,.872-.072v2.246a6.1,6.1,0,0,1-1.794.267q-3.117,0-3.179-3.148V13.079h-1.62V10.905h1.62V8.178ZM78.5,13.684a8.051,8.051,0,0,0-1.066-.082,2.171,2.171,0,0,0-2.2,1.138V22H72.27V10.905h2.8l.082,1.323A2.746,2.746,0,0,1,77.622,10.7a3.105,3.105,0,0,1,.923.133ZM86.051,22a3.291,3.291,0,0,1-.3-.995,3.586,3.586,0,0,1-2.8,1.2,3.939,3.939,0,0,1-2.7-.943,3.034,3.034,0,0,1-1.072-2.379,3.135,3.135,0,0,1,1.307-2.707,6.451,6.451,0,0,1,3.779-.954H85.63v-.636a1.828,1.828,0,0,0-.395-1.23,1.553,1.553,0,0,0-1.246-.461,1.766,1.766,0,0,0-1.174.359,1.219,1.219,0,0,0-.426.984H79.427a2.977,2.977,0,0,1,.595-1.784A3.931,3.931,0,0,1,81.7,11.167a6.129,6.129,0,0,1,2.44-.467A4.842,4.842,0,0,1,87.4,11.731a3.605,3.605,0,0,1,1.2,2.9v4.809a5.3,5.3,0,0,0,.441,2.389V22ZM83.6,19.939a2.552,2.552,0,0,0,1.21-.292,1.919,1.919,0,0,0,.82-.784V16.955H84.523q-2.225,0-2.369,1.538l-.01.174a1.186,1.186,0,0,0,.39.913A1.514,1.514,0,0,0,83.6,19.939Zm11.895-.123a1.944,1.944,0,0,0,1.333-.451,1.581,1.581,0,0,0,.533-1.2h2.779a3.8,3.8,0,0,1-.615,2.066,4.06,4.06,0,0,1-1.656,1.456,5.183,5.183,0,0,1-2.323.518,4.817,4.817,0,0,1-3.753-1.512,5.985,5.985,0,0,1-1.374-4.178v-.195a5.917,5.917,0,0,1,1.364-4.091A4.761,4.761,0,0,1,95.525,10.7a4.667,4.667,0,0,1,3.338,1.184,4.193,4.193,0,0,1,1.277,3.153H97.361a2.02,2.02,0,0,0-.533-1.4,1.986,1.986,0,0,0-2.917.215,4.363,4.363,0,0,0-.528,2.446v.308a4.418,4.418,0,0,0,.523,2.461A1.808,1.808,0,0,0,95.495,19.816ZM104.959,22h-2.974V10.905h2.974ZM101.811,8.034a1.459,1.459,0,0,1,.446-1.1,1.922,1.922,0,0,1,2.425,0,1.451,1.451,0,0,1,.451,1.1,1.455,1.455,0,0,1-.456,1.107,1.9,1.9,0,0,1-2.41,0A1.455,1.455,0,0,1,101.811,8.034Zm5.127,8.316a6.58,6.58,0,0,1,.636-2.943,4.654,4.654,0,0,1,1.83-2,5.34,5.34,0,0,1,2.774-.708,5.052,5.052,0,0,1,3.666,1.374,5.514,5.514,0,0,1,1.584,3.732l.021.759a5.8,5.8,0,0,1-1.425,4.1,5.524,5.524,0,0,1-7.655.005,5.9,5.9,0,0,1-1.43-4.184Zm2.963.215a4.136,4.136,0,0,0,.595,2.415,2.139,2.139,0,0,0,3.384.01,4.526,4.526,0,0,0,.6-2.64,4.1,4.1,0,0,0-.6-2.4,1.968,1.968,0,0,0-1.7-.851,1.935,1.935,0,0,0-1.682.846A4.6,4.6,0,0,0,109.9,16.565ZM112.762,6.25h3.23l-2.84,3.179h-2.41ZM122,10.905l.092,1.282a3.874,3.874,0,0,1,3.189-1.487,3.219,3.219,0,0,1,2.625,1.036,4.832,4.832,0,0,1,.882,3.1V22h-2.963V14.9a1.923,1.923,0,0,0-.41-1.369,1.836,1.836,0,0,0-1.364-.426,2.039,2.039,0,0,0-1.876,1.066V22h-2.963V10.905Z" transform="translate(890 14076.205)" fill="#12263f"/>
  </g>
</svg>
