<svg xmlns="http://www.w3.org/2000/svg" width="107.516" height="98" viewBox="0 0 107.516 98">
  <g id="Grupo_1103835" data-name="Grupo 1103835" transform="translate(-756 -877)">
    <path id="Rectángulo_401003" data-name="Rectángulo 401003" d="M59,0H89a0,0,0,0,1,0,0V91a0,0,0,0,1,0,0H0a0,0,0,0,1,0,0V59A59,59,0,0,1,59,0Z" transform="translate(756 877)" fill="#fff"/>
    <g id="pista-2" transform="translate(783.436 894.921)">
      <g id="Layer_2">
        <g id="Grupo_1101954" data-name="Grupo 1101954">
          <g id="Grupo_1101952" data-name="Grupo 1101952">
            <g id="Grupo_1101950" data-name="Grupo 1101950" transform="translate(1.251 1.251)">
              <circle id="Elipse_11827" data-name="Elipse 11827" cx="39" cy="39" r="39" transform="translate(-0.089 -0.172)" fill="#fff"/>
            </g>
            <g id="Grupo_1101951" data-name="Grupo 1101951">
              <path id="Trazado_877339" data-name="Trazado 877339" d="M40.04,2.5A37.537,37.537,0,1,1,2.5,40.04,37.58,37.58,0,0,1,40.04,2.5m0-2.5a40.04,40.04,0,1,0,40.04,40.04A40.04,40.04,0,0,0,40.04,0Z"/>
            </g>
          </g>
          <g id="Grupo_1101953" data-name="Grupo 1101953" transform="translate(5.553 5.553)">
            <circle id="Elipse_11828" data-name="Elipse 11828" cx="34.487" cy="34.487" r="34.487" fill="#fc0"/>
          </g>
        </g>
      </g>
      <g id="Number-Icons_copy_6" transform="translate(31.178 21.374)">
        <g id="Grupo_1101957" data-name="Grupo 1101957">
          <g id="Grupo_1101956" data-name="Grupo 1101956">
            <g id="Grupo_1101955" data-name="Grupo 1101955">
              <path id="Trazado_877340" data-name="Trazado 877340" d="M24.918,51.121l8.168-15.729c2.989-5.743,3.639-8.319,3.639-10.249,0-3.034-1.084-3.986-3.184-3.986-2.535,0-3.617,2.188-3.617,6.089v2.1H25.589A22.327,22.327,0,0,1,25,24.926c0-3.749,2.535-7.844,8.536-7.844,6.456,0,9.1,3.1,9.1,8.385,0,3.012-1.04,5.589-3.986,10.659l-7.3,13.866H42.165v4.421H24.918Z" transform="translate(-24.918 -17.082)" fill="#231f20"/>
            </g>
          </g>
        </g>
      </g>
    </g>
  </g>
</svg>
