<svg xmlns="http://www.w3.org/2000/svg" width="101" height="101" viewBox="0 0 101 101">
  <g id="Grupo_1103835" data-name="Grupo 1103835" transform="translate(-782.5 -2173.102)">
    <g id="Grupo_1102276" data-name="Grupo 1102276" transform="translate(33.5 424.102)">
      <rect id="Rectángulo_26083" data-name="Rectángulo 26083" width="101" height="101" transform="translate(749 1749)" fill="none"/>
      <g id="idea" transform="translate(757.21 1756.812)">
        <path id="Trazado_128245" data-name="Trazado 128245" d="M187.587,316.241H124.654a1.249,1.249,0,0,1-1.249-1.249V312.8a1.249,1.249,0,0,1,1.249-1.25h62.933a1.249,1.249,0,0,1,1.249,1.25v2.194A1.249,1.249,0,0,1,187.587,316.241Z" transform="translate(-102.217 -258.058)" fill="#75baf1"/>
        <path id="Trazado_128246" data-name="Trazado 128246" d="M481.614,311.55h-3.236a1.249,1.249,0,0,1,1.249,1.249v2.194a1.249,1.249,0,0,1-1.249,1.249h3.236a1.249,1.249,0,0,0,1.249-1.249V312.8A1.249,1.249,0,0,0,481.614,311.55Z" transform="translate(-396.243 -258.059)" fill="#2b4d66"/>
        <path id="Trazado_128247" data-name="Trazado 128247" d="M151.228,34.83h55.878V82.341H151.228Z" transform="translate(-125.263 -28.85)" fill="#f9f6f9"/>
        <path id="Trazado_128248" data-name="Trazado 128248" d="M151.228,34.83h55.878v2.861H151.228Z" transform="translate(-125.263 -28.85)" fill="#dddaec"/>
        <path id="Trazado_128249" data-name="Trazado 128249" d="M151.228,294.885h55.878v2.861H151.228Z" transform="translate(-125.263 -244.255)" fill="#dddaec"/>
        <path id="Trazado_128250" data-name="Trazado 128250" d="M187.587,12.192H124.654a1.249,1.249,0,0,1-1.249-1.249V8.749A1.249,1.249,0,0,1,124.654,7.5h62.933a1.249,1.249,0,0,1,1.249,1.249v2.194A1.249,1.249,0,0,1,187.587,12.192Z" transform="translate(-102.217 -6.212)" fill="#75baf1"/>
        <path id="Trazado_128251" data-name="Trazado 128251" d="M481.614,7.5h-3.236a1.249,1.249,0,0,1,1.249,1.249v2.194a1.249,1.249,0,0,1-1.249,1.249h3.236a1.249,1.249,0,0,0,1.249-1.249V8.749A1.249,1.249,0,0,0,481.614,7.5Z" transform="translate(-396.243 -6.212)" fill="#2b4d66"/>
        <path id="Trazado_128252" data-name="Trazado 128252" d="M31.23,333.124H15.652A11.781,11.781,0,0,0,7.5,344.33v18.218H39.381V344.33a11.781,11.781,0,0,0-8.152-11.206Z" transform="translate(-6.212 -275.928)" fill="#f9ce24"/>
        <path id="Trazado_128253" data-name="Trazado 128253" d="M126.033,333.124h-4.079a11.781,11.781,0,0,1,8.152,11.206v18.218h4.079V344.33A11.781,11.781,0,0,0,126.033,333.124Z" transform="translate(-101.015 -275.928)" fill="#c09a23"/>
        <path id="Trazado_128254" data-name="Trazado 128254" d="M82.461,419.4H73.108l2.284-17.64h4.785Z" transform="translate(-60.556 -332.781)" fill="#be79ca"/>
        <path id="Trazado_128255" data-name="Trazado 128255" d="M89.068,401.761H84.283l-.441,3.4,1.518,1.518a1.86,1.86,0,0,0,2.63,0l1.518-1.518Z" transform="translate(-69.447 -332.781)" fill="#6e3dc6"/>
        <path id="Trazado_128256" data-name="Trazado 128256" d="M86.446,381.685l-2.9,2.9a1.039,1.039,0,0,1-1.47,0l-2.9-2.9,3.634-3.634Z" transform="translate(-65.584 -313.142)" fill="#dddaec"/>
        <path id="Trazado_128257" data-name="Trazado 128257" d="M73.053,343.712,78.71,334.6H67.4Z" transform="translate(-55.824 -277.152)" fill="#ffcbbe"/>
        <path id="Trazado_128258" data-name="Trazado 128258" d="M33.723,335.173l7.4,9.838,4.038-2.42L39.5,333.479l-2.194-.232A11.759,11.759,0,0,0,33.723,335.173Z" transform="translate(-27.933 -276.03)" fill="#f9f6f9"/>
        <path id="Trazado_128259" data-name="Trazado 128259" d="M111.781,335.173a11.756,11.756,0,0,0-3.588-1.925L106,333.48l-5.657,9.111,4.038,2.42Z" transform="translate(-83.115 -276.031)" fill="#f9f6f9"/>
        <path id="Trazado_128260" data-name="Trazado 128260" d="M135.973,337.558l1.794-2.385a11.755,11.755,0,0,0-3.588-1.925l-2.194.232-.271.436A11.825,11.825,0,0,1,135.973,337.558Z" transform="translate(-109.099 -276.031)" fill="#dddaec"/>
        <path id="Trazado_128261" data-name="Trazado 128261" d="M35.652,170.709H11.4a2.3,2.3,0,0,1-2.283-2.023l-1.45-11.972a8.764,8.764,0,0,1,8.7-9.817H30.685a8.764,8.764,0,0,1,8.7,9.818l-1.45,11.972a2.3,2.3,0,0,1-2.283,2.023Z" transform="translate(-6.299 -121.676)" fill="#365e7d"/>
        <path id="Trazado_128262" data-name="Trazado 128262" d="M123.838,146.9h-3.772a8.764,8.764,0,0,1,8.7,9.818l-1.45,11.972a2.3,2.3,0,0,1-2.283,2.023H128.8a2.3,2.3,0,0,0,2.283-2.023l1.45-11.972A8.764,8.764,0,0,0,123.838,146.9Z" transform="translate(-99.451 -121.676)" fill="#2b4d66"/>
        <path id="Trazado_128263" data-name="Trazado 128263" d="M47.26,241.06a11,11,0,0,1-11-11v-9.126a.515.515,0,0,1,.553-.512c5.066.352,10.626-.25,13.5-2.251a.509.509,0,0,1,.623.03,8.552,8.552,0,0,0,6.772,2.24.515.515,0,0,1,.561.511v9.109A11,11,0,0,1,47.26,241.06Z" transform="translate(-30.032 -180.633)" fill="#ffddce"/>
        <path id="Trazado_128264" data-name="Trazado 128264" d="M98.4,230.324V240.2a11,11,0,0,1-9.106,10.837A10.995,10.995,0,0,0,102.2,240.2v-9.109a.515.515,0,0,0-.562-.511A9.122,9.122,0,0,1,98.4,230.324Z" transform="translate(-73.964 -190.779)" fill="#ffcbbe"/>
        <g id="Grupo_88586" data-name="Grupo 88586" transform="translate(44.983 18.566)">
          <path id="Trazado_128265" data-name="Trazado 128265" d="M279.837,117.057a8.921,8.921,0,1,0-14.261,7.144,2.84,2.84,0,0,1,1.157,2.269v1.271H275.1v-1.23a2.9,2.9,0,0,1,1.166-2.316A8.9,8.9,0,0,0,279.837,117.057Z" transform="translate(-261.996 -108.136)" fill="#f9ce24"/>
          <path id="Trazado_128266" data-name="Trazado 128266" d="M303.6,108.146a8.8,8.8,0,0,0-1.636.231,8.919,8.919,0,0,1,3.294,15.818,2.9,2.9,0,0,0-1.166,2.316v1.23h4.113v-1.23a2.9,2.9,0,0,1,1.166-2.316,8.92,8.92,0,0,0-5.771-16.049Z" transform="translate(-295.105 -108.136)" fill="#c09a23"/>
          <path id="Trazado_128267" data-name="Trazado 128267" d="M291.641,222.321H279.973v4.808a5.834,5.834,0,1,0,11.668,0Z" transform="translate(-276.886 -202.716)" fill="#f9ce24"/>
          <path id="Trazado_128268" data-name="Trazado 128268" d="M308.744,222.32v4.808a5.835,5.835,0,0,1-4.216,5.6,5.834,5.834,0,0,0,7.452-5.605V222.32h-3.236Z" transform="translate(-297.226 -202.715)" fill="#c09a23"/>
        </g>
        <g id="Grupo_88587" data-name="Grupo 88587" transform="translate(0 0)">
          <path id="Trazado_128269" data-name="Trazado 128269" d="M138.858,425.479a1.288,1.288,0,1,0,0,2.575h4.182a1.288,1.288,0,1,0,0-2.575Z" transform="translate(-113.95 -352.427)"/>
          <path id="Trazado_128270" data-name="Trazado 128270" d="M67.254,267.857a1.287,1.287,0,0,0-1.288,1.288v.616a1.288,1.288,0,1,0,2.575,0v-.616A1.288,1.288,0,0,0,67.254,267.857Z" transform="translate(-54.64 -221.867)"/>
          <path id="Trazado_128271" data-name="Trazado 128271" d="M121.01,271.048a1.288,1.288,0,0,0,1.288-1.288v-.616a1.288,1.288,0,0,0-2.575,0v.616A1.288,1.288,0,0,0,121.01,271.048Z" transform="translate(-99.166 -221.867)"/>
          <path id="Trazado_128272" data-name="Trazado 128272" d="M87.576,304.323a1.288,1.288,0,1,0-1.561-2.049,1.718,1.718,0,0,1-2.318-.031,1.288,1.288,0,0,0-1.475,2.111,4.706,4.706,0,0,0,2.7.929A4.348,4.348,0,0,0,87.576,304.323Z" transform="translate(-67.648 -250.157)"/>
          <path id="Trazado_128273" data-name="Trazado 128273" d="M85.371,7.268a2.54,2.54,0,0,0,2.537-2.537V2.537A2.54,2.54,0,0,0,85.371,0H38.245a1.288,1.288,0,1,0,0,2.575H85.332V4.692H22.476V2.575H33.1A1.288,1.288,0,0,0,33.1,0H22.437A2.54,2.54,0,0,0,19.9,2.537V4.731a2.54,2.54,0,0,0,2.537,2.537h2.24V23.941c-.1,0-.194-.008-.291-.008H16.515a1.287,1.287,0,0,0-2.206-1.147l-.235.257-.257-.472A1.288,1.288,0,0,0,11.554,23.8l.071.13H10.07A10.051,10.051,0,0,0,.092,35.194l1.45,11.972a3.588,3.588,0,0,0,3.431,3.15A12.218,12.218,0,0,0,7.31,56.672,13.023,13.023,0,0,0,0,68.4v6.824a1.288,1.288,0,1,0,2.575,0V68.4A10.466,10.466,0,0,1,5.6,61.027l6.565,8.727a1.287,1.287,0,0,0,1.03.514,1.265,1.265,0,0,0,.181-.014L11.42,85.332H2.575V80.374a1.288,1.288,0,1,0-2.575,0V86.62a1.288,1.288,0,0,0,1.288,1.288H33.169a1.288,1.288,0,0,0,1.288-1.288V68.4a13.036,13.036,0,0,0-3.518-8.93h42.69a1.288,1.288,0,0,0,0-2.575H27.584q-.216-.116-.437-.224a12.3,12.3,0,0,0,1.143-1.893H85.332V56.9H78.777a1.288,1.288,0,1,0,0,2.575H85.37a2.54,2.54,0,0,0,2.537-2.537V54.741A2.54,2.54,0,0,0,85.37,52.2H83.13V7.268ZM4.1,46.856,2.649,34.884a7.476,7.476,0,0,1,7.422-8.375H24.386a7.476,7.476,0,0,1,7.422,8.375l-1.45,11.972a1.012,1.012,0,0,1-.838.875V40.315a1.8,1.8,0,0,0-1.958-1.794,7.218,7.218,0,0,1-5.826-1.935,1.8,1.8,0,0,0-2.2-.109c-2.3,1.6-7.276,2.4-12.672,2.023a1.8,1.8,0,0,0-1.93,1.8v7.434A1.012,1.012,0,0,1,4.1,46.856ZM15.793,68.921l1.435-.86,1.435.86-1.435,1.435Zm-8.281-19.5v-8.3c4,.2,9.575-.152,13-2.2a9.58,9.58,0,0,0,6.434,2.216v8.294a9.716,9.716,0,0,1-19.431,0Zm9.716,12.291a12.339,12.339,0,0,0,1.556-.1l-1.556,2.506-1.556-2.506A12.306,12.306,0,0,0,17.229,61.715Zm3.706,5.565-1.922-1.152,3.476-5.6a12.329,12.329,0,0,0,2.821-1.857,10.425,10.425,0,0,1,1.526.762ZM7.622,59.435a10.416,10.416,0,0,1,1.526-.762,12.33,12.33,0,0,0,2.821,1.857l3.476,5.6L13.523,67.28Zm8.063,13.011a2.319,2.319,0,0,0,3.086,0L20.44,85.332H14.017Zm16.2,12.886H23.037L21.084,70.254a1.28,1.28,0,0,0,1.211-.5l6.565-8.727A10.465,10.465,0,0,1,31.882,68.4ZM80.555,52.2H29.2a12.25,12.25,0,0,0,.285-1.888,3.588,3.588,0,0,0,3.431-3.15l1.45-11.972a10.041,10.041,0,0,0-7.112-10.839V7.268h53.3V52.2Z" transform="translate(0 0)"/>
          <path id="Trazado_128274" data-name="Trazado 128274" d="M258.592,119.019a1.546,1.546,0,0,1,.64,1.221h-.362a1.288,1.288,0,0,0-1.288,1.288v4.808a7.122,7.122,0,1,0,14.244,0v-4.808a1.288,1.288,0,0,0-1.288-1.288h-.36a1.62,1.62,0,0,1,.647-1.228,10.208,10.208,0,0,0-6.6-18.366,10.208,10.208,0,0,0-5.631,18.372Zm10.659,7.317a4.546,4.546,0,1,1-9.093,0v-3.521h9.093v3.521Zm-12.173-15.812a7.633,7.633,0,0,1,15.26.32,7.574,7.574,0,0,1-3.057,6.108,4.209,4.209,0,0,0-1.68,3.288h-1.608v-5.95a1.288,1.288,0,1,0-2.575,0v5.95h-1.608a4.153,4.153,0,0,0-1.673-3.283A7.645,7.645,0,0,1,257.078,110.524Z" transform="translate(-210.8 -83.357)"/>
          <path id="Trazado_128275" data-name="Trazado 128275" d="M302.543,245.814h-2.718a1.288,1.288,0,1,0,0,2.575h2.718a1.288,1.288,0,1,0,0-2.575Z" transform="translate(-247.28 -203.609)"/>
          <path id="Trazado_128276" data-name="Trazado 128276" d="M307.741,55.508a1.287,1.287,0,0,0,1.288-1.288v-4.1a1.288,1.288,0,1,0-2.575,0v4.1A1.288,1.288,0,0,0,307.741,55.508Z" transform="translate(-253.837 -40.447)"/>
          <path id="Trazado_128277" data-name="Trazado 128277" d="M365.072,84.3l2.9-2.9a1.288,1.288,0,0,0-1.821-1.821l-2.9,2.9a1.288,1.288,0,0,0,1.821,1.821Z" transform="translate(-300.57 -65.601)"/>
          <path id="Trazado_128278" data-name="Trazado 128278" d="M236.418,84.3a1.288,1.288,0,1,0,1.821-1.821l-2.9-2.9a1.288,1.288,0,1,0-1.821,1.821Z" transform="translate(-193.111 -65.601)"/>
          <path id="Trazado_128279" data-name="Trazado 128279" d="M204.062,155.086h4.1a1.288,1.288,0,1,0,0-2.575h-4.1a1.288,1.288,0,0,0,0,2.575Z" transform="translate(-167.959 -126.326)"/>
          <path id="Trazado_128280" data-name="Trazado 128280" d="M386.243,153.8a1.288,1.288,0,0,0,1.288,1.288h4.1a1.288,1.288,0,1,0,0-2.575h-4.1A1.288,1.288,0,0,0,386.243,153.8Z" transform="translate(-319.927 -126.326)"/>
        </g>
      </g>
    </g>
  </g>
</svg>
