<svg xmlns="http://www.w3.org/2000/svg" width="101" height="101" viewBox="0 0 101 101">
  <g id="Grupo_1103836" data-name="Grupo 1103836" transform="translate(-783 -2495)">
    <g id="Grupo_1102309" data-name="Grupo 1102309" transform="translate(34 746)">
      <rect id="Rectángulo_26083" data-name="Rectángulo 26083" width="101" height="101" transform="translate(749 1749)" fill="none"/>
      <g id="Layer_22" data-name="Layer 22" transform="translate(758.002 1756.861)">
        <path id="Trazado_128281" data-name="Trazado 128281" d="M36.676,32.189V27H31.487v5.189a2.6,2.6,0,0,1-2.595,2.595H25v5.189H43.163V34.784H39.271A2.6,2.6,0,0,1,36.676,32.189Z" transform="translate(7.434 8.029)" fill="#ffd3b6"/>
        <path id="Trazado_128282" data-name="Trazado 128282" d="M30,31.89a11.383,11.383,0,0,0,5.189,0V27H30Z" transform="translate(8.921 8.029)" fill="#f9b995"/>
        <path id="Trazado_128283" data-name="Trazado 128283" d="M25,35H43.163v2.595H25Z" transform="translate(7.434 10.408)" fill="#f9b995"/>
        <path id="Trazado_128284" data-name="Trazado 128284" d="M59.11,43.379v5.189H15V43.379A10.379,10.379,0,0,1,25.379,33H30.7a6.487,6.487,0,0,0,12.714,0h5.319A10.379,10.379,0,0,1,59.11,43.379Z" transform="translate(4.46 9.813)" fill="#be79ca"/>
        <path id="Trazado_128285" data-name="Trazado 128285" d="M23,11H46.353V22.676a11.676,11.676,0,0,1-23.353,0Z" transform="translate(6.839 3.271)" fill="#ffd3b6"/>
        <path id="Trazado_128286" data-name="Trazado 128286" d="M15,47.974H59.11V42.785A10.344,10.344,0,0,0,55.579,35H42.219a6.435,6.435,0,0,1-10.327,0H18.529A10.343,10.343,0,0,0,15,42.785Z" transform="translate(4.46 10.407)" fill="#6e3dc6"/>
        <path id="Trazado_128287" data-name="Trazado 128287" d="M26.892,22.676V11H23V22.676a11.613,11.613,0,0,0,13.622,11.5A11.67,11.67,0,0,1,26.892,22.676Z" transform="translate(6.839 3.271)" fill="#f9b995"/>
        <path id="Trazado_128288" data-name="Trazado 128288" d="M22.595,15h1.3v5.189h-1.3a2.595,2.595,0,1,1,0-5.189Z" transform="translate(5.947 4.46)" fill="#f9b995"/>
        <path id="Trazado_128289" data-name="Trazado 128289" d="M2.595,0h1.3V5.189h-1.3A2.595,2.595,0,0,1,2.595,0Z" transform="translate(57.084 24.65) rotate(180)" fill="#ffd3b6"/>
        <path id="Trazado_128290" data-name="Trazado 128290" d="M34.676,1A11.676,11.676,0,0,0,23,12.676v6.487H36.2a2.594,2.594,0,0,0,1.834-.76l1.835-1.835L41.7,18.4a2.6,2.6,0,0,0,1.834.76h2.818V12.676A11.676,11.676,0,0,0,34.676,1Z" transform="translate(6.839 0.297)" fill="#7a838b"/>
        <path id="Trazado_128291" data-name="Trazado 128291" d="M36.622,1.175A11.613,11.613,0,0,0,23,12.676v6.487h3.892V12.676a11.67,11.67,0,0,1,9.73-11.5Z" transform="translate(6.839 0.297)" fill="#5d6972"/>
        <path id="Trazado_128292" data-name="Trazado 128292" d="M1,57H81.437v7.784H1Z" transform="translate(0.297 16.95)" fill="#f9ce24"/>
        <path id="Trazado_128293" data-name="Trazado 128293" d="M59,37H16.035a2.595,2.595,0,0,0-2.545,3.1l4.152,20.758a2.6,2.6,0,0,0,2.545,2.086H54.852A2.6,2.6,0,0,0,57.4,60.861L61.549,40.1A2.595,2.595,0,0,0,59,37Z" transform="translate(3.996 11.002)" fill="#7a838b"/>
        <path id="Trazado_128294" data-name="Trazado 128294" d="M57.447,59.055H24.908a5.189,5.189,0,0,1-5.088-4.172L16.243,37h-.208a2.595,2.595,0,0,0-2.545,3.1l4.152,20.758a2.6,2.6,0,0,0,2.545,2.086H54.852A2.6,2.6,0,0,0,57.4,60.861l.366-1.833a2.537,2.537,0,0,1-.317.027Z" transform="translate(3.996 11.002)" fill="#5d6972"/>
        <ellipse id="Elipse_4365" data-name="Elipse 4365" cx="5" cy="5.5" rx="5" ry="5.5" transform="translate(35.998 55.139)" fill="#f8c460"/>
        <path id="Trazado_128295" data-name="Trazado 128295" d="M48.189,20.189v5.634a5.19,5.19,0,0,1-1.521,3.67L43,33.163H63.758a5.189,5.189,0,0,0,5.189-5.189V20.189A5.189,5.189,0,0,0,63.758,15H53.379A5.189,5.189,0,0,0,48.189,20.189Z" transform="translate(12.787 4.46)" fill="#f9ce24"/>
        <path id="Trazado_128296" data-name="Trazado 128296" d="M52.082,24.04v-8.9a5.178,5.178,0,0,0-3.892,5.007v5.634a5.19,5.19,0,0,1-1.521,3.67L43,33.121H63.758a5.179,5.179,0,0,0,5.007-3.892H57.271A5.189,5.189,0,0,1,52.082,24.04Z" transform="translate(12.787 4.502)" fill="#c09a23"/>
        <path id="Trazado_128297" data-name="Trazado 128297" d="M21.758,20.189v5.634a5.19,5.19,0,0,0,1.521,3.67l3.669,3.669H6.189A5.189,5.189,0,0,1,1,27.974V20.189A5.189,5.189,0,0,1,6.189,15H16.568A5.189,5.189,0,0,1,21.758,20.189Z" transform="translate(0.297 4.46)" fill="#f9ce24"/>
        <path id="Trazado_128298" data-name="Trazado 128298" d="M23.1,29.239H10.082a5.189,5.189,0,0,1-5.189-5.189V16.265a5.156,5.156,0,0,1,.14-1.157A5.189,5.189,0,0,0,1,20.157v7.784a5.189,5.189,0,0,0,5.189,5.189H26.947l-3.669-3.669C23.21,29.393,23.159,29.31,23.1,29.239Z" transform="translate(0.297 4.493)" fill="#c09a23"/>
        <path id="Trazado_128299" data-name="Trazado 128299" d="M36.3,20.892a1.3,1.3,0,0,0,1.3-1.3V18.3A1.3,1.3,0,0,0,35,18.3v1.3A1.3,1.3,0,0,0,36.3,20.892Z" transform="translate(10.408 5.055)"/>
        <path id="Trazado_128300" data-name="Trazado 128300" d="M28.3,17A1.3,1.3,0,0,0,27,18.3v1.3a1.3,1.3,0,0,0,2.595,0V18.3A1.3,1.3,0,0,0,28.3,17Z" transform="translate(8.029 5.055)"/>
        <path id="Trazado_128301" data-name="Trazado 128301" d="M81.734,72.652H62.51a3.876,3.876,0,0,0,.156-.533l4.152-20.758A3.892,3.892,0,0,0,63,46.705h-.13a11.7,11.7,0,0,0-9.68-5.189H46.705a1.3,1.3,0,0,1-1.3-1.3v-1.9a12.994,12.994,0,0,0,9.082-12.376,3.892,3.892,0,1,0,0-7.784V12.974a12.974,12.974,0,1,0-25.947,0v5.189a3.892,3.892,0,0,0,0,7.784,12.994,12.994,0,0,0,9.082,12.376v1.9a1.3,1.3,0,0,1-1.3,1.3H29.839a11.7,11.7,0,0,0-9.68,5.189h-.13a3.892,3.892,0,0,0-3.813,4.656l4.152,20.758a3.876,3.876,0,0,0,.156.533H1.3A1.3,1.3,0,0,0,0,73.95v7.784a1.3,1.3,0,0,0,1.3,1.3H81.734a1.3,1.3,0,0,0,1.3-1.3V73.95A1.3,1.3,0,0,0,81.734,72.652Zm-22.2-25.947H47.3a7.7,7.7,0,0,0,1.533-2.595h4.355a9.113,9.113,0,0,1,6.345,2.595Zm-3.751-24.65a1.3,1.3,0,0,1-1.3,1.3V20.758A1.3,1.3,0,0,1,55.787,22.055Zm-28.542,0a1.3,1.3,0,0,1,1.3-1.3v2.595A1.3,1.3,0,0,1,27.245,22.055Zm3.892,3.892V20.758H41.961a6.443,6.443,0,0,0,4.586-1.9l1.076-1.076a1.3,1.3,0,1,0-1.835-1.835l-1.075,1.076a3.918,3.918,0,0,1-2.752,1.139H31.137V12.974a10.379,10.379,0,1,1,20.758,0v5.189H50.375a1.275,1.275,0,0,1-.537-.117,1.3,1.3,0,1,0-1.077,2.361,3.87,3.87,0,0,0,1.614.35h1.519v5.189a10.379,10.379,0,0,1-20.758,0Zm9.082,14.271V38.855a12.753,12.753,0,0,0,2.595,0v1.364a3.892,3.892,0,0,0,3.223,3.825,5.169,5.169,0,0,1-9.04,0,3.892,3.892,0,0,0,3.223-3.825ZM29.839,44.11h4.355a7.7,7.7,0,0,0,1.533,2.595H23.494A9.113,9.113,0,0,1,29.839,44.11Zm-6.929,27.5L18.759,50.857A1.3,1.3,0,0,1,20.03,49.3H63a1.3,1.3,0,0,1,1.271,1.557L60.121,71.614a1.3,1.3,0,0,1-1.273,1.038H24.183a1.3,1.3,0,0,1-1.273-1.038Zm57.526,8.822H2.595V75.247H80.437Z"/>
        <path id="Trazado_128302" data-name="Trazado 128302" d="M33.487,42a6.487,6.487,0,1,0,6.487,6.487A6.487,6.487,0,0,0,33.487,42Zm0,10.379a3.892,3.892,0,1,1,3.892-3.892,3.892,3.892,0,0,1-3.892,3.892Z" transform="translate(8.029 12.489)"/>
        <path id="Trazado_128303" data-name="Trazado 128303" d="M64.055,14H53.676a6.5,6.5,0,0,0-6.487,6.487v5.634a3.918,3.918,0,0,1-1.139,2.752l-3.67,3.67a1.3,1.3,0,0,0,.917,2.215H64.055a6.5,6.5,0,0,0,6.487-6.487V20.487A6.5,6.5,0,0,0,64.055,14Zm3.892,14.271a3.892,3.892,0,0,1-3.892,3.892H46.429l1.456-1.456a6.443,6.443,0,0,0,1.9-4.586V20.487a3.892,3.892,0,0,1,3.892-3.892H64.055a3.892,3.892,0,0,1,3.892,3.892Z" transform="translate(12.489 4.163)"/>
        <ellipse id="Elipse_4366" data-name="Elipse 4366" cx="1" cy="1.5" rx="1" ry="1.5" transform="translate(69.998 27.139)"/>
        <ellipse id="Elipse_4367" data-name="Elipse 4367" cx="1" cy="1.5" rx="1" ry="1.5" transform="translate(64.998 27.139)"/>
        <circle id="Elipse_4368" data-name="Elipse 4368" cx="1.5" cy="1.5" r="1.5" transform="translate(74.998 27.139)"/>
        <path id="Trazado_128304" data-name="Trazado 128304" d="M6.487,34.758H27.245a1.3,1.3,0,0,0,.917-2.215l-3.67-3.67a3.918,3.918,0,0,1-1.139-2.752V20.487A6.5,6.5,0,0,0,16.866,14H6.487A6.5,6.5,0,0,0,0,20.487v7.784a6.5,6.5,0,0,0,6.487,6.487ZM2.595,20.487a3.892,3.892,0,0,1,3.892-3.892H16.866a3.892,3.892,0,0,1,3.892,3.892v5.634a6.443,6.443,0,0,0,1.9,4.586l1.456,1.456H6.487a3.892,3.892,0,0,1-3.892-3.892Z" transform="translate(0 4.163)"/>
        <ellipse id="Elipse_4369" data-name="Elipse 4369" cx="1" cy="1.5" rx="1" ry="1.5" transform="translate(10.998 27.139)"/>
        <circle id="Elipse_4370" data-name="Elipse 4370" cx="1.5" cy="1.5" r="1.5" transform="translate(14.998 27.139)"/>
        <ellipse id="Elipse_4371" data-name="Elipse 4371" cx="2" cy="1.5" rx="2" ry="1.5" transform="translate(3.998 27.139)"/>
      </g>
    </g>
  </g>
</svg>
