<svg xmlns="http://www.w3.org/2000/svg" width="1329.3" height="535.084" viewBox="0 0 1329.3 535.084">
  <path id="Trazado_877373" data-name="Trazado 877373" d="M7355.7,1479.249l.3,378.985h-.3v154.612c-3.4-2.5-6.541-5.184-10.249-7.464-27.771-17.082-53.827-35.673-83.885-50.774-59.6-29.934-125.685-35.089-195.14-15.788q-36.259,10.076-71.565,21.627c-43.56,14.29-88.791,22.782-137.994,20.882-30.795-1.189-57.989-7.507-81.694-20.762-35.479-19.84-60.184-45.543-88.137-69.518-14.812-12.7-29.933-25.352-46.532-37.022-34.138-24-75.609-34.987-126.535-32-54.782,3.217-100.545,15.428-133.615,45.949-27.594,25.468-55.554,50.883-85.981,74.86-49.25,38.812-113.563,51.87-187.941,41.856-26.627-3.584-52.316-10.2-78.435-15.438l-.3-490.009Z" transform="translate(7356.5 2013.833) rotate(180)" fill="#f3f9fd" stroke="rgba(0,0,0,0)" stroke-miterlimit="10" stroke-width="1"/>
</svg>
